<svg xmlns="http://www.w3.org/2000/svg" width="48" height="48"><path fill="#F44336" d="M23.6 24.9c-1-1.6-1.7-3-2.7-5.5-1.7-4.2 10.3-8 5.5-15.4 2 5-7.6 8.2-8.5 12.5-.8 3.9 5.7 8.4 5.8 8.4z"/><path fill="#F44336" d="M23.9 17.3c-.2 2.5 2.2 3.8 2.3 5.7 0 1.5-1.5 2.7-1.5 2.7s2.8-.5 3.6-2.8c1-2.5-1.8-4.3-1.5-6.3.2-2 6-5.6 6-5.6s-8.5.6-9 6.3z"/><g fill="#1565C0"><path d="M32 25c1.8-.3 3.3.8 3.3 2 0 3-4 5.7-4 5.7s6.2-.7 6.2-5.5c0-3.1-3-4-5.4-2.1zm-2.9 2.4s2-1.4 2.5-2c-4.8 1.1-15.7 1.2-15.7.4 0-.8 3.6-1.7 3.6-1.7s-7.8 0-7.8 2.2c0 2.4 10.2 2.6 17.4 1z"/><path d="M28 29.6c-4.6 1.5-12.9 1-10.4-1-1.2 0-3 1-3 1.9 0 1.8 9 3.3 15.6.5L28 29.6z"/><path d="M18.7 32.7c-1.6 0-2.7 1-2.7 1.9 0 2.4 9.8 2.6 13.6.2L27.2 33c-3 1.3-10.2 1.5-8.5-.4z"/><path d="M36.3 36.6c0-.9-1-1.3-1.5-1.6 2.3 5.4-22.3 5-22.3 1.8 0-.7 1.8-1.4 3.5-1l-1.4-.9c-3.3-.5-5.6 1-5.6 2.1 0 5.5 27.3 5.3 27.3-.4z"/><path d="M39 38.6c-4.1 4.1-14.7 5.6-25.2 3 10.5 4.6 25.2 2 25.2-3z"/></g></svg>