<svg xmlns="http://www.w3.org/2000/svg" width="48" height="48"><linearGradient id="a" x1="21.2" x2="25.9" y1="10" y2="33.3" gradientUnits="userSpaceOnUse"><stop offset="0" stop-color="#00b3ba"/><stop offset="1" stop-color="#00979c"/></linearGradient><path fill="url(#a)" d="M36 36c-5 0-9.4-3.9-12-7.7C21.4 32 17 36 12 36a12 12 0 0 1 0-24c6 0 9.9 4.4 12 7.8 2.1-3.4 6-7.8 12-7.8a12 12 0 0 1 0 24zm-9.8-12c1.6 3.6 5.8 8 9.8 8a8 8 0 0 0 0-16c-5.4 0-8.8 6-9.8 8zM12 16a8 8 0 0 0 0 16c4 0 8.2-4.4 9.8-8-1-2-4.4-8-9.8-8zm4 8.5v-1c0-.3-.2-.5-.5-.5h-7c-.3 0-.5.2-.5.5v1c0 .3.2.5.5.5h7c.3 0 .5-.2.5-.5zM39.5 23H37v-2.5c0-.3-.2-.5-.5-.5h-1c-.3 0-.5.2-.5.5V23h-2.5c-.3 0-.5.2-.5.5v1c0 .3.2.5.5.5H35v2.5c0 .3.2.5.5.5h1c.3 0 .5-.2.5-.5V25h2.5c.3 0 .5-.2.5-.5v-1c0-.3-.2-.5-.5-.5z"/></svg>