<svg xmlns="http://www.w3.org/2000/svg" width="48" height="48" fill-rule="evenodd" clip-rule="evenodd"><path fill="#00549d" d="M22.9 3.3c.7-.4 1.5-.4 2.2 0l16.8 9.4c.7.4 1.1 1.1 1.1 1.9v18.8c0 .8-.4 1.5-1.1 1.9l-16.8 9.4c-.7.4-1.5.4-2.2 0L6.1 35.3c-.7-.4-1.1-1.1-1.1-1.9V14.6c0-.8.4-1.5 1.1-1.9l16.8-9.4z"/><path fill="#0086d4" d="M5.3 34.4C5 34 5 33.7 5 33.3V14.5c0-.8.4-1.5 1-1.8l16.8-9.4c.7-.4 1.6-.4 2.3 0l16.7 9.3.7.6L5.3 34.4z"/><path fill="#fff" d="M24 10a14 14 0 1 1 0 28 14 14 0 0 1 0-28zm0 7a7 7 0 1 1 0 14 7 7 0 0 1 0-14z"/><path fill="#0075c0" d="M42.5 13.2c.5.5.5 1.2.5 1.8v18.4c0 .4-.1.8-.3 1.1L23.6 24l18.9-10.8z"/><path fill="#fff" d="M31 21h2v6h-2zm7 0h2v6h-2z"/><path fill="#fff" d="M29 23h6v2h-6zm7 0h6v2h-6z"/></svg>