<svg xmlns="http://www.w3.org/2000/svg" width="48" height="48"><path fill="#0d91d6" d="m24 6-6 6.4-6 6.3L6 25V6z"/><path fill="#f88909" d="m24 6-6 6.3-6 6.4L6 25v17l8.7-8.7 6.2-6.2 6.2-6.2 6.2-6.1L42 6z"/><path fill="#c757bc" d="M14.7 33.3 6 42V25.1z"/><path fill="#d3638f" d="m20.9 27.1-6.2 6.2L6 25.1V25l6-6.3z"/><path fill="#e07063" d="m27.1 20.9-6.2 6.2-8.9-8.4 6-6.3z"/><path fill="#ec7d36" d="m33.3 14.8-6.2 6.1-9.1-8.5L24 6z"/><path fill="#f88909" d="m42 6-8.7 8.8L24 6z"/><path fill="#0095d5" d="M11.5 19.2 8 22.9 6 21v-7.1z"/><path fill="#2b88da" d="m15 15.4-3.5 3.8L6 13.9v-7z"/><path fill="#557bde" d="M18.6 11.7 15 15.4 6 6.9V6h6.5z"/><path fill="#806ee3" d="m22.1 8-3.5 3.7L12.5 6H24z"/><path fill="#0095d5" d="M23 25 6 42h34z"/><path fill="#2b88da" d="M25.7 42h-8.2l-5.7-5.7 4-4.1z"/><path fill="#557bde" d="M33.9 42h-8.2l-9.9-9.8 4.1-4.1z"/><path fill="#806ee3" d="M42 42h-8.1l-14-13.9L24 24z"/></svg>