<svg xmlns="http://www.w3.org/2000/svg" width="48" height="48" viewBox="0 0 64 64"><linearGradient id="a" x1="32" x2="32" y1="25.2" y2="36.7" gradientUnits="userSpaceOnUse"><stop offset="0" stop-color="#6dc7ff"/><stop offset="1" stop-color="#e6abff"/></linearGradient><circle cx="32" cy="32" r="6" fill="url(#a)"/><linearGradient id="b" x1="32" x2="32" y1="7.4" y2="53.4" gradientUnits="userSpaceOnUse"><stop offset="0" stop-color="#1a6dff"/><stop offset="1" stop-color="#c822ff"/></linearGradient><path fill="url(#b)" d="M58 32c0-3.8-4.2-7-10.9-9l.6-3c.6-5.5-.5-9.3-3.2-10.8-2.8-1.5-6.6-.4-10.9 3.1L32 13.8l-1.6-1.5C26 8.8 22.3 7.7 19.5 9.2c-2.7 1.5-3.8 5.3-3.2 10.8l.6 3C10.2 25 6 28.2 6 32s4.2 7 10.9 9l-.6 3c-.6 5.5.5 9.3 3.2 10.8.8.5 1.7.7 2.7.7 2.3 0 5.1-1.3 8.2-3.8l1.6-1.5 1.6 1.5c3 2.5 5.9 3.8 8.2 3.8 1 0 1.9-.2 2.7-.7 2.7-1.5 3.8-5.3 3.2-10.8l-.6-3c6.7-2 10.9-5.2 10.9-9zM34.9 13.9c3.5-3 6.7-4 8.6-3 2 1 2.7 4.3 2.2 8.9l-.5 2.7c-2.1-.5-4.4-1-6.9-1.2a50.3 50.3 0 0 0-4.9-6.1c.5-.5 1-1 1.5-1.3zm5 22.4-2.7 4.5a62.4 62.4 0 0 1-10.4 0A61.2 61.2 0 0 1 22 32a61.7 61.7 0 0 1 4.8-8.8 62.5 62.5 0 0 1 10.4 0A61.2 61.2 0 0 1 42 32c-.6 1.4-1.3 2.9-2.1 4.3zm3.2-1.8c.7 1.7 1.2 3.4 1.7 5-1.6.5-3.3.8-5 1a62.6 62.6 0 0 0 3.3-6zM32 47.4a46.3 46.3 0 0 1-3.7-4.5 64 64 0 0 0 7.4 0 46.3 46.3 0 0 1-3.7 4.5zm-7.7-6.9c-1.8-.2-3.5-.5-5-1 .4-1.6 1-3.3 1.6-5a64.2 64.2 0 0 0 3.4 6zm-3.4-11c-.7-1.7-1.2-3.4-1.7-5 1.6-.5 3.3-.8 5-1a62.6 62.6 0 0 0-3.3 6zM32 16.6c1.3 1.3 2.5 2.9 3.7 4.5a64 64 0 0 0-7.4 0c1.2-1.6 2.4-3.2 3.7-4.5zm9.7 10.1-2-3.2c1.8.2 3.5.5 5 1-.4 1.6-1 3.3-1.6 5l-1.4-2.8zm-23.4-7c-.5-4.5.3-7.7 2.2-8.8.5-.2 1-.4 1.7-.4 1.8 0 4.3 1.2 6.9 3.4l1.5 1.3a50 50 0 0 0-5 6.1c-2.4.3-4.7.7-6.8 1.2l-.5-2.7zM8 32c0-2.6 3.5-5.3 9.3-7 .6 2.2 1.5 4.6 2.5 7-1 2.4-1.9 4.8-2.5 7-5.8-1.7-9.3-4.4-9.3-7zm21.1 18.1c-3.5 3-6.7 4-8.6 3-2-1-2.7-4.3-2.2-8.9l.5-2.7c2.1.5 4.4 1 6.9 1.2 1.5 2.3 3.2 4.3 4.9 6.1-.5.5-1 1-1.5 1.3zm16.6-5.9c.5 4.6-.3 7.8-2.2 8.9-2 1-5 0-8.6-3l-1.5-1.3a50 50 0 0 0 5-6.1c2.4-.3 4.7-.7 6.8-1.2l.5 2.7zm1-5.1c-.6-2.3-1.5-4.7-2.5-7.1 1-2.4 1.9-4.8 2.5-7 5.8 1.7 9.3 4.4 9.3 7s-3.5 5.3-9.3 7z"/></svg>