<svg xmlns="http://www.w3.org/2000/svg" width="48" height="48" viewBox="0 0 24 24"><path fill="#027ffc" d="M23.8 5.6H6.4a3.2 3.2 0 0 0-3 2L0 15.7a.2.2 0 0 0 .2.3H8c.6 0 .8-.6.4-1l-2.9-2.7c-1.5-1.5-.8-5 2.3-5h15.4a.2.2 0 0 0 .2 0l.6-1.5a.2.2 0 0 0 0-.1.2.2 0 0 0-.2-.2m-1.7 4.2h-3a.5.5 0 0 0-.4.3l-3.3 8a.2.2 0 0 0 0 .1.2.2 0 0 0 .1.2h1.1a3.2 3.2 0 0 0 3-2l2.6-6.3a.2.2 0 0 0 0-.1.2.2 0 0 0-.1-.2m-5.8.2-.2-.2H7.7c-.4 0-.8.6-.4 1l2.8 2.6s1.1 1 .9 2.5c-.2 1.3-1.1 2.1-1.8 2.4h3.3a.5.5 0 0 0 .4-.2l3.4-8"/></svg>