<svg xmlns="http://www.w3.org/2000/svg" width="31.9" height="32" aria-hidden="true" class="iconify iconify--logos" viewBox="0 0 256 257"><defs><linearGradient id="a" x1="-.8%" x2="57.6%" y1="7.7%" y2="78.4%"><stop offset="0%" stop-color="#41D1FF"/><stop offset="100%" stop-color="#BD34FE"/></linearGradient><linearGradient id="b" x1="43.4%" x2="50.3%" y1="2.2%" y2="89%"><stop offset="0%" stop-color="#FFEA83"/><stop offset="8.3%" stop-color="#FFDD35"/><stop offset="100%" stop-color="#FFA800"/></linearGradient></defs><path fill="url(#a)" d="M255 38 135 253a7 7 0 0 1-11 0L1 38a7 7 0 0 1 7-10l120 22a7 7 0 0 0 2 0l118-22c6-1 10 5 7 10Z"/><path fill="url(#b)" d="M185 0 96 18a3 3 0 0 0-2 3l-6 92a3 3 0 0 0 4 3l25-5a3 3 0 0 1 4 3l-7 37a3 3 0 0 0 4 3l15-4a3 3 0 0 1 4 3l-11 57c-1 4 4 6 6 2l1-2 72-144a3 3 0 0 0-3-5l-26 5a3 3 0 0 1-3-4l16-58a3 3 0 0 0-4-4Z"/></svg>