<svg xmlns="http://www.w3.org/2000/svg" class="A" id="A" viewBox="0 0 500 500" xmlns:v="https://vecta.io/nano"><style><![CDATA[svg#A.A #Af{animation:6s Infinite linear heartbeat;animation-delay:0s}svg#A.A #B{animation:6s Infinite linear wind;animation-delay:0s}svg#A.A #C{animation:10s Infinite linear floating;animation-delay:0s}svg#A.A #D{animation:6s Infinite linear floating;animation-delay:0s}svg#A.A #E{animation:6s Infinite linear floating;animation-delay:0s}svg#A.A #F{animation:6s Infinite linear wind;animation-delay:0s}svg#A.A #G{animation:12s Infinite linear floating;animation-delay:0s}@keyframes heartbeat{0%{transform:scale(1)}10%{transform:scale(1.1)}30%{transform:scale(1)}40%{transform:scale(1)}50%{transform:scale(1.1)}60%{transform:scale(1)}100%{transform:scale(1)}} @keyframes wind{0%{transform:rotate( 0deg )}25%{transform:rotate( 1deg )}75%{transform:rotate( -1deg )}} @keyframes floating{0%{opacity:1;transform:translateY(0px)}50%{transform:translateY(-10px)}100%{opacity:1;transform:translateY(0px)}}.D{opacity:.2}.E{fill:#fff}.F{fill:#8974ff}.G{opacity:.1}.H{opacity:.5}.I{fill:#263238}.J{opacity:.7}.K{opacity:.4}]]></style><g id="B" class="B" transform-origin="284.434px 266.181px"><circle cx="152.88" cy="112.07" r="12.72" class="F" transform-origin="152.88px 112.07px"/><g class="E"><circle cx="152.88" cy="112.07" r="12.72" class="D" transform-origin="152.88px 112.07px"/></g><g class="E"><path d="M140.19 113c1.58-.76 2.35-1.38 2.2-.52a9.11 9.11 0 0 0 0 2.25s.26.5 1 .28.71-.33 1-.33 2.48.05 1.82.88-.39 1.2-1 1.37-.83 1-.88 1.16a4.29 4.29 0 0 1-.65.71l-1.38.53a12.48 12.48 0 0 0 1.48 1.78 11.69 11.69 0 0 0 1 .89 2.71 2.71 0 0 1 1.21-.4c.71 0 .82.39 1.17.53s.31 0 .31 0 .33.41.69.22a6.23 6.23 0 0 1 1.84 0c.22 0 1.21-.44 1.65-.12s.55.23.6.62a3.08 3.08 0 0 1-.56 1.92 12.39 12.39 0 0 0 4-.28c-.53-.32-.28-2.36-.72-3.24s-.44-1.1-.28-1.48.5 0 .77 0a1 1 0 0 0 .83-.94 6.35 6.35 0 0 1 .27-1.26s.49-.93.72-.93a3.72 3.72 0 0 0 1.1-.06c.21-.11.21-.27.32-.56s.17-1.59-.11-1.53a1.82 1.82 0 0 1-.82-.22 6.3 6.3 0 0 0-1-.2c-.16 0-.22-.51-.22-.51s1-.61 1-.83-.38-.27-.43-.93.49-.66 1.09-.54 0 .26 0 .78.06.47.72 0 .49 0 .66 0a5.87 5.87 0 0 1 1 .17v2.72c.06 1.37 2.08.06 2.69-.44.29-.23 1.14-.12 1.92.28a12.68 12.68 0 0 0-2-9.93.14.14 0 0 1-.15 0c-.24-.11-1 .11-1.15 0s-.88.16-1.24 0a1.35 1.35 0 0 1-.66-1.18 7.06 7.06 0 0 0-.58-2c-.09-.24-.1-.35 0-.38a12.75 12.75 0 0 0-10.26-1.33c.47.8.82 1.71.33 2.11-1 .77-.43 1.42.24 2a.86.86 0 0 1 0 1.37c-.21.22-.6.77-.24 1s1.15.6.59.93-.23 1.15-1.17.44-.61-1.37-1.32-1.37-.82.82-1.76 1.1-1 .22-1.26.1-.27-.82-.88-1.42a.85.85 0 0 0-1.38.16c-.1.28-.28 1.56 0 1.72s0 1-.6 1.2-1.09-.71-1.29-.14a.49.49 0 0 0 0 .14v.06a12.39 12.39 0 0 0-.23 3.65zm13.09 6.18c-.88.22 0 0-.92-1s.52-.33.52-.33a12.81 12.81 0 0 0 .4-1.54c.11-.66.93 0 1.39 0s.92.66.38 1.54c0 0 0 .55-.38.44s-.51.62-1.39.84zm-.4 1.49c.26-.17.89.22.79.93l-.83.22a4.09 4.09 0 0 1-.79-.71c-.24-.37.57-.33.83-.49zm-6.75-9.79c0-.55.17-1 .61-1 .71-.17.88.5 1.51.56s.36 1.73.36 1.73.22.85-.91.58-1.73-.06-1.84-.47.27-.9.27-1.45z" class="H" transform-origin="152.815px 112.122px"/></g><path d="M173.15 106.73a1.94 1.94 0 1 1-1.93-1.93 1.93 1.93 0 0 1 1.93 1.93z" class="F" transform-origin="171.21px 106.74px"/><g class="E"><path d="M173.15 106.73a1.94 1.94 0 1 1-1.93-1.93 1.93 1.93 0 0 1 1.93 1.93z" opacity=".6" transform-origin="171.21px 106.74px"/></g><g><circle cx="170.27" cy="107.4" r=".39" class="G" transform-origin="170.27px 107.4px"/></g><g><path d="M172.14 106.62a.07.07 0 1 1-.07-.07.07.07 0 0 1 .07.07z" class="G" transform-origin="172.07px 106.62px"/></g><g><path d="M171.07 108.18a.08.08 0 0 1-.07.07.07.07 0 1 1 0-.14.08.08 0 0 1 .07.07z" class="G" transform-origin="171px 108.18px"/></g><g><path d="M171.76 105.12a.08.08 0 1 1-.15 0 .08.08 0 0 1 .07-.07.08.08 0 0 1 .08.07z" class="G" transform-origin="171.685px 105.139px"/></g><g><path d="M173 106.81a.08.08 0 0 1-.08.07.07.07 0 0 1-.07-.07.08.08 0 0 1 .07-.08.09.09 0 0 1 .08.08z" class="G" transform-origin="172.925px 106.805px"/></g><g><path d="M170 106.2a.07.07 0 1 1-.07-.07.07.07 0 0 1 .07.07z" class="G" transform-origin="169.93px 106.2px"/></g><g><path d="M171 105.66a.25.25 0 1 1-.25-.25.25.25 0 0 1 .25.25z" class="G" transform-origin="170.75px 105.66px"/></g><g><path d="M172.39 107.93a.25.25 0 1 1-.25-.25.25.25 0 0 1 .25.25z" class="G" transform-origin="172.14px 107.93px"/></g><path d="M426.64 251.2a8.23 8.23 0 1 1-6.24 9.8 8.23 8.23 0 0 1 6.24-9.8z" class="F" transform-origin="428.438px 259.231px"/><g class="E"><path d="M426.64 251.2a8.23 8.23 0 1 1-6.24 9.8 8.23 8.23 0 0 1 6.24-9.8z" class="H" transform-origin="428.438px 259.231px"/></g><g><path d="M435.81 255.61c-.15.24-.28-.09-.81.18a4.57 4.57 0 0 1-1.64.39l-.12.23c-.11.24-1.12-.15-1.12-.54s0 0 .78-.23 0 0 .07-.56-.22-.31-.54-.7a.52.52 0 0 0-.73-.1c-.24.14-.21.41-.44.47s-.13.2-.23.27-.26 0-.39 0-.3-.11-.38 0-.06.14-.08.2a1.15 1.15 0 0 1-.26 0c-.06 0-.13-.08-.13-.13a.25.25 0 0 1 0-.1 1 1 0 0 1 .17-.27.26.26 0 0 1 .29-.08.27.27 0 0 0-.08-.26h.32c.08 0 .31-.66.33-.76a.24.24 0 0 0-.11-.21c-.09-.05-.2 0-.31 0s-.34-.31-.55-.28a.52.52 0 0 0-.15.07l-.25.18a.31.31 0 0 0-.11.08.9.9 0 0 0 0 .16.13.13 0 0 1-.09.1c.19 0-.07.19-.11.2-.2.07-.59-.07-.82-.09a.16.16 0 0 1-.12 0 .25.25 0 0 1 0-.09l-.16-.43c-.05-.14-.16-.65.09-.79s.53 0 .61-.26a.18.18 0 0 1 .05-.08c.07-.06.15.08.14.18a1.29 1.29 0 0 0 0 .48c.06.16.27.26.39.16-.08-.12.08-.26.22-.26s.3.07.43 0a.32.32 0 0 0 .14-.34.91.91 0 0 0-.17-.36.52.52 0 0 1-.51-.07c-.12-.09-.24-.25-.38-.19a1.46 1.46 0 0 0 .16-.21 2.36 2.36 0 0 0-.28-.12c-.09-.05-.18-.15-.13-.25a.16.16 0 0 1 .07-.07h0a6.84 6.84 0 0 1 1.56.23c-.16.3-.2.85.55 1.12 1.09.39 0 0 1-.54a8.11 8.11 0 0 1 2.14 1.48l-.44.32c-.46.31.15.47.15.47h.63c.34 0 .31 0 .33-.07a7.77 7.77 0 0 1 1.02 1.47z" class="G" transform-origin="431.891px 253.807px"/></g><g><path d="M423.49 256.14a.48.48 0 0 1 0 .12c-.06.21-.37.14-.58.2-.44.14-.33.91-.76 1.11-.21.09-.46 0-.67.09a2.08 2.08 0 0 0-.38.35 1 1 0 0 1-.83.24 8 8 0 0 1 1.79-4.22.67.67 0 0 1 .24 0 .44.44 0 0 1 .29.36 1.42 1.42 0 0 1 0 .5l.32-.24a.31.31 0 0 1 .08.44c-.1.14-.3.16-.48.19s-.38.13-.39.3.1.27.19.38.18.28.1.4l.7-.41a.43.43 0 0 1 .13-.05.27.27 0 0 1 .25.24z" class="D" transform-origin="421.882px 256.141px"/></g><g><path d="M424 255.05l-.06.19a.8.8 0 0 0 .55 0 .42.42 0 0 0 .15-.11.6.6 0 0 0 .12-.32 1.7 1.7 0 0 0 0-.45.48.48 0 0 0-.24-.36.29.29 0 0 0-.39.11c-.06.13 0 .29-.07.42s-.2.16-.24.27a.2.2 0 0 0 .18.25z" class="D" transform-origin="424.294px 254.627px"/></g><g><path d="M427.49 251.67c-.25.21-.65-.07-.95.07s-.24.29-.41.32a2.64 2.64 0 0 1-.28 0c-.1 0-.2.07-.19.16a.23.23 0 0 0 .07.11l.25.23a.7.7 0 0 1 .08.1.21.21 0 0 1-.14.27.54.54 0 0 1-.33 0 .65.65 0 0 1-.2-.05c-.06 0-.1-.13-.06-.19l.07-.07a.27.27 0 0 0 .08-.24.19.19 0 0 0-.19-.17l-.13.06-.43.26c-.2.11-.45.23-.65.13a.11.11 0 0 1-.09-.06v-.13a.29.29 0 0 0 0-.16 7.92 7.92 0 0 1 2.65-1.11 7.21 7.21 0 0 1 .93-.15h0 0c.06.23.08.49-.08.62z" class="D" transform-origin="425.802px 252.003px"/></g><g><path d="M425.8 253.76a.17.17 0 0 0-.23.15l.1.16v-.09c0 .09.11.18.19.11a.21.21 0 0 0 0-.28z" class="D" transform-origin="425.742px 253.932px"/></g><g><path d="M429.43 256.12c-.13-.14-.36-.09-.56-.07s-.45-.08-.44-.27.21-.24.38-.25a.5.5 0 0 0-.52-.53.62.62 0 0 1 0 .5.3.3 0 0 1-.42.15c-.25-.19.06-.69-.18-.89a.48.48 0 0 0-.41 0c-.48.11-1 .28-1.19.74 0 .05-.4 0-.52 0s-.19.37-.21.5a.28.28 0 0 0 0 .22c0 .08.13.16.09.24s-.1.06-.14.11.26.5.36.55.38 0 .57.09a.44.44 0 0 1 .17.45h-.18a.58.58 0 0 1-.2.68.78.78 0 0 1 .71.22s.09.1.15.1a.22.22 0 0 0 .11-.05.86.86 0 0 0 .4-.54h.2c0-.11 0-.29-.12-.25s0 0-.07.06-.26 0-.27-.17a.62.62 0 0 1 .14-.36c.05-.06.09-.13.14-.2a.76.76 0 0 1 .42-.35c.31-.07.56.26.71.54.06.12.09.31 0 .33s-.14-.05-.19 0 0 .16-.1.21-.11 0-.16 0-.11.23 0 .35.15-.07.23-.12.38.08.56 0 .15-.15.22-.22.54-.23.57-.49-.1-.28-.13-.43.07-.66-.12-.85z" class="D" transform-origin="427.495px 256.687px"/></g><g><path d="M423.53 258.07a.51.51 0 0 0 .25 0c.12 0 .51.11.35.33s-.41-.25-.62-.13c.12 0 .11.23.05.35s-.13.27-.05.38c.16-.07.32.08.5.12s.45-.13.68-.09v-.26c0-.09.17-.07.25-.13s.18-.13.26-.07 0-.2 0-.29a1.51 1.51 0 0 1-.21-.23c-.05-.09 0-.23.06-.26s.19 0 .27 0a.21.21 0 0 0 .1-.19 1.85 1.85 0 0 1 0-.23h-.19a.16.16 0 0 1-.11.19.49.49 0 0 1-.24 0 1.36 1.36 0 0 0-.09-.69h-.25c0 .1-.11.16-.21.16a.55.55 0 0 1-.25-.13c-.05-.05-.11-.1-.18-.08s-.13.13-.12.23c0 .36-.15.27-.3.47a.4.4 0 0 0 .05.55z" class="G" transform-origin="424.407px 257.971px"/></g><g><path d="M423.7 261.53a1 1 0 0 1-.59-.08c-.08-.05-.18-.11-.27-.06a.23.23 0 0 0-.1.24c0 .08.09.16.12.25a.84.84 0 0 1 0 .74 1.41 1.41 0 0 1-1.12-.26.87.87 0 0 1-.09-.11c-.07-.16.15-.34.11-.5s-.35-.28-.25-.43.19-.06.28-.1a.21.21 0 0 0 .09-.29.53.53 0 0 0-.67.19c-.17 0-.22-.25-.23-.41s-.12-.4-.29-.34a.19.19 0 0 0-.11.15c-.13.38.18.74.46 1a.36.36 0 0 1 .14.23c0 .1-.06.21-.16.19l.35.39a.25.25 0 0 1 .05.13.18.18 0 0 1 0 .09 4.68 4.68 0 0 0-.27.4 7.59 7.59 0 0 1-.72-2 8.48 8.48 0 0 1-.19-1.93.59.59 0 0 1 .22-.2c.11 0 .24 0 .34-.06.25-.07.36-.39.61-.49a.51.51 0 0 1 .56.16.73.73 0 0 1 .12.61 1 1 0 0 0-.06.5c.1.29.46.32.76.31a.42.42 0 0 0 .23.45.3.3 0 0 0 .39-.25c.19 0 .43.12.43.32a.54.54 0 0 1-.22.3c-.08.1-.15.25-.07.35s.35 0 .42.17-.14.32-.27.34z" class="G" transform-origin="422.111px 260.596px"/></g><g><path d="M430.22 267.27h-.26a.58.58 0 0 1 .05-.48c.11-.16.31-.27.4-.45a1.87 1.87 0 0 1 .16-.35c.17-.27.57-.25.89-.2a.31.31 0 0 1 .13-.42 1.22 1.22 0 0 1 .5-.08.62.62 0 0 0 .46-.14c0-.05.08-.12.14-.14h.14l.9.11c0-.22-.24-.34-.45-.36s-.46 0-.56-.22a1 1 0 0 1-1.14.43.1.1 0 0 1-.08 0c-.09-.12.22-.27.12-.37l-.43-.17c-.06 0-.13-.05-.16-.11s0-.22.09-.33-.05-.44-.11-.66 0-.54.25-.54h.15c.04 0 .1-.16.12-.25.06-.27.33-.43.56-.59a1.62 1.62 0 0 0 .19-.18 1.16 1.16 0 0 0 .36-.78 1.57 1.57 0 0 0-.49.47c-.16.18-.4.33-.61.22a.61.61 0 0 1-.41.66.59.59 0 0 1-.68-.36.23.23 0 0 1 0-.26.42.42 0 0 1 .25 0 .72.72 0 0 0 .66-.34.93.93 0 0 1-.78-.4.6.6 0 0 1 .19-.8h-.2a.65.65 0 0 1 .52-.49h.37a.28.28 0 0 0 .23-.25.44.44 0 0 1-.2-.42.45.45 0 0 1 .26-.31.16.16 0 0 1-.15-.13.23.23 0 0 1 .17-.22.69.69 0 0 1 .32 0 1.07 1.07 0 0 1 .71.34 1 1 0 0 1 .11.57v.78a.85.85 0 0 0 .23.7.66.66 0 0 0 .41.1 3 3 0 0 0 1.22-.25.93.93 0 0 0 .49-.4 1.14 1.14 0 0 0 .1-.61c0-.42.08-1.09-.35-1.35a.38.38 0 0 0-.41 0c-.08.06-.14.15-.23.18s-.29-.05-.41 0-.11.13-.17.21a.19.19 0 0 1-.23.1c-.09-.05 0-.2 0-.31s-.17-.43-.13-.65.25-.34.39-.5a2.11 2.11 0 0 0 .33-.49c.13-.06.28 0 .4.12a.42.42 0 0 0 .41.08c.11.14-.06.4.1.51h.07a.24.24 0 0 1 0 .17c0 .2.1.44.3.5h.08c.01 0 0 0 0-.06a1 1 0 0 0-.17-.75 1 1 0 0 1-.07-.15.28.28 0 0 1 0-.15.7.7 0 0 1 .06-.17.3.3 0 0 1 0-.1c.07-.06.17 0 .25 0a.6.6 0 0 0 .22-.09.39.39 0 0 1 .32 0l.2.74a8.23 8.23 0 0 1-6.1 9.84z" class="D" transform-origin="433.229px 261.963px"/></g><g><path d="M429 264.68a1.21 1.21 0 0 0 0 .5.85.85 0 0 1-.64.1.89.89 0 0 0 .44 1.11.51.51 0 0 1-.48.09 1.47 1.47 0 0 1-.42-.28l-1-.77c-.16.06-.06.31.1.39s.35.09.43.24 0 .45.09.61a1.61 1.61 0 0 0 .26.15.47.47 0 0 1 .17.49v.13a7.93 7.93 0 0 1-3.58-1.05h0a1.23 1.23 0 0 0 0-.19c0-.3.28-.5.51-.68a.9.9 0 0 0 .44-.72c-.39.1-.54.59-.87.8a1.2 1.2 0 0 1-.28.13 2.88 2.88 0 0 0-.47.3 7.91 7.91 0 0 1-2.07-2.05 1.11 1.11 0 0 0 .22-.75c.09-.11.23.09.36.1s.23-.19.38-.2.21.43.44.51.3-.13.46-.15.35.13.54.07c.55-.17.14-.77.22-1.11.05-.16.25-.19.38-.27a.71.71 0 0 0 .31-.58 2.4 2.4 0 0 0-.11-.66.69.69 0 0 1 .05-.63c.21-.23.62-.08.91-.23s.29-.43.5-.59a1.06 1.06 0 0 1 .65-.19.55.55 0 0 1 .18 0c.11.06.09.23.07.34a5.53 5.53 0 0 1-.31 1c.26.12.62.23.81 0a.7.7 0 0 1 .13-.17.37.37 0 0 1 .34 0l.29.57a1.17 1.17 0 0 0-1.17.76.5.5 0 0 1-.08.2.35.35 0 0 1-.28.12 2.67 2.67 0 0 1-.94-.31c-.32-.1-.77 0-.85.28.26-.09.48.18.73.28a1.63 1.63 0 0 0 .45.08 3.38 3.38 0 0 1 1.08.28.72.72 0 0 0 .45-.62 1.33 1.33 0 0 0 1.06.56 1.73 1.73 0 0 0 0 1c.12.24.36.46.35.73a.38.38 0 0 0-.25.28z" class="D" transform-origin="425.44px 263.366px"/></g><path d="M308.28 92.65a8.81 8.81 0 1 1-6.68 10.52 8.81 8.81 0 0 1 6.68-10.52z" class="F" transform-origin="310.198px 101.249px"/><g><path d="M316.7 98.69a.91.91 0 1 0-.9-.9.9.9 0 0 0 .9.9z" class="D" transform-origin="316.71px 97.7801px"/></g><g><path d="M313.74 94.3a.91.91 0 0 0 1.81 0 9 9 0 0 0-1.24-.79.91.91 0 0 0-.57.79z" class="D" transform-origin="314.645px 94.3124px"/></g><g><path d="M304,102.7a1.39,1.39,0,1,0,1.39,1.39A1.4,1.4,0,0,0,304,102.7Z" class="D" transform-origin="304px 104.09px"/></g><g><path d="M318.59 98.6a9.35 9.35 0 0 0-.51-1.27 1.1 1.1 0 0 0 0 .18 1.4 1.4 0 0 0 .51 1.09z" class="D" transform-origin="318.333px 97.965px"/></g><g><path d="M303.38 98.48a1.39 1.39 0 0 0-1-1.32 8.88 8.88 0 0 0-.89 2.63 1.51 1.51 0 0 0 .48.09 1.4 1.4 0 0 0 1.41-1.4z" class="D" transform-origin="302.435px 98.52px"/></g><g><path d="M317.62 102.37a1.39 1.39 0 0 0 1 1.34A8.86 8.86 0 0 0 319 101a1.38 1.38 0 0 0-1.38 1.37z" class="D" transform-origin="318.311px 102.355px"/></g><g><path d="M309 96.6a1.39 1.39 0 1 0-1.43 1.4 1.4 1.4 0 0 0 1.43-1.4z" class="D" transform-origin="307.61px 96.6105px"/></g><g><circle cx="313.62" cy="104.74" r=".9" class="D" transform-origin="313.62px 104.74px"/></g><g><path d="M317,105.2a.89.89,0,0,0,.63.85,8.87,8.87,0,0,0,.81-1.56.89.89,0,0,0-1.44.71Z" class="D" transform-origin="317.72px 105.175px"/></g><g><path d="M314.64,108.59a1.9,1.9,0,0,0,0,.25,8.91,8.91,0,0,0,2.53-2.24,2,2,0,0,0-2.56,2Z" class="D" transform-origin="315.889px 107.68px"/></g><g><path d="M302.35 101.93a2.06 2.06 0 0 0-.9-1.7 8.87 8.87 0 0 0 .15 2.94c0 .09 0 .18.07.27a2 2 0 0 0 .68-1.51z" class="D" transform-origin="301.87px 101.835px"/></g><g><path d="M306.47 93.39v-.11a8.83 8.83 0 0 0-3.63 3.15 3.31 3.31 0 0 0 .55 0 3.09 3.09 0 0 0 3.08-3.04z" class="D" transform-origin="304.655px 94.8607px"/></g><g><path d="M310.66 93.84a2.07 2.07 0 0 0 1.81-1.1 8.88 8.88 0 0 0-3.71-.17 2 2 0 0 0 1.9 1.27z" class="D" transform-origin="310.615px 93.145px"/></g><g><path d="M310.2 107.69a.91.91 0 1 0 .9.9.9.9 0 0 0-.9-.9z" class="D" transform-origin="310.19px 108.6px"/></g><g><path d="M308.25 109.34a.88.88 0 0 0-.68.32 9.92 9.92 0 0 0 1.53.33.88.88 0 0 0-.85-.65z" class="D" transform-origin="308.335px 109.665px"/></g><g><path d="M304.68 107.21a.9.9 0 0 0-.66.31 8.25 8.25 0 0 0 1.38 1.12.87.87 0 0 0 .19-.52.91.91 0 0 0-.91-.91z" class="D" transform-origin="304.805px 107.925px"/></g><g><path d="M315.05 99.71a.21.21 0 1 0-.21-.21.22.22 0 0 0 .21.21z" class="D" transform-origin="315.05px 99.5px"/></g><g><path d="M316.27 96.33a.21.21 0 1 0 0-.42.2.2 0 0 0-.2.21.21.21 0 0 0 .2.21z" class="D" transform-origin="316.275px 96.12px"/></g><g><path d="M317.86 99.71a.21.21 0 1 0-.21-.21.21.21 0 0 0 .21.21z" class="D" transform-origin="317.86px 99.5px"/></g><g><path d="M310.63 94.52a.2.2 0 0 0 .2-.2.2.2 0 0 0-.2-.21.21.21 0 0 0-.21.21.2.2 0 0 0 .21.2z" class="D" transform-origin="310.625px 94.3151px"/></g><g><path d="M308 98.28a.2.2 0 0 0-.2.2.2.2 0 0 0 .2.21.21.21 0 0 0 .21-.21.2.2 0 0 0-.21-.2z" class="D" transform-origin="308.005px 98.4849px"/></g><g><path d="M306.59 104.09a.2.2 0 0 0-.21-.2.2.2 0 0 0-.2.2.2.2 0 0 0 .2.21.21.21 0 0 0 .21-.21z" class="D" transform-origin="306.385px 104.095px"/></g><g><path d="M303.17 101.73a.21.21 0 1 0 .21-.21.21.21 0 0 0-.21.21z" class="D" transform-origin="303.38px 101.73px"/></g><g><path d="M312.24 102.72a.21.21 0 1 0 .21-.21.21.21 0 0 0-.21.21z" class="D" transform-origin="312.45px 102.72px"/></g><g><circle cx="312.24" cy="100.18" r=".21" class="D" transform-origin="312.24px 100.18px"/></g><g><path d="M314.11 106.53a.2.2 0 0 0-.2.21.2.2 0 0 0 .2.2.2.2 0 0 0 .21-.2.21.21 0 0 0-.21-.21z" class="D" transform-origin="314.115px 106.735px"/></g><g><path d="M304.89,97.09a.21.21,0,0,0,0-.42.21.21,0,1,0,0,.42Z" class="D" transform-origin="304.89px 96.88px"/></g><g><path d="M309.29 96.8a.2.2 0 0 0 .21-.2.21.21 0 0 0-.21-.21.2.2 0 0 0-.2.21.2.2 0 0 0 .2.2z" class="D" transform-origin="309.295px 96.5951px"/></g><g><path d="M309.09 107.21a.21.21 0 1 0 .2.21.21.21 0 0 0-.2-.21z" class="D" transform-origin="309.08px 107.42px"/></g><g><path d="M308.6 104.74a.2.2 0 0 0-.21.2.21.21 0 0 0 .21.21.2.2 0 0 0 .2-.21.2.2 0 0 0-.2-.2z" class="D" transform-origin="308.595px 104.945px"/></g><g><path d="M303.58 105.9a.2.2 0 0 0-.2.21.2.2 0 0 0 .2.2.2.2 0 0 0 .21-.2.21.21 0 0 0-.21-.21z" class="D" transform-origin="303.585px 106.105px"/></g><g><path d="M311.58 109.29a.21.21 0 1 0 .21.21.21.21 0 0 0-.21-.21z" class="D" transform-origin="311.58px 109.5px"/></g><g><path d="M312.72 97.07a.48.48 0 1 0-.48-.47.47.47 0 0 0 .48.47z" class="D" transform-origin="312.72px 96.59px"/></g><g><path d="M312.72 94.79a.48.48 0 1 0-.48-.47.47.47 0 0 0 .48.47z" class="D" transform-origin="312.72px 94.3101px"/></g><g><path d="M307.57,94.79a.48.48,0,0,0,0-1,.48.48,0,1,0,0,1Z" class="D" transform-origin="307.57px 94.29px"/></g><g><path d="M311.58 107.21a.48.48 0 1 0-.48.48.47.47 0 0 0 .48-.48z" class="D" transform-origin="311.1px 107.21px"/></g><g><path d="M306.59 107.64a.48.48 0 1 0 .48.48.48.48 0 0 0-.48-.48z" class="D" transform-origin="306.59px 108.12px"/></g><g><circle cx="304.89" cy="106.31" r=".48" class="D" transform-origin="304.89px 106.31px"/></g><g><path d="M312.72 108.12a.48.48 0 1 0 .47.47.47.47 0 0 0-.47-.47z" class="D" transform-origin="312.71px 108.6px"/></g><g><path d="M309.5 102.21a.48.48 0 1 0-.48-.48.49.49 0 0 0 .48.48z" class="D" transform-origin="309.5px 101.73px"/></g><g><path d="M316.27 103.67a.48.48 0 1 0-.47-.47.47.47 0 0 0 .47.47z" class="D" transform-origin="316.28px 103.19px"/></g><g><path d="M305.37 101a.48.48 0 1 0 .47.47.47.47 0 0 0-.47-.47z" class="D" transform-origin="305.36px 101.48px"/></g><g><circle cx="303.38" cy="100.35" r=".48" class="D" transform-origin="303.38px 100.35px"/></g><path d="M134.91 370a50.65 50.65 0 0 1 5.24-11.19 48.43 48.43 0 0 1 3.23-4.63 52 52 0 0 1 10.53-10.24h0l2.33-1.6a42.35 42.35 0 0 1 5.23-3 36.81 36.81 0 0 1 3.5-1.62 50.22 50.22 0 0 1 5.24-1.88 54.06 54.06 0 0 1 7.23-1.59h0a56.32 56.32 0 0 1 9.15-.54 52.33 52.33 0 0 1 25.69 7.29h.07a47.88 47.88 0 0 1 6.4 4.46l2.75 2.37 2.66 2.66 1.76 2 2.12 2.72a51.46 51.46 0 0 1 4 6.17l.92 1.8a50.6 50.6 0 0 1 2.56 6.07q.45 1.25.81 2.52a52.51 52.51 0 0 1 2 12l.07 4.29-.1 2.16-.32 3.4a53.33 53.33 0 0 1-1.34 6.77 38.65 38.65 0 0 1-1.34 4.28 45.68 45.68 0 0 1-2 4.94 51.4 51.4 0 0 1-4.95 8.3 44.78 44.78 0 0 1-3.59 4.45 52.85 52.85 0 0 1-4.72 4.63 55.48 55.48 0 0 1-5.5 4.16 51.65 51.65 0 0 1-7.63 4.18 50.5 50.5 0 0 1-6.13 2.3h0a50.46 50.46 0 0 1-5 1.26h-.06a52.88 52.88 0 0 1-31.58-3.39h0l-4.1-2-2.78-1.62-3.25-2.2-1.61-1.24a50.25 50.25 0 0 1-5.4-4.91 52.89 52.89 0 0 1-12.36-21 52.11 52.11 0 0 1-2.26-11.89l-.11-5.12a45.36 45.36 0 0 1 .36-4.83 49 49 0 0 1 2.28-10.69z" class="F" transform-origin="185.339px 386.81px"/><g class="E"><path d="M134.91 370a50.65 50.65 0 0 1 5.24-11.19 48.43 48.43 0 0 1 3.23-4.63 52 52 0 0 1 10.53-10.24h0l2.33-1.6a42.35 42.35 0 0 1 5.23-3 36.81 36.81 0 0 1 3.5-1.62 50.22 50.22 0 0 1 5.24-1.88 54.06 54.06 0 0 1 7.23-1.59h0a56.32 56.32 0 0 1 9.15-.54 52.33 52.33 0 0 1 25.69 7.29h.07a47.88 47.88 0 0 1 6.4 4.46l2.75 2.37 2.66 2.66 1.76 2 2.12 2.72a51.46 51.46 0 0 1 4 6.17l.92 1.8a50.6 50.6 0 0 1 2.56 6.07q.45 1.25.81 2.52a52.51 52.51 0 0 1 2 12l.07 4.29-.1 2.16-.32 3.4a53.33 53.33 0 0 1-1.34 6.77 38.65 38.65 0 0 1-1.34 4.28 45.68 45.68 0 0 1-2 4.94 51.4 51.4 0 0 1-4.95 8.3 44.78 44.78 0 0 1-3.59 4.45 52.85 52.85 0 0 1-4.72 4.63 55.48 55.48 0 0 1-5.5 4.16 51.65 51.65 0 0 1-7.63 4.18 50.5 50.5 0 0 1-6.13 2.3h0a50.46 50.46 0 0 1-5 1.26h-.06a52.88 52.88 0 0 1-31.58-3.39h0l-4.1-2-2.78-1.62-3.25-2.2-1.61-1.24a50.25 50.25 0 0 1-5.4-4.91 52.89 52.89 0 0 1-12.36-21 52.11 52.11 0 0 1-2.26-11.89l-.11-5.12a45.36 45.36 0 0 1 .36-4.83 49 49 0 0 1 2.28-10.69z" class="D" transform-origin="185.339px 386.81px"/></g><g><path d="M134.91 370a25.92 25.92 0 0 1 5 .52l7 1.82c3 .54 6.11.38 9.14.72s6.21 1.3 8.23 3.62a177.94 177.94 0 0 0-22.1 2.51l-9.58 1.46a49 49 0 0 1 2.31-10.65z" class="D" transform-origin="148.44px 375.325px"/></g><g><path d="M218.54 390.73a98.76 98.76 0 0 1 13.62-1 55.32 55.32 0 0 1 6.16.46l-.32 3.4h-.51a48.52 48.52 0 0 1-18.95-2.86z" class="D" transform-origin="228.43px 391.689px"/></g><g><path d="M193.31 373.92a5.92 5.92 0 0 1 2.55-.12 59.08 59.08 0 0 0 10.3-.17l8.89-.88a35.32 35.32 0 0 0 6.8-1.18 27.17 27.17 0 0 1 3.71-1.1 15.62 15.62 0 0 1 4.71.29l6 1a52.51 52.51 0 0 1 2 12 21.25 21.25 0 0 1-4.06-.49c-2.28-.52-4.47-1.5-6.82-1.76-2.08-.22-4.19.12-6.28 0a37.18 37.18 0 0 1-6.54-1.24c-7.49-1.71-15.37-1.71-22.57-4.32a1.78 1.78 0 0 1 1.31-2.03z" class="D" transform-origin="215.122px 377.083px"/></g><g><path d="M153.91 343.87l2.33-1.6a42.35 42.35 0 0 1 5.23-3 36.81 36.81 0 0 1 3.5-1.62c.24 0 .47.12.71.18a246.17 246.17 0 0 0 36.19 6.86c6.55.75 13.35 1.3 19.63 3.14.92.86 1.8 1.74 2.66 2.66a125.78 125.78 0 0 0-20.37-3.34c-5.85-.38-11.74-.1-17.56-.66-5.27-.49-10.51-1.68-15.79-1.4l-3.52.26a44 44 0 0 1-11.72-1.18 12.8 12.8 0 0 1-1.29-.3z" class="D" transform-origin="189.035px 344.07px"/></g><g><path d="M186.26 352.12c5.2-1.07 10.61-.57 15.9-.07a123.12 123.12 0 0 0 18.31.75c1.82-.09 3.62-.28 5.45-.33.74.87 1.45 1.77 2.12 2.72a51.46 51.46 0 0 1 4 6.17c.31.6.64 1.2.92 1.8-.55-.07-1.08-.13-1.57-.17-3.12-.25-6.23-.48-9.32-.95a62.43 62.43 0 0 1-7-1.46 37.11 37.11 0 0 1-5.41-1.85c-1.48-.64-2.88-1.4-4.36-2a52.6 52.6 0 0 0-5.31-1.8c-4.49-1.35-9.05-2.69-13.73-2.81z" class="D" transform-origin="209.61px 357.323px"/></g><g><path d="M214.23 357c2.37-.55 4.85 0 7.22-.48.91-.18 1.76-.5 2.66-.73a18.94 18.94 0 0 1 3.93-.63 51.46 51.46 0 0 1 4 6.17 81.4 81.4 0 0 1-8.92-1.24l-4.89-1c-.93-.21-4.17-.45-4.71-1.11-.34-.37.25-.84.71-.98z" class="D" transform-origin="222.729px 358.245px"/></g><g><path d="M143.38 354.13a52.66 52.66 0 0 1 5.24-5.82 44.25 44.25 0 0 1 7.78 1.46 36 36 0 0 0 6.25 1.23c2.76.16 5.52-.42 8.29-.48s5.76.45 7.69 2.46l-10.75.67c-6.23.36-12.46.61-18.71.58l-5.79-.1z" class="D" transform-origin="161.005px 351.271px"/></g><g><path d="M157.76 342.67l-1.52-.4a42.35 42.35 0 0 1 5.23-3 53.58 53.58 0 0 0 8 1.42c4.48.47 9.3.47 13 3.11l-5.81-.63a50 50 0 0 0-11.65-.35 25.53 25.53 0 0 1-4.34.43 13.26 13.26 0 0 1-2.91-.58z" class="D" transform-origin="169.355px 341.535px"/></g><g><path d="M170.21 335.77a54.06 54.06 0 0 1 7.23-1.59h0a56.32 56.32 0 0 1 9.15-.54 52.33 52.33 0 0 1 25.69 7.36h.07a47.88 47.88 0 0 1 6.4 4.46c-3.54 0-8.26-1.38-9.79-1.64l-12.09-2.14c-8.93-1.68-17.87-3.68-26.66-5.91z" class="D" transform-origin="194.48px 339.543px"/></g><g><path d="M177.46 334.16a56.32 56.32 0 0 1 9.15-.54 52.33 52.33 0 0 1 25.67 7.38 7.06 7.06 0 0 0-2.14-.26c-.69 0-1.38.23-2.08.33a17 17 0 0 1-2.67-.05 62.49 62.49 0 0 1-10-1.48c-3-.76-5.78-2-8.67-3a63 63 0 0 0-9.26-2.38z" class="D" transform-origin="194.87px 337.353px"/></g><g><path d="M152.35 398.83c.38-.63 1.22-.78 1.92-1 2.94-.73 5.4-2.69 8.15-3.94 4.41-2 9.39-2.17 14.22-2.31a66.3 66.3 0 0 1 8.1.11 57.1 57.1 0 0 1 7 1.28c5 1.17 9.9 2.57 14.8 4 9 2.63 18 5.41 27.24 7.18a14.24 14.24 0 0 1 1.56.43 45.68 45.68 0 0 1-2 4.94c-3 .11-6.27-.49-9-.56-8.2-.24-16.29 1.82-24.15 4.21a30.3 30.3 0 0 1-7 1.57c-3.23.18-6.4-.73-9.49-1.63l-10.77-3.27a35.16 35.16 0 0 1-5.51-2.1c-1.5-.81-2.89-1.81-4.35-2.7a26.79 26.79 0 0 0-7.6-3.05 6.37 6.37 0 0 1-2.41-.89 1.82 1.82 0 0 1-.71-2.27z" class="D" transform-origin="193.77px 403.134px"/></g><g><path d="M201.05 408.54a35.48 35.48 0 0 1-9.93.67 59.63 59.63 0 0 1-12.8-1.25 59.49 59.49 0 0 1-9.34-3.44c-1.83-.79-3.77-1.67-4.82-3.36 9.94-6 22.59-5.06 33.9-2.37 6.94 1.65 13.73 3.86 20.51 6.08-.61-.2-3.63 1.46-4.45 1.65a10.62 10.62 0 0 1-3.73 0c-3.39-.2-6.16 1.19-9.34 2.02z" class="D" transform-origin="191.365px 403px"/></g><g><path d="M134.57 402.44a25.84 25.84 0 0 1 3.61.47c2.08.43 4.54 1.7 4.38 3.82 5-.07 10.41-.05 14.55 2.78l-5.82 1.44 49.82 7.89a16.06 16.06 0 0 0 4.42.32c3.13-.29 5.84-2.23 8.89-3 3.75-.9 9.58-.09 13.92 1.67a44.78 44.78 0 0 1-3.59 4.45 52.85 52.85 0 0 1-4.72 4.63 55.48 55.48 0 0 1-5.5 4.16c-10.71-.91-21.2-3.84-31.58-6.76l11.56-1c2.12-.2 4.4-.43 6-1.83q-9.39-1.68-18.87-2.55c-3.58-.32-7.19-.56-10.79-.79q-9.27-.57-18.54-1.18a3 3 0 0 0-1.69.19 1.1 1.1 0 0 0-.5 1.47 1.43 1.43 0 0 0 1 .47l5.77 1.32c1.77.4 4 1.57 3.46 3.27-3.28 0-6.59-.11-9.89-.18-1.16 0-2.34 0-3.53-.1a52.89 52.89 0 0 1-12.36-20.96z" class="D" transform-origin="181.455px 416.755px"/></g><g><path d="M152.33 428.34a37.7 37.7 0 0 1 8.36-.31c6.23.39 12.36 1.82 18.46 3.07a21 21 0 0 0 5 .6c1.88-.06 3.73-.62 5.62-.63 2.95 0 5.73 1.2 8.49 2.2 1.65.59 5.58 1.05 8.67 2a50.5 50.5 0 0 1-6.13 2.3h0a1.38 1.38 0 0 1-.16-.06 47.75 47.75 0 0 0-11.78-2.68c-8.73-1.24-17.53-2.45-26.31-1.81a12.8 12.8 0 0 0-2.53.39c-.94-.51-1.88-1.06-2.78-1.62-1.13-.69-2.19-1.43-3.25-2.2-.59-.42-1.13-.82-1.66-1.25z" class="D" transform-origin="179.63px 432.748px"/></g><g><path d="M209.2 424.08c4.68-2.43 10.21-2.35 15.55-1.78a52.85 52.85 0 0 1-4.72 4.63 46.26 46.26 0 0 1-10.83-2.85z" class="D" transform-origin="216.975px 424.449px"/></g><g><path d="M164.09,435.41c7.8-1.36,15.83-.44,23.49,1.42a81.65,81.65,0,0,1,8.09,2,52.88,52.88,0,0,1-31.58-3.39Z" class="D" transform-origin="179.88px 437.312px"/></g><g><path d="M153.94 429.58c.52-.1 1.06-.14 1.59-.19 3.67-.32 7.46-.63 11 .33-2.53-.63-6 .79-9.36 2.06-1.11-.69-2.17-1.43-3.23-2.2z" class="D" transform-origin="160.235px 430.427px"/></g><g><path d="M132.56 380.6a45.36 45.36 0 0 0-.36 4.83l.11 5.12a13.43 13.43 0 0 0 3.8.11l17.83-1.26c-1.91-2.09-5.12-2.18-7.93-1.88s-5.82.83-8.35-.46a24.12 24.12 0 0 1 14.27-4.14c3.48.11 6.93 1 10.36.64 3-.29 6-1.53 9-1.19a24.42 24.42 0 0 1 4.28 1.09c15.18 4.39 32.24-4 47 1.69q-13.7 1.55-27.38 3c3.83 3.46 9.57 3.24 14.67 3.88a38.31 38.31 0 0 1 15.83 5.69 17.24 17.24 0 0 0 5.3 2.73 13.81 13.81 0 0 0 4.49 0c.4 0 .8-.09 1.2-.13a53.33 53.33 0 0 0 1.34-6.77 63.11 63.11 0 0 0 .32-3.4c.06-.71.08-1.43.1-2.16.05-1.44 0-2.86-.07-4.29a52.51 52.51 0 0 0-2-12q-.36-1.28-.81-2.52c-3.67 0-7.39.44-11-.23-1.5-.28-3-.73-4.46-1a33 33 0 0 0-5.07-.37l-34.12-.77c-4.73-.11-9.43-.21-14.12-.76a106.07 106.07 0 0 1 32.05-2.91c1.68.1 3.48.21 4.92-.66-5.12-3.73-12.19-2.3-18.5-3-2.84-.29-5.63-1.06-8.49-1-2.62.06-5.19.76-7.79 1.07a49.81 49.81 0 0 1-8.46.08l-20.3-.91a50.65 50.65 0 0 0-5.31 11.28 49 49 0 0 0-2.35 10.6zM158 363.24a26.79 26.79 0 0 1 6.53-.92l.78.78a18.62 18.62 0 0 1-11.18 1c1.27-.32 2.54-.59 3.87-.86z" class="D" transform-origin="185.33px 379.555px"/></g><path d="M345.52 389.59c-16.77 7.73-28.25 18.56-25.65 24.2s18.3 3.94 35.06-3.79 28.25-18.57 25.65-24.2-18.3-3.94-35.06 3.79zm8.27 17.93c-14.67 6.76-28.27 8.51-30.39 3.91s8.05-13.8 22.71-20.56 28.26-8.52 30.39-3.92-8.05 13.81-22.71 20.57z" class="F" transform-origin="350.225px 399.797px"/><g class="E"><path d="M345.52 389.59c-16.77 7.73-28.25 18.56-25.65 24.2s18.3 3.94 35.06-3.79 28.25-18.57 25.65-24.2-18.3-3.94-35.06 3.79zm8.27 17.93c-14.67 6.76-28.27 8.51-30.39 3.91s8.05-13.8 22.71-20.56 28.26-8.52 30.39-3.92-8.05 13.81-22.71 20.57z" opacity=".6" transform-origin="350.225px 399.797px"/></g><path d="M345.92 390.46c-13.53 6.24-22.86 14.84-20.84 19.21s14.61 2.86 28.14-3.38 22.86-14.84 20.84-19.21-14.61-2.86-28.14 3.38zm6.41 13.91c-11.83 5.45-22.75 7-24.4 3.42s6.62-10.88 18.45-16.34 22.75-7 24.4-3.42-6.62 10.88-18.45 16.34z" class="F" transform-origin="349.57px 398.375px"/><g class="E"><path d="M345.92 390.46c-13.53 6.24-22.86 14.84-20.84 19.21s14.61 2.86 28.14-3.38 22.86-14.84 20.84-19.21-14.61-2.86-28.14 3.38zm6.41 13.91c-11.83 5.45-22.75 7-24.4 3.42s6.62-10.88 18.45-16.34 22.75-7 24.4-3.42-6.62 10.88-18.45 16.34z" class="H" transform-origin="349.57px 398.375px"/></g><path d="M346.32 391.33c-10.62 4.9-17.94 11.67-16.32 15.09s11.48 2.24 22.1-2.66 17.94-11.64 16.36-15.08-11.52-2.24-22.14 2.65zm5 10.92c-9.29 4.28-17.87 5.49-19.16 2.69s5.2-8.54 14.48-12.83 17.87-5.48 19.16-2.68-5.15 8.57-14.44 12.82z" class="F" transform-origin="349.225px 397.545px"/><g class="E"><path d="M346.32 391.33c-10.62 4.9-17.94 11.67-16.32 15.09s11.48 2.24 22.1-2.66 17.94-11.64 16.36-15.08-11.52-2.24-22.14 2.65zm5 10.92c-9.29 4.28-17.87 5.49-19.16 2.69s5.2-8.54 14.48-12.83 17.87-5.48 19.16-2.68-5.15 8.57-14.44 12.82z" class="J" transform-origin="349.225px 397.545px"/></g><g class="F"><circle cx="350.22" cy="399.79" r="15.96" transform-origin="350.22px 399.79px" transform="rotate(289.08)"/></g><g class="E"><path d="M338.62 388.85h0a16 16 0 0 1 13.07-4.92c.38 0 .77.09 1.14.15a15.86 15.86 0 0 1 9.45 5.29l.77 1a15.64 15.64 0 0 1 1.84 3.2 12.78 12.78 0 0 1 .65 1.82 15.47 15.47 0 0 1 .6 5.62 1.46 1.46 0 0 1 0 .3l-.19 1.37a15.43 15.43 0 0 1-1.51 4.44 11.72 11.72 0 0 1-.87 1.5 16 16 0 0 1-14.78 7.12 15.45 15.45 0 0 1-5-1.33h0a1.88 1.88 0 0 1-.38-.18 14.62 14.62 0 0 1-4.08-2.81s-.09-.07-.13-.12a15.09 15.09 0 0 1-3.11-4.19 7.08 7.08 0 0 1-.5-1.09 7.66 7.66 0 0 1-.42-1.05 12.75 12.75 0 0 1-.47-1.74 15.61 15.61 0 0 1-.32-4.85 15.81 15.81 0 0 1 4.24-9.53z" class="D" transform-origin="350.251px 399.833px"/></g><g class="E"><g class="D" transform-origin="350.203px 400.259px"><path d="M363.42 408.76a15.92 15.92 0 0 1-14.65 6.93 15.35 15.35 0 0 1-4.53-1.11c5.09-.34 12.59-1.2 19.18-5.82z" transform-origin="353.83px 412.259px"/><path d="M350.53 396.67c3.4-1.31 10.29-2.85 13.38-5.05a4.78 4.78 0 0 1 .38.65 35.58 35.58 0 0 0-4.81 4c-3.42 3.12-5.13 6-10.81 6.22s-1.93-4.34 1.86-5.82z" transform-origin="355.026px 397.059px"/><path d="M340.52 412.47c5-.63 17.06-2.78 25.32-9.3a21.3 21.3 0 0 1-.47 1.69c-5.24 2.67-15 7.83-23.23 8.68a14.17 14.17 0 0 1-1.62-1.07z" transform-origin="353.18px 408.355px"/><path d="M336.71 408.26a74 74 0 0 0 9.58-2c6.43-1.92 15.37-6.46 19.49-10a14.2 14.2 0 0 1 .37 2.77c-5.14 3.44-17.56 11-27.9 11.27a14.62 14.62 0 0 1-1.54-2.04z" transform-origin="351.43px 403.28px"/><path d="M336.47 391.74a9 9 0 0 1 .74-1.18c4.82-1.43 14.1-3.65 18.33-5.8a13.31 13.31 0 0 1 1.86.79c-5.27 1.21-16.2 5.08-20.93 6.19z" transform-origin="346.935px 388.25px"/><path d="M335.23 394.3a48.51 48.51 0 0 1 11.28-2.23c2.58 0 10.22-3 12.92-5.3a5.24 5.24 0 0 1 .61.47c-6.62 2.79-14.69 9.68-18.41 11.68a40.78 40.78 0 0 1-7.2 3.07 14.85 14.85 0 0 1-.11-3.66 16.19 16.19 0 0 1 .91-4.03z" transform-origin="347.148px 394.38px"/></g></g><g><path d="M334.64 403.18a35.77 35.77 0 0 0 3.44-1c4.37-1.48 12.25-7.85 19.22-10.78l5-2.06a11.03 11.03 0 0 1 .77 1 53.29 53.29 0 0 1-6.2 3.1c-4.44 1.86-9.18 4.38-11.91 6.66-2.09 1.73-7.37 4-9.83 4.84a12.75 12.75 0 0 1-.49-1.76z" class="D" transform-origin="348.855px 397.14px"/></g><g><path d="M335.53 406a102.09 102.09 0 0 1 12.21-2.25c6.92-.8 9.54-3.87 12.37-6.79a19.08 19.08 0 0 1 4.78-3.41 12.78 12.78 0 0 1 .65 1.82 48.18 48.18 0 0 1-10.45 6.63c-6.55 3.07-15.65 4.56-19.06 5.05a7.08 7.08 0 0 1-.5-1.05z" class="D" transform-origin="350.535px 400.3px"/></g><g><path d="M339.14 411.25a55.61 55.61 0 0 0 17.27-5.17c4.45-2.19 7.62-3.92 9.73-5.12a1.46 1.46 0 0 1 0 .3c-.05.47-.1.92-.19 1.37-5 2.67-16.56 8.18-26.66 8.74-.07-.01-.11-.07-.15-.12z" class="D" transform-origin="352.644px 406.165px"/></g><g><path d="M338.62 388.83a16 16 0 0 1 13.07-4.92c.38 0 .77.09 1.14.15-3.4 1.58-9.71 4.16-14.21 4.77z" class="D" transform-origin="345.725px 386.336px"/></g><g><path d="M343.35 414.18c4-.95 14.22-3.52 18.57-5.9a21.53 21.53 0 0 1 2.5-1.21 11.72 11.72 0 0 1-.87 1.5c-3.11 1.36-9.12 3.85-12.51 4.4-3 .48-5.68 1-7.29 1.39h0a1.88 1.88 0 0 1-.4-.18z" class="D" transform-origin="353.885px 410.715px"/></g><g><path d="M356.85 386.83s-5.85 3.62-8.48 4.06a32.08 32.08 0 0 1-4.83.45s8.46-4.34 13.31-4.51z" class="D" transform-origin="350.195px 389.085px"/></g><path d="M374.39,385.12A3.8,3.8,0,0,1,376.5,387c2.12,4.6-8.05,13.81-22.71,20.57s-28.27,8.51-30.39,3.91a3.76,3.76,0,0,1,0-2.79l-3.59,1.65a4.86,4.86,0,0,0,.08,3.5c2.6,5.64,18.3,3.94,35.06-3.79s28.25-18.57,25.65-24.2a4.8,4.8,0,0,0-2.61-2.33Z" class="F" transform-origin="350.245px 400.344px"/><g class="E"><path d="M374.39,385.12A3.8,3.8,0,0,1,376.5,387c2.12,4.6-8.05,13.81-22.71,20.57s-28.27,8.51-30.39,3.91a3.76,3.76,0,0,1,0-2.79l-3.59,1.65a4.86,4.86,0,0,0,.08,3.5c2.6,5.64,18.3,3.94,35.06-3.79s28.25-18.57,25.65-24.2a4.8,4.8,0,0,0-2.61-2.33Z" opacity=".6" transform-origin="350.245px 400.344px"/></g><path d="M370,387.13a2.39,2.39,0,0,1,.75.9c1.64,3.57-6.62,10.88-18.45,16.34s-22.75,7-24.4,3.42a2.47,2.47,0,0,1-.2-1.16l-2.9,1.34a3.2,3.2,0,0,0,.25,1.7c2,4.37,14.61,2.86,28.14-3.38s22.86-14.84,20.84-19.21a3.16,3.16,0,0,0-1.13-1.29Z" class="F" transform-origin="349.54px 398.979px"/><g class="E"><path d="M370,387.13a2.39,2.39,0,0,1,.75.9c1.64,3.57-6.62,10.88-18.45,16.34s-22.75,7-24.4,3.42a2.47,2.47,0,0,1-.2-1.16l-2.9,1.34a3.2,3.2,0,0,0,.25,1.7c2,4.37,14.61,2.86,28.14-3.38s22.86-14.84,20.84-19.21a3.16,3.16,0,0,0-1.13-1.29Z" class="H" transform-origin="349.54px 398.979px"/></g><path d="M365.65,389.15a2.75,2.75,0,0,1,.19.28c1.29,2.8-5.19,8.54-14.48,12.82s-17.87,5.49-19.16,2.69a3.18,3.18,0,0,1-.09-.33l-2.34,1.08a2.25,2.25,0,0,0,.19.73c1.58,3.43,11.48,2.24,22.1-2.66s17.94-11.64,16.36-15.08a2.55,2.55,0,0,0-.42-.61Z" class="F" transform-origin="349.202px 398.225px"/><g class="E"><path d="M365.65,389.15a2.75,2.75,0,0,1,.19.28c1.29,2.8-5.19,8.54-14.48,12.82s-17.87,5.49-19.16,2.69a3.18,3.18,0,0,1-.09-.33l-2.34,1.08a2.25,2.25,0,0,0,.19.73c1.58,3.43,11.48,2.24,22.1-2.66s17.94-11.64,16.36-15.08a2.55,2.55,0,0,0-.42-.61Z" class="J" transform-origin="349.202px 398.225px"/></g></g><g id="C" class="B" transform-origin="74.0123px 243.402px"><path d="M57.14,248.45,53.39,250a6.75,6.75,0,0,0,1.15,5.09,5.62,5.62,0,0,0,4.05,2.09l2.6-5Z" class="F" transform-origin="57.2386px 252.815px"/><g class="E"><path d="M61.19,252.18l-2.61,5A5.42,5.42,0,0,1,55.5,256a5,5,0,0,1-1-.91A6.68,6.68,0,0,1,53.39,250l3.75-1.51Z" opacity=".3" transform-origin="57.2325px 252.835px"/></g><g><path d="M61.19,252.18l-2.61,5A5.42,5.42,0,0,1,55.5,256Z" class="G" transform-origin="58.345px 254.68px"/></g><path d="M60.68,253.15,57.31,257s.8,3.17,3.87,3.35S65.42,259,65.42,259l.16-4.37Z" class="F" transform-origin="61.445px 256.757px"/><g class="E"><path d="M60.68,253.15,57.31,257s.8,3.17,3.87,3.35S65.42,259,65.42,259l.16-4.37Z" opacity=".3" transform-origin="61.445px 256.757px"/></g><path d="M81.26 237.47c-4.36 4.45-10.14 20.91-9.88 23.13s-6.33 6.07-6.33 6.07L62.44 234s4.46-3.89 6.39-4.45 6 3.92 9.32 1.15 3.11 6.77 3.11 6.77z" class="F" transform-origin="71.8513px 248.085px"/><g class="E"><path d="M71.38 260.61c.15 1.23-1.83 3-3.61 4.27h0l-2.69 1.78L62.43 234s2.12-1.84 4.07-3.18a9.53 9.53 0 0 1 2.33-1.27c1.93-.57 6 3.92 9.31 1.15a2.32 2.32 0 0 1 .9-.49c1.2-.24 1.76 1.52 2 3.37h0a27.69 27.69 0 0 1 .21 3.88c-4.35 4.46-10.12 20.92-9.87 23.15z" class="H" transform-origin="71.8418px 248.08px"/></g><g><path d="M71.38 260.61c.15 1.23-1.83 3-3.61 4.27 2.18-2.29 1.91-4.51 2.36-9.24s3.19-14 3.19-14a15.2 15.2 0 0 0-2.65-7.11c-1.56-2.4-3-3.48-4.17-3.7a9.53 9.53 0 0 1 2.33-1.27c1.93-.57 6 3.92 9.31 1.15a2.32 2.32 0 0 1 .9-.49l2 3.37h0a27.69 27.69 0 0 1 .21 3.88c-4.35 4.45-10.12 20.91-9.87 23.14z" class="G" transform-origin="73.8768px 247.195px"/></g><path d="M57.13 248.46s23-24.64 26.12-26.55 5.4-1.25 5.4-1.25 4.21-1 5.53-.09.29 2.53-2.51 6.37c-5.19 7.12-27.12 28.74-27.12 28.74s-7.3-1.4-7.42-7.22z" class="F" transform-origin="75.9398px 237.934px"/><g class="E"><path d="M92.82 225.33l-1.14 1.6c-5.2 7.13-27.13 28.75-27.13 28.75s-7.31-1.4-7.41-7.23c0 0 23-24.63 26.12-26.53a9.12 9.12 0 0 1 3.32-1.28 5.2 5.2 0 0 1 2.07 0l.5-.12 1.26-.23c1.32-.19 3-.3 3.77.25 1.12.85.54 2.09-1.36 4.79z" class="J" transform-origin="75.9439px 237.907px"/></g><g><path d="M85.16 226.71l-.53-.4a.91.91 0 0 1-.14-1.31c.84-1 2.21-2.84 2.09-4.36a5.2 5.2 0 0 1 2.07 0l.5-.12c.4 2.1-1.71 4.84-2.76 6a.9.9 0 0 1-1.23.19z" class="H" transform-origin="86.737px 223.696px"/></g><g><path d="M92.82 225.33a6.67 6.67 0 0 1-2.41-5c1.32-.19 3-.3 3.77.25 1.12.81.54 2.05-1.36 4.75z" class="G" transform-origin="92.5789px 222.752px"/></g><g><g class="D" transform-origin="73.1398px 241.785px"><path d="M66.68 250.32l-.12-.34a1.46 1.46 0 0 0 .92-.45c.36-.36.37-.66.18-.83-.51-.51-1.43 1.08-2.21.31-.32-.31-.35-.83.19-1.38a1.75 1.75 0 0 1 .85-.5l.14.34a1.39 1.39 0 0 0-.73.41c-.35.35-.36.65-.17.83.51.5 1.44-1.08 2.2-.33.33.32.35.85-.2 1.4a1.7 1.7 0 0 1-1.05.54z" transform-origin="66.6916px 248.725px"/><path d="M69.53 245.17a1.06 1.06 0 0 1-.13 1.6l-.51.51.64.63-.3.3-2.09-2.06.8-.82a1.06 1.06 0 0 1 1.59-.16zm-.29.3c-.3-.29-.67-.26-1 .12l-.5.51.94.93.5-.51c.33-.39.35-.75.06-1.05z" transform-origin="68.4874px 246.547px"/><path d="M72.31,244l-1.1,1.12.3.74-.3.31-1.17-3,.3-.3,3,1.1-.31.32Zm-.34-.13-1.48-.55.59,1.46Z" transform-origin="71.69px 244.52px"/><path d="M72.73 242.55a1.49 1.49 0 0 1 0-2.16 1.45 1.45 0 0 1 1.11-.48v.38a1.13 1.13 0 0 0-.83.35 1.13 1.13 0 1 0 1.61 1.58 1.09 1.09 0 0 0 .33-.84h.38a1.43 1.43 0 0 1-.46 1.13 1.48 1.48 0 0 1-2.14.04z" transform-origin="73.7993px 241.449px"/><path d="M77.6,239.16l.26.26-1.5,1.52-2.09-2.06,1.45-1.48.26.26-1.16,1.18.65.63,1-1.05.25.25-1,1.05.68.67Z" transform-origin="76.065px 239.17px"/><path d="M79.26 236.73a1 1 0 0 1-.13 1.44 1.63 1.63 0 0 1-1 .52l-.1-.37a1.29 1.29 0 0 0 .84-.41c.31-.32.34-.64.12-.86s-.53-.23-1 .26l-.47.47-1-1.19 1.17-1.18.26.26-.92.93.52.62.23-.23c.6-.63 1.11-.62 1.48-.26z" transform-origin="78.0134px 237.05px"/><path d="M79.79,233.25l.21.2,1.06,2.71-.32.32-1-2.63-.94,1,.38.37-.28.29-.64-.62Z" transform-origin="79.66px 234.865px"/></g></g><g><path d="M81.44 229.07l.72-.75a.89.89 0 0 1 1.21-.06l2.11 1.74a.88.88 0 0 1 .06 1.3l-.78.8a.89.89 0 0 1-1.23 0l-2-1.82a.89.89 0 0 1-.09-1.21z" class="G" transform-origin="83.5213px 230.199px"/></g></g><g id="D" class="B F" transform-origin="209.2px 266.02px"><path d="M182.22,289.79l-10.29,2.78,3.6,13.3-7.5,2-3.6-13.3-30.08,8.15-1.46-5.42L151,254.42l8.35-2.26-17.27,41.36,20.8-5.63-3.18-11.75,7.27-2,3.18,11.75,10.29-2.78Z" transform-origin="157.555px 280.015px"/><path d="M183.13 274.77c-4.78-17.63 1.94-30.24 14.62-33.67s24.76 4.09 29.53 21.72-1.94 30.23-14.55 33.64-24.83-4.06-29.6-21.69zm36.42-9.86C215.8 251.07 208 245.7 199.61 248s-12.5 10.85-8.75 24.69 11.51 19.21 20 16.91 12.43-10.85 8.69-24.69z" transform-origin="205.203px 268.778px"/><path d="M285.51,261.82l-10.28,2.79,3.6,13.3-7.5,2-3.6-13.3-30.08,8.14-1.47-5.41,18.1-42.91,8.35-2.26-17.27,41.36,20.8-5.64L263,248.17l7.27-2L273.43,258l10.28-2.79Z" transform-origin="260.845px 252.04px"/></g><g id="E" class="B F" transform-origin="194.19px 211.708px"><path d="M149.44,231.34l1.32,4.84-20.2,5.47-7.06-26.09,19.71-5.33,1.31,4.84-13.71,3.71,1.53,5.67,12.11-3.28,1.27,4.69-12.11,3.28,1.64,6Z" transform-origin="137.13px 225.94px"/><path d="M172.18 230.38l-7-5.91-.3.09-5.25 1.44 2 7.27-6 1.63-7.06-26.09 11.29-3c7-1.89 12.31.55 13.89 6.4a8.78 8.78 0 0 1-3.13 9.68l8.12 6.81zm-11.39-19.63l-4.92 1.33 2.46 9.09 4.92-1.33c3.69-1 5.09-3.22 4.32-6.05s-3.09-4.04-6.78-3.04z" transform-origin="163.655px 220.041px"/><path d="M199.57 223l-7-5.91-.3.08-5.27 1.39 2 7.27-6 1.64-7.06-26.09 11.29-3.06c7-1.88 12.31.55 13.89 6.4a8.8 8.8 0 0 1-3.13 9.69l8.12 6.8zm-11.39-19.64l-4.92 1.33 2.46 9.1 4.92-1.33c3.69-1 5.09-3.22 4.32-6.05s-3.09-4.08-6.78-3.08z" transform-origin="191.025px 212.583px"/><path d="M205.17 207.45c-2.1-7.75 2.39-15.12 10.62-17.35s15.82 1.84 17.93 9.62-2.43 15.14-10.62 17.36-15.83-1.88-17.93-9.63zm22.43-6.07a8.46 8.46 0 1 0-5.9 10.56 8.24 8.24 0 0 0 5.9-10.56z" transform-origin="219.445px 203.586px"/><path d="M258.41 207l-7-5.91-.3.08-5.26 1.42 2 7.27-6 1.64-7.06-26.09 11.21-3.02c7-1.88 12.31.55 13.89 6.4a8.78 8.78 0 0 1-3.13 9.69l8.12 6.8zM247 187.4l-4.92 1.34 2.46 9.09 4.92-1.33c3.69-1 5.09-3.22 4.32-6.05s-3.07-4.04-6.78-3.05z" transform-origin="249.835px 196.633px"/></g><g id="F" class="B" transform-origin="306.45px 347.825px"><path d="M327.79 368.62h-42.74a8.84 8.84 0 0 1-8.84-8.85v-15a8.84 8.84 0 0 1 8.84-8.84h28.4l7-8.9-1 8.9h8.39a8.84 8.84 0 0 1 8.85 8.84v15a8.85 8.85 0 0 1-8.9 8.85z" class="F" transform-origin="306.45px 347.825px"/><path d="M287.14 351.55a5.07 5.07 0 1 1 5.09 4.88 4.86 4.86 0 0 1-5.09-4.88zm8.78 0a3.71 3.71 0 1 0-3.69 3.67 3.58 3.58 0 0 0 3.69-3.67z" class="E" transform-origin="292.206px 351.363px"/><path d="M298.51 352.71a3.75 3.75 0 1 1 3.76 3.69 3.59 3.59 0 0 1-3.76-3.69zm6.18 0a2.43 2.43 0 1 0-4.86 0 2.43 2.43 0 1 0 4.86 0z" class="E" transform-origin="302.259px 352.652px"/><path d="M315.31 352.71a3.51 3.51 0 0 1-3.66 3.69 3.07 3.07 0 0 1-2.52-1.17V359h-1.31v-9.9h1.26v1.15a3.05 3.05 0 0 1 2.57-1.22 3.51 3.51 0 0 1 3.66 3.68zm-1.33 0a2.43 2.43 0 1 0-2.44 2.55 2.39 2.39 0 0 0 2.46-2.55z" class="E" transform-origin="311.567px 354.013px"/><path d="M316.2 355.56l.55-1a4.59 4.59 0 0 0 2.53.75c1.22 0 1.72-.36 1.72-1 0-1.62-4.56-.22-4.56-3.09 0-1.3 1.15-2.17 3-2.17a5.25 5.25 0 0 1 2.63.66l-.56 1a3.82 3.82 0 0 0-2.09-.57c-1.14 0-1.7.42-1.7 1 0 1.71 4.58.32 4.58 3.12 0 1.31-1.2 2.14-3.12 2.14a5.21 5.21 0 0 1-2.98-.84z" class="E" transform-origin="319.25px 352.726px"/><path d="M323.64 355.53a.87.87 0 0 1 .9-.87.87.87 0 0 1 0 1.74.87.87 0 0 1-.9-.87zm.13-8.75h1.53l-.25 6.53h-1z" class="E" transform-origin="324.523px 351.59px"/></g><g id="G" class="B" transform-origin="345.56px 221.186px"><path d="M347.89 246.78l31.92-2.31.28-1.25c1-4.92 4.78-23.4 4.19-35.15a24.72 24.72 0 0 0-.95-6.18c-3.9-12.12-42.18-36.55-42.18-36.55L339.29 180l22.5 28.18c-6.91 15.58-13.9 38.6-13.9 38.6z" class="F" transform-origin="361.816px 206.06px"/><g class="E"><path d="M347.89 246.78l31.92-2.31.28-1.25c1-4.92 4.78-23.4 4.19-35.15a24.72 24.72 0 0 0-.95-6.18c-3.9-12.12-42.18-36.55-42.18-36.55L339.29 180l22.5 28.18c-6.91 15.58-13.9 38.6-13.9 38.6z" class="J" transform-origin="361.816px 206.06px"/></g><path d="M322.16 287.11c-4 2.73-8 5.66-12 8.46l-5.92 4.15c-1.92 1.35-3.92 2.64-5.66 3.67-.42.26-.85.5-1.17.68s-.57.28-.51.32a1.42 1.42 0 0 1 .36 0h.09-.1-.2l-.82.15-1.69.31c-2.29.42-4.7.76-7.12 1.16-4.84.77-9.82 1.52-14.75 2.62h-.09a4.58 4.58 0 0 0-.12 8.9 103.06 103.06 0 0 0 15.35 2.55c2.59.25 5.21.38 7.92.43h2.06 1.05.4.32c.43-.06.86-.14 1.29-.22a23.85 23.85 0 0 0 3-.94c.83-.31 1.54-.62 2.24-.92 2.74-1.24 5-2.53 7.38-3.84s4.5-2.69 6.69-4.07c4.35-2.82 8.53-5.67 12.64-8.87A9 9 0 0 0 322.26 287z" class="F" transform-origin="302.788px 302.906px"/><g class="E"><path d="M322.16 287.11c-4 2.73-8 5.66-12 8.46l-5.92 4.15c-1.92 1.35-3.92 2.64-5.66 3.67-.42.26-.85.5-1.17.68s-.57.28-.51.32a1.42 1.42 0 0 1 .36 0h.09-.1-.2l-.82.15-1.69.31c-2.29.42-4.7.76-7.12 1.16-4.84.77-9.82 1.52-14.75 2.62h-.09a4.58 4.58 0 0 0-.12 8.9 103.06 103.06 0 0 0 15.35 2.55c2.59.25 5.21.38 7.92.43h2.06 1.05.4.32c.43-.06.86-.14 1.29-.22a23.85 23.85 0 0 0 3-.94c.83-.31 1.54-.62 2.24-.92 2.74-1.24 5-2.53 7.38-3.84s4.5-2.69 6.69-4.07c4.35-2.82 8.53-5.67 12.64-8.87A9 9 0 0 0 322.26 287z" class="J" transform-origin="302.788px 302.906px"/></g><path d="M296.93,304.39s6.47,9.73,5,15.56l2-.66s-.54-10.72-6.47-15.22Z" class="F" transform-origin="300.43px 312.01px"/><path d="M270.72,309.13l-8.67,1.08,5.23,8.16s7.67-1.43,6.77-5.36Z" class="F" transform-origin="268.087px 313.75px"/><path class="F" d="M255.27 315.59l6.88 5.49 5.13-2.71-5.23-8.16-6.78 5.38z" transform-origin="261.275px 315.645px"/><g class="E"><g class="H" transform-origin="264.697px 315.105px"><path d="M270.72,309.13l-8.67,1.08,5.23,8.16s7.67-1.43,6.77-5.36Z" transform-origin="268.087px 313.75px"/><path d="M255.27 315.59l6.88 5.49 5.13-2.71-5.23-8.16-6.78 5.38z" transform-origin="261.275px 315.645px"/></g></g><path d="M270.72,309.13s3.55,4.33.6,8l1.17.48s4.71-3,.21-8.92Z" class="F" transform-origin="272.683px 313.15px"/><g class="E"><path d="M296.93,304.39s6.47,9.73,5,15.56l2-.66s-.54-10.72-6.47-15.22Z" class="K" transform-origin="300.43px 312.01px"/></g><g class="E"><path d="M270.72,309.13s3.55,4.33.6,8l1.17.48s4.71-3,.21-8.92Z" class="K" transform-origin="272.683px 313.15px"/></g><path d="M343 170.26l-1.46 8.5c0 .42-1.83 1.31-2.26 1.28h0l-9.63-.54a1.92 1.92 0 0 1-1.68-2.11l1.72-11.48c.4-3.26.87-9.74 2.11-14.11s5.53-3 5.39-1.07c-.32 4.65 1.93 11.3 3.95 14.61.36.58 1.97 4.25 1.86 4.92z" class="F" transform-origin="335.482px 164.471px"/><g class="E"><path d="M343.86 170.79l-2.94 8.72c0 .42-1.19.56-1.62.53h0l-9.63-.54a1.92 1.92 0 0 1-1.68-2.11l1.72-11.48c.4-3.26.87-9.74 2.11-14.11s5.53-3 5.39-1.07c-.32 4.65 1.93 11.3 3.95 14.61.34.58 2.78 4.78 2.7 5.45z" class="H" transform-origin="335.921px 164.473px"/></g><g><path d="M380.09 243.22c1-4.92 4.78-23.4 4.19-35.15-2.86 4.84-9.28 16.93-10.28 29.39-.55 6.2 2.27 7.47 6.09 5.76z" class="G" transform-origin="379.137px 225.993px"/></g><path d="M349.78,251.82s2.64-19,22.59-22.49c0,0,14.38-18.34,32.46-36.74l-9.67-50.37L405.61,137s22.2,37.77,18.92,62.44-39.8,59.67-39.8,59.67Z" class="F" transform-origin="387.32px 198.055px"/><g class="E"><path d="M349.78,251.82s2.64-19,22.59-22.49c0,0,14.38-18.34,32.46-36.74l-9.67-50.37L405.61,137s22.2,37.77,18.92,62.44-39.8,59.67-39.8,59.67Z" class="J" transform-origin="387.32px 198.055px"/></g><path d="M383.18 232.13a6.83 6.83 0 0 1-6.36 6.8l-24 1.67a6.83 6.83 0 0 1-7-4.77 6.72 6.72 0 0 1-.3-1.57v-.48a6.82 6.82 0 0 1 6.35-6.8l24-1.67a6.84 6.84 0 0 1 7.28 6.34c.02.16.03.35.03.48z" class="F" transform-origin="364.35px 232.956px"/><g class="E"><path d="M382 230a6.83 6.83 0 0 1-6.35 6.8l-24 1.67a6.81 6.81 0 0 1-5.83-2.59 6.72 6.72 0 0 1-.3-1.57v-.48a6.82 6.82 0 0 1 6.35-6.8l24-1.67a6.81 6.81 0 0 1 5.83 2.59 6.72 6.72 0 0 1 .3 1.57v.48z" class="D" transform-origin="363.76px 231.915px"/></g><path d="M386.82,261a17.16,17.16,0,0,0-12.15-16.11c-12.53-4.3-10.71,11.29-10.71,11.29l22.34,5.74Z" class="F" transform-origin="375.344px 253.03px"/><g class="E"><path d="M386.82,261a17.16,17.16,0,0,0-12.15-16.11c-12.53-4.3-10.71,11.29-10.71,11.29l22.34,5.74Z" class="K" transform-origin="375.344px 253.03px"/></g><path d="M370.88 245.84s12.63 3 15.18 13.34-15.16 33-22.53 37-36.83 7.87-40.33 3.66c-12.06-14.5 13.8-38.03 22.69-43.84s24.99-10.16 24.99-10.16z" class="F" transform-origin="353.181px 273.751px"/><g class="E"><path d="M323.2 299.86a2.38 2.38 0 0 0 .58.49c2.29 1.46 8.63 1.61 15.68 1 8.87-.77 18.87-2.73 23.35-4.81l.72-.35c5.69-3.11 17.56-17.35 21.49-28.42 1.16-3.26 1.62-6.25 1-8.6-2.55-10.32-15.18-13.34-15.18-13.34s-16.09 4.43-25 10.2-34.7 29.3-22.64 43.83z" class="J" transform-origin="353.171px 273.759px"/></g><g><path d="M323.78 300.35c2.29 1.46 8.63 1.61 15.68 1 14.56-15.67 6.25-27.7 6.25-27.7-12.25-1.11-20.86 15.74-21.93 26.7z" class="G" transform-origin="335.926px 287.643px"/></g><path d="M380.09 243.22S378 232.3 375.5 231s-29.22 1.07-32.64 2.36-21.9 17.45-23.14 22 4.36 16.38 4.36 16.38 19.12 3.82 26.92.57 27.08-23.11 29.09-29.09z" class="F" transform-origin="349.815px 252.121px"/><g class="E"><path d="M324.08 271.73s19.12 3.81 26.92.56 27.09-23.08 29.08-29.07c0 0-2.13-10.92-4.58-12.26s-29.21 1.08-32.64 2.36-21.9 17.46-23.13 22a9.83 9.83 0 0 0 .1 4.19c.99 5.31 4.25 12.22 4.25 12.22z" class="H" transform-origin="349.816px 252.085px"/></g><g class="E"><path d="M319.83 259.53c2.59.49 19.4 3.51 26.59.51 7.79-3.26 27.08-23.04 29.08-29.04-2.45-1.33-29.21 1.08-32.64 2.36s-21.9 17.46-23.13 22a9.83 9.83 0 0 0 .1 4.17z" class="D" transform-origin="347.527px 245.981px"/></g><g class="I"><circle cx="320.61" cy="279.24" r="24.92" transform-origin="320.61px 279.24px" transform="rotate(318.85)"/></g><g class="E"><circle cx="320.61" cy="279.24" r="24.92" class="J" transform-origin="320.61px 279.24px" transform="rotate(318.85)"/></g><g><path d="M329 301.64a23.92 23.92 0 1 0-30.78-14 23.93 23.93 0 0 0 30.78 14z" class="D" transform-origin="320.616px 279.236px"/></g><g><ellipse cx="332.06" cy="282.78" rx="17.98" ry="13.42" opacity=".3" transform-origin="332.06px 282.78px" transform="rotate(283.98)"/></g><path d="M324 291.76s4.66 4.59 6.05 3.44 4.08 2.39 6.33.38 6.66-7.88 4.43-13.4-16.32 1.31-16.81 9.58z" class="I" transform-origin="332.711px 288.198px"/><g class="E"><path d="M324 291.76s4.67 4.59 6.05 3.44a1.45 1.45 0 0 1 1.44-.1c1.42.49 3.27 1.93 4.89.48 2.25-2 6.65-7.88 4.43-13.4-.95-2.37-4.09-2.46-7.41-1.15a17.35 17.35 0 0 0-2.59 1.29c-3.38 2.06-6.38 5.39-6.78 9 .02.16-.03.31-.03.44z" opacity=".8" transform-origin="332.709px 288.198px"/></g><g><path d="M324 291.76s4.67 4.59 6.05 3.44a1.45 1.45 0 0 1 1.44-.1c5.55-3.32 3-11.27 1.91-14.07a17.35 17.35 0 0 0-2.59 1.29 51.1 51.1 0 0 0-6.78 9c.02.16-.03.31-.03.44z" class="D" transform-origin="329.47px 288.207px"/></g><path d="M314 291.38a2.83 2.83 0 0 0 .51 0c4.78-.23 3.45-9.8 1.13-15.27-1-2.42-2.43-3.53-3.7-3.59-1.62-.09-3 1.49-3.3 4.17-.18 1.8 1 4.27.8 5.47s.29 8.84 4.56 9.22z" class="I" transform-origin="313.18px 281.954px"/><g class="E"><path d="M314 291.38a2.83 2.83 0 0 0 .51 0c4.78-.23 3.45-9.8 1.13-15.27-1-2.42-2.43-3.53-3.7-3.59-1.62-.09-3 1.49-3.3 4.17-.18 1.8 1 4.27.8 5.47s.29 8.84 4.56 9.22z" opacity=".9" transform-origin="313.18px 281.954px"/></g><g><path d="M314 291.38a2.83 2.83 0 0 0 .51 0c4.78-.23 3.45-9.8 1.13-15.27-1-2.42-2.43-3.53-3.7-3.59a8 8 0 0 0-1 .86c-1.59 1.57 0 7.67 0 9.27-.11 1.47.44 6.35 3.06 8.73z" class="D" transform-origin="313.986px 281.956px"/></g><path d="M331.13 275.2c1.84 7.22 3.28 11.36.86 16.11-3.65 7.15-13.48 6.63-17.45.09-3.57-5.89-6-16.71.08-21.69a10.28 10.28 0 0 1 16.51 5.49z" fill="#ebb376" transform-origin="322.088px 281.931px"/><path d="M321 280.53c.18.58 0 1.14-.35 1.26s-.84-.25-1-.83 0-1.14.35-1.26.78.3 1 .83z" class="I" transform-origin="320.329px 280.746px"/><path d="M314.42 282.57c.18.57 0 1.14-.35 1.26s-.84-.26-1-.84 0-1.14.35-1.25.81.26 1 .83z" class="I" transform-origin="313.749px 282.786px"/><path d="M316.59,282.21a21,21,0,0,1-1.28,5.63,3.57,3.57,0,0,0,2.9-.39Z" fill="#d58745" transform-origin="316.76px 285.099px"/><path d="M319.1 276.71a.4.4 0 0 1 .37 0 2.88 2.88 0 0 0 2.55.38.36.36 0 0 1 .47.19.34.34 0 0 1-.18.46 3.58 3.58 0 0 1-3.24-.44.36.36 0 0 1-.1-.49.49.49 0 0 1 .13-.1z" class="I" transform-origin="320.718px 277.304px"/><path d="M312.41 278.28a.37.37 0 0 1 .21 0 .35.35 0 0 1 .24.44 3.53 3.53 0 0 1-2.2 2.37.38.38 0 0 1-.45-.24.35.35 0 0 1 .24-.44 2.77 2.77 0 0 0 1.73-1.9.32.32 0 0 1 .23-.23z" class="I" transform-origin="311.535px 279.683px"/><path d="M323.64 291.05c-.16.11-.34.22-.52.32l-3.51-1.78.35-.49c.72-1 2.45-3.14 4-3a2.8 2.8 0 0 1 .52.13 2.73 2.73 0 0 1 1.5 1.17c.47.89.16 2.11-2.34 3.65z" class="I" transform-origin="322.887px 288.732px"/><path d="M324.5 286.28l-4.09 3-.45-.15c.72-1 2.45-3.14 4-3a2.8 2.8 0 0 1 .54.15z" class="E" transform-origin="322.23px 287.702px"/><path d="M323.64 291.05c-.67-1.47 1.16-2.9 2.36-3.6.45.84.14 2.06-2.36 3.6z" fill="#de5753" transform-origin="324.835px 289.25px"/><path d="M322.82 295.25l-.31-.95c.92-.31 3.48-1.3 4.31-2.19a52.89 52.89 0 0 0 3.86-6.53l.89.47c-.12.22-2.88 5.52-4 6.74s-4.57 2.41-4.75 2.46z" class="I" transform-origin="327.04px 290.415px"/><path d="M322.87 295.44l1.05-.4a.71.71 0 0 0 .42-.91h0a.72.72 0 0 0-.92-.41l-1.05.39a.71.71 0 0 0-.41.91h0a.71.71 0 0 0 .91.42z" class="I" transform-origin="323.149px 294.579px"/><path d="M335.75 280.22a7 7 0 0 1-2.07 5c-1.77 1.73-3.87.42-4.38-1.87-.47-2.07-.11-5.45 2.16-6.32a3.21 3.21 0 0 1 4.29 3.19z" fill="#ebb376" transform-origin="332.437px 281.428px"/><path d="M314.85 272.22c2.2-.7 7.95-1.67 9.23-.5s3.95 15.17 6.81 16 7.9-3.87 7.48-8.11a9.5 9.5 0 0 0-3.06-6.3s-.76-11.14-12.37-10.28-14.43 10.36-14.27 13.68a12.21 12.21 0 0 1 6.18-4.49z" class="I" transform-origin="323.529px 275.399px"/><g class="E"><path d="M314.85 272.22c2.2-.7 7.95-1.67 9.23-.5s3.95 15.17 6.81 16 7.9-3.87 7.48-8.11a9.5 9.5 0 0 0-3.06-6.3s-.76-11.14-12.37-10.28-14.43 10.36-14.27 13.68a12.21 12.21 0 0 1 6.18-4.49z" opacity=".9" transform-origin="323.529px 275.399px"/></g><path d="M305.89,258.14l1.54-.42a28.69,28.69,0,0,1,14.6-4.26c8.94-.27,22.11,7.83,24.34,23.52.09.6.15,1.15.19,1.66a12,12,0,0,1,.09,1.37v.05a11.13,11.13,0,0,1-.07,1.71c-.82,9.43-8.66,16.53-8.66,16.53a30.74,30.74,0,0,1-10.2,6.33L326,303.58c16.07-6.46,13.62-24.06,13.62-24.06l-5.46-10.33s-14.61-16.61-31.84-6.83l-.71-.62A30.78,30.78,0,0,1,305.89,258.14Z" class="F" transform-origin="324.134px 279.042px"/><g class="E"><path d="M301.58 261.74l.7.61c17.24-9.77 31.84 6.84 31.84 6.84l5.46 10.33s2.42 17.6-13.58 24.06l1.77 1.06a31.39 31.39 0 0 0 4.58-2.18 26.78 26.78 0 0 0 5.61-4.16s7.84-7.1 8.66-16.53a10 10 0 0 0 .07-1.71.13.13 0 0 1 0-.06c0-.47-.05-.92-.1-1.36s-.1-1.05-.19-1.66c-2.22-15.7-15.4-23.79-24.34-23.52a28.89 28.89 0 0 0-14.51 4.2l-.09.06-1.54.42a30.48 30.48 0 0 0-4.34 3.6z" class="J" transform-origin="324.14px 279.047px"/></g><g><path d="M301.58 261.74l.7.61c17.24-9.77 31.84 6.84 31.84 6.84l5.46 10.33s2.42 17.6-13.58 24.06l1.77 1.06a31.39 31.39 0 0 0 4.58-2.18c4.32-3.86 11.49-15.85 8.29-22.39a65.22 65.22 0 0 1-4.64-12.24s-12.91-14.15-28.5-10.17c-.53.13-1.08.3-1.63.48a30.48 30.48 0 0 0-4.29 3.6z" class="D" transform-origin="321.509px 280.797px"/></g><path d="M335.12 268c1.72-.64 3.72.05 5.4 1.63a7.59 7.59 0 0 1 3.53 9.45c-.23 2.29-1.28 4.12-3 4.77-2.9 1.08-6.57-1.59-8.21-6s-.61-8.73 2.28-9.85z" class="F" transform-origin="338.311px 275.926px"/><g class="E"><path d="M335.12 268c1.72-.64 3.72.05 5.4 1.63a7.59 7.59 0 0 1 3.53 9.45c-.23 2.29-1.28 4.12-3 4.77-2.9 1.08-6.57-1.59-8.21-6s-.61-8.73 2.28-9.85z" class="H" transform-origin="338.311px 275.926px"/></g><g class="E"><path d="M336.83 276.43c1.13 3 3.67 4.87 5.68 4.12s2.7-3.81 1.57-6.84-3.67-4.87-5.67-4.12-2.71 3.81-1.58 6.84z" class="D" transform-origin="340.457px 275.069px"/></g><g class="E"><path d="M301.36 268.77a34.46 34.46 0 0 1 5.19 1.13 32.13 32.13 0 0 1 7.64-7.51s-2.68-1.26-7.8-.08a22.32 22.32 0 0 0-5.03 6.46z" class="D" transform-origin="307.775px 265.853px"/></g><g class="E"><path d="M300.14 287.42a34.6 34.6 0 0 1 5.37-16l-4.52-1.88c-2.18 4.74-3.79 11.27-.85 17.88z" class="D" transform-origin="302.025px 278.48px"/></g><path d="M406.66 139.11l-10.21 6.58a.76.76 0 0 1-1.07-.18h0l-5.71-7.77a1.91 1.91 0 0 1 .55-2.63c3.6-2.24 5.44-3.13 10-6 2.77-1.77 8.06-5.53 12.22-7.36s5.86 2.34 4.26 3.48c-3.79 2.72-7.48 8.68-8.75 12.35a3 3 0 0 1-1.29 1.53z" class="F" transform-origin="403.329px 133.564px"/><g class="E"><path d="M406.66 139.11l-10.21 6.58a.76.76 0 0 1-1.07-.18h0l-5.71-7.77a1.91 1.91 0 0 1 .55-2.63c3.6-2.24 5.44-3.13 10-6 2.77-1.77 8.06-5.53 12.22-7.36s5.86 2.34 4.26 3.48c-3.79 2.72-7.48 8.68-8.75 12.35a3 3 0 0 1-1.29 1.53z" class="H" transform-origin="403.329px 133.564px"/></g><path class="F" d="M407.66 138.07l.78 2.09-13.07 6.5-.66-1.75 12.95-6.84z" transform-origin="401.575px 142.365px"/><path d="M341,165s3.06,9.84-2.31,15.37l1.84,1.17s6.6-6.74,2.61-15.38Z" class="F" transform-origin="341.556px 173.27px"/><path d="M404.17 193.26l.4-2s8.61-5.86 20.23.48v4.28s-9.8-6.89-20.63-2.76z" class="F" transform-origin="414.485px 192.406px"/><path d="M382.35,199.25s-10.66,14.29-21,10l-.34-2s9.33,3.46,19.31-10.51Z" class="F" transform-origin="371.68px 203.397px"/><g><path d="M362.81 296.55l.72-.35c5.69-3.11 17.56-17.35 21.49-28.42-6 1.62-21.34 6.05-26.11 10.58-5.65 5.36-2.91 16.41 3.9 18.19z" class="G" transform-origin="370.443px 282.165px"/></g><g class="E"><path d="M341,165s3.06,9.84-2.31,15.37l1.84,1.17s6.6-6.74,2.61-15.38Z" class="K" transform-origin="341.556px 173.27px"/></g><g class="E"><path d="M382.35,199.25s-10.66,14.29-21,10l-.34-2s9.33,3.46,19.31-10.51Z" class="K" transform-origin="371.68px 203.397px"/></g><g class="E"><path class="K" d="M407.66 138.07l.78 2.09-13.07 6.5-.66-1.75 12.95-6.84z" transform-origin="401.575px 142.365px"/></g><g class="E"><path d="M404.17 193.26l.4-2s8.61-5.86 20.23.48v4.28s-9.8-6.89-20.63-2.76z" class="K" transform-origin="414.485px 192.406px"/></g><path d="M380.09 281.18a1.5 1.5 0 0 1-.73-2.81c3.67-2 5.63-4.59 6-7.85 1.15-9.9-12.65-22.5-12.79-22.63a1.5 1.5 0 1 1 2-2.22c.62.56 15.08 13.78 13.76 25.2-.49 4.23-3 7.64-7.54 10.12a1.46 1.46 0 0 1-.7.19z" class="F" transform-origin="380.193px 263.185px"/><path d="M378.33 287a1.51 1.51 0 0 1-1.26-2.32c9.78-15.11-8.61-28.56-9.4-29.12a1.5 1.5 0 1 1 1.75-2.44c.21.15 21.5 15.68 10.17 33.19a1.48 1.48 0 0 1-1.26.69z" class="F" transform-origin="374.977px 269.919px"/><path d="M363.49 295.77l14.26-3.43 7-1.66 6.62-1.32 1.34-.19s.63-.06.59-.12a1.06 1.06 0 0 1-.3-.05h-.09.1.21l.81.16 1.69.34 7 1.56c4.78 1.07 9.69 2.22 14.68 3h.08a4.58 4.58 0 0 0 3.41-8.22 101.63 101.63 0 0 0-13.32-8.05c-2.31-1.2-4.69-2.29-7.19-3.33-.63-.27-1.25-.52-1.92-.75l-1-.36-.25-.09h-.13l-.31-.08a26.37 26.37 0 0 0-1.28-.27 23 23 0 0 0-3.16-.25h-2.42c-3 .13-5.63.48-8.28.83s-5.18.83-7.72 1.3c-5.09 1-10 2.12-15 3.57a9 9 0 0 0 4.47 17.44z" class="F" transform-origin="387.453px 284.371px"/><g class="E"><path d="M363.49 295.77l14.26-3.43 7-1.66 6.62-1.32 1.34-.19s.63-.06.59-.12a1.06 1.06 0 0 1-.3-.05h-.09.1.21l.81.16 1.69.34 7 1.56c4.78 1.07 9.69 2.22 14.68 3h.08a4.58 4.58 0 0 0 3.41-8.22 101.63 101.63 0 0 0-13.32-8.05c-2.31-1.2-4.69-2.29-7.19-3.33-.63-.27-1.25-.52-1.92-.75l-1-.36-.25-.09h-.13l-.31-.08a26.37 26.37 0 0 0-1.28-.27 23 23 0 0 0-3.16-.25h-2.42c-3 .13-5.63.48-8.28.83s-5.18.83-7.72 1.3c-5.09 1-10 2.12-15 3.57a9 9 0 0 0 4.47 17.44z" class="J" transform-origin="387.453px 284.371px"/></g><path d="M419.38,287l8.7-.8-3.36,9.08s-7.81.25-7.76-3.78Z" class="F" transform-origin="422.52px 290.742px"/><path class="F" d="M435.85 289.98l-5.54 6.83-5.59-1.56 3.36-9.08 7.77 3.81z" transform-origin="430.285px 291.49px"/><g class="E"><g class="H" transform-origin="426.405px 291.49px"><path d="M419.38,287l8.7-.8-3.36,9.08s-7.81.25-7.76-3.78Z" transform-origin="422.52px 290.742px"/><path d="M435.85 289.98l-5.54 6.83-5.59-1.56 3.36-9.08 7.77 3.81z" transform-origin="430.285px 291.49px"/></g></g><path d="M422.05,286.72s-4.78,2.5-3.35,7.39l-2-.17s-2.44-4.8,4.25-8.08Z" class="F" transform-origin="419.158px 289.985px"/><path d="M361 277.55s-13.33 10.9 1.41 18.41l-1.74.65s-8.05-.36-8.24-9.33c-.2-8.74 8.57-9.73 8.57-9.73z" class="F" transform-origin="357.418px 287.08px"/><path d="M395.52,272.88s-4.59,5.94-2.19,16.17l-1.22.2a21.6,21.6,0,0,1,2-16.53Z" class="F" transform-origin="393.408px 280.985px"/><g class="E"><path d="M422.05,286.72s-4.78,2.5-3.35,7.39l-2-.17s-2.44-4.8,4.25-8.08Z" class="K" transform-origin="419.158px 289.985px"/></g><g class="E"><path d="M361 277.55s-13.33 10.9 1.41 18.41l-1.74.65s-8.05-.36-8.24-9.33c-.2-8.74 8.57-9.73 8.57-9.73z" class="K" transform-origin="357.418px 287.08px"/></g><g class="E"><path d="M395.52,272.88s-4.59,5.94-2.19,16.17l-1.22.2a21.6,21.6,0,0,1,2-16.53Z" class="K" transform-origin="393.408px 280.985px"/></g><path d="M367.75 234.93l-20.23 19.39h-7.07L361 234.93s4.08-2.67 6.75 0z" class="F" transform-origin="354.1px 244.032px"/><g class="E"><path d="M367.75 234.93l-20.23 19.39a5.24 5.24 0 0 0-7.07 0L361 234.93s4.08-2.67 6.75 0z" class="D" transform-origin="354.1px 244.032px"/></g><path d="M345.32 236.66a6.12 6.12 0 0 1-1 .55 5.36 5.36 0 0 1-1.88.42c-.74 0-1.3-.21-1.49-.64s.21-1.28 1-1.89a5.5 5.5 0 0 1 1.18-.66 4.79 4.79 0 0 1 1.67-.41c.84-.07 1.49.15 1.69.63s-.25 1.34-1.17 2z" class="I" transform-origin="343.72px 235.824px"/><path d="M294.44 160.81l-.08-.5s2.34-.39 3.12-1.72l.43.25c-.91 1.54-3.37 1.95-3.47 1.97z" class="E" transform-origin="296.135px 159.7px"/><path d="M294.53 162l-.26-.43a16 16 0 0 1 6.38-2.14v.5a15.62 15.62 0 0 0-6.12 2.07z" class="E" transform-origin="297.46px 160.715px"/><path d="M294.51 162.37l-.22-.45c3.12-1.49 4.52-.75 4.58-.72l-.24.44s-1.27-.64-4.12.73z" class="E" transform-origin="296.58px 161.68px"/><path d="M345.32 236.66a6.12 6.12 0 0 1-1 .55 5.36 5.36 0 0 1-1.88.42l-.46-2.53a18.53 18.53 0 0 0-4.33-8.76c-6.68-6.81-14.69-7.35-23.17-7.91-8.11-.54-16.5-1.1-24.09-7.21-7.74-6.23-11.61-17.91-9.88-29.76 1.56-10.63 7.18-18.88 15.05-22.09l1.13 2.78c-6.87 2.8-11.81 10.18-13.21 19.75-1.58 10.81 1.87 21.4 8.79 27s14.41 6 22.41 6.55c8.66.58 17.63 1.18 25.12 8.81a21.29 21.29 0 0 1 5 9.79c.25.95.41 1.87.52 2.61z" class="I" transform-origin="312.711px 198.5px"/><g class="E"><g class="H" transform-origin="312.711px 198.5px"><path d="M345.32 236.66a6.12 6.12 0 0 1-1 .55 5.36 5.36 0 0 1-1.88.42l-.46-2.53a18.53 18.53 0 0 0-4.33-8.76c-6.68-6.81-14.69-7.35-23.17-7.91-8.11-.54-16.5-1.1-24.09-7.21-7.74-6.23-11.61-17.91-9.88-29.76 1.56-10.63 7.18-18.88 15.05-22.09l1.13 2.78c-6.87 2.8-11.81 10.18-13.21 19.75-1.58 10.81 1.87 21.4 8.79 27s14.41 6 22.41 6.55c8.66.58 17.63 1.18 25.12 8.81a21.29 21.29 0 0 1 5 9.79c.25.95.41 1.87.52 2.61z" transform-origin="312.711px 198.5px"/></g></g></g></svg>