<svg xmlns="http://www.w3.org/2000/svg" width="48" height="48"><path fill="#cfd8dc" d="M23 11.3c-1.5-2.5-1.9-5.7-2-7-4.1.8-8.2 2.4-8 3.6l.5.5-.5.9c-.6-.4-.9-.7-1-1.2-.3-1.3 1.3-2.6 4.7-3.7C19 3.6 21.3 3 21.4 3L22 3v.6s0 4.3 2 7.1l-1 .6zM24.8 43h-.3c-8.2 0-17.3-2.6-18.4-6.9-.6-2.6 1.5-5.5 6.2-8.4l.5.9c-4.2 2.6-6.2 5.1-5.7 7.3 1 3.7 9.6 6 17.1 6.1 1-1.3 5.8-9.3 3-19.9l1-.2c3.1 12-3.2 20.8-3.3 20.9l-.1.2z"/><path fill="#cfd8dc" d="M10 39.3H9a.5.5 0 0 1-.2-.9c.1 0 7.2-7.2 8.2-13l1 .2c-.8 5-5.7 10.6-7.7 12.7 2-.1 6.9-1 16.3-6.3-7.4-.8-8.5-6.7-8.5-6.7l1-.2c0 .2 1.2 6 9.2 6 .2 0 .4.2.5.4 0 .2 0 .4-.3.5C17.3 38.5 12 39.3 10 39.3z"/><path fill="#cfd8dc" d="M14.5 41.7a.5.5 0 0 1-.3-1s1.8-1.2 3.7-4.1l-2.2-1.2a8.3 8.3 0 0 1-2-1.7c-2.6.7-5 1-7 .8v-1c2 .2 4 0 6.4-.6a5.8 5.8 0 0 1-.1-5.4l.8.5s-1.2 2.3.3 4.6c2.2-.6 4.5-1.6 7-2.8.5-1.8 1-4 1.2-6.3a.5.5 0 0 1 .7-.4l5.6 2.5a.5.5 0 0 1 0 .9c-2.2 1.5-4.5 2.9-6.7 4-.7 2.2-1.6 4-2.5 5.6 3.7 1.4 7 1.4 7 1.4a.5.5 0 0 1 .2 1 37 37 0 0 1-12 3.2zM19 37a21 21 0 0 1-2.8 3.5c2-.3 5.5-1 8.4-2.1-1.4-.2-3.4-.6-5.6-1.4zm-4.1-3.6c.4.4.8.8 1.5 1.2l2.2 1.1c.7-1.3 1.5-2.8 2.1-4.6-2 1-4 1.8-5.8 2.3zm8.4-9a34 34 0 0 1-1 4.8l5.2-3-4.2-1.9zM18 10.6l-.4-.1A26.5 26.5 0 0 1 14 6.2a.5.5 0 0 1 .7-.7s1 .3 7.2 1.4a.5.5 0 0 1 .3.8 11.6 11.6 0 0 1-4.3 2.9zm-2.4-3.9L18 9.5c.5-.2 1.7-.8 2.8-1.8a104 104 0 0 1-5.2-1z"/><path fill="#b71c1c" d="M21.8 24.4h-.2a.5.5 0 0 1-.3-.6c.3-2.7-3.9-3.8-4-3.8a.5.5 0 0 1-.2-.9c.3-.2 5.2-5 11.4-7.7a.5.5 0 0 1 .7.5c-1.2 5.8-6.7 12-7 12.3l-.4.2zm-3.3-5.1c1.1.4 3.2 1.5 3.7 3.3 1.5-1.8 4.6-6 5.7-9.9-4.4 2.1-8 5.3-9.4 6.6z"/><path fill="#b71c1c" d="m13 28.4-.4-1c1.9-1 4-2.8 5.8-5a37 37 0 0 0-2.4 1.8l-.6-.8S17 22 20 20.2a13.7 13.7 0 0 0 1.9-4.4c-2-.7-3.8-1.1-5-1.3a.5.5 0 0 1-.3-.8c.1-.1 2.1-2.3 4.7-3.5.2-.1.4 0 .6.1 0 0 1.4 1.6 1 4.8 1.2.5 2.4 1 3.5 1.7 2.8-1.3 6-2.4 9.3-3 .1-.1.3 0 .5.1v.5a25.8 25.8 0 0 1-4.9 7l-.4.2c-.1 0-.3 0-.3-.2a15.4 15.4 0 0 0-4.2-3.5c-2.2 1-4.1 2-5.7 3-2 3.2-5 6-7.6 7.5zm14.5-11c1.3.8 2.5 1.8 3.5 3 .8-1 2.8-3.2 4-5.5-2.7.6-5.2 1.5-7.5 2.5zm-4.7-1.3a12.1 12.1 0 0 1-1 3l3.5-1.8c-.8-.5-1.7-.8-2.5-1.2zM18 13.7c1.2.2 2.5.5 4 1 .1-1.8-.4-3-.7-3.4a16 16 0 0 0-3.3 2.4z"/><path fill="#b71c1c" d="M18 18.5c0 4.4-3.6 7.9-6.2 10.4-.5.4-2 .5-2 .5l1.3-1.2c2.5-2.4 6-5.7 6-9.7 0-4.7-2-6.5-3.4-8A7 7 0 0 1 12 8.4l.3-.1 1 .4 1 1c1.5 1.6 3.7 3.7 3.7 8.8z"/><path fill="#b71c1c" d="m43 19.8-.8.1c-8.8 1-17.8 3.5-23 5.6-1.9.7-3.8 1.6-5.6 2.6-1 .7-3.6 1.9-5.6 3a34 34 0 0 1 10.8-6.6c5-2 13.8-4.4 22.4-5.5-1-1.2-3.5-3.7-8.4-5.5-2.8-1.1-7.1-1.8-11-2.3-6-.9-9.5-1.4-9.8-3.1l.1-1a4 4 0 0 0 1.4 1.3c1.5.8 5.3 1.3 8.5 1.8 3.9.6 8.2 1.2 11.2 2.3a19 19 0 0 1 9.7 7.3z"/></svg>