<svg xmlns="http://www.w3.org/2000/svg" width="48" height="48"><linearGradient id="a" x1="26" x2="26" y1="44" y2="4" gradientUnits="userSpaceOnUse"><stop offset="0" stop-color="#197cf1"/><stop offset="1" stop-color="#20bcfa"/></linearGradient><path fill="url(#a)" d="M11 8.2c-6.2 6.7-4.7 19.3 3.4 28 8 8.8 19.6 10.4 25.8 3.6 6.2-6.7 4.7-19.3-3.4-28C28.8 3 17.2 1.4 11 8.2zm5.6 2.8c5-5.3 13.9-4.2 20 2.5C42.8 20.2 44 30 39 35.3c-4.9 5.3-13.8 4.1-20-2.6-6.2-6.7-7.2-16.5-2.4-21.7z"/><g fill="#f4754e" stroke="#35383b"><rect width="5" height="5" x="33.5" y="10.5" rx=".9"/><rect width="12" height="12" x="4.5" y="17.5" rx="2.1"/><rect width="7" height="7" x="36.5" y="33.5" rx="1.2"/></g></svg>