<svg xmlns="http://www.w3.org/2000/svg" width="48" height="48" viewBox="0 0 64 64"><path fill="#b5c4e0" d="M32 14a31 18.17 0 1 0 0 36.35A31 18.17 0 1 0 32 14Z"/><path fill="#ced9ed" d="M32 14C14.88 14 1 22.14 1 32.17s13.88 18.18 31 18.18 31-8.14 31-18.18S49.12 14 32 14zm0 31.35c-15.32 0-26-6.94-26-13.18C6 25.94 16.68 19 32 19s26 6.94 26 13.17c0 6.23-10.68 13.18-26 13.18z"/><path fill="#8d6c9e" d="M42.44 26.43 39.7 41.27h3.57l.7-4.04h2.23c4.64 0 7.17-1.08 8.11-5.06.82-3.43-1.26-5.72-4.69-5.72h-7.18zm4.35 8.1h-2.3l1-5.4h2.79c2.3 0 2.78 1.04 2.66 2.2-.3 2.97-2.16 3.2-4.15 3.2zm-32.66-8.1L11.4 41.27h3.56l.71-4.04h2.22c4.65 0 7.17-1.08 8.12-5.06.81-3.43-1.26-5.72-4.7-5.72h-7.18zm4.35 8.1h-2.3l1.01-5.4h2.78c2.3 0 2.79 1.04 2.67 2.2-.31 2.97-2.16 3.2-4.16 3.2zm20.83-7.12c-.76-.7-2.1-.98-4.1-.98h-3.16l1.13-5.39h-3.54l-3.38 16.18h3.54l1.7-8.09h2.83c.9 0 1.5.15 1.78.45.27.3.33.87.17 1.69L35 37.22h3.6l1.4-6.44c.3-1.55.07-2.68-.68-3.37z"/><path fill="#8d6c9f" d="M32 51.35c-17.64 0-32-8.6-32-19.18S14.36 13 32 13s32 8.6 32 19.17-14.35 19.18-32 19.18zM32 15C15.46 15 2 22.7 2 32.17s13.46 17.18 30 17.18 30-7.7 30-17.18S48.54 15 32 15zm26.7 35.67a1 1 0 0 1-.85-.47l-1.08-1.68a1 1 0 1 1 1.7-1.08l1.07 1.69a1 1 0 0 1-.85 1.54zM54.44 53a1 1 0 0 1-.9-.57l-.86-1.8a1 1 0 0 1 1.8-.86l.86 1.8a1 1 0 0 1-.9 1.43zm-4.48 1.82a1 1 0 0 1-.95-.68l-.65-1.89a1 1 0 0 1 1.89-.65l.65 1.89a1 1 0 0 1-.94 1.33zm-4.63 1.35a1 1 0 0 1-.97-.77l-.47-1.94a1 1 0 1 1 1.95-.47l.47 1.95a1 1 0 0 1-.98 1.23zm-4.72.92a1 1 0 0 1-.99-.85l-.3-1.98a1 1 0 0 1 1.99-.3l.3 1.99a1 1 0 0 1-1 1.14zm-4.78.5a1 1 0 0 1-1-.93l-.13-2a1 1 0 0 1 .94-1.06c.54-.03 1.03.38 1.06.93l.13 2a1 1 0 0 1-1 1.07z"/><path fill="#8d6c9f" d="M21.86 21.16a1 1 0 0 1-.24-1.97c1.35-.33 2.77-.62 4.22-.84a1 1 0 0 1 .31 1.97c-1.4.22-2.76.5-4.05.81a.96.96 0 0 1-.24.03zM7 30a1 1 0 0 1-.88-1.48c.11-.2 2.77-4.92 11.43-8.09a1 1 0 1 1 .68 1.88c-7.88 2.88-10.33 7.13-10.36 7.17A1 1 0 0 1 7 30z"/></svg>