<svg xmlns="http://www.w3.org/2000/svg" id="A" class="A" viewBox="0 0 500 500"><style>@keyframes wind{0%{transform:rotate(0deg)}25%{transform:rotate(2.5deg)}75%{transform:rotate(-2.5deg)}}@keyframes floating{0%,to{opacity:1;transform:translateY(0) rotate(0deg)}25%{transform:translateY(-10px) rotate(-.8deg)}50%{transform:translateY(-20px) rotate(.2deg)}75%{transform:translateY(-10px) rotate(.8deg)}}.D{fill:#ba68c8}.E{fill:#fff}.F{fill:#fafafa}.G{fill:#e0e0e0}.H{fill:#455a64}.I{opacity:.2}.J{fill:#f5f5f5}.K{opacity:.4}.L{fill:#37474f}.M{fill:#263238}.N{opacity:.3}.O{fill:#ebebeb}.P{fill:#f28f8f}</style><g id="B" class="B" style="animation:8s Infinite linear wind;animation-delay:0s"><g class="D"><path d="m292.8 94.4 7.6-7.7 2.9-10.4s-4.3-4-12.6-7.1-19-2.3-20.4.1 3.1 12.2 10 17.8 12.5 7.3 12.5 7.3z" class="N" transform-origin="286.667px 80.7685px"/></g><path d="m293.5 90.7 3.6-6.3 3.6-6.2c-9.7-8-21.3-7-22.6-4.7s3.6 12.7 15.4 17.2z" class="D" transform-origin="289.311px 81.2741px"/><g class="E"><path d="m293.5 90.7 3.6-6.3 3.6-6.2c-9.7-8-21.3-7-22.6-4.7s3.6 12.7 15.4 17.2z" class="K" transform-origin="289.311px 81.2741px"/></g><path d="m297.1 84.5-1.2 2a11 11 0 0 1-6.4-2c-2.8-2-5.5-6-4.8-7.2s5.5-.9 8.6.6a11 11 0 0 1 5 4.4l-1.2 2.2" class="E" transform-origin="291.464px 81.5538px"/><g class="D"><path d="m292.7 102.5 5-5 1.8-6.7a27.5 27.5 0 0 0-8.1-4.6c-5.4-2-12.3-1.5-13.2.1s2 7.9 6.5 11.5a27.5 27.5 0 0 0 8 4.7z" class="N" transform-origin="288.749px 93.6938px"/></g><path d="m293.2 100.1 2.3-4 2.3-4c-6.3-5.2-13.7-4.5-14.6-3s2.4 8.1 10 11z" class="D" transform-origin="290.457px 94.0473px"/><g class="E"><path d="m293.2 100.1 2.3-4 2.3-4c-6.3-5.2-13.7-4.5-14.6-3s2.4 8.1 10 11z" class="K" transform-origin="290.457px 94.0473px"/></g><path d="m295.5 96-.8 1.5a7 7 0 0 1-4.1-1.4c-1.8-1.3-3.6-3.8-3.1-4.7s3.6-.5 5.5.4a7 7 0 0 1 3.3 2.9l-.8 1.4" class="E" transform-origin="291.85px 94.2082px"/><g class="D"><path d="m304.2 85.3 4.9-5 1.8-6.8a27.5 27.5 0 0 0-8-4.6c-5.4-2-12.3-1.5-13.3.1s2 8 6.5 11.5a27.6 27.6 0 0 0 8 4.8z" class="N" transform-origin="300.199px 76.4288px"/></g><path d="m304.6 82.8 2.3-4 2.4-4c-6.3-5.1-13.8-4.5-14.6-3s2.3 8.2 10 11Z" class="D" transform-origin="301.902px 76.7773px"/><g class="E"><path d="m304.6 82.8 2.3-4 2.4-4c-6.3-5.1-13.8-4.5-14.6-3s2.3 8.2 10 11Z" class="K" transform-origin="301.902px 76.7773px"/></g><path d="m307 78.8-.9 1.4a7 7 0 0 1-4-1.4c-1.9-1.3-3.6-3.8-3.2-4.6s3.6-.6 5.6.3a7 7 0 0 1 3.2 3l-.8 1.3" class="E" transform-origin="303.297px 76.9435px"/><path d="M369.8 76.4a180 180 0 0 0-48.7-10v3s22.5 6.6 29.3 14.9a12.8 12.8 0 0 1 2.8 5.4 7.5 7.5 0 0 1-2.8 4.3v3c13.4 4 37.1 14.1 45.4 18.9a18.1 18.1 0 0 0 .8-5.7v-3c0-10.1-7.2-23.6-26.9-30.8z" class="D" transform-origin="358.891px 91.145px"/><path d="M369.8 76.4a180 180 0 0 0-48.7-10v3s22.5 6.6 29.3 14.9a12.8 12.8 0 0 1 2.8 5.4 7.5 7.5 0 0 1-2.8 4.3v3c13.4 4 37.1 14.1 45.4 18.9a18.1 18.1 0 0 0 .8-5.7v-3c0-10.1-7.2-23.6-26.9-30.8z" opacity=".1" transform-origin="358.891px 91.145px"/><path d="M350.4 94c13.4 3.9 37.1 14 45.4 18.8 3.3-10-2.4-27.7-26-36.4a180 180 0 0 0-48.6-10s22.4 6.6 29.2 14.8 0 12.8 0 12.8z" class="D" transform-origin="358.911px 89.59px"/><g class="E"><path d="M350.4 94c13.4 3.9 37.1 14 45.4 18.8 3.3-10-2.4-27.7-26-36.4a180 180 0 0 0-48.6-10s22.4 6.6 29.2 14.8 0 12.8 0 12.8z" class="I" transform-origin="358.911px 89.59px"/></g><path d="m313.4 74.6 13.3 9.4-16.3 28.3-14.8-6.8c-2.7-1.1-4.4-4-4.4-8.5 0-8 5.7-17.9 12.7-22 3.8-2.1 7.2-2.1 9.5-.4z" class="L" transform-origin="308.99px 92.8207px"/><path d="M306.4 104.5c0 7.4 5.2 10.4 11.6 6.7s11.6-12.7 11.6-20-5.2-10.5-11.6-6.8-11.6 12.7-11.6 20.1z" class="H" transform-origin="317.995px 97.819px"/><path d="m316.7 76.8 4.5 3.2c-2-.6-4.7-.3-7.4 1.4a26.8 26.8 0 0 0-12.2 21c0 3.2 1 5.6 2.5 7l-5-2.2c-1.7-1.5-2.7-4-2.7-7.5 0-8 5.6-17.6 12.4-21.5 3-1.7 5.8-2.1 7.9-1.4z" class="D" transform-origin="308.77px 92.957px"/><path d="m304.1 75 .5-.3a29.7 29.7 0 0 0-8.7 10.5c-3.7 7.2-3.5 13.1-1.6 14.4a29.5 29.5 0 0 0 5 2.5 29.8 29.8 0 0 1 4.3-12.8c4.6-8 10-11.1 13.8-11.9l2.3 1.6 7 5-14.7 25.5-1.6 2.8-14.8-6.8a5.8 5.8 0 0 1-1.4-.8 5.7 5.7 0 0 1-.5-.5 7.2 7.2 0 0 1-.7-.7 10.8 10.8 0 0 1-1.7-6.5 26 26 0 0 1 3.7-12.5 32 32 0 0 1 1.9-2.9l1-1.3a22.9 22.9 0 0 1 6-5.2z" class="I" transform-origin="308.988px 93.515px"/><path d="m309 92.1-.2.4a26.7 26.7 0 0 0-4.1 17 3.6 3.6 0 0 0 7.2-1c-.5-3.6.6-8 3.2-12.3 2.5-4.4 5.7-7.6 9-9a3.6 3.6 0 0 0-2.7-6.7c-4.7 1.8-9 6-12.3 11.6z" class="H" transform-origin="315.457px 96.3993px"/><path d="M392.3 107.5c30.8 17.8 50 46.2 50.6 59.5v.4a4.3 4.3 0 0 1-.6 2.2 4.3 4.3 0 0 1-1.6 1.6l-.4.1c-11.7 6.2-46 3.8-76.8-14a240.7 240.7 0 0 1-53.3-43h-.1a10.7 10.7 0 0 1-2.2-7.2A29 29 0 0 1 321 84.4c2.8-1.6 5.4-2.1 7.5-1.6 3 .6 34 7.5 63.8 24.7z" class="J" transform-origin="375.382px 128.488px"/><path d="M439.5 155.6c2.1 4.4 3.2 8.3 3.4 11.4v.4a4.3 4.3 0 0 1-.6 2.2 4.4 4.4 0 0 1-1.6 1.6l-.4.1a31.8 31.8 0 0 1-11.5 2.8 72.8 72.8 0 0 1-9.3.2c-1.4-1.3-2.2-3.5-2.2-6.3 0-7.1 5-15.7 11.1-19.3 2.5-1.4 4.8-1.8 6.6-1.3a70.6 70.6 0 0 1 4.5 8.2z" class="H" transform-origin="430.105px 160.788px"/><path d="m441.6 167.4 11.8 8.6-13.3-6a.8.8 0 0 1-.3-.7 2.3 2.3 0 0 1 1-1.8.7.7 0 0 1 .8 0z" class="J" transform-origin="446.598px 171.675px"/><path d="M363.5 157.3a240.7 240.7 0 0 1-53.2-42.9l-.2-.1a10.7 10.7 0 0 1-2.2-7.2 21.4 21.4 0 0 1 .5-4.3 296.6 296.6 0 0 0 59 45.8c34.3 19.8 63.4 25.4 73 22.8-11.8 6.1-46 3.7-77-14z" opacity=".1" transform-origin="374.127px 138.599px"/><path d="M392.3 107.5c-29.8-17.2-60.9-24-63.8-24.7h-.2a10.7 10.7 0 0 0-7.3 1.6c20 5.3 43.8 11.8 68.5 26.1 34.2 19.8 50.9 47 53.4 56.5-.6-13.3-19.8-41.7-50.6-59.5z" class="E" opacity=".3" transform-origin="381.935px 124.855px"/><path d="M348.3 140.3a177.6 177.6 0 0 1-32.6-26.2s-7.8 3.9-22.2 0-25.7-17-25.7-17v3.1s1.7 14 17.3 28.1c15.1 13.7 45.8 17 63.2 15Z" class="D" transform-origin="308.05px 120.499px"/><path d="M348.3 140.3a177.6 177.6 0 0 1-32.6-26.2s-7.8 3.9-22.2 0-25.7-17-25.7-17v3.1s1.7 14 17.3 28.1c15.1 13.7 45.8 17 63.2 15Z" opacity=".1" transform-origin="308.05px 120.499px"/><path d="M315.7 114a178 178 0 0 0 32.6 26.3c-17.4 1.9-48.1-1.4-63.2-15-15.6-14.3-17.3-28.1-17.3-28.1s11.4 13 25.7 16.9 22.2 0 22.2 0z" class="D" transform-origin="308.05px 118.973px"/><g class="E"><path d="M315.7 114a178 178 0 0 0 32.6 26.3c-17.4 1.9-48.1-1.4-63.2-15-15.6-14.3-17.3-28.1-17.3-28.1s11.4 13 25.7 16.9 22.2 0 22.2 0z" class="I" transform-origin="308.05px 118.973px"/></g><path d="M411.8 123.6a20 20 0 0 0-17-2c-2.2 1-3.3 2.6-3.3 4.2v1.7c0 1.7 1.2 3.6 3.6 5.2 4.7 3.2 12.3 4 16.9 2 2.3-1 3.4-2.6 3.4-4.3v-1.7c0-1.6-1.2-3.5-3.6-5.1z" class="D" transform-origin="403.44px 128.145px"/><path d="M411.8 123.6a20 20 0 0 0-17-2c-2.2 1-3.3 2.6-3.3 4.2v1.7c0 1.7 1.2 3.6 3.6 5.2 4.7 3.2 12.3 4 16.9 2 2.3-1 3.4-2.6 3.4-4.3v-1.7c0-1.6-1.2-3.5-3.6-5.1z" class="I" transform-origin="403.44px 128.145px"/><path d="M411.8 123.6c-4.7-3.2-12.3-4-17-2s-4.5 6.3.3 9.5 12.3 4 16.9 2 4.5-6.4-.2-9.5z" class="D" transform-origin="403.442px 127.315px"/><path d="m398.5 120.7 4.9 6.2 2.8-5.7h.4l-2.8 5.9 9.2-2.6.3.3-9.2 2.5 11.3 1.9v.2l-11.3-1.8 8 5.4-.2.1-8.1-5.4 1 6.4h-.4l-1.1-6.4-6.4 4.5-.4-.2 6.4-4.5-10.9.4-.1-.3 10.9-.3-10.3-3.9.2-.2L403 127l-5-6.3z" class="I" transform-origin="403.635px 127.4px"/><path d="M409.5 124.6c-3.4-2.2-9-2.9-12.2-1.4s-3.3 4.6.1 6.9 8.9 2.9 12.2 1.4 3.3-4.6-.1-6.9z" class="L" transform-origin="403.434px 127.341px"/><path d="M409.6 131.5c-3.1 1.4-8.2.9-11.6-1-2.9-2.3-2.8-5 .4-6.5s8.2-1 11.6 1c2.9 2.2 2.8 5-.4 6.5z" class="H" transform-origin="404.006px 127.721px"/><path d="M409.8 126.2a4.2 4.2 0 0 0-3.6-.4c-1 .5-1 1.4 0 2a4.2 4.2 0 0 0 3.6.4c1-.4 1-1.3 0-2z" class="G" transform-origin="408.022px 127.011px"/><path d="M405 124.3a2.4 2.4 0 0 0-2-.2c-.6.2-.6.7 0 1.1a2.5 2.5 0 0 0 2 .3c.7-.3.6-.8 0-1.2z" class="G" transform-origin="404.012px 124.758px"/><path d="M390.5 110c-3.7-2.4-9.6-3-13.3-1.5-1.8.8-2.7 2-2.7 3.3v1.7c0 1.3.9 2.7 2.7 4a16 16 0 0 0 13.3 1.4c1.8-.8 2.7-2 2.7-3.3v-1.7c0-1.3-.9-2.7-2.7-3.9z" class="D" transform-origin="383.86px 113.719px"/><path d="M390.5 110c-3.7-2.4-9.6-3-13.3-1.5-1.8.8-2.7 2-2.7 3.3v1.7c0 1.3.9 2.7 2.7 4a16 16 0 0 0 13.3 1.4c1.8-.8 2.7-2 2.7-3.3v-1.7c0-1.3-.9-2.7-2.7-3.9z" class="I" transform-origin="383.86px 113.719px"/><path d="M390.5 110c-3.7-2.4-9.6-3-13.3-1.5s-3.6 4.9 0 7.3 9.6 3 13.3 1.4 3.7-4.8 0-7.2z" class="D" transform-origin="383.853px 112.89px"/><path d="m380 107.8 3.8 4.8 2.2-4.5.4.1-2.3 4.5 7.3-2 .2.1-7.3 2 8.9 1.4a.6.6 0 0 1 0 .2l-8.8-1.4 6.2 4.1-.2.1-6.3-4 .8 4.8h-.4l-.8-4.9-5 3.4-.4-.1 5.1-3.4-8.5.3-.1-.2 8.5-.3-8-3 .1-.1 8 2.9-3.7-4.8Z" class="I" transform-origin="383.969px 112.89px"/><path d="M388.6 110.8c-2.6-1.7-6.9-2.2-9.5-1s-2.7 3.5 0 5.2 6.9 2.2 9.5 1 2.7-3.5 0-5.2z" class="L" transform-origin="383.854px 112.895px"/><path d="M388.7 116c-2.5 1-6.5.7-9.1-.8-2.3-1.7-2.2-3.8.3-4.9s6.5-.7 9.2.8c2.2 1.7 2 3.8-.4 4.9z" class="H" transform-origin="384.304px 113.148px"/><path d="M388.9 112a3.4 3.4 0 0 0-2.9-.3c-.8.3-.7 1 0 1.5a3.4 3.4 0 0 0 2.9.4c.8-.4.8-1 0-1.6z" class="G" transform-origin="387.474px 112.619px"/><path d="M385.2 110.5a2 2 0 0 0-1.7-.1c-.4.1-.4.5 0 .8a2 2 0 0 0 1.7.2c.4-.2.4-.6 0-.9z" class="G" transform-origin="384.348px 110.89px"/></g><path fill="#f0f0f0" d="M373.2 158.4c-10.1 20.9 13.9 39.6 26.6 53.2a129.2 129.2 0 0 1 18.8 23.6c6.2 10.8 7.3 24 4.2 36a33.5 33.5 0 0 1-36.8 22.6c-15.3-1.5-28.6-10.7-39.5-20.8-15.7-15-29.4-31.2-49.9-38-6.4-2.2-13-3.2-19.2-2a29.8 29.8 0 0 0-7.8 2.4l-3 1.7-2 1.4a21.4 21.4 0 0 0-7.8 10.6 15.2 15.2 0 0 0-.5 8 5 5 0 1 1-9.8 2 25 25 0 0 1 1-13.3 30.8 30.8 0 0 1 11.6-14.8l2.5-1.7a42.8 42.8 0 0 1 37.8-2.3 101.2 101.2 0 0 1 36.7 25.6c10 10.1 19.4 21 31.5 28.4 11.3 7 26.2 10.3 38.3 3.7 9.1-5.1 13.9-14.7 14-25a43.7 43.7 0 0 0-3.5-20.2 77.8 77.8 0 0 0-5.4-9 138.3 138.3 0 0 0-13.5-16.6c-13.1-14.6-37-34.4-25.8-56.2a.8.8 0 0 1 1.2-.3.8.8 0 0 1 .3 1.1Z" class="B" transform-origin="335.274px 225.655px"/><g id="C" class="B" style="animation:8s Infinite linear floating;animation-delay:0s"><path d="M157.8 390.5a57.6 57.6 0 0 1-26.5 15.8c-2.1.6-4.3 1.3-6.4 1.7a52.2 52.2 0 0 1-58.3-28.9c-4-8.9-5.7-18.7-6.3-28.4-.4-7.2.5-13.7-2-20.5a14.5 14.5 0 0 0-12-9.3 31.4 31.4 0 0 1 24.8-6c10.3 2 18.6 9.1 23 18.4 5.5 11.6 6.7 24.8 12.8 35.9a32.9 32.9 0 0 0 27.7 17.7 30.4 30.4 0 0 0 24.4-12.3 5.7 5.7 0 0 1 2.4-2.2c1.8-.7 3.8 1 4.2 2.9s-.4 3.8-1.2 5.6a43.7 43.7 0 0 1-6.6 9.6z" class="F" transform-origin="105.982px 361.797px"/><path d="M71.1 314.9c10.3 1.9 18.6 9.1 23 18.4.8 1.7 1.5 3.3 2.1 5a25.6 25.6 0 0 0-7-6.5c1.8 1 3.8 13.4 2 13.2a1.7 1.7 0 0 1-.8-.6c-3-2.8-5-6.1-8.5-8.4 0 6.2 1.8 12.4 1 18.5-.1.4-.3.9-.7 1a1 1 0 0 1-.5-.3 11.7 11.7 0 0 1-2.6-2.8 80.4 80.4 0 0 1-6.8-11.3 74.7 74.7 0 0 0 .6 12.6c.2 1.8.5 4-.7 5.4a13.6 13.6 0 0 1-6.4-7.8 108.8 108.8 0 0 0-.1 25.7 82.9 82.9 0 0 1-5.4-26.3c-.4-7.2.4-13.7-2-20.6a14.5 14.5 0 0 0-12-9.3 31.4 31.4 0 0 1 24.8-6z" class="D" transform-origin="71.215px 345.662px"/><path d="M71.1 314.9c10.3 1.9 18.6 9.1 23 18.4.8 1.7 1.5 3.3 2.1 5a25.6 25.6 0 0 0-7-6.5c1.8 1 3.8 13.4 2 13.2a1.7 1.7 0 0 1-.8-.6c-3-2.8-5-6.1-8.5-8.4 0 6.2 1.8 12.4 1 18.5-.1.4-.3.9-.7 1a1 1 0 0 1-.5-.3 11.7 11.7 0 0 1-2.6-2.8 80.4 80.4 0 0 1-6.8-11.3 74.7 74.7 0 0 0 .6 12.6c.2 1.8.5 4-.7 5.4a13.6 13.6 0 0 1-6.4-7.8 108.8 108.8 0 0 0-.1 25.7 82.9 82.9 0 0 1-5.4-26.3c-.4-7.2.4-13.7-2-20.6a14.5 14.5 0 0 0-12-9.3 31.4 31.4 0 0 1 24.8-6z" class="E" opacity=".7" transform-origin="71.215px 345.662px"/><path d="M136.2 226.7c-16.2 7.9-24.7 11.7-26.9 26.8-1.4 9.6-7 46.8-5.9 60s19.9 22.7 26.7 25.5 14 1.4 32-7.1l34.6-16.8c8-4 15.7-10 13.6-33.5s-2.4-40.7-3.6-48.9-2.9-8.2-12-13-20.2-11.6-58.5 7z" class="O" transform-origin="156.945px 277.374px"/><path d="M103.4 313.5c1 9.7 11 17.3 19 21.8 8.2 4 9-3.4 10-10.4 1-7.8 1-15 3.8-38.4s.3-27-7.4-33-17-10.8-19.5 0c-1.4 9.6-7 46.8-5.9 60z" class="G" transform-origin="120.277px 291.764px"/><path d="M117.5 254a8.6 8.6 0 0 0-1 3.4l-.8 3.4-.7 3.5-.4 1.8a7.3 7.3 0 0 0-.3 1.6.5.5 0 0 0 .2.5c1.2.5 1.2-1.5 1.4-2.2l.8-4 .8-3.8.5-2.2a6.3 6.3 0 0 0 .3-1.7c0-.3-.5-.5-.8-.2zm5.6 2.2a4 4 0 0 0-.7 1.6l-.6 1.8-.9 3.4-.7 3.5-.4 1.8-.2.9a3.3 3.3 0 0 1-.1.7c-.4.7.6 1.2 1 .6a3.9 3.9 0 0 0 .4-1.5l.4-1.8.8-3.7.8-3.5.5-2a2.9 2.9 0 0 0 .2-1.6c0-.2-.4-.4-.5-.2zm6 2.9c0-.3-.6-.5-.7-.2a13.6 13.6 0 0 0-1 3.5l-.7 3.5-1.3 6a.2.2 0 0 0-.1.2 1.5 1.5 0 0 1 0 .2l-.1.4c-.1.6 1 .8 1.2.2l1.4-7 .7-3.5a11 11 0 0 0 .6-3.3z" class="H" transform-origin="121.665px 263.612px"/><path d="M111.9 281.3a3.8 3.8 0 0 0-1.6 3.4 12 12 0 0 0 5.4 9.4 3.8 3.8 0 0 0 3.8.4l3.5-2a3.8 3.8 0 0 0 1.6-3.5 12 12 0 0 0-5.4-9.4 3.8 3.8 0 0 0-3.9-.4Z" class="M" transform-origin="117.446px 286.874px"/><path d="M115.7 294.1a3.3 3.3 0 0 0 5.4-3.1 12 12 0 0 0-5.4-9.4 3.3 3.3 0 0 0-5.4 3.1 12 12 0 0 0 5.4 9.4z" class="H" transform-origin="115.723px 287.867px"/><path d="M109.6 304.5a3.8 3.8 0 0 0-1.6 3.5 12 12 0 0 0 5.4 9.4 3.8 3.8 0 0 0 3.8.3l3.5-2a3.8 3.8 0 0 0 1.6-3.5 12 12 0 0 0-5.5-9.3 3.8 3.8 0 0 0-3.8-.4Z" class="D" transform-origin="115.13px 310.116px"/><path d="M113.4 317.4a3.3 3.3 0 0 0 5.4-3.1 12 12 0 0 0-5.4-9.4 3.3 3.3 0 0 0-5.4 3.1 12 12 0 0 0 5.4 9.4z" class="D" transform-origin="113.41px 311.156px"/><g class="E"><path d="M113.4 317.4a3.3 3.3 0 0 0 5.4-3.1 12 12 0 0 0-5.4-9.4 3.3 3.3 0 0 0-5.4 3.1 12 12 0 0 0 5.4 9.4z" class="K" transform-origin="113.41px 311.156px"/></g><path d="M241.3 355.7a33.3 33.3 0 0 1-9.8-28.3c1.9-11 10-22.5 20.8-26.3a31.7 31.7 0 0 1 29.5 5.4A36.4 36.4 0 0 1 295 334a39.5 39.5 0 0 1 18.8-11.8 19.8 19.8 0 0 1 9.8-.6 10 10 0 0 1 7.3 6c1 3.4 0 7-2 9.8s-4.7 5.1-7 7.6a45.6 45.6 0 0 0-10 16c-1.4 3.6-2.3 7.5-5.2 10-5.2 4.3-14.3 4-20.6 3.5a70.1 70.1 0 0 1-22.3-5.4 67 67 0 0 1-22.5-13.3z" class="J" transform-origin="281.208px 337.091px"/><path d="M328.1 329.3a6.2 6.2 0 0 0-2-.7 10.3 10.3 0 0 0-4 .3c-6.6 1.5-12.3 5.8-16.2 11.2s-6.3 12-7.7 18.5c-.8 3.3-1.5 8.2 1.3 11 1.8 1.7 5 1.1 6.9-.5s2.8-4.2 3.8-6.5c3-7.7 7.2-15 13.3-20.7 2.1-2 4.4-4 6-6.5s.8-4.9-1.4-6z" class="G" transform-origin="313.898px 349.568px"/><path d="M328.1 329.3a6.2 6.2 0 0 0-2-.7 10.3 10.3 0 0 0-4 .3c-6.6 1.5-12.3 5.8-16.2 11.2s-6.3 12-7.7 18.5c-.8 3.3-1.5 8.2 1.3 11 1.8 1.7 5 1.1 6.9-.5s2.8-4.2 3.8-6.5c3-7.7 7.2-15 13.3-20.7 2.1-2 4.4-4 6-6.5s.8-4.9-1.4-6z" class="I" transform-origin="313.898px 349.568px"/><path d="M329.3 331.1a6.1 6.1 0 0 0-2-.7 9.8 9.8 0 0 0-3.8.3c-6.4 1.5-12 5.8-15.8 11.2s-6.2 11.7-7.6 18.1c-.7 3.3-1.4 8.2 1.3 10.8 1.7 1.8 4.9 1.2 6.7-.4s2.8-4.1 3.7-6.4c3-7.6 7-14.9 13-20.4a29.2 29.2 0 0 0 5.8-6.5c1.3-2.4.8-4.8-1.3-6z" class="G" transform-origin="315.398px 351.125px"/><path d="m306.2 362.1 5.4 2.2.1-.3.2-.5-5.4-2.1q-3-1.2-6.2-2.1l-.2.7 6 2.1z" class="F" transform-origin="306.02px 361.775px"/><path d="M309.7 351.4a59.7 59.7 0 0 0-6.2-2l-.3.7 6.4 2.1 4.4 2 2 1 .4-.8-2-1q-2.3-1.1-4.7-2z" class="F" transform-origin="309.785px 352.275px"/><path d="m305 366.7 4.5 2 .5-.8-4.5-1.9-6-2.2v.8l5.5 2.1z" class="F" transform-origin="304.735px 366.225px"/><path d="M307.7 357q2.6 1 5 2.3l.9.4.3-.8-.4-.2q-2.6-1.3-5.2-2.3-3.2-1.3-6.6-2.4l-.2.7 6.2 2.3z" class="F" transform-origin="307.71px 356.835px"/><path d="m318 348.9-4.8-2.3-6.9-2.7-.4.8q3.5 1.2 7 2.7l4.7 2.2 1.4.7.5-.7z" class="F" transform-origin="312.675px 347.105px"/><path d="m321.4 344-5.4-2.5-6.1-2.4-.5.6 6 2.5 7.3 3.5.6-.7z" class="F" transform-origin="316.355px 342.365px"/><path d="m326.8 335.4-7-3.5-.9.4 7.2 3.7 3.7 2.2.5-.7-3.5-2z" class="F" transform-origin="324.625px 335.035px"/><path d="m319.7 338.6 5.3 2.5 1.5.9.7-.7-1.7-.9-5.3-2.5q-3.1-1.4-6.3-2.6l-.6.6 6.4 2.7z" class="F" transform-origin="320.215px 338.64px"/><path d="M294.6 329.4c-12.3 10.7-10.8 26.5-10.8 26.5s2-10.6 11.2-22a37.4 37.4 0 0 0-.4-4.5z" class="G" transform-origin="289.393px 342.68px"/><path d="M239 233.7a33 33 0 0 0-11.8 28.5 23.3 23.3 0 0 0 7.7 16.5c13.9 12.1 27.9 10.5 40 12 10.4 1.3 12.6 6 12.5 14 0 3.3-1.8 10.5 3.4 16.7s16 2.7 20.1-7 .2-30.2-12.3-40.2c-9-7.2-20.2-9.6-29.6-15.9-5-3.4-6.6-7-8.7-12.4-2-4.8-3.9-10-8-13.3a8.7 8.7 0 0 0-5-2.3 9 9 0 0 0-3.8.8 20 20 0 0 0-4.5 2.6z" class="J" transform-origin="269.856px 277.424px"/><path d="M289 268.4a18.7 18.7 0 0 0-2.7.8 20 20 0 0 0-6.1 3.8 24.2 24.2 0 0 0-7.2 13.2 31.4 31.4 0 0 0-.6 4.2l1.5.2a32 32 0 0 1 .3-3.2 26.6 26.6 0 0 1 2.2-7 20.5 20.5 0 0 1 9.4-9.6 17.3 17.3 0 0 1 5-1.6l-1.7-.9z" class="G" transform-origin="281.63px 279.47px"/><path d="m257 288.9.2-1.5 1-4.4a36.4 36.4 0 0 1 3.5-8.5 24 24 0 0 1 13.3-11 18 18 0 0 1 2.1-.6l-1.7-.8h-.1a23.2 23.2 0 0 0-8 4c-5 3.8-8.2 9.4-10.1 15.3a48.2 48.2 0 0 0-1.3 5.2l-.4 2.1z" class="G" transform-origin="266.28px 275.49px"/><path d="M307 284.6c-3.7-5.6-21.3.7-21.6 11a10.4 10.4 0 0 1 1.4 3c-4.4.8-7-4.7-5.4-8.8s9.3-12.1 18-12 10.4 6.1 9.2 9.8Z" class="D" transform-origin="294.906px 288.245px"/><g class="E"><path d="M307 284.6c-3.7-5.6-21.3.7-21.6 11a10.4 10.4 0 0 1 1.4 3c-4.4.8-7-4.7-5.4-8.8s9.3-12.1 18-12 10.4 6.1 9.2 9.8Z" class="I" transform-origin="294.906px 288.245px"/></g><path d="M262.3 235.4c-3.1-6-9.5-10.6-16.2-10.3-5.8.3-11 4-14.5 8.5a34.4 34.4 0 0 0-5.6 31.7c1.1 3.3 2.8 6.5 5.6 8.5a14.1 14.1 0 0 0 7.7 2.2 23.4 23.4 0 0 0 16.7-6.7 30 30 0 0 0 6.3-33.9z" class="D" transform-origin="244.688px 250.538px"/><g class="E"><path d="M262.3 235.4c-3.1-6-9.5-10.6-16.2-10.3-5.8.3-11 4-14.5 8.5a34.4 34.4 0 0 0-5.6 31.7c1.1 3.3 2.8 6.5 5.6 8.5a14.1 14.1 0 0 0 7.7 2.2 23.4 23.4 0 0 0 16.7-6.7 30 30 0 0 0 6.3-33.9z" class="I" transform-origin="244.688px 250.538px"/></g><path fill="#e6e6e6" d="M255.2 256.6c5.6 4.8 16.1 17.6 14 33.6a73 73 0 0 0 20.2 63.8c-8.2 51-73.6 70.9-116 58.5s-50.7-44.9-46.4-81c4.7-39.6 21.9-50.7 21.9-50.7Z" transform-origin="208.201px 336.321px"/><path d="M254.6 235c-24.9-31-106.4-11.6-112.8 28a26.5 26.5 0 0 0 0 8.2 54.6 54.6 0 0 0 1.6 7 27 27 0 0 0 3.7 8c23.4 33.2 107.5 13.8 114-26.4a27.4 27.4 0 0 0 0-8.7 55.2 55.2 0 0 0-1.3-5.9 28.5 28.5 0 0 0-5.2-10.2Z" class="H" transform-origin="201.46px 261.385px"/><path d="M177.8 294a14.3 14.3 0 0 1 .4 5.4 7.6 7.6 0 0 0 .1 3l.8.1a6.4 6.4 0 0 1-.2-3 15 15 0 0 0-.4-5.7c-.7-2.9-.6-5.4 2-8.3l-.6-.5c-2.8 3.1-2.8 5.9-2 9z" class="L" transform-origin="178.92px 293.77px"/><path d="M208 289.8a83.2 83.2 0 0 1-42.3-.4c-12.1-3.8-20-10.8-22-19.7s2-18.7 11.3-27.5a90 90 0 0 1 80-18.5c12.3 3.8 20 10.9 22.1 19.8s-2 18.7-11.3 27.4a83.8 83.8 0 0 1-37.8 19zM193 224a82.8 82.8 0 0 0-37.6 18.8c-9.1 8.5-13 18-11 26.7s9.6 15.5 21.5 19.2a89.3 89.3 0 0 0 79.4-18.3c9.1-8.6 13-18 11.1-26.8s-9.6-15.5-21.6-19.2a82.3 82.3 0 0 0-41.9-.4z" class="L" transform-origin="200.402px 256.575px"/><path fill="#f0f0f0" d="m252.2 233.3 1.8 7.7c1.9 8.1-1.6 17.5-10.8 26.1a86.2 86.2 0 0 1-76.8 17.7c-12-3.7-19.1-10.6-21-18.7l-1.7-7.7c1.8 8.1 9 15 21 18.7 24 7.5 58.4-.4 76.8-17.7 9.1-8.6 12.6-18 10.7-26z" transform-origin="199.076px 260.493px"/><path d="M223.2 280a79.7 79.7 0 0 0 7.8-4l-1.8-7.7a82.1 82.1 0 0 1-7.8 4Z" class="F" transform-origin="226.2px 274.12px"/><path d="M252 243.2a35.2 35.2 0 0 1-11.9 17.5l1.8 7.6 1.3-1.2a35.3 35.3 0 0 0 10.6-16.2z" class="G" transform-origin="246.94px 255.78px"/><path d="M206.1 277.4a80.1 80.1 0 0 1-41.5-.2c-12-3.8-19.1-10.7-21-18.8l1.8 7.7c1.9 8.1 9 15 21 18.7a80.3 80.3 0 0 0 41.5.2z" class="G" transform-origin="175.775px 273.031px"/><path d="M167.5 285.2a72.8 72.8 0 0 0 25.3 2.2l-1.7-7.7a72.8 72.8 0 0 1-25.3-2.2Z" class="J" transform-origin="179.3px 282.587px"/><path d="M252.6 230.2c-1.9-8.2-9.2-15.3-21.4-19a88 88 0 0 0-78.3 18c-9.4 8.8-12.9 18.3-11 26.6l.7 3c1.9 8.3 9.2 15.3 21.4 19.1a88 88 0 0 0 78.3-18c9.4-8.8 12.9-18.4 11-26.6l-.7-3z" class="L" transform-origin="197.605px 244.52px"/><path d="M163.3 275a88 88 0 0 0 78.3-18.1c9.4-8.8 13-18.4 11-26.7s-9.1-15.3-21.4-19a88 88 0 0 0-78.3 18c-9.4 8.8-12.9 18.3-11 26.6s9.2 15.3 21.4 19.1z" class="H" transform-origin="197.275px 243.02px"/><path d="M186 282a49.2 49.2 0 0 1-13.5-1.3 1.1 1.1 0 0 0-1.1.2l-1 1a1 1 0 0 0-.3 1.1 3.1 3.1 0 0 0 2 2.2 49.2 49.2 0 0 0 13.6 1.2 1.5 1.5 0 0 0 1-.4l1-1a1.5 1.5 0 0 0 .4-1.4 2.2 2.2 0 0 0-2.1-1.7z" class="L" transform-origin="179.116px 283.58px"/><path d="M172.2 285.3a49.2 49.2 0 0 0 13.5 1.1 1.4 1.4 0 0 0 1.4-1.8 2.2 2.2 0 0 0-2.2-1.7 48.8 48.8 0 0 1-13.5-1.2c-1-.2-1.5.4-1.3 1.3a3.1 3.1 0 0 0 2 2.2z" class="H" transform-origin="178.575px 284.09px"/><g class="E"><circle cx="187.1" cy="201.2" r="73.7" class="N" transform-origin="187.1px 201.2px"/></g><g class="D"><circle cx="187.1" cy="201.2" r="73.7" class="I" transform-origin="187.1px 201.2px"/></g><path d="M193 170.3c.1-2.4-7.6.5-11.3 6.6a35.6 35.6 0 0 0-3.2 6.5 29.2 29.2 0 0 0-4.4-1.8c-5.2-1.6-11 .5-9.7 1.8s4.9 3 6.3 7.9l8.5-5 14.2-2.6c-2.8-6.1-.7-10.9-.5-13.4z" class="F" transform-origin="178.805px 180.37px"/><path d="M193 199.3c5.8-27.2 34-40.1 41-34.4 5.2 4.2-6.5 37.5-6.5 37.5s-28.2 10.9-34.5-3z" class="O" transform-origin="214.199px 185.021px"/><path fill="#ffa8a7" d="M207.3 190.1c8.2 7.1 20.2 12.3 20.2 12.3s11.5-33 6.5-37.5c-3.5-2-21.2 4.2-26.7 25.2z" transform-origin="221.28px 183.508px"/><path d="M227.2 191a14 14 0 0 1 .7-3.7l-.4-6.1a14 14 0 0 0-7.3 1.2c-1.1-2.7 0-6.5 0-6.5-3 .3-9.4 5.8-8.5 12 0 0 5 2.9 8 4.4a85.9 85.9 0 0 0 4.8.5 6.4 6.4 0 0 0 2.7-1.7z" class="P" transform-origin="219.765px 184.36px"/><path d="M212.2 187.6c.3-4.5 6-9.7 9-10 0 0-1 3.8 0 6.5 0 0 7.5-3.6 10.9 1 0 0-3.5 1.5-4 8-5.8 6-15.9-5.5-15.9-5.5z" class="O" transform-origin="222.16px 186.2px"/><path d="M173.5 203c-17.2-22-48.1-21.3-52-13-2.9 6 21 30.3 21 30.3s31.3-2 31-17.4z" class="O" transform-origin="147.356px 202.46px"/><path fill="#ffa8a7" d="M156.5 201c-4.2 10-14 19.3-14 19.3S119 196 121.5 190c2.2-3.4 21-5.6 35 11z" transform-origin="138.923px 203.961px"/><path d="M143.3 214.3a14.1 14.1 0 0 0-2.3-3l-2.5-5.6c2.8-2.1 7-2.3 7-2.3-.2-2.9-3-5.7-3-5.7 3-1.2 11.1.8 13 6.7l-5 7.5-4 2.8a6.6 6.6 0 0 1-3.1-.3z" class="P" transform-origin="147.03px 206.04px"/><path d="M155 204.4c-2.3-3.9-9.7-5.9-12.6-4.8 0 0 2.8 2.9 3 5.8 0 0-8.3.3-9.2 5.8 0 0 3.8-.2 7.2 5.3 8 2.7 11.6-12 11.6-12z" class="O" transform-origin="145.6px 208.094px"/><path d="M204.5 269.1c-43.3 10.8-66.9-15-66.9-15l2.1-3.6-7.2-3.1s-.3-4 9-27 23.2-32.3 41.2-36.5 34.5-2 53 14.6 20 20 20 20l-5 6.1 3.4 2.3s-6.2 31.5-49.6 42.2z" class="F" transform-origin="194.12px 226.922px"/><path d="M171.8 187.3a27.3 27.3 0 0 1 3.8 11.5 1.5 1.5 0 0 0 3-.2 30.3 30.3 0 0 0-4-12.4l-2.8 1.1zm10.9-3.4-2.7.7a43.6 43.6 0 0 1 5.5 16.8c.2 1.9 3.1 1.7 3-.2a46.7 46.7 0 0 0-5.5-17.4zm8-1.4-3 .4a37.4 37.4 0 0 1 4 10.7 1.5 1.5 0 0 0 1.6 1.3 1.5 1.5 0 0 0 1.4-1.6 41.1 41.1 0 0 0-4-10.8z" class="D" transform-origin="183.257px 192.586px"/><path d="M171.8 187.3a27.3 27.3 0 0 1 3.8 11.5 1.5 1.5 0 0 0 3-.2 30.3 30.3 0 0 0-4-12.4l-2.8 1.1zm10.9-3.4-2.7.7a43.6 43.6 0 0 1 5.5 16.8c.2 1.9 3.1 1.7 3-.2a46.7 46.7 0 0 0-5.5-17.4zm8-1.4-3 .4a37.4 37.4 0 0 1 4 10.7 1.5 1.5 0 0 0 1.6 1.3 1.5 1.5 0 0 0 1.4-1.6 41.1 41.1 0 0 0-4-10.8z" class="E" opacity=".7" transform-origin="183.257px 192.586px"/><path d="M205.8 256.8c21.5-6.5 20.8-21.6 15.7-28.2s-14-9.4-24.4-6.6c-10.7 2.8-17.6 9.8-19.1 18.6s5.3 23 27.8 16.2z" class="D" transform-origin="201.11px 239.748px"/><path d="M205.8 256.8c21.5-6.5 20.8-21.6 15.7-28.2s-14-9.4-24.4-6.6c-10.7 2.8-17.6 9.8-19.1 18.6s5.3 23 27.8 16.2z" class="E" opacity=".7" transform-origin="201.11px 239.748px"/><path d="M225.5 203.1c2.6 5 1.5 11-2 14-3.2 2.7-7.9 2.6-12.2-.6-2.4-6.1 0-12.1 3.7-14s6.8-1.1 10.5.6z" class="D" transform-origin="218.651px 210.206px"/><path d="M211.8 213.3c1.5 3.3 5 4.8 8 3.3s3.7-5.3 2.2-8.5-5-4.8-7.9-3.4-3.9 5.3-2.3 8.6z" class="M" transform-origin="216.897px 210.691px"/><path d="M219.4 206.5a2 2 0 1 0 3.8-1.3 2.2 2.2 0 0 0-2.7-1.6 2.2 2.2 0 0 0-1.1 2.9z" class="E" transform-origin="221.231px 205.668px"/><path d="M221 210.6a1.1 1.1 0 0 1 .5-.7 4.2 4.2 0 0 1 .6-.5 2.7 2.7 0 0 1 1.8-.4 1.5 1.5 0 0 1 1 1 .9.9 0 0 1 0 .6.8.8 0 0 1-.5.4 3.2 3.2 0 0 1-1.2-.2 6.3 6.3 0 0 0-1.8 0c-.2 0-.3-.1-.3-.2z" class="E" transform-origin="223.031px 209.939px"/><path d="M229.8 219.1a1 1 0 0 1-.7-1.1c.8-5.1 3.3-11.5 10.6-12.8a.9.9 0 0 1 1 .7.8.8 0 0 1-.6 1c-6.6 1.2-8.8 7-9.5 11.6a.7.7 0 0 1-.8.6z" class="H" transform-origin="234.907px 212.17px"/><path d="M232.5 220.6a.6.6 0 0 1-.2-.2 1 1 0 0 1-.4-1.2c1.4-3.7 5.6-6.5 8.5-6.8a.9.9 0 0 1 1 .8.8.8 0 0 1-.7 1 10.3 10.3 0 0 0-7.4 6 .6.6 0 0 1-.8.4z" class="H" transform-origin="236.595px 216.483px"/><path d="M233.5 224.3a1 1 0 0 1-.5-.3 1 1 0 0 1 0-1.3 13 13 0 0 1 13.5-3.3 1 1 0 0 1 .6 1.1c0 .5-.4.8-.8.7a11.6 11.6 0 0 0-12.1 2.9.6.6 0 0 1-.7.2z" class="H" transform-origin="239.988px 221.532px"/><path d="M162.5 238.3a1.1 1.1 0 0 0-.2-1.5c-4-3.7-10.6-7.5-18.6-3.6a1 1 0 0 0-.4 1.3 1 1 0 0 0 1.2.6c7.2-3.6 13.1-.2 16.8 3.2a.8.8 0 0 0 1.2 0z" class="H" transform-origin="152.953px 235.065px"/><path d="M161 241.4a1.2 1.2 0 0 0 0-.3 1.1 1.1 0 0 0-.4-1.3 14.2 14.2 0 0 0-12.6.2 1 1 0 0 0-.3 1.3.9.9 0 0 0 1.2.4c2.6-1.5 7.9-2 11-.2a.8.8 0 0 0 1-.1z" class="H" transform-origin="154.346px 240.106px"/><path d="M162.5 245.2a1 1 0 0 0 .2-.6 1 1 0 0 0-.8-1.1 16.6 16.6 0 0 0-15 6.9 1.1 1.1 0 0 0 .2 1.4.8.8 0 0 0 1.3 0c3.8-5.2 9.6-6.9 13.4-6.3a.8.8 0 0 0 .7-.3z" class="H" transform-origin="154.74px 247.717px"/><path d="M216 199a7 7 0 0 1 1.4-1 8.2 8.2 0 0 1 3.6-1.3 2 2 0 0 1 1 0c.6.3.2 1 0 1.2a1.5 1.5 0 0 1-.6 0 12.4 12.4 0 0 0-2.9.5 25 25 0 0 0-2.4.9v-.2z" class="H" transform-origin="219.199px 197.953px"/><path d="M213.3 199.4a8 8 0 0 1 .6-1.8 9.3 9.3 0 0 1 2.3-3.2 2 2 0 0 1 1-.5c.5 0 .5.8.3 1.1a1.3 1.3 0 0 1-.3.4 12.8 12.8 0 0 0-2.2 2l-1.6 2.2-.1-.2z" class="H" transform-origin="215.458px 196.742px"/><path d="M157.3 222c.8 6 5.5 10.5 10.5 10.8 4.6.3 8.7-2.7 10.5-8-1.6-6.6-7.3-10.2-11.7-9.7s-6.9 3.2-9.3 7z" class="D" transform-origin="167.795px 223.92px"/><path d="M176 222.4c.6 3.7-1.6 7.2-5 7.6s-6.7-2-7.3-5.8 1.6-7.2 5-7.6 6.6 2.2 7.3 5.8z" class="M" transform-origin="169.837px 223.318px"/><path d="M165.1 221a2.3 2.3 0 1 1-2.8-1.7 2.4 2.4 0 0 1 2.8 1.8z" class="E" transform-origin="162.883px 221.46px"/><path d="M166 225.6a1.2 1.2 0 0 0-.7-.3 5.2 5.2 0 0 0-1 0 3.2 3.2 0 0 0-1.8.7 1.6 1.6 0 0 0-.3 1.6c0 .2.2.5.4.6a1 1 0 0 0 .7-.1c.4-.2.6-.6 1-1a6.7 6.7 0 0 1 1.5-1c.3-.2.3-.4.2-.5z" class="E" transform-origin="164.095px 226.712px"/><path d="M163.5 212.9a8.1 8.1 0 0 0-2-.2 9.7 9.7 0 0 0-4 1 2.5 2.5 0 0 0-1 .8c-.3.5.5.9.9.8a1.8 1.8 0 0 0 .5-.2 13.9 13.9 0 0 1 3-1.3 25 25 0 0 1 2.7-.7l-.1-.2z" class="H" transform-origin="160.031px 214.03px"/><path d="M166.2 211.5a8.7 8.7 0 0 0-1.6-1.1 10.4 10.4 0 0 0-4.1-1.4 2.4 2.4 0 0 0-1.2 0c-.5.3 0 1 .4 1.2a1.5 1.5 0 0 0 .5.1 15.3 15.3 0 0 1 3.3.6l2.7.9v-.3z" class="H" transform-origin="162.68px 210.339px"/><path d="M192.5 241.6a7 7 0 0 1-4-1.2.8.8 0 0 1-.2-1 .7.7 0 0 1 1-.3c2.2 1.6 5.7 1.2 8.3-.8a6.4 6.4 0 0 0 2.4-7.1 5.7 5.7 0 0 1-.4-1 .8.8 0 0 1 1.4-.5 10 10 0 0 1 .4 1 7.7 7.7 0 0 0 3 3.2 7.4 7.4 0 0 0 6 .5.8.8 0 1 1 .5 1.4 8.8 8.8 0 0 1-7.1-.6 9 9 0 0 1-2-1.5 8 8 0 0 1-3.2 5.8 9.7 9.7 0 0 1-6 2.1z" class="M" transform-origin="199.797px 235.429px"/><path d="M200.8 231.7c1-.2 3.1-3.1 2.9-4.9s-8.5 1-8.3 2.3c.3 1.9 4.3 2.9 5.3 2.6z" class="P" transform-origin="199.56px 229.014px"/><path d="M187.1 275.4a74.2 74.2 0 1 1 74.2-74.2 74.3 74.3 0 0 1-74.2 74.2zm0-147.4a73.2 73.2 0 1 0 73.2 73.2 73.3 73.3 0 0 0-73.2-73.2z" class="D" transform-origin="187.1px 201.2px"/><path d="M185.6 134.7a9.4 9.4 0 0 0-4.7 4.9c-1 2.4 0 4.4 2 6a14.9 14.9 0 0 0 6 2.6c2.1.5 4.3.7 6.5 1a74 74 0 0 1 10.6 2.3c3.2 1 8.6 2.8 11.1-.5 3.6-4.8-1.6-10.6-5.4-12.9-7.5-4.5-17.8-7.4-26.1-3.4z" class="E" opacity=".5" transform-origin="199.425px 142.842px"/><path d="M221.8 154.5a10.5 10.5 0 0 0 .7 8.1 20.6 20.6 0 0 0 4.1 5.1 70 70 0 0 1 19.8 28.8 47.5 47.5 0 0 0 2.6 7.4 5.5 5.5 0 0 0 1.8 2.2c3.4 2.2 4.7-2.3 5-4.8v-1a62.7 62.7 0 0 0-6.2-31.9c-3.5-7.2-13-22-23-18.2-1.8.6-4.1 2.5-4.8 4.3z" class="E" opacity=".5" transform-origin="238.632px 178.124px"/><path d="M228.6 367.8a29.4 29.4 0 0 1-14.7 3.9c-7.8 0-16-3-23.8-8.6-4.5-3.2-9.6-8.3-15-13.8-9.6-9.6-20.5-20.5-30.2-23.3-7-2-14-.5-17.7 4a10.8 10.8 0 0 0-.7.9c-2.5 3.7-2.6 8.4-.5 13.4 0 3 0 6 .2 9-7-8.8-8.3-18.1-3.6-25a17 17 0 0 1 5.7-5.3c4.9-2.8 11.4-3.4 18-1.5 10.8 3.2 22.1 14.5 32 24.5 5.4 5.3 10.3 10.3 14.5 13.3 11.6 8.3 23.8 10 33.5 4.3a26.6 26.6 0 0 0 13-25.5l4.7-.4a31.3 31.3 0 0 1-15.4 30z" class="H" transform-origin="181.986px 346.026px"/><path d="M272.8 294.9a3.6 3.6 0 0 0-2-2.7l-6-2.6c-1-.4-2.3 0-3.6 1.3a97.4 97.4 0 0 1-33.4 20.4 7 7 0 0 0-4 8l4.2 16a5.6 5.6 0 0 0 3.2 3.7l6.1 2.6a5.3 5.3 0 0 0 4 0c13.8-5.4 25.6-13 33-20 2.4-2.2 3.4-7 2.6-10.2z" class="D" transform-origin="250.375px 315.704px"/><path d="m223.8 319.4 4.2 15.8a5.6 5.6 0 0 0 3.2 3.8l6.1 2.6a5 5 0 0 0 .5.1l-5.1-22.4-8.7-3.9a6.7 6.7 0 0 0-.2 4z" class="I" transform-origin="230.695px 328.585px"/><path d="M267.2 293.4a97.3 97.3 0 0 1-33.3 20.4 7 7 0 0 0-4 8.1l4.1 15.9a5.4 5.4 0 0 0 7.3 3.8c13.8-5.4 25.6-13 33-19.9 2.4-2.3 3.4-7 2.6-10.3l-4.1-16.5c-.8-3.3-3.2-3.8-5.6-1.5z" class="D" transform-origin="253.414px 316.958px"/><g class="E"><path d="M267.2 293.4a97.3 97.3 0 0 1-33.3 20.4 7 7 0 0 0-4 8.1l4.1 15.9a5.4 5.4 0 0 0 7.3 3.8c13.8-5.4 25.6-13 33-19.9 2.4-2.3 3.4-7 2.6-10.3l-4.1-16.5c-.8-3.3-3.2-3.8-5.6-1.5z" class="N" transform-origin="253.414px 316.958px"/></g><path d="m241.3 337.8-.4-1.5-.3-1.3-1.5-5.6-1.5-5.5-1-3a15.5 15.5 0 0 0-1.1-3.1c-.3-.5-1.4-.4-1.3.2a33.6 33.6 0 0 0 1.5 5.7l1.5 5.3 1.4 5.2.7 2.6c.1.6.1 1.7.8 2a.9.9 0 0 0 1.1-.1.6.6 0 0 0 .2-.7v-.3zm5-2.4-.4-1.5-.4-1.2-1.5-5.7-1.5-5.5-1-3a15.2 15.2 0 0 0-1-3.1c-.4-.5-1.4-.3-1.4.3a33.6 33.6 0 0 0 1.5 5.6l1.5 5.3 1.4 5.2.7 2.7c.1.6.2 1.7.8 2a1 1 0 0 0 1.1-.1.6.6 0 0 0 .2-.7.4.4 0 0 0 0-.1v-.2zm5.1-2.4v-.2l-.3-1.5-.4-1.2-1.5-5.6-1.5-5.5-1-3a14.8 14.8 0 0 0-1.1-3.1c-.3-.5-1.3-.4-1.3.3a32.9 32.9 0 0 0 1.5 5.6l1.5 5.3 1.4 5.2.7 2.6c.1.7.2 1.7.8 2a1 1 0 0 0 1.1-.1.7.7 0 0 0 .2-.7z" class="D" transform-origin="242.869px 325.786px"/><g class="I"><path d="m250.3 332.3-.4-1.5-.4-1.2-1.5-5.7-1.5-5.4-1-3a18.6 18.6 0 0 0-1-2.8.5.5 0 0 0-.2.5 32.9 32.9 0 0 0 1.5 5.6l1.5 5.3 1.4 5.2.6 2.6a7.2 7.2 0 0 0 .4 1.6.8.8 0 0 0 .5-.2.7.7 0 0 0 .1-.7v-.3z" transform-origin="247.323px 323.11px"/><path d="m240.2 337.2-.4-1.5-.3-1.2-1.5-5.7-1.6-5.4-.9-3a17.3 17.3 0 0 0-1-2.8.5.5 0 0 0-.3.4 33.6 33.6 0 0 0 1.5 5.7l1.5 5.3 1.4 5.2.7 2.6a7.2 7.2 0 0 0 .4 1.6.8.8 0 0 0 .4-.2.6.6 0 0 0 .2-.7l-.1-.3z" transform-origin="237.258px 328px"/><path d="m245.1 334.9-.3-1.5-.4-1.3-1.5-5.6-1.5-5.5-1-3a16.7 16.7 0 0 0-1-2.8.5.5 0 0 0-.3.5 33.6 33.6 0 0 0 1.5 5.6l1.5 5.3 1.4 5.2.7 2.7a7.3 7.3 0 0 0 .4 1.6 1 1 0 0 0 .4-.3.7.7 0 0 0 .2-.6.4.4 0 0 1 0-.1 1.8 1.8 0 0 1 0-.2z" transform-origin="242.176px 325.635px"/></g><path d="M258.3 307.7a2.3 2.3 0 0 1 1.4 1.8 7.1 7.1 0 0 1-1.9 6.2 2.2 2.2 0 0 1-2.1.7l-2.2-.7a2.2 2.2 0 0 1-1.4-1.8 7.1 7.1 0 0 1 1.8-6.2 2.2 2.2 0 0 1 2.2-.7Z" class="M" transform-origin="255.885px 311.71px"/><path d="M257.8 315.7a2.2 2.2 0 0 1-2.1.7 2.3 2.3 0 0 1-1.4-1.8 7.1 7.1 0 0 1 1.9-6.2 2.2 2.2 0 0 1 2.1-.7 2.3 2.3 0 0 1 1.4 1.8 7.1 7.1 0 0 1-1.9 6.2z" class="H" transform-origin="257.005px 312.061px"/><path d="M269.9 300a2.3 2.3 0 0 1 1.3 1.9 7.1 7.1 0 0 1-1.8 6.1 2.2 2.2 0 0 1-2.2.7l-2.2-.6a2.3 2.3 0 0 1-1.4-1.9 7.2 7.2 0 0 1 1.9-6.1 2.2 2.2 0 0 1 2.1-.7Z" class="G" transform-origin="267.415px 304.05px"/><path d="M269.4 308a2.2 2.2 0 0 1-2.2.7 2.3 2.3 0 0 1-1.3-1.8 7.1 7.1 0 0 1 1.8-6.1 2.2 2.2 0 0 1 2.2-.8 2.3 2.3 0 0 1 1.3 1.9 7.1 7.1 0 0 1-1.8 6.1z" class="J" transform-origin="268.535px 304.38px"/><path d="M261.2 320.3a2.3 2.3 0 0 1 1.4 1.8 7.1 7.1 0 0 1-1.9 6.1 2.2 2.2 0 0 1-2.1.8l-2.3-.7a2.3 2.3 0 0 1-1.4-1.9 7.2 7.2 0 0 1 2-6.1 2.2 2.2 0 0 1 2-.7Z" class="M" transform-origin="258.761px 324.276px"/><path d="M260.7 328.3a2.2 2.2 0 0 1-2.1.7 2.2 2.2 0 0 1-1.4-1.8 7.2 7.2 0 0 1 1.9-6.2 2.2 2.2 0 0 1 2-.7 2.3 2.3 0 0 1 1.5 1.8 7.1 7.1 0 0 1-1.9 6.2z" class="H" transform-origin="259.885px 324.626px"/><path d="M272.7 312.6a2.3 2.3 0 0 1 1.4 1.8 7.1 7.1 0 0 1-1.9 6.2 2.2 2.2 0 0 1-2.1.7l-2.2-.7a2.3 2.3 0 0 1-1.4-1.8 7.2 7.2 0 0 1 1.8-6.2 2.2 2.2 0 0 1 2.2-.7Z" class="M" transform-origin="270.292px 316.61px"/><path d="M272.2 320.6a2.2 2.2 0 0 1-2.1.7 2.3 2.3 0 0 1-1.4-1.8 7.1 7.1 0 0 1 1.9-6.2 2.2 2.2 0 0 1 2.1-.7 2.3 2.3 0 0 1 1.4 1.8 7.1 7.1 0 0 1-1.9 6.2z" class="H" transform-origin="271.415px 316.96px"/><path d="M172.2 300.2c-.5-11.1-17.4-28.5-32.8-20.3s-12.8 35.3 0 40 32.8-19.7 32.8-19.7z" class="D" transform-origin="150.525px 299.124px"/><g class="E"><path d="M172.2 300.2c-.5-11.1-17.4-28.5-32.8-20.3s-12.8 35.3 0 40 32.8-19.7 32.8-19.7z" class="I" transform-origin="150.525px 299.124px"/></g><path d="M145.4 283.3c-15.6 5.1-12.5 29.4-3 41s25 18.5 38 18.5c18.6 0 25.4-8.8 36.6-13.5 9.7-4.1 13.9-1.2 17.9 5.7 1.6 2.9 3.7 10 11.3 12.8s15.2-5.7 13.9-16.3-15.1-26-31-28.5-31.3 5.9-41 5.4c-7-.3-11.4-2.6-16.6-9.1-8.8-11-21.5-17.6-26.1-16z" class="J" transform-origin="197.364px 315.686px"/><path d="m181 342.8-.2-1.4a37.8 37.8 0 0 1 0-5 37.4 37.4 0 0 1 1.8-9.5 37 37 0 0 1 9.5-15 44.6 44.6 0 0 1 6.4-5l-3.5.8a38.5 38.5 0 0 0-3.2 2.6 37.6 37.6 0 0 0-12.4 25.1 39.6 39.6 0 0 0 0 7.3h1z" class="G" transform-origin="188.862px 324.88px"/><path d="M216.2 303.1a24.6 24.6 0 0 0-5.5 8 35.8 35.8 0 0 0-3 18 34.4 34.4 0 0 0 .9 4.7l1.4-.9-.6-2.9a34.9 34.9 0 0 1 0-8.8c.7-5.5 2.7-11.2 6.4-15.5a15.4 15.4 0 0 1 3.1-2.9l-2.7.3z" class="G" transform-origin="213.274px 318.3px"/><path d="m154.9 335 1-3a42 42 0 0 1 17.6-21.7 46.6 46.6 0 0 1 7-3.4 17 17 0 0 1-1.6-.8 37 37 0 0 0-3.6 1.7 43.9 43.9 0 0 0-8.5 5.7 43 43 0 0 0-11.8 16.7c-.5 1.3-1 2.6-1.3 4l1.2.8z" class="G" transform-origin="167.105px 320.54px"/><path d="M169.4 299.4a27 27 0 0 1 2.8.8l-.7-1-.7-.7a29.3 29.3 0 0 0-17.6 1 28.1 28.1 0 0 0-15.7 15.7l-.1.4.8 1.8v-.2a28 28 0 0 1 5.5-9.4 26.7 26.7 0 0 1 19.6-9 28.5 28.5 0 0 1 6 .6z" class="G" transform-origin="154.775px 307.52px"/><path d="M241.6 307.7c-6-3-18 11.4-13.1 20.5a10.7 10.7 0 0 1 2.6 1.8c-3.4 3-8.4-.5-9-4.8s1.9-15.2 9.5-19.5 12 0 12.8 3.8Z" class="D" transform-origin="233.179px 317.489px"/><g class="E"><path d="M241.6 307.7c-6-3-18 11.4-13.1 20.5a10.7 10.7 0 0 1 2.6 1.8c-3.4 3-8.4-.5-9-4.8s1.9-15.2 9.5-19.5 12 0 12.8 3.8Z" class="I" transform-origin="233.179px 317.489px"/></g><path d="M156.8 409.2a33.3 33.3 0 0 1-13.4-26.8c.5-11.2 7.1-23.6 17.3-28.7 9.4-4.6 21.1-3.8 30 1.7a36.5 36.5 0 0 1 16.6 25.5 39.5 39.5 0 0 1 17.1-14 19.7 19.7 0 0 1 9.7-2c3.2.4 6.5 2.2 8 5.2s.8 6.9-.8 10-4 5.5-6 8.3a45.6 45.6 0 0 0-8 17.2c-.8 3.6-1.2 7.7-3.8 10.5-4.5 4.9-13.7 5.7-20 6a70.3 70.3 0 0 1-22.8-2.5c-8.2-2.3-17.2-5-24-10.4z" class="J" transform-origin="193.152px 386.488px"/><path d="M239.6 372.1a6.3 6.3 0 0 0-2.2-.4 10.2 10.2 0 0 0-3.8.8c-6.4 2.3-11.5 7.3-14.7 13.2s-4.8 12.6-5.4 19.2c-.3 3.4-.4 8.4 2.7 10.7 2 1.6 5.1.6 6.8-1.3s2.3-4.5 3-6.9c2-8 5.2-15.8 10.5-22.1a29.8 29.8 0 0 0 5.1-7.3c1.1-2.6.2-4.9-2-5.8z" class="G" transform-origin="227.731px 394.047px"/><path d="M239.6 372.1a6.3 6.3 0 0 0-2.2-.4 10.2 10.2 0 0 0-3.8.8c-6.4 2.3-11.5 7.3-14.7 13.2s-4.8 12.6-5.4 19.2c-.3 3.4-.4 8.4 2.7 10.7 2 1.6 5.1.6 6.8-1.3s2.3-4.5 3-6.9c2-8 5.2-15.8 10.5-22.1a29.8 29.8 0 0 0 5.1-7.3c1.1-2.6.2-4.9-2-5.8z" class="I" transform-origin="227.731px 394.047px"/><path d="M241 373.8a6.3 6.3 0 0 0-2-.4 9.9 9.9 0 0 0-3.8.7c-6.2 2.3-11.2 7.3-14.3 13s-4.6 12.5-5.2 19c-.3 3.4-.4 8.3 2.6 10.6 2 1.5 5 .6 6.6-1.3s2.2-4.4 2.8-6.8c2-7.9 5.1-15.6 10.3-21.9a29.6 29.6 0 0 0 5-7.1c1-2.6.2-4.9-2-5.8z" class="G" transform-origin="229.476px 395.406px"/><path d="m222 407.5 5.6 1.4v-.3l.2-.5q-2.8-.8-5.7-1.4-3.2-.8-6.4-1.3v.7l6.2 1.4z" class="F" transform-origin="221.7px 407.135px"/><path d="M224.1 396.4a57.1 57.1 0 0 0-6.5-1.2l-.2.7 6.7 1.3 4.5 1.3 2.1.7.4-.7-2.2-.8-4.8-1.3z" class="F" transform-origin="224.23px 397.23px"/><path d="m221.3 412.1 4.8 1.4.3-.8-4.7-1.3-6.2-1.4v.7l5.8 1.4z" class="F" transform-origin="220.97px 411.73px"/><path d="m222.8 402.2 5.3 1.6.9.3.2-.8-.5-.2-5.3-1.6-7-1.5v.7l6.4 1.5z" class="F" transform-origin="222.795px 402.055px"/><path d="m232 392.8-5-1.6-7.3-1.9-.3.9 7.2 1.8 5 1.6 1.5.5.4-.7z" class="F" transform-origin="226.43px 391.745px"/><path d="m234.8 387.6-5.8-1.8q-3.1-1-6.3-1.7l-.4.7 6.2 1.7 7.7 2.5.6-.7z" class="F" transform-origin="229.515px 386.58px"/><path d="M239 378.4c-2.4-1-4.9-1.9-7.3-2.6l-.8.4 7.5 2.8 4 1.7.4-.8-3.8-1.5z" class="F" transform-origin="236.825px 378.235px"/><path d="m232.3 382.4 5.6 1.9 1.6.6.6-.7-1.8-.7-5.6-1.8-6.5-1.8-.6.6 6.8 2z" class="F" transform-origin="232.86px 382.385px"/><path d="M206.3 376.5C195.4 388.6 199 404 199 404s.5-10.8 8.3-23.2a36.7 36.7 0 0 0-1-4.4z" class="G" transform-origin="202.845px 390.305px"/><path d="M113.6 208.1a3.8 3.8 0 0 0-2.5 3 12 12 0 0 0 2.5 10.4 3.8 3.8 0 0 0 3.6 1.5l3.8-1a3.8 3.8 0 0 0 2.5-2.8 12 12 0 0 0-2.5-10.5 3.8 3.8 0 0 0-3.6-1.5Z" class="D" transform-origin="117.304px 215.1px"/><path d="M113.6 221.6a3.3 3.3 0 0 0 6-1.5 12 12 0 0 0-2.5-10.5 3.3 3.3 0 0 0-6 1.4 12 12 0 0 0 2.5 10.6z" class="D" transform-origin="115.37px 215.565px"/><g class="E"><path d="M113.6 221.6a3.3 3.3 0 0 0 6-1.5 12 12 0 0 0-2.5-10.5 3.3 3.3 0 0 0-6 1.4 12 12 0 0 0 2.5 10.6z" class="K" transform-origin="115.37px 215.565px"/></g><path d="M115.3 218.8c-11.4 4.5-21.3 18.7-22.7 44-1.2 21.7 11.8 40.6 19.9 44.8 4.7 2.3 4 9.5.9 7.7s-29.5-17.2-27.3-54.5 22-46 28-49c2.6-.5 3.8 6.2 1.2 7z" class="H" transform-origin="101.366px 263.706px"/><g class="D"><path d="M266.1 395.9h-.5a54.3 54.3 0 0 1 .5-108.5h.5a54.3 54.3 0 0 1-.5 108.5Zm0-107.3a53 53 0 0 0-.5 106h.5a53 53 0 0 0 .5-106Z" opacity=".5" transform-origin="266.095px 341.625px"/><path d="M266.1 399.8h-.6a58.2 58.2 0 0 1 .6-116.4h.6a58.2 58.2 0 0 1-.6 116.4Zm0-115.1a57 57 0 0 0-.6 113.8h.6a57 57 0 0 0 .6-113.8Z" class="K" transform-origin="266.095px 341.625px"/><path d="M266.1 404.7h-.6a63.4 63.4 0 1 1 .6 0Zm0-124.8a61 61 0 1 0 .6 0Z" class="I" transform-origin="265.79px 341.31px"/><path d="M266.1 410.7h-.7a69 69 0 0 1 .7-138.1h.7a69 69 0 0 1-.7 138.1Zm0-136.9a67.8 67.8 0 0 0-.7 135.6h.7a67.8 67.8 0 0 0 .7-135.6Z" opacity=".1" transform-origin="266.092px 341.63px"/></g><circle cx="266.1" cy="341.6" r="49.8" class="D" transform="rotate(270.4)" transform-origin="266.09px 341.62px"/><circle cx="266.1" cy="341.6" r="49.8" class="E" opacity=".7" transform="rotate(270.4)" transform-origin="266.09px 341.62px"/><g class="D"><g class="I"><path d="M224.7 339a155.9 155.9 0 0 0 24.8-.3c4-.4 8.6-1.4 12.8-.4 3.7.8 7 2.2 10.8 2.5a37.1 37.1 0 0 0 11-.8A59.6 59.6 0 0 0 305 330c2.7-1.8 5.3-3.8 7.9-5.8l-1.6-3.8-8 6c-5.8 4-12 7.7-19 9.5a33.5 33.5 0 0 1-10.7 1.1c-3.9-.3-7.3-1.9-11-2.6s-7.7 0-11.6.3-7.7.7-11.6.9a182.2 182.2 0 0 1-21.7-.5h-1l-.2 3.1c2.7.5 5.6.6 8.3.8Z" transform-origin="264.59px 330.684px"/><path d="M232.7 328.5a66.2 66.2 0 0 0 19.1-2c6-1.5 12.2-4.6 18.3-2.1a25 25 0 0 0 14.9 1.3 52.6 52.6 0 0 0 17.7-8.7l4.6-3.3-2.4-3.3-1 .8-3.9 2.6c-2.8 2-5.4 4-8.6 5.3a40.2 40.2 0 0 1-10.5 2.8c-2 .2-8 .3-8.7-2.4-.2-.7.5-1.3 1.2-1.7 5.3-3.3 10.9-6.4 15.6-10.5a15.6 15.6 0 0 0 3.2-3.5 12.4 12.4 0 0 0 1.1-3 4.6 4.6 0 0 0 .2-.8 51.7 51.7 0 0 0-2.4-1.5l-.1.3c-1.5 3.3-5.5 6.4-8.2 8.6a68.5 68.5 0 0 1-12.9 7.8 79.6 79.6 0 0 1-34 9.4 59.5 59.5 0 0 1-15.9-2l-1.2 3.3a49.1 49.1 0 0 0 14 2.6z" transform-origin="263.045px 313.522px"/><path d="M251.3 315.6a73.4 73.4 0 0 0 27.8-10 27.9 27.9 0 0 0 5.6-4.9 15.7 15.7 0 0 0 2.8-4l-2.2-1-.1.3a21 21 0 0 1-1.9 2.4 26.4 26.4 0 0 1-5 4.4 53 53 0 0 1-12.4 6 87.2 87.2 0 0 1-41 4.7l-1.6 2.4a90.5 90.5 0 0 0 28-.3z" transform-origin="255.41px 306.257px"/><path d="M234 306.8a41.3 41.3 0 0 0 9.2 1 65.5 65.5 0 0 0 17.4-2.8 79.7 79.7 0 0 0 16.8-6.2 21 21 0 0 0 5.4-4.1c-1.4-.5-2.8-1-4.2-1.3a24.3 24.3 0 0 1-5.4 3.3 95.2 95.2 0 0 1-15.4 5.3 57.6 57.6 0 0 1-15.9 2.3 37.6 37.6 0 0 1-7.7-1l-3 2.8 2.8.7z" transform-origin="256.99px 300.605px"/><path d="M308.3 362.9a63.4 63.4 0 0 1-15.5 11.4c-5.5 2.9-12.4 5.8-18.8 4.1-3.3-.8-5.4-3.6-8.7-4.4-3.5-1-7.3 0-10.8.4a127.2 127.2 0 0 1-13.5 1 75.1 75.1 0 0 1-12.3-.8l3.4 3.5a73 73 0 0 0 12.4.7c4.1-.2 8.2-.5 12.2-1a44.1 44.1 0 0 1 5.7-.6c1.3 0 7 1.9 5.8 3.7-.8 1-3.4 1.2-4.5 1.5l-5 1.3c-3.8 1-7.6 2-11.5 2.8l-2 .3a47.2 47.2 0 0 0 5.2 2.1c3.1-.6 6.1-1.4 9.2-2.2 4.8-1.3 9.9-2.4 14.9-3.3s10.1-1.5 15-3.4a63.9 63.9 0 0 0 18.3-11.2 49.2 49.2 0 0 0 5.7-12 61.7 61.7 0 0 1-5.2 6z" transform-origin="271.105px 372.89px"/><path d="M250.3 345a66.6 66.6 0 0 1-13 2.7 106 106 0 0 1-12.6.6c-2.4 0-4.9-.1-7.3-.3h-.7l.5 3.2 6.8.6a86.6 86.6 0 0 0 13.8-.4 65.4 65.4 0 0 0 13.2-2.8c4.1-1.3 8-3.4 12.4-3.7.5 0 .5-1 0-1-4.3-2-8.8-.3-13.1 1.1z" transform-origin="240.224px 347.45px"/><path d="M264 364.3a212.8 212.8 0 0 0 23.7-7 72 72 0 0 0 20.9-11c2.5-2 5-4.2 7.3-6.5l-.4-4.9c-2.6 2.4-5.2 4.8-8 7a68 68 0 0 1-19.3 11.2 212 212 0 0 1-22 6.8 95.2 95.2 0 0 1-22.8 3.3 63.8 63.8 0 0 1-12.1-1 72.1 72.1 0 0 1-12-3.4l1.5 3.5c5.8 3 12.5 4 18.9 4.5a86.3 86.3 0 0 0 24.3-2.5z" transform-origin="267.61px 350.873px"/><path d="M278 349a84 84 0 0 1-13.6 3.6c-.2 0-.3.4 0 .4a72 72 0 0 0 13.6-1.8 70.3 70.3 0 0 0 12.7-4.5 81.9 81.9 0 0 0 21.4-14.7l2.4-2.4-1-3A83.8 83.8 0 0 1 278 349z" transform-origin="289.338px 339.745px"/><path d="M312.8 348.7c-3.3 3-7 5.7-10.6 8.4a54.6 54.6 0 0 1-12.8 7.2c-2.3.9-4.5 1.6-6.8 2.3-1.4.4-2.7.7-4 1.2a38 38 0 0 0-3.8 1c-.4.2-.3 1.3.1 1.4a22 22 0 0 0 3.7-.2 30 30 0 0 0 3.6-.3 48.8 48.8 0 0 0 8.1-1.9 51.5 51.5 0 0 0 14.1-7.5c3.6-2.6 7.1-5.2 10.4-8.1a51.3 51.3 0 0 0 1-6.4 44.4 44.4 0 0 1-3 2.9z" transform-origin="295.121px 357.967px"/></g></g><g class="D"><path d="M274 292.4c18.4 3.9 35 37.3 23.4 63.8-12.4 28.2-50.8 33.1-68 19.1a49.8 49.8 0 1 0 44.7-82.9Z" class="N" transform-origin="272.67px 341.939px"/></g><g class="D"><path d="M265.6 391.4a49.8 49.8 0 0 0 27.1-91.9c1.8 1.1 23.8 15.4 17 50.2-7 36.2-44 41.7-51.9 41a50 50 0 0 0 7.8.7z" class="I" transform-origin="286.863px 345.471px"/></g><g class="E"><path d="M261.1 310a7.8 7.8 0 1 0-7.9 7.8 7.8 7.8 0 0 0 8-7.7zm-23 6.9a13.4 13.4 0 1 0 13.2 13.5A13.4 13.4 0 0 0 238 317zm24.6 5.5a6.1 6.1 0 1 0 6 6.2 6.1 6.1 0 0 0-6-6.2z" class="K" transform-origin="246.625px 322.94px"/></g><path d="M336 303.3c-2.4-4.7-9.2-7.8-15.4-8a84 84 0 0 0-29.2 3.5l1.4.8c1.7-.4 3.3-.8 5-1 29.1-5.6 38.6 9.4 21.2 33.4-1 1.4-2.2 2.8-3.4 4.2a160.7 160.7 0 0 1-75.6 48l-5.3 1.1c-29 5.5-38.6-9.5-21.1-33.4l3.1-4-.1-1.3a73.2 73.2 0 0 0-15.6 24.7c-2.6 6.6-2.2 12.1-.5 15.5a12 12 0 0 0 7.3 5.7 32.2 32.2 0 0 0 9.6 1.4 65.7 65.7 0 0 0 12.8-1.2 121.3 121.3 0 0 0 21.6-6.4 198 198 0 0 0 60.7-38.4 121.2 121.2 0 0 0 15-16.8c8.5-11.6 11.5-21.7 8.5-27.8z" class="D"/><path d="M336 303.3c-2.4-4.7-9.2-7.8-15.4-8a84 84 0 0 0-29.2 3.5l1.4.8c1.7-.4 3.3-.8 5-1 29.1-5.6 38.6 9.4 21.2 33.4-1 1.4-2.2 2.8-3.4 4.2a160.7 160.7 0 0 1-75.6 48l-5.3 1.1c-29 5.5-38.6-9.5-21.1-33.4l3.1-4-.1-1.3a73.2 73.2 0 0 0-15.6 24.7c-2.6 6.6-2.2 12.1-.5 15.5a12 12 0 0 0 7.3 5.7 32.2 32.2 0 0 0 9.6 1.4 65.7 65.7 0 0 0 12.8-1.2 121.3 121.3 0 0 0 21.6-6.4 198 198 0 0 0 60.7-38.4 121.2 121.2 0 0 0 15-16.8c8.5-11.6 11.5-21.7 8.5-27.8z" opacity=".1"/><path d="M172.2 300.2c-.5-11.1-17.4-28.5-32.8-20.3s-12.8 35.3 0 40 32.8-19.7 32.8-19.7z" class="D" transform-origin="150.525px 299.124px"/><g class="E"><path d="M172.2 300.2c-.5-11.1-17.4-28.5-32.8-20.3s-12.8 35.3 0 40 32.8-19.7 32.8-19.7z" class="I" transform-origin="150.525px 299.124px"/></g><path d="M145.4 283.3c-15.6 5.1-12.5 29.4-3 41s25 18.5 38 18.5c18.6 0 25.4-8.8 36.6-13.5 9.7-4.1 13.9-1.2 17.9 5.7 1.6 2.9 3.7 10 11.3 12.8s15.2-5.7 13.9-16.3-15.1-26-31-28.5-31.3 5.9-41 5.4c-7-.3-11.4-2.6-16.6-9.1-8.8-11-21.5-17.6-26.1-16z" class="J" transform-origin="197.364px 315.686px"/><path d="m181 342.8-.2-1.4a37.8 37.8 0 0 1 0-5 37.4 37.4 0 0 1 1.8-9.5 37 37 0 0 1 9.5-15 44.6 44.6 0 0 1 6.4-5l-3.5.8a38.5 38.5 0 0 0-3.2 2.6 37.6 37.6 0 0 0-12.4 25.1 39.6 39.6 0 0 0 0 7.3h1z" class="G" transform-origin="188.862px 324.88px"/><path d="M216.2 303.1a24.6 24.6 0 0 0-5.5 8 35.8 35.8 0 0 0-3 18 34.4 34.4 0 0 0 .9 4.7l1.4-.9-.6-2.9a34.9 34.9 0 0 1 0-8.8c.7-5.5 2.7-11.2 6.4-15.5a15.4 15.4 0 0 1 3.1-2.9l-2.7.3z" class="G" transform-origin="213.274px 318.3px"/><path d="m154.9 335 1-3a42 42 0 0 1 17.6-21.7 46.6 46.6 0 0 1 7-3.4 17 17 0 0 1-1.6-.8 37 37 0 0 0-3.6 1.7 43.9 43.9 0 0 0-8.5 5.7 43 43 0 0 0-11.8 16.7c-.5 1.3-1 2.6-1.3 4l1.2.8z" class="G" transform-origin="167.105px 320.54px"/><path d="M169.4 299.4a27 27 0 0 1 2.8.8l-.7-1-.7-.7a29.3 29.3 0 0 0-17.6 1 28.1 28.1 0 0 0-15.7 15.7l-.1.4.8 1.8v-.2a28 28 0 0 1 5.5-9.4 26.7 26.7 0 0 1 19.6-9 28.5 28.5 0 0 1 6 .6z" class="G" transform-origin="154.775px 307.52px"/><path d="M241.6 307.7c-6-3-18 11.4-13.1 20.5a10.7 10.7 0 0 1 2.6 1.8c-3.4 3-8.4-.5-9-4.8s1.9-15.2 9.5-19.5 12 0 12.8 3.8Z" class="D" transform-origin="233.179px 317.489px"/><g class="E"><path d="M241.6 307.7c-6-3-18 11.4-13.1 20.5a10.7 10.7 0 0 1 2.6 1.8c-3.4 3-8.4-.5-9-4.8s1.9-15.2 9.5-19.5 12 0 12.8 3.8Z" class="I" transform-origin="233.179px 317.489px"/></g><path d="M156.8 409.2a33.3 33.3 0 0 1-13.4-26.8c.5-11.2 7.1-23.6 17.3-28.7 9.4-4.6 21.1-3.8 30 1.7a36.5 36.5 0 0 1 16.6 25.5 39.5 39.5 0 0 1 17.1-14 19.7 19.7 0 0 1 9.7-2c3.2.4 6.5 2.2 8 5.2s.8 6.9-.8 10-4 5.5-6 8.3a45.6 45.6 0 0 0-8 17.2c-.8 3.6-1.2 7.7-3.8 10.5-4.5 4.9-13.7 5.7-20 6a70.3 70.3 0 0 1-22.8-2.5c-8.2-2.3-17.2-5-24-10.4z" class="J" transform-origin="193.152px 386.488px"/><path d="M239.6 372.1a6.3 6.3 0 0 0-2.2-.4 10.2 10.2 0 0 0-3.8.8c-6.4 2.3-11.5 7.3-14.7 13.2s-4.8 12.6-5.4 19.2c-.3 3.4-.4 8.4 2.7 10.7 2 1.6 5.1.6 6.8-1.3s2.3-4.5 3-6.9c2-8 5.2-15.8 10.5-22.1a29.8 29.8 0 0 0 5.1-7.3c1.1-2.6.2-4.9-2-5.8z" class="G" transform-origin="227.731px 394.047px"/><path d="M239.6 372.1a6.3 6.3 0 0 0-2.2-.4 10.2 10.2 0 0 0-3.8.8c-6.4 2.3-11.5 7.3-14.7 13.2s-4.8 12.6-5.4 19.2c-.3 3.4-.4 8.4 2.7 10.7 2 1.6 5.1.6 6.8-1.3s2.3-4.5 3-6.9c2-8 5.2-15.8 10.5-22.1a29.8 29.8 0 0 0 5.1-7.3c1.1-2.6.2-4.9-2-5.8z" class="I" transform-origin="227.731px 394.047px"/><path d="M241 373.8a6.3 6.3 0 0 0-2-.4 9.9 9.9 0 0 0-3.8.7c-6.2 2.3-11.2 7.3-14.3 13s-4.6 12.5-5.2 19c-.3 3.4-.4 8.3 2.6 10.6 2 1.5 5 .6 6.6-1.3s2.2-4.4 2.8-6.8c2-7.9 5.1-15.6 10.3-21.9a29.6 29.6 0 0 0 5-7.1c1-2.6.2-4.9-2-5.8z" class="G" transform-origin="229.476px 395.406px"/><path d="m222 407.5 5.6 1.4v-.3l.2-.5q-2.8-.8-5.7-1.4-3.2-.8-6.4-1.3v.7l6.2 1.4z" class="F" transform-origin="221.7px 407.135px"/><path d="M224.1 396.4a57.1 57.1 0 0 0-6.5-1.2l-.2.7 6.7 1.3 4.5 1.3 2.1.7.4-.7-2.2-.8-4.8-1.3z" class="F" transform-origin="224.23px 397.23px"/><path d="m221.3 412.1 4.8 1.4.3-.8-4.7-1.3-6.2-1.4v.7l5.8 1.4z" class="F" transform-origin="220.97px 411.73px"/><path d="m222.8 402.2 5.3 1.6.9.3.2-.8-.5-.2-5.3-1.6-7-1.5v.7l6.4 1.5z" class="F" transform-origin="222.795px 402.055px"/><path d="m232 392.8-5-1.6-7.3-1.9-.3.9 7.2 1.8 5 1.6 1.5.5.4-.7z" class="F" transform-origin="226.43px 391.745px"/><path d="m234.8 387.6-5.8-1.8q-3.1-1-6.3-1.7l-.4.7 6.2 1.7 7.7 2.5.6-.7z" class="F" transform-origin="229.515px 386.58px"/><path d="M239 378.4c-2.4-1-4.9-1.9-7.3-2.6l-.8.4 7.5 2.8 4 1.7.4-.8-3.8-1.5z" class="F" transform-origin="236.825px 378.235px"/><path d="m232.3 382.4 5.6 1.9 1.6.6.6-.7-1.8-.7-5.6-1.8-6.5-1.8-.6.6 6.8 2z" class="F" transform-origin="232.86px 382.385px"/><path d="M206.3 376.5C195.4 388.6 199 404 199 404s.5-10.8 8.3-23.2a36.7 36.7 0 0 0-1-4.4z" class="G" transform-origin="202.845px 390.305px"/><path d="M311 314.4c-4.3 9.7-15 13.3-20.3 7s-3.3-13.4-3.3-16.7a22.2 22.2 0 0 0-.6-6.2 2.2 2.2 0 0 0-.2-.5.9.9 0 0 0 0-.2 9 9 0 0 0-1.2-2.2c.4-10.3 17.9-16.6 21.7-11l1.4 3c4.4 9.6 5.2 20.5 2.4 26.8z" class="J" transform-origin="298.955px 303.524px"/></g></svg>