<svg xmlns="http://www.w3.org/2000/svg" class="A" id="A" viewBox="0 0 500 500" xmlns:v="https://vecta.io/nano"><style><![CDATA[svg#A.A #B{animation:8s Infinite linear wind;animation-delay:0s}svg#A.A #C{animation:8s Infinite linear floating;animation-delay:0s}@keyframes wind{0%{transform:rotate( 0deg )}25%{transform:rotate( 2.5deg )}75%{transform:rotate( -2.5deg )}} @keyframes floating{0%{opacity:1;transform:translateY(0px) rotate(0deg)}25%{transform:translateY(-10px) rotate(-0.8deg)}50%{transform:translateY(-20px) rotate(0.2deg)}75%{transform:translateY(-10px) rotate(0.8deg)}100%{opacity:1;transform:translateY(0px) rotate(0deg)}}.D{fill:#ba68c8}.E{fill:#fff}.F{fill:#fafafa}.G{fill:#e0e0e0}.H{fill:#455a64}.I{opacity:.2}.J{fill:#f5f5f5}.K{opacity:.4}.L{fill:#37474f}.M{fill:#263238}.N{opacity:.3}.O{fill:#ebebeb}.P{fill:#f28f8f}]]></style><g id="B" class="B" transform-origin="360.625px 121.18px"><g transform-origin="360.625px 121.18px"><g transform-origin="286.667px 80.7685px"><g class="D"><path d="M292.81 94.44l7.59-7.73 2.89-10.44s-4.24-3.9-12.54-7.11-19-2.3-20.44.18 3.13 12.2 10.07 17.79 12.43 7.31 12.43 7.31z" class="N" transform-origin="286.667px 80.7685px"/></g><path d="M293.52 90.67l3.59-6.22 3.59-6.22c-9.72-8-21.25-7-22.57-4.74s3.62 12.75 15.39 17.18z" class="D" transform-origin="289.311px 81.2741px"/><g class="E"><path d="M293.52 90.67l3.59-6.22 3.59-6.22c-9.72-8-21.25-7-22.57-4.74s3.62 12.75 15.39 17.18z" class="K" transform-origin="289.311px 81.2741px"/></g><path d="M297.11,84.45l-1.23,2.13a10.94,10.94,0,0,1-6.41-2.16c-2.74-1.93-5.5-5.85-4.76-7.13s5.51-.85,8.56.56a10.91,10.91,0,0,1,5.07,4.47l-1.23,2.13" class="E" transform-origin="291.464px 81.5538px"/></g><g transform-origin="288.749px 93.6938px"><g class="D"><path d="M292.72 102.53l4.91-5 1.86-6.74a27.51 27.51 0 0 0-8.1-4.6c-5.37-2.07-12.28-1.49-13.21.12s2 7.88 6.5 11.49a27.48 27.48 0 0 0 8.04 4.73z" class="N" transform-origin="288.749px 93.6938px"/></g><path d="M293.18 100.1l2.32-4 2.32-4c-6.28-5.15-13.73-4.54-14.59-3.06s2.35 8.2 9.95 11.06z" class="D" transform-origin="290.457px 94.0473px"/><g class="E"><path d="M293.18 100.1l2.32-4 2.32-4c-6.28-5.15-13.73-4.54-14.59-3.06s2.35 8.2 9.95 11.06z" class="K" transform-origin="290.457px 94.0473px"/></g><path d="M295.5,96.08l-.8,1.38a7.05,7.05,0,0,1-4.14-1.4c-1.77-1.24-3.55-3.78-3.07-4.61s3.56-.55,5.53.37a7.07,7.07,0,0,1,3.27,2.88l-.79,1.38" class="E" transform-origin="291.85px 94.2082px"/></g><g transform-origin="300.199px 76.4288px"><g class="D"><path d="M304.16 85.27l4.91-5 1.87-6.75a27.49 27.49 0 0 0-8.11-4.6c-5.36-2.07-12.27-1.49-13.2.12s2 7.88 6.5 11.49a27.58 27.58 0 0 0 8.03 4.74z" class="N" transform-origin="300.199px 76.4288px"/></g><path d="M304.62,82.83l2.32-4,2.32-4c-6.27-5.15-13.72-4.54-14.58-3.06S297,80,304.62,82.83Z" class="D" transform-origin="301.902px 76.7773px"/><g class="E"><path d="M304.62,82.83l2.32-4,2.32-4c-6.27-5.15-13.72-4.54-14.58-3.06S297,80,304.62,82.83Z" class="K" transform-origin="301.902px 76.7773px"/></g><path d="M306.94,78.81l-.79,1.38a7.05,7.05,0,0,1-4.14-1.4c-1.77-1.24-3.55-3.78-3.08-4.6s3.57-.56,5.53.36a7,7,0,0,1,3.28,2.89l-.8,1.37" class="E" transform-origin="303.297px 76.9435px"/></g><g transform-origin="360.625px 121.18px"><path d="M369.75 76.4a179.91 179.91 0 0 0-48.6-10v3.08S343.63 76 350.39 84.3a12.77 12.77 0 0 1 2.84 5.43 7.54 7.54 0 0 1-2.84 4.27v3.07c13.42 3.87 37.11 14.06 45.39 18.82a18.12 18.12 0 0 0 .85-5.72v-3c.01-10.1-7.23-23.55-26.88-30.77z" class="D" transform-origin="358.891px 91.145px"/><g><path d="M369.75 76.4a179.91 179.91 0 0 0-48.6-10v3.08S343.63 76 350.39 84.3a12.77 12.77 0 0 1 2.84 5.43 7.54 7.54 0 0 1-2.84 4.27v3.07c13.42 3.87 37.11 14.06 45.39 18.82a18.12 18.12 0 0 0 .85-5.72v-3c.01-10.1-7.23-23.55-26.88-30.77z" opacity=".1" transform-origin="358.891px 91.145px"/></g><path d="M350.39 94c13.42 3.87 37.11 14.06 45.39 18.82 3.3-10-2.36-27.76-26-36.46a179.91 179.91 0 0 0-48.6-10s22.45 6.64 29.21 14.87 0 12.77 0 12.77z" class="D" transform-origin="358.911px 89.59px"/><g class="E"><path d="M350.39 94c13.42 3.87 37.11 14.06 45.39 18.82 3.3-10-2.36-27.76-26-36.46a179.91 179.91 0 0 0-48.6-10s22.45 6.64 29.21 14.87 0 12.77 0 12.77z" class="I" transform-origin="358.911px 89.59px"/></g><path d="M313.44 74.56h0L326.73 84l-16.36 28.3-14.81-6.78h0c-2.64-1.16-4.31-4.11-4.31-8.49 0-8.08 5.68-17.91 12.68-22 3.8-2.15 7.19-2.18 9.51-.47z" class="L" transform-origin="308.99px 92.8207px"/><path d="M306.4 104.51c0 7.4 5.19 10.4 11.59 6.7s11.6-12.69 11.6-20.09-5.19-10.39-11.59-6.69-11.6 12.68-11.6 20.08z" class="H" transform-origin="317.995px 97.819px"/><path d="M316.7 76.85l4.45 3.15c-2-.64-4.61-.25-7.39 1.36-6.69 3.86-12.12 13.26-12.13 21 0 3.21.94 5.63 2.52 7.08l-5-2.27c-1.73-1.47-2.76-4-2.76-7.44 0-7.94 5.58-17.6 12.45-21.57 3-1.7 5.72-2.07 7.86-1.31z" class="D" transform-origin="308.77px 92.957px"/><g><path d="M304.14 75l.5-.27h0a29.73 29.73 0 0 0-8.71 10.49c-3.77 7.23-3.57 13.1-1.66 14.38a29.48 29.48 0 0 0 5 2.51 29.83 29.83 0 0 1 4.33-12.83c4.56-7.9 10.06-11.13 13.81-11.84l2.26 1.56 7.06 5L312 109.45h0l-1.64 2.85-14.81-6.78h0 0a5.8 5.8 0 0 1-1.38-.84 5.66 5.66 0 0 1-.52-.47 7.24 7.24 0 0 1-.62-.73 10.75 10.75 0 0 1-1.77-6.48A26.06 26.06 0 0 1 295 84.52a32.08 32.08 0 0 1 1.87-2.87l1-1.33a22.87 22.87 0 0 1 6-5.26z" class="I" transform-origin="308.988px 93.515px"/></g><path d="M309.07 92.12l-.24.41c-3.41 5.77-4.89 11.8-4.14 17a3.65 3.65 0 0 0 7.22-1.05c-.52-3.57.61-7.94 3.21-12.27h0 0c2.48-4.41 5.67-7.58 9-8.92a3.64 3.64 0 0 0-2.69-6.77c-4.71 1.82-9.11 5.96-12.36 11.6z" class="H" transform-origin="315.457px 96.3993px"/><path d="M392.26 107.46c30.88 17.82 50 46.27 50.61 59.54v.36.06h0a4.28 4.28 0 0 1-.58 2.17 4.35 4.35 0 0 1-1.58 1.58h0-.05l-.32.16c-11.78 6.13-46 3.77-76.88-14.05-29.71-17.16-51.23-40.69-53.22-42.9l-.15-.16h0a10.74 10.74 0 0 1-2.18-7.11c0-8.37 5.87-18.54 13.12-22.72 2.77-1.61 5.34-2.09 7.46-1.62 2.92.66 34.06 7.53 63.77 24.69z" class="J" transform-origin="375.382px 128.488px"/><path d="M439.54 155.62c2.06 4.4 3.2 8.3 3.33 11.38v.36a.13.13 0 0 0 0 .06h0a4.34 4.34 0 0 1-.57 2.16 4.4 4.4 0 0 1-1.59 1.59h0a.05.05 0 0 0-.05 0l-.32.16a31.83 31.83 0 0 1-11.53 2.81 72.75 72.75 0 0 1-9.33.15c-1.35-1.34-2.15-3.5-2.14-6.34 0-7.08 5-15.69 11.1-19.23 2.45-1.42 4.72-1.81 6.56-1.31a70.59 70.59 0 0 1 4.54 8.21z" class="H" transform-origin="430.105px 160.788px"/><path d="M441.56 167.44l11.88 8.56-13.37-6h0a.75.75 0 0 1-.31-.68 2.33 2.33 0 0 1 1.05-1.83.74.74 0 0 1 .75-.07z" class="J" transform-origin="446.598px 171.675px"/><g><path d="M363.47 157.32c-29.71-17.16-51.23-40.69-53.22-42.9l-.15-.16h0a10.74 10.74 0 0 1-2.18-7.11 21.44 21.44 0 0 1 .49-4.37c12.26 12.49 34.32 31.58 59.06 45.87 34.22 19.75 63.32 25.33 72.88 22.72-11.78 6.13-46 3.77-76.88-14.05z" opacity=".15" transform-origin="374.127px 138.599px"/></g><g class="E"><path d="M392.26 107.46c-29.71-17.16-60.85-24-63.76-24.65h-.22 0a10.7 10.7 0 0 0-7.28 1.62c20 5.23 43.75 11.79 68.5 26.07 34.21 19.76 50.85 46.93 53.37 56.5-.58-13.27-19.73-41.72-50.61-59.54z" opacity=".35" transform-origin="381.935px 124.855px"/></g><path d="M348.29,140.26c-8.25-4.77-25.9-18.45-32.6-26.2,0,0-7.84,3.91-22.19,0s-25.69-16.88-25.69-16.88v3.07s1.69,13.86,17.33,28.06c15.06,13.66,45.76,16.93,63.15,15Z" class="D" transform-origin="308.05px 120.499px"/><g><path d="M348.29,140.26c-8.25-4.77-25.9-18.45-32.6-26.2,0,0-7.84,3.91-22.19,0s-25.69-16.88-25.69-16.88v3.07s1.69,13.86,17.33,28.06c15.06,13.66,45.76,16.93,63.15,15Z" opacity=".1" transform-origin="308.05px 120.499px"/></g><path d="M315.69 114.06c6.7 7.75 24.35 21.43 32.6 26.21-17.39 1.9-48.09-1.37-63.15-15-15.64-14.27-17.33-28.09-17.33-28.09s11.34 13 25.69 16.88 22.19 0 22.19 0z" class="D" transform-origin="308.05px 118.973px"/><g class="E"><path d="M315.69 114.06c6.7 7.75 24.35 21.43 32.6 26.21-17.39 1.9-48.09-1.37-63.15-15-15.64-14.27-17.33-28.09-17.33-28.09s11.34 13 25.69 16.88 22.19 0 22.19 0z" class="I" transform-origin="308.05px 118.973px"/></g><path d="M411.8 123.58c-4.73-3.15-12.31-4-16.92-2-2.27 1-3.4 2.57-3.4 4.24v1.68c0 1.74 1.19 3.62 3.6 5.22 4.73 3.16 12.3 4 16.92 1.95 2.28-1 3.4-2.57 3.4-4.26v-1.67c-.01-1.68-1.2-3.56-3.6-5.16z" class="D" transform-origin="403.44px 128.145px"/><g><path d="M411.8 123.58c-4.73-3.15-12.31-4-16.92-2-2.27 1-3.4 2.57-3.4 4.24v1.68c0 1.74 1.19 3.62 3.6 5.22 4.73 3.16 12.3 4 16.92 1.95 2.28-1 3.4-2.57 3.4-4.26v-1.67c-.01-1.68-1.2-3.56-3.6-5.16z" class="I" transform-origin="403.44px 128.145px"/></g><path d="M411.8 123.58c-4.73-3.15-12.31-4-16.92-2s-4.53 6.32.2 9.47 12.3 4 16.92 2 4.53-6.32-.2-9.47z" class="D" transform-origin="403.442px 127.315px"/><g><path d="M398.47 120.66l4.9 6.29 2.8-5.78.45.12-2.8 5.78 9.2-2.56.27.24-9.19 2.57 11.28 1.85v.25l-11.29-1.85 8.1 5.4-.16.08-.17.07-8.1-5.4 1.12 6.42h-.46l-1.12-6.42-6.38 4.44-.39-.19 6.38-4.44-10.9.38c0-.09-.09-.18-.12-.27l10.89-.38-10.31-3.86.19-.21L403 127l-5-6.28z" class="I" transform-origin="403.635px 127.4px"/></g><path d="M409.48 124.62c-3.42-2.27-8.89-2.9-12.23-1.4s-3.27 4.56.15 6.84 8.89 2.9 12.22 1.4 3.27-4.56-.14-6.84z" class="L" transform-origin="403.434px 127.341px"/><path d="M409.62 131.46c-3.14 1.42-8.18.94-11.6-1-2.89-2.23-2.78-5 .38-6.46s8.17-.94 11.6 1c2.88 2.23 2.77 5-.38 6.46z" class="H" transform-origin="404.006px 127.721px"/><path d="M409.83 126.22a4.21 4.21 0 0 0-3.64-.42c-1 .45-1 1.36 0 2a4.22 4.22 0 0 0 3.65.42c1.03-.41 1.01-1.32-.01-2z" class="G" transform-origin="408.022px 127.011px"/><path d="M405.05 124.29a2.43 2.43 0 0 0-2.1-.24c-.57.26-.56.78 0 1.17a2.45 2.45 0 0 0 2.11.25c.59-.26.58-.79-.01-1.18z" class="G" transform-origin="404.012px 124.758px"/><path d="M390.48 110c-3.67-2.4-9.61-3-13.27-1.46-1.82.79-2.72 2-2.73 3.29v1.7c0 1.3.92 2.71 2.76 3.91 3.67 2.39 9.61 3 13.27 1.46 1.83-.8 2.73-2 2.73-3.31v-1.69c0-1.31-.92-2.72-2.76-3.9z" class="D" transform-origin="383.86px 113.719px"/><g><path d="M390.48 110c-3.67-2.4-9.61-3-13.27-1.46-1.82.79-2.72 2-2.73 3.29v1.7c0 1.3.92 2.71 2.76 3.91 3.67 2.39 9.61 3 13.27 1.46 1.83-.8 2.73-2 2.73-3.31v-1.69c0-1.31-.92-2.72-2.76-3.9z" class="I" transform-origin="383.86px 113.719px"/></g><path d="M390.48 110c-3.67-2.4-9.61-3-13.27-1.46s-3.64 4.83 0 7.22 9.61 3.05 13.27 1.46 3.68-4.84 0-7.22z" class="D" transform-origin="383.853px 112.89px"/><g><path d="M380,107.77l3.77,4.8,2.28-4.42.36.09-2.28,4.42,7.26-2,.21.19-7.26,2,8.84,1.4a.63.63,0,0,1,0,.19L384.35,113l6.29,4.1-.13.06-.13.06-6.29-4.11.79,4.9-.37,0-.79-4.9-5.08,3.4-.3-.15,5.08-3.4-8.57.31-.1-.21,8.58-.3-8.06-2.93.16-.16,8.05,2.92-3.77-4.79Z" class="I" transform-origin="383.969px 112.89px"/></g><path d="M388.64 110.78c-2.65-1.73-6.94-2.2-9.58-1s-2.64 3.48 0 5.21 6.94 2.21 9.58 1.06 2.66-3.54 0-5.27z" class="L" transform-origin="383.854px 112.895px"/><path d="M388.66 116c-2.48 1.08-6.44.72-9.1-.77-2.24-1.69-2.11-3.84.38-4.93s6.44-.72 9.11.77c2.24 1.69 2.11 3.84-.39 4.93z" class="H" transform-origin="384.304px 113.148px"/><path d="M388.9 112a3.39 3.39 0 0 0-2.86-.32c-.79.35-.78 1 0 1.56a3.35 3.35 0 0 0 2.86.31c.8-.34.79-1.04 0-1.55z" class="G" transform-origin="387.474px 112.619px"/><path d="M385.17 110.53a1.94 1.94 0 0 0-1.65-.18c-.45.2-.45.6 0 .9a1.92 1.92 0 0 0 1.64.18c.47-.2.47-.6.01-.9z" class="G" transform-origin="384.348px 110.89px"/></g></g></g><path d="M373.21,158.45c-10.14,20.81,13.86,39.56,26.62,53.17a129.18,129.18,0,0,1,18.78,23.61c6.2,10.77,7.34,23.93,4.24,35.9C418,287.07,402,295.72,386,293.75c-15.35-1.43-28.57-10.67-39.45-20.76-15.77-14.91-29.43-31.19-49.94-38.05-6.37-2.09-13-3.13-19.23-2a29.79,29.79,0,0,0-7.79,2.45l-3.06,1.73-1.91,1.4a21.38,21.38,0,0,0-7.86,10.54,15.22,15.22,0,0,0-.5,8,5,5,0,1,1-9.77,2.11,25.09,25.09,0,0,1,1.06-13.33A30.8,30.8,0,0,1,259.09,231l2.51-1.74c11.77-7.11,25.18-6.89,37.81-2.26,14.27,5.28,26.4,14.88,36.74,25.57,10,10.14,19.34,21.1,31.46,28.47,11.29,7,26.23,10.25,38.32,3.64,9.07-5.12,13.84-14.7,14-25a43.71,43.71,0,0,0-3.56-20.15,77.76,77.76,0,0,0-5.4-9,138.33,138.33,0,0,0-13.49-16.61c-13.12-14.58-37-34.41-25.74-56.2a.82.82,0,0,1,1.13-.33.84.84,0,0,1,.34,1.13Z" class="B" fill="#f0f0f0" transform-origin="335.274px 225.655px"/><g id="C" class="B" transform-origin="191.687px 274.648px"><g transform-origin="191.687px 274.648px"><g transform-origin="188.77px 274.648px"><g transform-origin="105.967px 361.782px"><path d="M157.83 390.46c-7.12 7.93-16.48 12.69-26.54 15.82-2.12.66-4.26 1.28-6.43 1.76-23.45 5.19-48.44-7-58.26-28.89-4-8.91-5.71-18.7-6.27-28.44-.42-7.2.42-13.69-2.08-20.53-2.25-6.16-7.58-8.66-12-9.3a31.45 31.45 0 0 1 24.84-6c10.29 1.94 18.59 9.16 23 18.46 5.5 11.55 6.72 24.74 12.76 35.85 5.53 10.18 16 17.48 27.73 17.67A30.4 30.4 0 0 0 159 374.59a5.74 5.74 0 0 1 2.36-2.23c1.83-.68 3.86 1 4.25 2.9s-.37 3.85-1.24 5.6a43.72 43.72 0 0 1-6.54 9.6z" class="F" transform-origin="105.982px 361.797px"/><path d="M71.1 314.86c10.29 1.94 18.59 9.16 23 18.46.78 1.65 1.47 3.33 2.11 5a25.65 25.65 0 0 0-6.95-6.51c1.71 1.08 3.75 13.39 2 13.18a1.66 1.66 0 0 1-.9-.56c-2.9-2.87-5-6.15-8.45-8.42 0 6.18 1.76 12.35.94 18.47-.06.4-.21.89-.61.93a.91.91 0 0 1-.58-.22 11.65 11.65 0 0 1-2.55-2.78 80.36 80.36 0 0 1-6.83-11.33 74.67 74.67 0 0 0 .62 12.59c.25 1.86.51 4-.66 5.43a13.61 13.61 0 0 1-6.41-7.81 108.84 108.84 0 0 0-.13 25.7 82.89 82.89 0 0 1-5.4-26.32c-.42-7.2.42-13.69-2.08-20.53-2.25-6.16-7.58-8.66-12-9.3a31.45 31.45 0 0 1 24.88-5.98z" class="D" transform-origin="71.215px 345.662px"/><g class="E"><path d="M71.1 314.86c10.29 1.94 18.59 9.16 23 18.46.78 1.65 1.47 3.33 2.11 5a25.65 25.65 0 0 0-6.95-6.51c1.71 1.08 3.75 13.39 2 13.18a1.66 1.66 0 0 1-.9-.56c-2.9-2.87-5-6.15-8.45-8.42 0 6.18 1.76 12.35.94 18.47-.06.4-.21.89-.61.93a.91.91 0 0 1-.58-.22 11.65 11.65 0 0 1-2.55-2.78 80.36 80.36 0 0 1-6.83-11.33 74.67 74.67 0 0 0 .62 12.59c.25 1.86.51 4-.66 5.43a13.61 13.61 0 0 1-6.41-7.81 108.84 108.84 0 0 0-.13 25.7 82.89 82.89 0 0 1-5.4-26.32c-.42-7.2.42-13.69-2.08-20.53-2.25-6.16-7.58-8.66-12-9.3a31.45 31.45 0 0 1 24.88-5.98z" opacity=".7" transform-origin="71.215px 345.662px"/></g></g><path d="M136.24 226.68c-16.29 7.92-24.75 11.7-26.94 26.8-1.4 9.58-7.09 46.8-5.87 60s19.83 22.71 26.65 25.55 14 1.39 32-7.17l34.63-16.79c8.06-3.97 15.66-9.9 13.57-33.42s-2.33-40.76-3.55-48.9-2.92-8.26-12.09-13.08-20.12-11.58-58.4 7.01z" class="O" transform-origin="156.945px 277.374px"/><path d="M103.43 313.52c.89 9.64 11 17.27 19 21.81 8.12 4 9-3.46 9.89-10.43 1-7.79 1.16-15.08 3.89-38.42s.32-27-7.41-33-17-10.75-19.53 0c-1.37 9.58-7.06 46.8-5.84 60.04z" class="G" transform-origin="120.277px 291.764px"/><path d="M117.54 254.09a8.62 8.62 0 0 0-1.06 3.27l-.76 3.45-.76 3.45-.39 1.83a7.27 7.27 0 0 0-.31 1.65.53.53 0 0 0 .28.46c1.13.51 1.2-1.45 1.36-2.17l.84-4 .81-3.85.45-2.18a6.32 6.32 0 0 0 .31-1.66c-.02-.34-.55-.54-.77-.25zm5.53 2.09a4.07 4.07 0 0 0-.72 1.58l-.54 1.8-.88 3.45-.78 3.46-.36 1.8-.17.9a3.27 3.27 0 0 1-.16.78c-.33.68.68 1.11 1.07.54a3.87 3.87 0 0 0 .38-1.51l.35-1.79.8-3.66.87-3.53.52-2.05a2.85 2.85 0 0 0 .15-1.55c-.06-.18-.36-.4-.53-.22zm6 2.89c0-.31-.52-.48-.68-.19a13.57 13.57 0 0 0-.95 3.52l-.77 3.49-1.28 6a.2.2 0 0 0-.1.22 1.48 1.48 0 0 1 0 .21l-.09.42c-.13.6 1 .73 1.17.2v-.13h0l1.48-7 .69-3.39a11 11 0 0 0 .52-3.35z" class="H" transform-origin="121.665px 263.612px"/><path d="M111.9,281.25a3.8,3.8,0,0,0-1.58,3.5,11.94,11.94,0,0,0,5.4,9.36,3.76,3.76,0,0,0,3.82.38l3.45-2a3.78,3.78,0,0,0,1.58-3.5,11.94,11.94,0,0,0-5.4-9.36,3.81,3.81,0,0,0-3.82-.38Z" class="M" transform-origin="117.446px 286.874px"/><path d="M115.72 294.11a3.3 3.3 0 0 0 5.41-3.12 11.93 11.93 0 0 0-5.41-9.36 3.29 3.29 0 0 0-5.4 3.12 11.94 11.94 0 0 0 5.4 9.36z" class="H" transform-origin="115.723px 287.867px"/><path d="M109.58,304.53A3.78,3.78,0,0,0,108,308a11.93,11.93,0,0,0,5.41,9.36,3.81,3.81,0,0,0,3.82.38l3.44-2a3.81,3.81,0,0,0,1.59-3.5,11.93,11.93,0,0,0-5.41-9.36,3.76,3.76,0,0,0-3.82-.38Z" class="D" transform-origin="115.13px 310.116px"/><path d="M113.41 317.39a3.29 3.29 0 0 0 5.4-3.12 11.94 11.94 0 0 0-5.4-9.36A3.3 3.3 0 0 0 108 308a11.93 11.93 0 0 0 5.41 9.39z" class="D" transform-origin="113.41px 311.156px"/><g class="E"><path d="M113.41 317.39a3.29 3.29 0 0 0 5.4-3.12 11.94 11.94 0 0 0-5.4-9.36A3.3 3.3 0 0 0 108 308a11.93 11.93 0 0 0 5.41 9.39z" class="K" transform-origin="113.41px 311.156px"/></g><path d="M241.31 355.68c-7.24-7.48-11.55-17.8-9.81-28.27 1.85-11.09 10-22.54 20.76-26.29 9.88-3.43 21.4-1.11 29.57 5.41A36.44 36.44 0 0 1 295 333.91a39.47 39.47 0 0 1 18.83-11.79 19.8 19.8 0 0 1 9.77-.6 10 10 0 0 1 7.27 6.07c1.11 3.27-.06 6.93-2 9.76s-4.66 5.06-7.06 7.55a45.62 45.62 0 0 0-10 16.06c-1.28 3.5-2.17 7.44-5.15 9.94-5.11 4.27-14.28 3.92-20.51 3.51a70.12 70.12 0 0 1-22.38-5.41c-7.85-3.31-16.48-7.14-22.46-13.32z" class="J" transform-origin="281.208px 337.091px"/><path d="M328.15 329.33a6.17 6.17 0 0 0-2.07-.72 10.33 10.33 0 0 0-3.91.26c-6.62 1.5-12.33 5.86-16.29 11.28s-6.28 11.88-7.71 18.42c-.72 3.3-1.47 8.24 1.29 10.94 1.81 1.77 5 1.23 6.92-.45s2.83-4.13 3.77-6.47c3.1-7.64 7.21-15.06 13.33-20.65 2.16-2 4.47-4 6-6.57s.8-4.82-1.33-6.04z" class="G" transform-origin="313.898px 349.568px"/><g><path d="M328.15 329.33a6.17 6.17 0 0 0-2.07-.72 10.33 10.33 0 0 0-3.91.26c-6.62 1.5-12.33 5.86-16.29 11.28s-6.28 11.88-7.71 18.42c-.72 3.3-1.47 8.24 1.29 10.94 1.81 1.77 5 1.23 6.92-.45s2.83-4.13 3.77-6.47c3.1-7.64 7.21-15.06 13.33-20.65 2.16-2 4.47-4 6-6.57s.8-4.82-1.33-6.04z" class="I" transform-origin="313.898px 349.568px"/></g><path d="M329.32 331.13a6.11 6.11 0 0 0-2-.7 9.83 9.83 0 0 0-3.81.26c-6.43 1.49-12 5.8-15.84 11.17s-6.13 11.72-7.53 18.17c-.71 3.26-1.45 8.14 1.22 10.79 1.77 1.75 4.89 1.21 6.74-.45s2.75-4.09 3.67-6.39c3-7.54 7-14.87 13-20.4a29.17 29.17 0 0 0 5.81-6.49c1.35-2.38.81-4.75-1.26-5.96z" class="G" transform-origin="315.398px 351.125px"/><path d="M306.18 362.15q2.73 1 5.42 2.14h0c0-.1.09-.21.13-.32l.21-.49q-2.7-1.11-5.44-2.12-3.09-1.12-6.22-2.1l-.18.75 6.08 2.14z" class="F" transform-origin="306.02px 361.775px"/><path d="M309.74 351.43a59.7 59.7 0 0 0-6.29-2l-.29.68 6.46 2.13q2.2.86 4.35 1.88l2 1 .44-.76-2.09-1q-2.26-1.07-4.58-1.93z" class="F" transform-origin="309.785px 352.275px"/><path d="M305 366.71l4.55 1.92.44-.72-4.51-1.89q-3-1.17-6-2.2v.74q2.78 1.04 5.52 2.15z" class="F" transform-origin="304.735px 366.225px"/><path d="M307.71 357q2.55 1.05 5 2.25l.87.44.36-.78-.49-.25q-2.52-1.23-5.1-2.29-3.27-1.32-6.64-2.39l-.23.71 6.23 2.31z" class="F" transform-origin="307.71px 356.835px"/><path d="M318.08 348.89q-2.38-1.2-4.83-2.26l-6.94-2.75-.45.77q3.52 1.26 7 2.77l4.73 2.21 1.36.7.54-.73z" class="F" transform-origin="312.675px 347.105px"/><path d="M321.43 344.06l-5.46-2.53-6.07-2.46-.52.6q3 1.2 5.95 2.52l7.35 3.47.65-.65z" class="F" transform-origin="316.355px 342.365px"/><path d="M326.76 335.41l-7-3.51-.82.37 7.13 3.69 3.78 2.21.46-.71-3.55-2.05z" class="F" transform-origin="324.625px 335.035px"/><path d="M319.69 338.6l5.26 2.54 1.55.81.67-.65-1.7-.89q-2.64-1.32-5.32-2.52-3.07-1.36-6.21-2.56l-.68.54 6.43 2.73z" class="F" transform-origin="320.215px 338.64px"/><path d="M294.62 329.42c-12.34 10.7-10.78 26.52-10.78 26.52s1.88-10.66 11.17-22a37.43 37.43 0 0 0-.39-4.52z" class="G" transform-origin="289.393px 342.68px"/><path d="M239 233.71c-8.72 6.48-12.41 18-11.76 28.53a23.31 23.31 0 0 0 7.66 16.44c13.89 12.12 27.89 10.48 40 12 10.43 1.34 12.58 6 12.54 14 0 3.27-1.86 10.48 3.32 16.72s16 2.67 20.19-7 .14-30.18-12.38-40.23c-8.93-7.17-20.2-9.53-29.56-15.87-4.93-3.35-6.57-6.94-8.73-12.39-1.92-4.82-3.87-9.92-8-13.34a8.7 8.7 0 0 0-4.91-2.23 9 9 0 0 0-3.87.8 20.06 20.06 0 0 0-4.5 2.57z" class="J" transform-origin="269.856px 277.424px"/><path d="M289.07 268.35a18.68 18.68 0 0 0-2.81.86 20 20 0 0 0-6.07 3.81 24.2 24.2 0 0 0-7.19 13.16 31.42 31.42 0 0 0-.58 4.2v.06q.74.06 1.44.15a32 32 0 0 1 .38-3.23 26.59 26.59 0 0 1 2.19-7 20.53 20.53 0 0 1 9.35-9.6 17.3 17.3 0 0 1 5.06-1.55q-.84-.43-1.77-.86z" class="G" transform-origin="281.63px 279.47px"/><path d="M256.94 288.9l.23-1.49 1-4.44a36.38 36.38 0 0 1 3.54-8.5 24 24 0 0 1 13.24-11 18 18 0 0 1 2.16-.55l-1.72-.84h-.09a23.21 23.21 0 0 0-8 4c-5 3.79-8.25 9.42-10.12 15.34a48.17 48.17 0 0 0-1.32 5.16l-.41 2.12z" class="G" transform-origin="266.28px 275.49px"/><path d="M307.06,284.62c-3.77-5.62-21.32.69-21.68,11.05a10.44,10.44,0,0,1,1.37,2.9c-4.39.82-7-4.7-5.37-8.73s9.34-12.17,18.06-12,10.36,6.06,9.11,9.75Z" class="D" transform-origin="294.906px 288.245px"/><g class="E"><path d="M307.06,284.62c-3.77-5.62-21.32.69-21.68,11.05a10.44,10.44,0,0,1,1.37,2.9c-4.39.82-7-4.7-5.37-8.73s9.34-12.17,18.06-12,10.36,6.06,9.11,9.75Z" class="I" transform-origin="294.906px 288.245px"/></g><path d="M262.27 235.42c-3.08-6-9.42-10.65-16.18-10.33-5.78.27-10.92 4-14.52 8.51a34.37 34.37 0 0 0-5.57 31.75c1.1 3.26 2.81 6.47 5.64 8.42a14.13 14.13 0 0 0 7.67 2.23 23.36 23.36 0 0 0 16.69-6.73c8.71-8.45 11.85-22.91 6.27-33.85z" class="D" transform-origin="244.688px 250.538px"/><g class="E"><path d="M262.27 235.42c-3.08-6-9.42-10.65-16.18-10.33-5.78.27-10.92 4-14.52 8.51a34.37 34.37 0 0 0-5.57 31.75c1.1 3.26 2.81 6.47 5.64 8.42a14.13 14.13 0 0 0 7.67 2.23 23.36 23.36 0 0 0 16.69-6.73c8.71-8.45 11.85-22.91 6.27-33.85z" class="I" transform-origin="244.688px 250.538px"/></g><path d="M255.23,256.57c5.6,4.82,16.11,17.67,13.91,33.59,0,0,26.69,23.73,20.25,63.88-8.18,51-73.57,70.82-115.91,58.47S122.74,367.64,127,331.58c4.71-39.69,21.87-50.79,21.87-50.79Z" fill="#e6e6e6" transform-origin="208.201px 336.321px"/><g transform-origin="187.185px 215.06px"><g transform-origin="201.42px 255.66px"><path d="M254.62,235c-24.91-31-106.4-11.56-112.82,28a26.46,26.46,0,0,0,0,8.19,54.65,54.65,0,0,0,1.6,7.09,27.08,27.08,0,0,0,3.72,7.87c23.34,33.26,107.46,13.86,114-26.31a27.43,27.43,0,0,0-.06-8.72,55.17,55.17,0,0,0-1.3-5.88A28.5,28.5,0,0,0,254.62,235Z" class="H" transform-origin="201.46px 261.385px"/><path d="M177.82 294a14.33 14.33 0 0 1 .34 5.38 7.57 7.57 0 0 0 .14 3.05l.76.08a6.39 6.39 0 0 1-.2-3.06 15.05 15.05 0 0 0-.36-5.61c-.7-2.92-.64-5.45 1.93-8.34l-.52-.47c-2.78 3.12-2.84 5.85-2.09 8.97z" class="L" transform-origin="178.92px 293.77px"/><path d="M208 289.84c-14.5 3.35-29.74 3.47-42.26-.43h0c-12.19-3.81-20-10.82-22.07-19.75s2-18.67 11.29-27.44c19.14-18 55.06-26.28 80.09-18.48 12.2 3.81 20 10.82 22.08 19.74s-2 18.68-11.3 27.45c-9.6 8.99-23.36 15.56-37.83 18.91zM192.92 224c-14.38 3.32-28 9.83-37.51 18.75-9.13 8.59-13.07 18.1-11.09 26.77s9.68 15.48 21.6 19.21c24.81 7.74 60.43-.48 79.4-18.32 9.13-8.59 13.07-18.1 11.09-26.77s-9.65-15.5-21.6-19.22c-12.4-3.87-27.51-3.75-41.89-.42z" class="L" transform-origin="200.402px 256.575px"/><path d="M252.22 233.34L254 241c1.85 8.12-1.6 17.46-10.79 26.1-18.37 17.28-52.75 25.22-76.79 17.72-12-3.75-19.17-10.64-21-18.76l-1.75-7.68c1.85 8.12 9 15 21 18.76 24 7.5 58.42-.44 76.79-17.72 9.17-8.62 12.62-17.96 10.76-26.08z" fill="#f0f0f0" transform-origin="199.076px 260.493px"/><path d="M223.19,279.92A79.65,79.65,0,0,0,231,276l-1.75-7.68a82.1,82.1,0,0,1-7.85,3.93Z" class="F" transform-origin="226.2px 274.12px"/><path d="M252 243.22c-1.42 5.38-4.89 10.93-10.52 16.22-.44.42-.89.82-1.35 1.22l1.76 7.68 1.34-1.22c5.63-5.3 9.1-10.85 10.52-16.23z" class="G" transform-origin="246.94px 255.78px"/><path d="M206.14 277.35c-14.14 3.43-29.14 3.65-41.49-.19-12-3.74-19.18-10.64-21-18.76l1.75 7.68c1.86 8.12 9 15 21 18.76 12.3 3.83 27.31 3.63 41.5.2z" class="G" transform-origin="175.775px 273.031px"/><path d="M167.51,285.17a72.83,72.83,0,0,0,25.33,2.25l-1.75-7.68a72.79,72.79,0,0,1-25.33-2.26Z" class="J" transform-origin="179.3px 282.587px"/><path d="M252.64 230.24c-1.89-8.27-9.19-15.3-21.44-19.13-24.51-7.64-59.57.45-78.31 18.07-9.37 8.81-12.88 18.34-11 26.62l.68 3c1.89 8.28 9.19 15.31 21.44 19.13 24.51 7.64 59.57-.45 78.31-18.07 9.37-8.81 12.88-18.34 11-26.61l-.68-3.01z" class="L" transform-origin="197.605px 244.52px"/><path d="M163.34 274.93c24.51 7.64 59.57-.45 78.31-18.07 9.37-8.81 12.88-18.34 11-26.62s-9.19-15.3-21.44-19.13c-24.51-7.64-59.57.45-78.31 18.07-9.37 8.81-12.88 18.34-11 26.62s9.19 15.31 21.44 19.13z" class="H" transform-origin="197.275px 243.02px"/><path d="M186 281.91a49.2 49.2 0 0 1-13.54-1.17 1.14 1.14 0 0 0-1.07.19l-1.06 1a1.09 1.09 0 0 0-.23 1.08v.06a3.13 3.13 0 0 0 2.08 2.17 49.2 49.2 0 0 0 13.54 1.17 1.48 1.48 0 0 0 .94-.38l1.08-1a1.49 1.49 0 0 0 .4-1.44v-.06a2.16 2.16 0 0 0-2.14-1.62z" class="L" transform-origin="179.116px 283.58px"/><path d="M172.16 285.25a49.2 49.2 0 0 0 13.54 1.17 1.44 1.44 0 0 0 1.36-1.83v-.06a2.17 2.17 0 0 0-2.14-1.62 48.82 48.82 0 0 1-13.54-1.17c-.94-.22-1.51.33-1.3 1.28v.06a3.13 3.13 0 0 0 2.08 2.17z" class="H" transform-origin="178.575px 284.09px"/></g><g class="E"><circle cx="187.1" cy="201.2" r="73.7" class="N" transform-origin="187.1px 201.2px"/></g><g class="D"><circle cx="187.1" cy="201.2" r="73.7" class="I" transform-origin="187.1px 201.2px"/></g><path d="M192.92 170.35c.23-2.48-7.51.46-11.26 6.57a35.62 35.62 0 0 0-3.21 6.45 29.18 29.18 0 0 0-4.37-1.76c-5.16-1.63-11 .51-9.68 1.81s4.87 3 6.3 7.85l8.48-4.93 14.22-2.67c-2.75-6.09-.71-10.84-.48-13.32z" class="F" transform-origin="178.805px 180.37px"/><path d="M193 199.35c5.78-27.29 33.94-40.16 41.08-34.41 5.17 4.17-6.53 37.5-6.53 37.5s-28.23 10.82-34.55-3.09z" class="O" transform-origin="214.199px 185.021px"/><path d="M207.3 190.1c8.16 7.11 20.2 12.34 20.2 12.34s11.5-33.08 6.5-37.5c-3.47-2.03-21.24 4.19-26.7 25.16z" fill="#ffa8a7" transform-origin="221.28px 183.508px"/><path d="M227.16 191.06a13.91 13.91 0 0 1 .75-3.75l-.4-6.14c-3.44-.64-7.32 1.21-7.32 1.21-1.09-2.73 0-6.5 0-6.5-3.07.33-9.44 5.8-8.47 12 0 0 5 2.89 7.91 4.39a85.87 85.87 0 0 0 4.84.57 6.44 6.44 0 0 0 2.69-1.78z" class="P" transform-origin="219.765px 184.36px"/><path d="M212.22 187.61c.23-4.5 5.89-9.68 9-10 0 0-1.11 3.77 0 6.5 0 0 7.52-3.59 10.88.94 0 0-3.49 1.55-3.94 8-5.88 6-15.94-5.44-15.94-5.44z" class="O" transform-origin="222.16px 186.2px"/><path d="M173.47 202.94c-17.14-22-48.1-21.24-52-12.95-2.82 6 21 30.3 21 30.3s31.36-2.05 31-17.35z" class="O" transform-origin="147.356px 202.46px"/><path d="M156.52 200.91c-4.22 10-14 19.38-14 19.38s-23.55-24.15-21-30.3c2.21-3.35 20.91-5.54 35 10.92z" fill="#ffa8a7" transform-origin="138.923px 203.961px"/><path d="M143.35 214.35a14.1 14.1 0 0 0-2.39-3l-2.46-5.64c2.75-2.15 7.06-2.29 7.06-2.29-.29-2.92-3-5.77-3-5.77 2.88-1.11 11.05.83 13 6.74l-5 7.53c-1.51 1.09-2.89 2-4 2.73a6.59 6.59 0 0 1-3.21-.3z" class="P" transform-origin="147.03px 206.04px"/><path d="M155 204.42c-2.27-3.89-9.68-5.89-12.56-4.78 0 0 2.72 2.85 3 5.77 0 0-8.33.26-9.24 5.83 0 0 3.82-.23 7.18 5.29 7.97 2.67 11.62-12.11 11.62-12.11z" class="O" transform-origin="145.6px 208.094px"/><path d="M204.53 269.14c-43.36 10.78-66.89-15-66.89-15l2.1-3.6-7.28-3.18s-.27-3.93 9.08-26.92 23.18-32.35 41.12-36.54 34.49-1.92 53.05 14.55 20.07 20.12 20.07 20.12l-5.12 6.07 3.48 2.3s-6.25 31.42-49.61 42.2z" class="F" transform-origin="194.12px 226.922px"/><path d="M171.85 187.32a27.27 27.27 0 0 1 3.73 11.51 1.47 1.47 0 0 0 2.93-.25 30.34 30.34 0 0 0-3.9-12.33l-2.76 1.07zm10.81-3.43l-2.66.68a43.61 43.61 0 0 1 5.49 16.86c.2 1.87 3.13 1.62 2.92-.26a46.7 46.7 0 0 0-5.41-17.34zm8.09-1.43l-3.06.43a37.44 37.44 0 0 1 4.05 10.69 1.52 1.52 0 0 0 1.59 1.34 1.48 1.48 0 0 0 1.33-1.59 41.14 41.14 0 0 0-3.91-10.87z" class="D" transform-origin="183.257px 192.586px"/><g class="E"><path d="M171.85 187.32a27.27 27.27 0 0 1 3.73 11.51 1.47 1.47 0 0 0 2.93-.25 30.34 30.34 0 0 0-3.9-12.33l-2.76 1.07zm10.81-3.43l-2.66.68a43.61 43.61 0 0 1 5.49 16.86c.2 1.87 3.13 1.62 2.92-.26a46.7 46.7 0 0 0-5.41-17.34zm8.09-1.43l-3.06.43a37.44 37.44 0 0 1 4.05 10.69 1.52 1.52 0 0 0 1.59 1.34 1.48 1.48 0 0 0 1.33-1.59 41.14 41.14 0 0 0-3.91-10.87z" opacity=".7" transform-origin="183.257px 192.586px"/></g><path d="M205.82 256.78c21.53-6.5 20.77-21.55 15.65-28.2s-14-9.35-24.41-6.59c-10.68 2.81-17.57 9.81-19.11 18.65s5.34 22.95 27.87 16.14z" class="D" transform-origin="201.11px 239.748px"/><g class="E"><path d="M205.82 256.78c21.53-6.5 20.77-21.55 15.65-28.2s-14-9.35-24.41-6.59c-10.68 2.81-17.57 9.81-19.11 18.65s5.34 22.95 27.87 16.14z" opacity=".7" transform-origin="201.11px 239.748px"/></g><path d="M225.52 203.11c2.6 5.06 1.51 10.94-2 13.93-3.25 2.74-7.9 2.69-12.21-.54-2.4-6.11 0-12.1 3.7-14s6.76-1.11 10.51.61z" class="D" transform-origin="218.651px 210.206px"/><path d="M211.79 213.32c1.54 3.3 5.09 4.78 7.92 3.3s3.82-5.3 2.29-8.56-5-4.76-7.85-3.33-3.91 5.27-2.36 8.59z" class="M" transform-origin="216.897px 210.691px"/><path d="M219.36 206.46a2 2 0 1 0 3.81-1.31 2.22 2.22 0 0 0-2.67-1.57 2.2 2.2 0 0 0-1.14 2.88z" class="E" transform-origin="221.231px 205.668px"/><path d="M221.09 210.55a1.1 1.1 0 0 1 .37-.7 4.19 4.19 0 0 1 .63-.5 2.73 2.73 0 0 1 1.81-.4 1.5 1.5 0 0 1 1 1 .87.87 0 0 1 0 .69.85.85 0 0 1-.53.31 3.19 3.19 0 0 1-1.2-.2 6.27 6.27 0 0 0-1.73 0c-.23.02-.34-.07-.35-.2z" class="E" transform-origin="223.031px 209.939px"/><path d="M229.83 219.14h-.08a1.06 1.06 0 0 1-.61-1.15c.76-5.13 3.23-11.48 10.6-12.8a.88.88 0 0 1 .91.76.79.79 0 0 1-.51 1c-6.61 1.2-8.82 6.92-9.5 11.53a.69.69 0 0 1-.81.66z" class="H" transform-origin="234.907px 212.17px"/><path d="M232.54 220.55a.62.62 0 0 1-.25-.11 1.09 1.09 0 0 1-.39-1.26c1.41-3.66 5.64-6.51 8.54-6.78a.9.9 0 0 1 .88.83.78.78 0 0 1-.58 1 10.33 10.33 0 0 0-7.45 5.9.64.64 0 0 1-.75.42z" class="H" transform-origin="236.595px 216.483px"/><path d="M233.46 224.29a.92.92 0 0 1-.42-.3 1.07 1.07 0 0 1 0-1.3 12.91 12.91 0 0 1 13.47-3.26 1 1 0 0 1 .63 1.11c-.06.48-.43.77-.82.65h0a11.64 11.64 0 0 0-12.16 2.9.62.62 0 0 1-.7.2z" class="H" transform-origin="239.988px 221.532px"/><path d="M162.46 238.31l.06-.07a1.11 1.11 0 0 0-.19-1.39c-4.08-3.8-10.63-7.54-18.63-3.63a1 1 0 0 0-.37 1.3.92.92 0 0 0 1.21.53c7.17-3.53 13.08-.16 16.76 3.27a.79.79 0 0 0 1.16-.01z" class="H" transform-origin="152.953px 235.065px"/><path d="M160.92 241.37a1.17 1.17 0 0 0 .15-.27 1.1 1.1 0 0 0-.47-1.33c-3.74-2.12-9.64-1.61-12.62.19a1 1 0 0 0-.28 1.34.9.9 0 0 0 1.23.43c2.6-1.58 7.85-2 11-.21a.78.78 0 0 0 .99-.15z" class="H" transform-origin="154.346px 240.106px"/><path d="M162.53 245.15a1 1 0 0 0 .19-.54 1.08 1.08 0 0 0-.83-1.12c-4.2-.67-10.66 1.18-14.95 6.88a1.12 1.12 0 0 0 .16 1.42.83.83 0 0 0 1.25 0h0c3.88-5.2 9.68-6.88 13.44-6.29a.75.75 0 0 0 .74-.35z" class="H" transform-origin="154.74px 247.717px"/><path d="M216.09 199.06a7 7 0 0 1 1.35-1.08 8.15 8.15 0 0 1 3.58-1.32 2.06 2.06 0 0 1 1.07.1c.49.25.14 1-.18 1.11a1.5 1.5 0 0 1-.47.08 12.43 12.43 0 0 0-2.91.48 25.06 25.06 0 0 0-2.39.84c-.09.04-.09-.17-.05-.21z" class="H" transform-origin="219.199px 197.953px"/><path d="M213.29 199.41a8 8 0 0 1 .62-1.76 9.35 9.35 0 0 1 2.33-3.24 2 2 0 0 1 .92-.52c.52 0 .56.82.35 1.12a1.26 1.26 0 0 1-.34.35 12.79 12.79 0 0 0-2.17 2.09l-1.57 2.12c-.06.09-.16-.1-.14-.16z" class="H" transform-origin="215.458px 196.742px"/><path d="M157.31 222.06c.75 6 5.45 10.4 10.53 10.71 4.59.29 8.64-2.63 10.44-8-1.56-6.54-7.23-10.2-11.72-9.67s-6.85 3.17-9.25 6.96z" class="D" transform-origin="167.795px 223.92px"/><path d="M176 222.45c.63 3.7-1.59 7.11-5 7.6s-6.71-2.14-7.33-5.89 1.64-7.12 5-7.58 6.66 2.18 7.33 5.87z" class="M" transform-origin="169.837px 223.318px"/><path d="M165.1 221.06a2.25 2.25 0 1 1-2.83-1.78 2.39 2.39 0 0 1 2.83 1.78z" class="E" transform-origin="162.883px 221.46px"/><path d="M166.05 225.62a1.22 1.22 0 0 0-.78-.37 5.19 5.19 0 0 0-.88 0 3.18 3.18 0 0 0-1.9.77 1.56 1.56 0 0 0-.29 1.54c.06.21.2.53.41.6a.92.92 0 0 0 .67-.07c.42-.16.67-.6 1-.91a6.7 6.7 0 0 1 1.54-1.11c.25-.19.3-.33.23-.45z" class="E" transform-origin="164.095px 226.712px"/><path d="M163.48 212.87a8.11 8.11 0 0 0-1.9-.13 9.68 9.68 0 0 0-4.13 1 2.45 2.45 0 0 0-.94.72c-.29.52.49.94.87.86a1.83 1.83 0 0 0 .5-.21 13.87 13.87 0 0 1 3-1.32 25 25 0 0 1 2.71-.68c.08-.04-.05-.22-.11-.24z" class="H" transform-origin="160.031px 214.03px"/><path d="M166.22 211.53a8.68 8.68 0 0 0-1.63-1.14 10.42 10.42 0 0 0-4.12-1.44 2.43 2.43 0 0 0-1.17.08c-.5.27 0 1 .37 1.18a1.47 1.47 0 0 0 .54.1 15.3 15.3 0 0 1 3.27.54l2.72.91c.11.04.07-.18.02-.23z" class="H" transform-origin="162.68px 210.339px"/><path d="M192.54 241.62a7 7 0 0 1-4.12-1.26.75.75 0 0 1-.16-1.05.74.74 0 0 1 1.05-.16c2.15 1.56 5.72 1.18 8.31-.9a6.42 6.42 0 0 0 2.38-7.05 5.69 5.69 0 0 1-.38-1 .75.75 0 0 1 1.42-.48 9.94 9.94 0 0 1 .37 1 7.67 7.67 0 0 0 3.07 3.13 7.37 7.37 0 0 0 6 .54.75.75 0 1 1 .45 1.43 8.85 8.85 0 0 1-7.16-.66 9 9 0 0 1-2-1.47 8.07 8.07 0 0 1-3.18 5.77 9.74 9.74 0 0 1-6.05 2.16z" class="M" transform-origin="199.797px 235.429px"/><path d="M200.75 231.74c1-.26 3.15-3.18 2.94-4.92s-8.49.91-8.27 2.26c.33 1.92 4.29 2.92 5.33 2.66z" class="P" transform-origin="199.56px 229.014px"/><path d="M187.1 275.37a74.17 74.17 0 1 1 74.17-74.17 74.25 74.25 0 0 1-74.17 74.17zm0-147.4a73.23 73.23 0 1 0 73.23 73.23A73.31 73.31 0 0 0 187.1 128z" class="D" transform-origin="187.1px 201.2px"/><g class="E"><path d="M185.56 134.67a9.41 9.41 0 0 0-4.68 4.92c-.93 2.37 0 4.4 2 5.95a14.89 14.89 0 0 0 6 2.68c2.16.5 4.36.7 6.55 1a74.07 74.07 0 0 1 10.54 2.27c3.19.94 8.63 2.83 11.15-.53 3.6-4.8-1.6-10.52-5.4-12.82-7.51-4.52-17.86-7.42-26.16-3.47z" opacity=".5" transform-origin="199.425px 142.842px"/></g><g class="E"><path d="M221.85 154.52a10.48 10.48 0 0 0 .63 8.1 20.64 20.64 0 0 0 4.17 5.11c8.52 8.35 16.14 17.1 19.78 28.73a47.5 47.5 0 0 0 2.57 7.39 5.49 5.49 0 0 0 1.79 2.24c3.44 2.2 4.72-2.34 4.92-4.8 0-.33 0-.66.08-1a62.73 62.73 0 0 0-6.14-31.84c-3.55-7.2-13.08-22-23.08-18.29-1.74.65-4.11 2.57-4.72 4.36z" opacity=".5" transform-origin="238.632px 178.124px"/></g></g><path d="M228.64 367.76a29.41 29.41 0 0 1-14.75 3.9c-7.77 0-16-2.89-23.83-8.55-4.45-3.21-9.56-8.34-15-13.76-9.58-9.61-20.45-20.5-30.17-23.35-7.06-2.07-14-.48-17.69 3.95a10.78 10.78 0 0 0-.72.95c-2.48 3.67-2.57 8.41-.43 13.36-.08 3.05 0 6.06.12 9h-.06c-6.9-8.71-8.23-18.07-3.54-25a16.91 16.91 0 0 1 5.7-5.23c4.93-2.79 11.43-3.46 17.94-1.56 10.88 3.19 22.19 14.53 32.18 24.54 5.28 5.28 10.26 10.28 14.4 13.26 11.57 8.34 23.78 9.94 33.5 4.38a26.56 26.56 0 0 0 13.06-25.52l4.67-.44a31.25 31.25 0 0 1-15.38 30.07z" class="H" transform-origin="181.986px 346.026px"/><path d="M272.76 294.85a3.61 3.61 0 0 0-1.87-2.68h0l-6.09-2.55h0c-1-.44-2.34-.06-3.65 1.25-8.37 8.38-19.3 14.75-33.33 20.43a7 7 0 0 0-4.06 8.06l4.2 15.85a5.64 5.64 0 0 0 3.2 3.8h0l6.15 2.57a5.28 5.28 0 0 0 3.95 0c13.86-5.43 25.66-13 33-19.89 2.42-2.29 3.46-7.06 2.65-10.32z" class="D" transform-origin="250.375px 315.704px"/><g><path d="M223.76 319.36l4.2 15.85a5.64 5.64 0 0 0 3.2 3.8h0l6.15 2.57a5 5 0 0 0 .51.16l-5.14-22.45-8.68-3.86a6.66 6.66 0 0 0-.24 3.93z" class="I" transform-origin="230.695px 328.585px"/></g><path d="M267.23 293.42c-8.37 8.38-19.3 14.75-33.33 20.42a7 7 0 0 0-4.06 8.07l4.2 15.84a5.4 5.4 0 0 0 7.22 3.84c13.86-5.43 25.66-13 33-19.89 2.42-2.29 3.46-7.06 2.65-10.32l-4.12-16.53c-.79-3.26-3.2-3.8-5.56-1.43z" class="D" transform-origin="253.414px 316.958px"/><g class="E"><path d="M267.23 293.42c-8.37 8.38-19.3 14.75-33.33 20.42a7 7 0 0 0-4.06 8.07l4.2 15.84a5.4 5.4 0 0 0 7.22 3.84c13.86-5.43 25.66-13 33-19.89 2.42-2.29 3.46-7.06 2.65-10.32l-4.12-16.53c-.79-3.26-3.2-3.8-5.56-1.43z" class="N" transform-origin="253.414px 316.958px"/></g><path d="M241.32 337.75l-.37-1.49-.35-1.23q-.72-2.83-1.49-5.66l-1.55-5.48-.91-3a15.48 15.48 0 0 0-1.17-3.13c-.27-.46-1.34-.34-1.28.29a33.62 33.62 0 0 0 1.49 5.63l1.51 5.33 1.39 5.21.67 2.61c.15.62.19 1.69.8 2a.9.9 0 0 0 1.16-.14.62.62 0 0 0 .17-.67.43.43 0 0 0 0-.11c-.04-.03-.05-.09-.07-.16zm4.93-2.36l-.37-1.5-.35-1.23q-.72-2.84-1.49-5.65l-1.55-5.49-.91-3a15.18 15.18 0 0 0-1.17-3.12c-.27-.46-1.34-.35-1.28.28a33.59 33.59 0 0 0 1.48 5.63l1.52 5.33 1.39 5.21.67 2.61c.15.62.19 1.7.79 2.05a.94.94 0 0 0 1.17-.14.63.63 0 0 0 .17-.68.43.43 0 0 0 0-.11c-.04-.07-.05-.13-.07-.19zm5.19-2.35v-.19l-.38-1.5-.35-1.23-1.49-5.65-1.54-5.48-.92-3a14.79 14.79 0 0 0-1.16-3.12c-.27-.46-1.35-.34-1.28.29a32.89 32.89 0 0 0 1.48 5.63l1.52 5.33 1.39 5.21.66 2.61c.16.62.2 1.69.8 2a.92.92 0 0 0 1.17-.14.67.67 0 0 0 .17-.68z" class="D" transform-origin="242.869px 325.786px"/><g><g class="I" transform-origin="242.289px 325.555px"><path d="M250.26 332.32l-.37-1.5-.35-1.22q-.72-2.84-1.49-5.66-.77-2.82-1.54-5.48l-.92-3a18.55 18.55 0 0 0-1-2.79.45.45 0 0 0-.31.49 32.89 32.89 0 0 0 1.48 5.63l1.52 5.33 1.39 5.21.66 2.61a7.23 7.23 0 0 0 .42 1.61.83.83 0 0 0 .41-.24.66.66 0 0 0 .18-.68v-.1c-.05-.08-.06-.15-.08-.21z" transform-origin="247.323px 323.11px"/><path d="M240.19 337.23l-.37-1.5-.35-1.23q-.72-2.83-1.49-5.66-.77-2.83-1.55-5.48l-.91-3a17.32 17.32 0 0 0-1-2.8.48.48 0 0 0-.31.49 33.62 33.62 0 0 0 1.49 5.63l1.51 5.33 1.39 5.21.67 2.61a7.23 7.23 0 0 0 .42 1.61.83.83 0 0 0 .41-.24.61.61 0 0 0 .17-.67v-.11c0-.04-.06-.13-.08-.19z" transform-origin="237.258px 328px"/><path d="M245.12 334.86l-.37-1.5-.35-1.23q-.72-2.83-1.49-5.65l-1.55-5.49-.92-3a16.69 16.69 0 0 0-1-2.8.49.49 0 0 0-.31.49 33.59 33.59 0 0 0 1.48 5.63l1.52 5.33 1.39 5.21.67 2.61a7.31 7.31 0 0 0 .42 1.62 1 1 0 0 0 .41-.24.65.65 0 0 0 .17-.68.44.44 0 0 1 0-.1 1.8 1.8 0 0 1-.07-.2z" transform-origin="242.176px 325.635px"/></g></g><path d="M258.32,307.71a2.28,2.28,0,0,1,1.37,1.82,7.11,7.11,0,0,1-1.86,6.15,2.2,2.2,0,0,1-2.14.73l-2.24-.7a2.24,2.24,0,0,1-1.37-1.82,7.14,7.14,0,0,1,1.85-6.15,2.21,2.21,0,0,1,2.14-.73Z" class="M" transform-origin="255.885px 311.71px"/><path d="M257.83 315.68a2.2 2.2 0 0 1-2.14.73 2.28 2.28 0 0 1-1.37-1.82 7.14 7.14 0 0 1 1.85-6.15 2.23 2.23 0 0 1 2.15-.73 2.28 2.28 0 0 1 1.37 1.82 7.11 7.11 0 0 1-1.86 6.15z" class="H" transform-origin="257.005px 312.061px"/><path d="M269.85,300.05a2.26,2.26,0,0,1,1.37,1.82,7.14,7.14,0,0,1-1.85,6.15,2.23,2.23,0,0,1-2.15.73l-2.24-.7a2.26,2.26,0,0,1-1.37-1.83,7.15,7.15,0,0,1,1.85-6.15,2.24,2.24,0,0,1,2.15-.72Z" class="G" transform-origin="267.415px 304.05px"/><path d="M269.37 308a2.23 2.23 0 0 1-2.15.73 2.3 2.3 0 0 1-1.37-1.83 7.13 7.13 0 0 1 1.86-6.15 2.22 2.22 0 0 1 2.14-.72 2.26 2.26 0 0 1 1.37 1.82 7.14 7.14 0 0 1-1.85 6.15z" class="J" transform-origin="268.535px 304.38px"/><path d="M261.19,320.28a2.25,2.25,0,0,1,1.38,1.82,7.13,7.13,0,0,1-1.86,6.15,2.19,2.19,0,0,1-2.14.72l-2.24-.7a2.27,2.27,0,0,1-1.38-1.82,7.16,7.16,0,0,1,1.86-6.15,2.2,2.2,0,0,1,2.14-.72Z" class="M" transform-origin="258.761px 324.276px"/><path d="M260.71 328.25a2.19 2.19 0 0 1-2.14.72 2.24 2.24 0 0 1-1.37-1.82 7.15 7.15 0 0 1 1.85-6.15 2.2 2.2 0 0 1 2.14-.72 2.25 2.25 0 0 1 1.38 1.82 7.13 7.13 0 0 1-1.86 6.15z" class="H" transform-origin="259.885px 324.626px"/><path d="M272.73,312.61a2.28,2.28,0,0,1,1.37,1.83,7.1,7.1,0,0,1-1.86,6.14,2.2,2.2,0,0,1-2.14.73l-2.24-.7a2.27,2.27,0,0,1-1.38-1.82,7.18,7.18,0,0,1,1.86-6.15,2.21,2.21,0,0,1,2.14-.73Z" class="M" transform-origin="270.292px 316.61px"/><path d="M272.24 320.59a2.22 2.22 0 0 1-2.14.72 2.26 2.26 0 0 1-1.37-1.82 7.14 7.14 0 0 1 1.85-6.15 2.23 2.23 0 0 1 2.15-.73 2.28 2.28 0 0 1 1.37 1.83 7.13 7.13 0 0 1-1.86 6.15z" class="H" transform-origin="271.415px 316.96px"/><g transform-origin="194.534px 313.065px"><path d="M172.22 300.22c-.56-11.15-17.42-28.52-32.78-20.3s-12.88 35.28 0 39.95 32.78-19.65 32.78-19.65z" class="D" transform-origin="150.525px 299.124px"/><g class="E"><path d="M172.22 300.22c-.56-11.15-17.42-28.52-32.78-20.3s-12.88 35.28 0 39.95 32.78-19.65 32.78-19.65z" class="I" transform-origin="150.525px 299.124px"/></g><path d="M145.36 283.25c-15.55 5.19-12.46 29.46-2.93 41s25 18.51 38 18.51c18.6 0 25.37-8.74 36.57-13.49 9.68-4.11 13.86-1.21 17.9 5.78 1.64 2.84 3.69 10 11.31 12.77s15.15-5.76 13.89-16.27-15.12-26.14-31-28.5-31.32 5.83-40.94 5.39c-7.1-.32-11.49-2.67-16.7-9.18-8.74-10.89-21.46-17.57-26.1-16.01z" class="J" transform-origin="197.364px 315.686px"/><path d="M181 342.78l-.16-1.35a37.78 37.78 0 0 1-.07-5 37.4 37.4 0 0 1 1.8-9.55 37 37 0 0 1 9.53-15 44.57 44.57 0 0 1 6.39-4.9l-3.48.77a38.48 38.48 0 0 0-3.2 2.59 37.59 37.59 0 0 0-12.44 25.1 39.6 39.6 0 0 0 .07 7.3h1z" class="G" transform-origin="188.862px 324.88px"/><path d="M216.16 303.13a24.6 24.6 0 0 0-5.47 7.92 35.81 35.81 0 0 0-2.9 18.13 34.41 34.41 0 0 0 .79 4.59l1.38-.83-.52-2.92a34.86 34.86 0 0 1 0-8.78c.68-5.55 2.66-11.25 6.32-15.56a15.36 15.36 0 0 1 3.18-2.85c-.94.08-1.87.17-2.78.3z" class="G" transform-origin="213.274px 318.3px"/><path d="M154.9 335l.94-3a41.94 41.94 0 0 1 17.62-21.66 46.56 46.56 0 0 1 7.09-3.48 17 17 0 0 1-1.61-.78 37.05 37.05 0 0 0-3.68 1.68 43.86 43.86 0 0 0-8.48 5.73A43 43 0 0 0 155 330.2c-.52 1.31-1 2.65-1.34 4 .34.28.81.56 1.24.8z" class="G" transform-origin="167.105px 320.54px"/><path d="M169.39 299.44a27 27 0 0 1 2.78.71l-.71-.86-.64-.76a29.26 29.26 0 0 0-17.57 1 28.1 28.1 0 0 0-15.75 15.72c-.05.1-.08.2-.12.3q.39.94.81 1.86l.06-.19a28 28 0 0 1 5.41-9.4 26.69 26.69 0 0 1 19.62-8.94 28.47 28.47 0 0 1 6.11.56z" class="G" transform-origin="154.775px 307.52px"/><path d="M241.61,307.71c-6.09-2.95-18.05,11.36-13.14,20.49a10.7,10.7,0,0,1,2.65,1.8c-3.39,2.93-8.38-.54-9.05-4.83S224,310,231.61,305.69s12,0,12.78,3.83Z" class="D" transform-origin="233.179px 317.489px"/><g class="E"><path d="M241.61,307.71c-6.09-2.95-18.05,11.36-13.14,20.49a10.7,10.7,0,0,1,2.65,1.8c-3.39,2.93-8.38-.54-9.05-4.83S224,310,231.61,305.69s12,0,12.78,3.83Z" class="I" transform-origin="233.179px 317.489px"/></g></g><g transform-origin="193.42px 386.488px"><path d="M156.75 409.24c-8.13-6.51-13.71-16.21-13.3-26.81.44-11.23 7.06-23.62 17.28-28.7 9.37-4.65 21.09-3.8 30 1.64a36.48 36.48 0 0 1 16.52 25.5 39.51 39.51 0 0 1 17.2-14.06 19.69 19.69 0 0 1 9.61-1.83c3.28.35 6.54 2.14 8 5.11s.81 6.88-.79 9.93-4 5.61-6 8.38a45.63 45.63 0 0 0-7.92 17.2c-.83 3.63-1.22 7.65-3.86 10.5-4.53 4.88-13.67 5.69-19.9 6.07a70.26 70.26 0 0 1-22.85-2.57c-8.24-2.27-17.28-4.99-23.99-10.36z" class="J" transform-origin="193.152px 386.488px"/><path d="M239.57 372.15a6.25 6.25 0 0 0-2.14-.45 10.19 10.19 0 0 0-3.85.75c-6.38 2.32-11.5 7.36-14.73 13.25s-4.74 12.57-5.33 19.24c-.3 3.37-.43 8.36 2.65 10.69 2 1.53 5.15.59 6.82-1.32s2.28-4.46 2.92-6.89c2.11-8 5.25-15.85 10.62-22.17a29.76 29.76 0 0 0 5.09-7.27c1.09-2.57.22-4.88-2.05-5.83z" class="G" transform-origin="227.731px 394.047px"/><g><path d="M239.57 372.15a6.25 6.25 0 0 0-2.14-.45 10.19 10.19 0 0 0-3.85.75c-6.38 2.32-11.5 7.36-14.73 13.25s-4.74 12.57-5.33 19.24c-.3 3.37-.43 8.36 2.65 10.69 2 1.53 5.15.59 6.82-1.32s2.28-4.46 2.92-6.89c2.11-8 5.25-15.85 10.62-22.17a29.76 29.76 0 0 0 5.09-7.27c1.09-2.57.22-4.88-2.05-5.83z" class="I" transform-origin="227.731px 394.047px"/></g><path d="M241 373.79a6.25 6.25 0 0 0-2.09-.44 9.89 9.89 0 0 0-3.74.74c-6.19 2.29-11.16 7.27-14.31 13.07s-4.6 12.4-5.18 19c-.29 3.33-.41 8.26 2.58 10.55 2 1.51 5 .58 6.62-1.3s2.21-4.4 2.84-6.8c2-7.86 5.1-15.64 10.32-21.87a29.56 29.56 0 0 0 4.94-7.17c1.02-2.57.18-4.84-1.98-5.78z" class="G" transform-origin="229.476px 395.406px"/><path d="M221.92 407.48q2.84.66 5.64 1.44h0l.09-.34c0-.17.1-.34.14-.51q-2.81-.76-5.66-1.41-3.19-.74-6.44-1.31c0 .26-.05.51-.08.77l6.31 1.36z" class="F" transform-origin="221.7px 407.135px"/><path d="M224.1 396.4a57.15 57.15 0 0 0-6.5-1.19l-.2.7 6.68 1.31 4.55 1.31 2.09.72.34-.8-2.19-.74-4.77-1.31z" class="F" transform-origin="224.23px 397.23px"/><path d="M221.32 412.15q2.38.63 4.75 1.34l.35-.78-4.72-1.3-6.18-1.44v.74l5.8 1.44z" class="F" transform-origin="220.97px 411.73px"/><path d="M222.79 402.2l5.27 1.61.92.33.26-.83-.52-.18-5.35-1.63-6.89-1.53c0 .24-.09.49-.13.73l6.44 1.5z" class="F" transform-origin="222.795px 402.055px"/><path d="M232 392.82l-5.07-1.63q-3.58-1.05-7.23-1.85l-.35.82 7.27 1.87q2.51.74 5 1.6l1.44.52.45-.79z" class="F" transform-origin="226.43px 391.745px"/><path d="M234.77 387.61l-5.74-1.82q-3.15-.92-6.34-1.67l-.43.65 6.21 1.76 7.74 2.51.56-.73z" class="F" transform-origin="229.515px 386.58px"/><path d="M239 378.36c-2.41-1-4.87-1.83-7.35-2.6l-.78.46 7.54 2.77 4 1.72.37-.76-3.78-1.59z" class="F" transform-origin="236.825px 378.235px"/><path d="M232.35 382.41l5.54 1.86 1.63.61.58-.73-1.79-.66q-2.77-1-5.6-1.84l-6.48-1.76-.61.63 6.73 1.89z" class="F" transform-origin="232.86px 382.385px"/><path d="M206.32 376.47c-10.89 12.16-7.35 27.67-7.35 27.67s.52-10.82 8.3-23.27a36.66 36.66 0 0 0-.95-4.4z" class="G" transform-origin="202.845px 390.305px"/></g><path d="M113.58,208.13a3.82,3.82,0,0,0-2.51,2.91,12,12,0,0,0,2.53,10.51,3.81,3.81,0,0,0,3.56,1.45l3.87-.93a3.82,3.82,0,0,0,2.51-2.91A12,12,0,0,0,121,208.65a3.81,3.81,0,0,0-3.56-1.45Z" class="D" transform-origin="117.304px 215.1px"/><path d="M113.6 221.55a3.29 3.29 0 0 0 6.07-1.46 12 12 0 0 0-2.53-10.51 3.29 3.29 0 0 0-6.07 1.46 12 12 0 0 0 2.53 10.51z" class="D" transform-origin="115.37px 215.565px"/><g class="E"><path d="M113.6 221.55a3.29 3.29 0 0 0 6.07-1.46 12 12 0 0 0-2.53-10.51 3.29 3.29 0 0 0-6.07 1.46 12 12 0 0 0 2.53 10.51z" class="K" transform-origin="115.37px 215.565px"/></g><path d="M115.27 218.77c-11.38 4.55-21.22 18.69-22.67 44-1.24 21.69 11.85 40.68 19.9 44.8 4.71 2.29 4 9.52.9 7.77s-29.46-17.21-27.28-54.51 22-46.05 28-49c2.56-.51 3.78 6.17 1.15 6.94z" class="H" transform-origin="101.366px 263.706px"/></g><g transform-origin="266.917px 341.63px"><g class="D" transform-origin="266.092px 341.63px"><g><path d="M266.1,395.88h-.53a54.26,54.26,0,0,1,.52-108.51h.53a54.26,54.26,0,0,1-.52,108.51Zm0-107.25a53,53,0,0,0-.51,106h.52a53,53,0,0,0,.51-106Z" opacity=".5" transform-origin="266.095px 341.625px"/></g><g><path d="M266.1,399.81h-.57a58.19,58.19,0,0,1,.56-116.37h.57a58.19,58.19,0,0,1-.56,116.37Zm0-115.11a56.93,56.93,0,0,0-.55,113.85h.56a56.93,56.93,0,0,0,.55-113.85Z" class="K" transform-origin="266.095px 341.625px"/></g><g><path d="M266.1,404.66h-.62a63.35,63.35,0,1,1,.62,0Zm0-124.81a61.08,61.08,0,1,0,.62,0Z" class="I" transform-origin="265.79px 341.31px"/></g><g><path d="M266.1,410.7h-.68a69.07,69.07,0,0,1,.66-138.14h.69a69.07,69.07,0,0,1-.67,138.14Zm0-136.88a67.81,67.81,0,0,0-.65,135.61h.67a67.81,67.81,0,0,0,.66-135.61Z" opacity=".1" transform-origin="266.092px 341.63px"/></g></g><g transform-origin="266.09px 341.62px"><g class="D"><circle cx="266.09" cy="341.62" r="49.82" transform-origin="266.09px 341.62px" transform="rotate(270.38)"/></g><g class="E"><circle cx="266.09" cy="341.62" r="49.82" opacity=".65" transform-origin="266.09px 341.62px" transform="rotate(270.38)"/></g><g class="D"><g class="I" transform-origin="266.13px 341.16px"><path d="M224.67,339.08c4.13.27,8.28.33,12.42.27s8.26-.28,12.37-.65,8.67-1.39,12.86-.43c3.65.83,7,2.19,10.77,2.51a37.12,37.12,0,0,0,11.07-.82c7.57-1.67,14.41-5.45,20.74-9.82,2.7-1.86,5.31-3.84,7.9-5.85-.48-1.3-1-2.57-1.59-3.81-2.65,2.06-5.31,4.11-8.06,6-5.75,4.08-12,7.71-18.86,9.51a33.45,33.45,0,0,1-10.82,1.13c-3.84-.27-7.26-1.88-11-2.62s-7.71-.07-11.55.34-7.71.71-11.58.86c-4.47.18-8.95.15-13.43,0-2.77-.08-5.54-.26-8.3-.45l-.93-.07c-.13,1-.24,2.07-.3,3.12C219.14,338.78,222,338.9,224.67,339.08Z" transform-origin="264.59px 330.684px"/><path d="M232.74 328.48a66.19 66.19 0 0 0 19.06-2c5.94-1.48 12.15-4.55 18.33-2.12 4.37 1.72 10.27 2.62 14.84 1.31a52.6 52.6 0 0 0 17.74-8.67c1.46-1.14 3.1-2.18 4.63-3.31-.76-1.13-1.57-2.23-2.42-3.29-.37.28-.72.56-1.08.81l-3.84 2.63c-2.8 1.89-5.4 4-8.57 5.22a40.19 40.19 0 0 1-10.54 2.82c-2 .2-7.95.33-8.69-2.38-.2-.72.53-1.33 1.16-1.73 5.34-3.31 10.9-6.32 15.61-10.51a15.62 15.62 0 0 0 3.18-3.47 12.45 12.45 0 0 0 1.18-3 4.64 4.64 0 0 0 .16-.81 51.74 51.74 0 0 0-2.36-1.47l-.14.28c-1.47 3.32-5.46 6.39-8.23 8.66a68.45 68.45 0 0 1-12.83 7.73c-10.63 5.35-21.94 9.13-34 9.4a59.48 59.48 0 0 1-15.89-2.07c-.47 1.13-.9 2.27-1.29 3.44a49.15 49.15 0 0 0 13.99 2.53z" transform-origin="263.045px 313.522px"/><path d="M251.34 315.65c9.61-1.66 19.61-4.71 27.8-10.13a27.89 27.89 0 0 0 5.6-4.79 15.71 15.71 0 0 0 2.74-4.1l-2.15-1c-.06.11-.11.22-.18.33a21 21 0 0 1-1.83 2.47 26.4 26.4 0 0 1-5 4.4 53 53 0 0 1-12.46 6 87.24 87.24 0 0 1-41 4.72c-.53.77-1 1.57-1.52 2.38a90.48 90.48 0 0 0 28-.28z" transform-origin="255.41px 306.257px"/><path d="M234 306.79a41.28 41.28 0 0 0 9.21 1 65.5 65.5 0 0 0 17.4-2.81c5.65-1.6 11.6-3.3 16.77-6.15a21 21 0 0 0 5.38-4.13c-1.37-.48-2.77-.91-4.19-1.28a24.32 24.32 0 0 1-5.32 3.29 95.24 95.24 0 0 1-15.47 5.29 57.64 57.64 0 0 1-15.86 2.28 37.57 37.57 0 0 1-7.7-.89c-1 .86-2 1.75-3 2.69.91.24 1.78.5 2.78.71z" transform-origin="256.99px 300.605px"/><path d="M308.28 362.87a63.43 63.43 0 0 1-15.45 11.38c-5.57 2.91-12.47 5.81-18.86 4.16-3.26-.84-5.41-3.6-8.68-4.45-3.52-.92-7.28 0-10.81.43a127.22 127.22 0 0 1-13.51.95 75.11 75.11 0 0 1-12.25-.79q1.64 1.86 3.43 3.54a72.91 72.91 0 0 0 12.35.67c4.1-.12 8.18-.48 12.25-1a44.15 44.15 0 0 1 5.62-.53c1.36 0 7 1.87 5.79 3.64-.72 1.06-3.34 1.2-4.47 1.49l-5.06 1.35c-3.78 1-7.57 2.07-11.42 2.8-.65.12-1.31.22-2 .32a47.22 47.22 0 0 0 5.22 2.07c3.07-.6 6.1-1.38 9.13-2.19 4.85-1.31 9.94-2.37 14.94-3.31s10.14-1.5 14.92-3.36a63.87 63.87 0 0 0 18.35-11.22h0a49.2 49.2 0 0 0 5.72-11.94 61.71 61.71 0 0 1-5.21 5.99z" transform-origin="271.105px 372.89px"/><path d="M250.28 345a66.62 66.62 0 0 1-13 2.71 106 106 0 0 1-12.6.57c-2.42 0-4.84-.12-7.25-.23h-.76l.5 3.2q3.41.39 6.82.55a86.62 86.62 0 0 0 13.76-.37 65.42 65.42 0 0 0 13.27-2.79c4.1-1.35 8-3.46 12.4-3.71.48 0 .45-.94.07-1.1-4.37-1.91-8.92-.19-13.21 1.17z" transform-origin="240.224px 347.45px"/><path d="M264 364.32a212.8 212.8 0 0 0 23.71-7 72 72 0 0 0 20.87-11c2.55-2 4.95-4.23 7.3-6.48l-.42-4.94c-2.56 2.42-5.16 4.8-7.88 7a68.08 68.08 0 0 1-19.41 11.18 212 212 0 0 1-21.91 6.82 95.16 95.16 0 0 1-22.86 3.34 63.84 63.84 0 0 1-12.11-1 72.1 72.1 0 0 1-11.95-3.47c.44 1.21.93 2.4 1.47 3.56 5.8 2.88 12.48 4.05 18.87 4.44a86.28 86.28 0 0 0 24.32-2.45z" transform-origin="267.61px 350.873px"/><path d="M278 349a84 84 0 0 1-13.64 3.59c-.15 0-.23.39-.05.37a72.07 72.07 0 0 0 13.73-1.75 70.27 70.27 0 0 0 12.67-4.52 81.86 81.86 0 0 0 21.4-14.69l2.36-2.37-.89-3.1A83.75 83.75 0 0 1 278 349z" transform-origin="289.338px 339.745px"/><path d="M312.81 348.67c-3.35 3-7 5.71-10.59 8.38a54.56 54.56 0 0 1-12.87 7.24c-2.23.86-4.49 1.6-6.76 2.32-1.36.43-2.74.74-4.08 1.18a38 38 0 0 0-3.73 1.06c-.42.19-.33 1.24.15 1.3a22.07 22.07 0 0 0 3.63-.17 30 30 0 0 0 3.65-.31 48.83 48.83 0 0 0 8.11-1.84 51.47 51.47 0 0 0 14.1-7.57c3.54-2.57 7.1-5.2 10.38-8.11a51.32 51.32 0 0 0 .93-6.38 44.38 44.38 0 0 1-2.92 2.9z" transform-origin="295.121px 357.967px"/></g></g><g class="D"><path d="M274.06,292.44c18.37,3.86,34.95,37.24,23.29,63.75-12.4,28.18-50.72,33.14-67.94,19.12h0a49.82,49.82,0,1,0,44.67-82.87Z" class="N" transform-origin="272.67px 341.939px"/></g><g class="D"><path d="M265.61 391.44a49.82 49.82 0 0 0 27.09-91.94c1.75 1.14 23.77 15.45 17.06 50.22-7 36.19-44.14 41.72-51.95 41a50 50 0 0 0 7.8.72z" class="I" transform-origin="286.863px 345.471px"/></g><g class="E"><path d="M261.11 310.07a7.79 7.79 0 1 0-7.87 7.71 7.79 7.79 0 0 0 7.87-7.71zm-23.06 6.81a13.4 13.4 0 1 0 13.26 13.53 13.4 13.4 0 0 0-13.26-13.53zm24.62 5.49a6.14 6.14 0 1 0 6.07 6.2 6.14 6.14 0 0 0-6.07-6.2z" class="K" transform-origin="246.625px 322.94px"/></g></g><g class="D" transform-origin="268.151px 344.552px"><path d="M336 303.28c-2.38-4.72-9.23-7.76-15.42-8a84.08 84.08 0 0 0-29.14 3.53c.46.27.91.55 1.35.83 1.68-.41 3.34-.8 5-1.1 29.12-5.5 38.6 9.47 21.16 33.44-1 1.42-2.13 2.85-3.31 4.26-17.37 21-49.15 41.17-75.61 47.87q-2.7.72-5.31 1.2c-29.1 5.49-38.58-9.48-21.16-33.45 1-1.36 2-2.7 3.15-4-.06-.4-.1-.82-.15-1.24A73.19 73.19 0 0 0 201 371.28c-2.57 6.61-2.2 12.17-.51 15.57 1.45 2.88 4.17 4.64 7.26 5.69a32.2 32.2 0 0 0 9.66 1.41 65.73 65.73 0 0 0 12.81-1.28 121.26 121.26 0 0 0 21.6-6.41 198 198 0 0 0 60.65-38.4 121.21 121.21 0 0 0 15.05-16.78c8.48-11.59 11.53-21.71 8.48-27.8z" transform-origin="268.151px 344.552px"/></g><g><g opacity=".1" transform-origin="268.151px 344.552px"><path d="M336 303.28c-2.38-4.72-9.23-7.76-15.42-8a84.08 84.08 0 0 0-29.14 3.53c.46.27.91.55 1.35.83 1.68-.41 3.34-.8 5-1.1 29.12-5.5 38.6 9.47 21.16 33.44-1 1.42-2.13 2.85-3.31 4.26-17.37 21-49.15 41.17-75.61 47.87q-2.7.72-5.31 1.2c-29.1 5.49-38.58-9.48-21.16-33.45 1-1.36 2-2.7 3.15-4-.06-.4-.1-.82-.15-1.24A73.19 73.19 0 0 0 201 371.28c-2.57 6.61-2.2 12.17-.51 15.57 1.45 2.88 4.17 4.64 7.26 5.69a32.2 32.2 0 0 0 9.66 1.41 65.73 65.73 0 0 0 12.81-1.28 121.26 121.26 0 0 0 21.6-6.41 198 198 0 0 0 60.65-38.4 121.21 121.21 0 0 0 15.05-16.78c8.48-11.59 11.53-21.71 8.48-27.8z" transform-origin="268.151px 344.552px"/></g></g></g><g transform-origin="194.534px 313.065px"><path d="M172.22 300.22c-.56-11.15-17.42-28.52-32.78-20.3s-12.88 35.28 0 39.95 32.78-19.65 32.78-19.65z" class="D" transform-origin="150.525px 299.124px"/><g class="E"><path d="M172.22 300.22c-.56-11.15-17.42-28.52-32.78-20.3s-12.88 35.28 0 39.95 32.78-19.65 32.78-19.65z" class="I" transform-origin="150.525px 299.124px"/></g><path d="M145.36 283.25c-15.55 5.19-12.46 29.46-2.93 41s25 18.51 38 18.51c18.6 0 25.37-8.74 36.57-13.49 9.68-4.11 13.86-1.21 17.9 5.78 1.64 2.84 3.69 10 11.31 12.77s15.15-5.76 13.89-16.27-15.12-26.14-31-28.5-31.32 5.83-40.94 5.39c-7.1-.32-11.49-2.67-16.7-9.18-8.74-10.89-21.46-17.57-26.1-16.01z" class="J" transform-origin="197.364px 315.686px"/><path d="M181 342.78l-.16-1.35a37.78 37.78 0 0 1-.07-5 37.4 37.4 0 0 1 1.8-9.55 37 37 0 0 1 9.53-15 44.57 44.57 0 0 1 6.39-4.9l-3.48.77a38.48 38.48 0 0 0-3.2 2.59 37.59 37.59 0 0 0-12.44 25.1 39.6 39.6 0 0 0 .07 7.3h1z" class="G" transform-origin="188.862px 324.88px"/><path d="M216.16 303.13a24.6 24.6 0 0 0-5.47 7.92 35.81 35.81 0 0 0-2.9 18.13 34.41 34.41 0 0 0 .79 4.59l1.38-.83-.52-2.92a34.86 34.86 0 0 1 0-8.78c.68-5.55 2.66-11.25 6.32-15.56a15.36 15.36 0 0 1 3.18-2.85c-.94.08-1.87.17-2.78.3z" class="G" transform-origin="213.274px 318.3px"/><path d="M154.9 335l.94-3a41.94 41.94 0 0 1 17.62-21.66 46.56 46.56 0 0 1 7.09-3.48 17 17 0 0 1-1.61-.78 37.05 37.05 0 0 0-3.68 1.68 43.86 43.86 0 0 0-8.48 5.73A43 43 0 0 0 155 330.2c-.52 1.31-1 2.65-1.34 4 .34.28.81.56 1.24.8z" class="G" transform-origin="167.105px 320.54px"/><path d="M169.39 299.44a27 27 0 0 1 2.78.71l-.71-.86-.64-.76a29.26 29.26 0 0 0-17.57 1 28.1 28.1 0 0 0-15.75 15.72c-.05.1-.08.2-.12.3q.39.94.81 1.86l.06-.19a28 28 0 0 1 5.41-9.4 26.69 26.69 0 0 1 19.62-8.94 28.47 28.47 0 0 1 6.11.56z" class="G" transform-origin="154.775px 307.52px"/><path d="M241.61,307.71c-6.09-2.95-18.05,11.36-13.14,20.49a10.7,10.7,0,0,1,2.65,1.8c-3.39,2.93-8.38-.54-9.05-4.83S224,310,231.61,305.69s12,0,12.78,3.83Z" class="D" transform-origin="233.179px 317.489px"/><g class="E"><path d="M241.61,307.71c-6.09-2.95-18.05,11.36-13.14,20.49a10.7,10.7,0,0,1,2.65,1.8c-3.39,2.93-8.38-.54-9.05-4.83S224,310,231.61,305.69s12,0,12.78,3.83Z" class="I" transform-origin="233.179px 317.489px"/></g></g><g transform-origin="193.42px 386.488px"><path d="M156.75 409.24c-8.13-6.51-13.71-16.21-13.3-26.81.44-11.23 7.06-23.62 17.28-28.7 9.37-4.65 21.09-3.8 30 1.64a36.48 36.48 0 0 1 16.52 25.5 39.51 39.51 0 0 1 17.2-14.06 19.69 19.69 0 0 1 9.61-1.83c3.28.35 6.54 2.14 8 5.11s.81 6.88-.79 9.93-4 5.61-6 8.38a45.63 45.63 0 0 0-7.92 17.2c-.83 3.63-1.22 7.65-3.86 10.5-4.53 4.88-13.67 5.69-19.9 6.07a70.26 70.26 0 0 1-22.85-2.57c-8.24-2.27-17.28-4.99-23.99-10.36z" class="J" transform-origin="193.152px 386.488px"/><path d="M239.57 372.15a6.25 6.25 0 0 0-2.14-.45 10.19 10.19 0 0 0-3.85.75c-6.38 2.32-11.5 7.36-14.73 13.25s-4.74 12.57-5.33 19.24c-.3 3.37-.43 8.36 2.65 10.69 2 1.53 5.15.59 6.82-1.32s2.28-4.46 2.92-6.89c2.11-8 5.25-15.85 10.62-22.17a29.76 29.76 0 0 0 5.09-7.27c1.09-2.57.22-4.88-2.05-5.83z" class="G" transform-origin="227.731px 394.047px"/><g><path d="M239.57 372.15a6.25 6.25 0 0 0-2.14-.45 10.19 10.19 0 0 0-3.85.75c-6.38 2.32-11.5 7.36-14.73 13.25s-4.74 12.57-5.33 19.24c-.3 3.37-.43 8.36 2.65 10.69 2 1.53 5.15.59 6.82-1.32s2.28-4.46 2.92-6.89c2.11-8 5.25-15.85 10.62-22.17a29.76 29.76 0 0 0 5.09-7.27c1.09-2.57.22-4.88-2.05-5.83z" class="I" transform-origin="227.731px 394.047px"/></g><path d="M241 373.79a6.25 6.25 0 0 0-2.09-.44 9.89 9.89 0 0 0-3.74.74c-6.19 2.29-11.16 7.27-14.31 13.07s-4.6 12.4-5.18 19c-.29 3.33-.41 8.26 2.58 10.55 2 1.51 5 .58 6.62-1.3s2.21-4.4 2.84-6.8c2-7.86 5.1-15.64 10.32-21.87a29.56 29.56 0 0 0 4.94-7.17c1.02-2.57.18-4.84-1.98-5.78z" class="G" transform-origin="229.476px 395.406px"/><path d="M221.92 407.48q2.84.66 5.64 1.44h0l.09-.34c0-.17.1-.34.14-.51q-2.81-.76-5.66-1.41-3.19-.74-6.44-1.31c0 .26-.05.51-.08.77l6.31 1.36z" class="F" transform-origin="221.7px 407.135px"/><path d="M224.1 396.4a57.15 57.15 0 0 0-6.5-1.19l-.2.7 6.68 1.31 4.55 1.31 2.09.72.34-.8-2.19-.74-4.77-1.31z" class="F" transform-origin="224.23px 397.23px"/><path d="M221.32 412.15q2.38.63 4.75 1.34l.35-.78-4.72-1.3-6.18-1.44v.74l5.8 1.44z" class="F" transform-origin="220.97px 411.73px"/><path d="M222.79 402.2l5.27 1.61.92.33.26-.83-.52-.18-5.35-1.63-6.89-1.53c0 .24-.09.49-.13.73l6.44 1.5z" class="F" transform-origin="222.795px 402.055px"/><path d="M232 392.82l-5.07-1.63q-3.58-1.05-7.23-1.85l-.35.82 7.27 1.87q2.51.74 5 1.6l1.44.52.45-.79z" class="F" transform-origin="226.43px 391.745px"/><path d="M234.77 387.61l-5.74-1.82q-3.15-.92-6.34-1.67l-.43.65 6.21 1.76 7.74 2.51.56-.73z" class="F" transform-origin="229.515px 386.58px"/><path d="M239 378.36c-2.41-1-4.87-1.83-7.35-2.6l-.78.46 7.54 2.77 4 1.72.37-.76-3.78-1.59z" class="F" transform-origin="236.825px 378.235px"/><path d="M232.35 382.41l5.54 1.86 1.63.61.58-.73-1.79-.66q-2.77-1-5.6-1.84l-6.48-1.76-.61.63 6.73 1.89z" class="F" transform-origin="232.86px 382.385px"/><path d="M206.32 376.47c-10.89 12.16-7.35 27.67-7.35 27.67s.52-10.82 8.3-23.27a36.66 36.66 0 0 0-.95-4.4z" class="G" transform-origin="202.845px 390.305px"/></g><path d="M310.93 314.43c-4.2 9.7-15 13.27-20.2 7s-3.33-13.45-3.31-16.72a22.17 22.17 0 0 0-.67-6.17 2.24 2.24 0 0 0-.16-.5.9.9 0 0 0-.08-.23 8.93 8.93 0 0 0-1.13-2.22c.43-10.32 17.92-16.61 21.68-11l1.49 2.94h0c4.35 9.67 5.12 20.57 2.38 26.9z" class="J" transform-origin="298.955px 303.524px"/></g></g></svg>