<svg xmlns="http://www.w3.org/2000/svg" viewBox="51 62 358 388"><path fill="#b57ded" d="m387 304 5 3-2 4 3 3-2 3-4 5-1 4-4 4-5 1h-8c-6 2-11 0-11 0l-2-5-5-2-4-1-5-3-2-4-2-4-6-2h-8l-6 1-5 1-4-3h-4l-5 2-5 2-5-2-1-3-6-1-6 3-3 3-5 2h-4l-9-1-6-3-5-4-5-2-4-1-3-7-2-8c0-4-2-6 0-10s2-10 4-11l5-5c0-1 3-5 0-8-2-2-2-8-2-8v-5l6-4 5-3 1-5 3-4 5-5c1-1-1-3 5-2h33l6-2 10-2 4-3 7-3h6l5 3 3 10 6 2h4l7 2c0 2 4 6 4 6l3 2h5l10 1 3 4 2 4v3l6 1 6 1h7l4 3 1 6 4 5v3l-3 8s-6 6-8 6l-7 1-5 2-1 11 6 3-1 3-3 3v2Z"/><path d="M386 266c-6 1 0 3 0 7l-1 4-7 5-6 4v13c0 3-2 4-2 4l-11 4c-2 1-12-4-12-4l-6-4-6-6h-18l-8 3-8-2-9 5-12 4-9-4-4 4h-9l-7-4-6-5-10-10-4 4v1l2 8 3 7 4 1 5 2 5 4 6 3 9 1h4l5-2 3-3 6-3 6 1 1 3 5 2 5-2 5-2h4l4 3 5-1 6-1h8l6 2 2 4 2 4 5 3 4 1 5 2 2 5s5 2 11 0h8l5-1 4-4 1-4 4-5 2-3-3-3 2-4-5-3v-2l3-3 1-3-6-3 1-11 5-2 7-1c2 0 8-6 8-6l3-8v-3l-8 4h-15Z" opacity=".3"/><path d="m242 306 2-20 16-25 12-12 19-34-11-3-20 37-18 15-8 23 4 17 4 2z" opacity=".2"/><path fill="#b57ded" d="m371 303 2-2v-2h-1l-1-1-1 2c-1 2 1 3 1 3Z"/><path fill="#fff" d="m371 303 2-2v-2h-1l-1-1-1 2c-1 2 1 3 1 3Z" opacity=".4"/><path fill="#b57ded" d="m372 303 1-2c1-1 3 1 3 1v2l-1 1-3-1v-1Z"/><path fill="#fff" d="m372 303 1-2c1-1 3 1 3 1v2l-1 1-3-1v-1Z" opacity=".4"/><path fill="#b57ded" d="M371 303s-3 0-3 2v2c1 0 0 0 0 0l1 1 2-1v-4Z"/><path fill="#fff" d="M371 303s-3 0-3 2v2c1 0 0 0 0 0l1 1 2-1v-4Z" opacity=".4"/><path fill="#b57ded" d="M372 303a1 1 0 1 1-2 0 1 1 0 0 1 2 0Z"/><path fill="#fff" d="M372 303a1 1 0 1 1-2 0 1 1 0 0 1 2 0Z" opacity=".4"/><path fill="#b57ded" d="M372 304s2 0 3 2l-1 2h-1l-2-1v-3h1Zm-1-1-2-2c-1-1-2 0-3 1h1l-1 1 1 1c1 1 4-1 4-1Z"/><path fill="#fff" d="m371 303-2-2c-1-1-2 0-3 1h1l-1 1 1 1c1 1 4-1 4-1Zm1 1s2 0 3 2l-1 2h-1l-2-1v-3h1Z" opacity=".4"/><path d="M372 304h1l-1-1h1-1l-1-1v1h-1 1-1v1h1-1v1l1-1v1h1v-1 1h1v-1h-1Z" opacity=".2"/><path fill="#fff" d="M371 303Zm1-1Zm-1 0h-1 1Zm-1 1Zm2-1Zm-1 3Zm1 0Zm1-2Zm-2 1Z"/><path fill="#b57ded" d="m252 289 2-2v-3l-1 1-1-1-1 2c-1 2 1 3 1 3Z"/><path fill="#fff" d="m252 289 2-2v-3l-1 1-1-1-1 2c-1 2 1 3 1 3Z" opacity=".4"/><path fill="#b57ded" d="m253 289 1-2 3 1v1l-1 2-3-1v-1Z"/><path fill="#fff" d="m253 289 1-2 3 1v1l-1 2-3-1v-1Z" opacity=".4"/><path fill="#b57ded" d="M252 289s-3 0-3 2v2h1v1l2-1v-4Z"/><path fill="#fff" d="M252 289s-3 0-3 2v2h1v1l2-1v-4Z" opacity=".4"/><path fill="#b57ded" d="M253 289a1 1 0 1 1-2 0 1 1 0 0 1 2 0Z"/><path fill="#fff" d="M253 289a1 1 0 1 1-2 0 1 1 0 0 1 2 0Z" opacity=".4"/><path fill="#b57ded" d="M253 290s2 0 3 2v2h-2l-2-1v-3h1Zm-1-1-2-2c-1-1-2 0-3 1h1l-1 1 1 1 4-1Z"/><path fill="#fff" d="m252 289-2-2c-1-1-2 0-3 1h1l-1 1 1 1 4-1Zm1 1s2 0 3 2v2h-2l-2-1v-3h1Z" opacity=".4"/><path d="M253 290h1l-1-1h1-1l-1-1v1l-1-1v1h1-1v1h1-1 1v1h1v-1 1h1v-1h-1Z" opacity=".2"/><path fill="#fff" d="M252 289Zm1-1Zm-1 0h-1 1Zm-1 1Zm2-1Zm-1 3Zm1 0Zm1-2Zm-2 1Z"/><path fill="#b57ded" d="m359 280 3-2c1-2 0-5-1-5l-2 1v-1l-2 2c-1 3 1 5 1 5h1Z"/><path fill="#fff" d="m359 280 3-2c1-2 0-5-1-5l-2 1v-1l-2 2c-1 3 1 5 1 5h1Z" opacity=".4"/><path fill="#b57ded" d="m359 280 3-2c2-1 4 0 4 1v1l1 1-2 2-6-2v-1Z"/><path fill="#fff" d="m359 280 3-2c2-1 4 0 4 1v1l1 1-2 2-6-2v-1Z" opacity=".4"/><path fill="#b57ded" d="M358 280s-4 1-5 3c-1 3 0 3 1 3h1l1 1 2-2 1-5h-1Z"/><path fill="#fff" d="M358 280s-4 1-5 3c-1 3 0 3 1 3h1l1 1 2-2 1-5h-1Z" opacity=".4"/><path fill="#b57ded" d="M361 280a2 2 0 1 1-3 0 2 2 0 0 1 3 0Z"/><path fill="#fff" d="M361 280a2 2 0 1 1-3 0 2 2 0 0 1 3 0Z" opacity=".4"/><path fill="#b57ded" d="M360 281s4 0 4 3v3h-1l-1 1-3-2v-5h1Zm-1-1-3-3c-2-1-4 0-5 1l1 1-1 1 2 2 5-1 1-1Z"/><path fill="#fff" d="m359 280-3-3c-2-1-4 0-5 1l1 1-1 1 2 2 5-1 1-1Zm1 1s4 0 4 3v3h-1l-1 1-3-2v-5h1Z" opacity=".4"/><path d="M360 281h2-2l1-1 1-1h-1l-2 1v-2 1l-1 1-1-1v1h1l-1 1h-1 2l-1 1h1l1-1a4650 4650 0 0 1 1 0v1h1l-1-1Z" opacity=".2"/><path fill="#fff" d="M359 279h-1 1Zm2 0h-1 1Zm-3 0h-1 1Zm-1 1Zm3-2Zm-1 5-1-1 1 1Zm1-1Zm1-2Zm-3 2Z"/><path fill="#b57ded" d="m391 249 3-3c1-2 0-4-1-4h-1l-1-1-2 2c-1 4 1 6 1 6h1Z"/><path fill="#fff" d="m391 249 3-3c1-2 0-4-1-4h-1l-1-1-2 2c-1 4 1 6 1 6h1Z" opacity=".4"/><path fill="#b57ded" d="m391 249 3-3c2-1 4 0 5 1l-1 1 1 1-2 2-6-1v-1Z"/><path fill="#fff" d="m391 249 3-3c2-1 4 0 5 1l-1 1 1 1-2 2-6-1v-1Z" opacity=".4"/><path fill="#b57ded" d="M390 249s-4 0-5 3l1 3h1l1 1 3-2v-5h-1Z"/><path fill="#fff" d="M390 249s-4 0-5 3l1 3h1l1 1 3-2v-5h-1Z" opacity=".4"/><path fill="#b57ded" d="M393 249a2 2 0 1 1-3-1 2 2 0 0 1 3 1Z"/><path fill="#fff" d="M393 249a2 2 0 1 1-3-1 2 2 0 0 1 3 1Z" opacity=".4"/><path fill="#b57ded" d="M392 249s4 1 4 4v3h-1l-1 1-3-2v-5l1-1Zm-1-1-3-3-4 1v1l-1 1 2 2 5-1 1-1Z"/><path fill="#fff" d="m391 248-3-3-4 1v1l-1 1 2 2 5-1 1-1Zm1 1s4 1 4 4v3h-1l-1 1-3-2v-5l1-1Z" opacity=".4"/><path d="m392 250 2-1h-2l2-1h-3v-1l-1 1h-1l1 1h-1v1h1-1l1 1 1-1a4650 4650 0 0 1 1 0l1 1-1-1Z" opacity=".2"/><path fill="#fff" d="M391 248h-1 1Zm2 0-1-1 1 1Zm-3-1h-1 1Zm-1 2Zm3-2Zm-1 4h-1 1Zm1 0Zm1-2Zm-3 1Z"/><path fill="#b57ded" d="m268 279 3-3c1-2 0-4-1-5s-1 1-1 1l-1-1-2 2c-1 4 1 6 1 6h1Z"/><path fill="#fff" d="m268 279 3-3c1-2 0-4-1-5s-1 1-1 1l-1-1-2 2c-1 4 1 6 1 6h1Z" opacity=".4"/><path fill="#b57ded" d="m268 279 3-3c2-1 4 0 4 1v1l1 1-2 2-6-1v-1Z"/><path fill="#fff" d="m268 279 3-3c2-1 4 0 4 1v1l1 1-2 2-6-1v-1Z" opacity=".4"/><path fill="#b57ded" d="M267 279s-4 0-5 3 0 3 1 3h1l1 1 2-2c2-1 1-5 1-5h-1Z"/><path fill="#fff" d="M267 279s-4 0-5 3 0 3 1 3h1l1 1 2-2c2-1 1-5 1-5h-1Z" opacity=".4"/><path fill="#b57ded" d="M270 279a2 2 0 1 1-3-1 2 2 0 0 1 3 1Z"/><path fill="#fff" d="M270 279a2 2 0 1 1-3-1 2 2 0 0 1 3 1Z" opacity=".4"/><path fill="#b57ded" d="M269 279s4 1 4 4v3h-1l-1 1-3-3v-4l1-1Zm-1-1-3-3-5 1 1 1-1 1 2 2c1 1 5-1 5-1l1-1Z"/><path fill="#fff" d="m268 278-3-3-5 1 1 1-1 1 2 2c1 1 5-1 5-1l1-1Zm1 1s4 1 4 4v3h-1l-1 1-3-3v-4l1-1Z" opacity=".4"/><path d="m269 280 2-1h-2l1-1h1-3v-1l-1 1h-1l1 1h-2l1 1a8320 8320 0 0 0 3 0l1 1v-1h-1Z" opacity=".2"/><path fill="#fff" d="M268 278h-1 1Zm2 0-1-1 1 1Zm-3-1h-1 1Zm-1 2Zm3-2Zm-1 4h-1 1Zm1 0Zm1-2Zm-3 1Z"/><path fill="#b57ded" d="m352 247 3-2c1-2 0-5-1-5l-1 1-1-1-2 2c-1 3 1 5 1 5h1Z"/><path fill="#fff" d="m352 247 3-2c1-2 0-5-1-5l-1 1-1-1-2 2c-1 3 1 5 1 5h1Z" opacity=".4"/><path fill="#b57ded" d="m352 247 3-2c2-1 4 0 4 1v1l1 1-2 2-6-2v-1Z"/><path fill="#fff" d="m352 247 3-2c2-1 4 0 4 1v1l1 1-2 2-6-2v-1Z" opacity=".4"/><path fill="#b57ded" d="M351 247s-4 1-5 3c-1 3 0 3 1 3h1l1 1 2-2c2-1 1-4 1-5h-1Z"/><path fill="#fff" d="M351 247s-4 1-5 3c-1 3 0 3 1 3h1l1 1 2-2c2-1 1-4 1-5h-1Z" opacity=".4"/><path fill="#b57ded" d="M354 247a2 2 0 1 1-3 0 2 2 0 0 1 3 0Z"/><path fill="#fff" d="M354 247a2 2 0 1 1-3 0 2 2 0 0 1 3 0Z" opacity=".4"/><path fill="#b57ded" d="M353 248s4 0 4 3v3h-1l-1 1-3-2v-5h1Zm-1-1-3-3c-2-1-4 0-5 1s1 1 1 1l-1 1 2 2 5-1 1-1Z"/><path fill="#fff" d="m352 247-3-3c-2-1-4 0-5 1s1 1 1 1l-1 1 2 2 5-1 1-1Zm1 1s4 0 4 3v3h-1l-1 1-3-2v-5h1Z" opacity=".4"/><path d="M353 248h2-2l1-1 1-1h-1l-2 1v-2 1l-1 1-1-1v1h1l-1 1h-1 1a8321 8321 0 0 1 2 0v2l1-1v-1l1 1-1-1Z" opacity=".2"/><path fill="#fff" d="M352 246h-1 1Zm2 0h-1 1Zm-3 0h-1 1Zm-1 1Zm3-2Zm-1 5-1-1 1 1Zm1-1Zm1-2Zm-3 2Z"/><path fill="#b57ded" d="m304 285 3-2c1-2 0-5-1-5l-1 1-1-1-2 2c-1 4 2 5 2 5Z"/><path fill="#fff" d="m304 285 3-2c1-2 0-5-1-5l-1 1-1-1-2 2c-1 4 2 5 2 5Z" opacity=".4"/><path fill="#b57ded" d="m305 285 2-2c2-1 5 0 5 1l-1 1 1 1-2 2-5-2v-1Z"/><path fill="#fff" d="m305 285 2-2c2-1 5 0 5 1l-1 1 1 1-2 2-5-2v-1Z" opacity=".4"/><path fill="#b57ded" d="M303 285s-4 1-4 3v3h1s0 2 1 1c1 0 2 0 3-2v-4l-1-1Z"/><path fill="#fff" d="M303 285s-4 1-4 3v3h1s0 2 1 1c1 0 2 0 3-2v-4l-1-1Z" opacity=".4"/><path fill="#b57ded" d="M306 286a2 2 0 1 1-3-1 2 2 0 0 1 3 1Z"/><path fill="#fff" d="M306 286a2 2 0 1 1-3-1 2 2 0 0 1 3 1Z" opacity=".4"/><path fill="#b57ded" d="M305 286s4 1 5 3l-1 3h-1l-1 1-3-2v-5h1Zm-1-1-3-3c-2-1-4 0-4 1v1l-1 1 2 2 6-1v-1Z"/><path fill="#fff" d="m304 285-3-3c-2-1-4 0-4 1v1l-1 1 2 2 6-1v-1Zm1 1s4 1 5 3l-1 3h-1l-1 1-3-2v-5h1Z" opacity=".4"/><path d="M306 286h1-2l2-1v-1l-2 1-1-2v2l-1-1h-1v1l2 1h-2 2l-1 1h1l1 1v-2l1 1v1-2Z" opacity=".2"/><path fill="#fff" d="M304 284Zm2 0Zm-3 0Zm0 1h-1 1Zm3-2h-1 1Zm-2 5Zm2-1Zm1-2h-1 1Zm-3 2h-1 1Z"/><path fill="#b57ded" d="m306 239 3-2-1-5-2 1-1-1-2 2c-1 3 2 5 2 5h1Z"/><path fill="#fff" d="m306 239 3-2-1-5-2 1-1-1-2 2c-1 3 2 5 2 5h1Z" opacity=".4"/><path fill="#b57ded" d="m306 239 3-2c2-1 4 0 4 1v1l1 1-2 2c-1 1-6-2-6-2v-1Z"/><path fill="#fff" d="m306 239 3-2c2-1 4 0 4 1v1l1 1-2 2c-1 1-6-2-6-2v-1Z" opacity=".4"/><path fill="#b57ded" d="M305 239s-4 1-5 3v3h1l1 1c2 0 2 0 3-2v-5s1 0 0 0Z"/><path fill="#fff" d="M305 239s-4 1-5 3v3h1l1 1c2 0 2 0 3-2v-5s1 0 0 0Z" opacity=".4"/><path fill="#b57ded" d="M307 239a2 2 0 1 1-3 0 2 2 0 0 1 3 0Z"/><path fill="#fff" d="M307 239a2 2 0 1 1-3 0 2 2 0 0 1 3 0Z" opacity=".4"/><path fill="#b57ded" d="M307 240s3 0 4 3v3h-1l-1 1c-2 0-2-1-3-2v-5h1Zm-2-1-2-3c-2-1-4 0-5 1l1 1-1 1 2 2 5-1v-1Z"/><path fill="#fff" d="m305 239-2-3c-2-1-4 0-5 1l1 1-1 1 2 2 5-1v-1Zm2 1s3 0 4 3v3h-1l-1 1c-2 0-2-1-3-2v-5h1Z" opacity=".4"/><path d="M307 240h2l-2-1h1v-1l-2 1v-2h-1v2l-1-1v1h1l-1 1h-1a7758 7758 0 0 1 3 0v2-1l1-1v1h1l-1-1Z" opacity=".2"/><path fill="#fff" d="M306 238h-1 1Zm1 0Zm-2 0h-1 1Zm-1 1Zm3-2Zm-1 5-1-1 1 1Zm1-1Zm1-2Zm-3 2Z"/><path fill="#b57ded" d="m374 272 1-1v-2h-1l-1 1 1 2Z"/><path fill="#fff" d="m374 272 1-1v-2h-1l-1 1 1 2Z" opacity=".4"/><path fill="#b57ded" d="m374 272 1-1h2v2l-3-1Z"/><path fill="#fff" d="m374 272 1-1h2v2l-3-1Z" opacity=".4"/><path fill="#b57ded" d="m374 272-2 1v2h1l1-1v-2Z"/><path fill="#fff" d="m374 272-2 1v2h1l1-1v-2Z" opacity=".4"/><path fill="#b57ded" d="M375 272a1 1 0 1 1-1 0 1 1 0 0 1 1 0Z"/><path fill="#fff" d="M375 272a1 1 0 1 1-1 0 1 1 0 0 1 1 0Z" opacity=".4"/><path fill="#b57ded" d="m375 272 1 2v1h-1l-1-1v-2h1Zm-1 0-1-1h-2v1l1 1 2-1Z"/><path fill="#fff" d="m374 272-1-1h-2v1l1 1 2-1Zm1 0 1 2v1h-1l-1-1v-2h1Z" opacity=".4"/><path d="M375 272h-1v-1 1h-1 1-1 1v1c-1 0 0 0 0 0a812 812 0 0 0 1 0v-1Z" opacity=".2"/><path fill="#fff" d="M374 272Zm1 0Zm-1-1Zm-1 1Zm2-1Zm-1 2Zm1 0Zm0-1Zm-1 1Z"/><path fill="#b57ded" d="m365 314 1-2v-1h-1v-1l-1 1c-1 2 1 3 1 3Z"/><path fill="#fff" d="m365 314 1-2v-1h-1v-1l-1 1c-1 2 1 3 1 3Z" opacity=".4"/><path fill="#b57ded" d="m365 314 1-2 2 1v1l-1 1-2-1Z"/><path fill="#fff" d="m365 314 1-2 2 1v1l-1 1-2-1Z" opacity=".4"/><path fill="#b57ded" d="m364 314-2 1c-1 1 0 1 1 1v1l2-1v-2h-1Z"/><path fill="#fff" d="m364 314-2 1c-1 1 0 1 1 1v1l2-1v-2h-1Z" opacity=".4"/><path fill="#b57ded" d="M366 314a1 1 0 1 1-2-1 1 1 0 0 1 2 1Z"/><path fill="#fff" d="M366 314a1 1 0 1 1-2-1 1 1 0 0 1 2 1Z" opacity=".4"/><path fill="#b57ded" d="m365 314 2 1v1h-1v1l-1-1v-2Zm0-1-1-1-2 1v1h3v-1Z"/><path fill="#fff" d="m365 313-1-1-2 1v1h3v-1Zm0 1 2 1v1h-1v1l-1-1v-2Z" opacity=".4"/><path d="M365 314h1-1l1-1h-2l1 1h-1 1v1-1h1v1-1h-1Z" opacity=".2"/><path fill="#fff" d="M365 313Zm1 0h-1 1Zm-2 0Zm0 1Zm1-1Zm0 2Zm0-1Zm1 0Zm-2 0Z"/><path fill="#b57ded" d="m324 241 2-1-1-2h-1l-1 1 1 2Z"/><path fill="#fff" d="m324 241 2-1-1-2h-1l-1 1 1 2Z" opacity=".4"/><path fill="#b57ded" d="m324 241 2-1h1v1h1l-1 1-2-1h-1Z"/><path fill="#fff" d="m324 241 2-1h1v1h1l-1 1-2-1h-1Z" opacity=".4"/><path fill="#b57ded" d="m324 241-2 1v2h1s-1 0 0 0l1-1v-2Z"/><path fill="#fff" d="m324 241-2 1v2h1s-1 0 0 0l1-1v-2Z" opacity=".4"/><path fill="#b57ded" d="M325 241a1 1 0 1 1-1 0 1 1 0 0 1 1 0Z"/><path fill="#fff" d="M325 241a1 1 0 1 1-1 0 1 1 0 0 1 1 0Z" opacity=".4"/><path fill="#b57ded" d="m325 241 2 2-1 1h-2v-3h1Zm-1 0-1-1h-2v1l1 1 2-1Z"/><path fill="#fff" d="m324 241-1-1h-2v1l1 1 2-1Zm1 0 2 2-1 1h-2v-3h1Z" opacity=".4"/><path d="M325 241h1-2v-1 1h-1 1-1s0 1 0 0a1566 1566 0 0 1 2 1v-1Z" opacity=".2"/><path fill="#fff" d="M324 241Zm1 0Zm-1-1Zm0 1h-1 1Zm1-1Zm-1 2Zm1 0Zm0-1Zm-1 1Z"/><path fill="#b57ded" d="m306 256 1-2v-1h-1s0-1 0 0h-1l1 3Z"/><path fill="#fff" d="m306 256 1-2v-1h-1s0-1 0 0h-1l1 3Z" opacity=".4"/><path fill="#b57ded" d="m306 256 1-1h2v2l-3-1Z"/><path fill="#fff" d="m306 256 1-1h2v2l-3-1Z" opacity=".4"/><path fill="#b57ded" d="m306 256-2 1v1l1 1 1-1v-2Z"/><path fill="#fff" d="m306 256-2 1v1l1 1 1-1v-2Z" opacity=".4"/><path fill="#b57ded" d="M307 256a1 1 0 1 1-2-1 1 1 0 0 1 2 1Z"/><path fill="#fff" d="M307 256a1 1 0 1 1-2-1 1 1 0 0 1 2 1Z" opacity=".4"/><path fill="#b57ded" d="m306 256 2 1v1l-1 1-1-1v-2Zm0-1-1-1-2 1 1 1h2v-1Z"/><path fill="#fff" d="m306 255-1-1-2 1 1 1h2v-1Zm0 1 2 1v1l-1 1-1-1v-2Z" opacity=".4"/><path d="M307 256v-1h-2l1 1h-1 1-1 1v1-1h1v1-1Z" opacity=".2"/><path fill="#fff" d="M306 255Zm1 0Zm-1 0h-1 1Zm-1 1Zm2-1h-1 1Zm-1 2Zm1 0v-1 1Zm0-1Zm-1 0Z"/><path fill="#b57ded" d="m313 272 1-2-1-1c0-1 0 0 0 0l-1-1v4h1Z"/><path fill="#fff" d="m313 272 1-2-1-1c0-1 0 0 0 0l-1-1v4h1Z" opacity=".4"/><path fill="#b57ded" d="m313 272 1-2 2 1h-1l1 1-1 1-2-1Z"/><path fill="#fff" d="m313 272 1-2 2 1h-1l1 1-1 1-2-1Z" opacity=".4"/><path fill="#b57ded" d="m312 272-2 1v1h1v1l1-1v-2s0-1 0 0Z"/><path fill="#fff" d="m312 272-2 1v1h1v1l1-1v-2s0-1 0 0Z" opacity=".4"/><path fill="#b57ded" d="M313 272a1 1 0 1 1-1-1 1 1 0 0 1 1 1Z"/><path fill="#fff" d="M313 272a1 1 0 1 1-1-1 1 1 0 0 1 1 1Z" opacity=".4"/><path fill="#b57ded" d="m313 272 2 1v1h-1v1l-1-1v-2Zm-1-1-1-1-2 1h1-1l1 1h2v-1Z"/><path fill="#fff" d="m312 271-1-1-2 1h1-1l1 1h2v-1Zm1 1 2 1v1h-1v1l-1-1v-2Z" opacity=".4"/><path d="M313 272h1-1l1-1h-2v1c-1 0-1 0 0 0l1 1v-1 1-1Z" opacity=".2"/><path fill="#fff" d="M312 271Zm1 0Zm-1 0Zm0 1Zm1-1Zm-1 2Zm1-1Zm0 0Zm-1 0Z"/><path fill="#b57ded" d="m279 259 1-1v-2l-1 1v-1l-1 1c-1 2 1 2 1 2Z"/><path fill="#fff" d="m279 259 1-1v-2l-1 1v-1l-1 1c-1 2 1 2 1 2Z" opacity=".4"/><path fill="#b57ded" d="m279 259 1-1 2 1v1h-3v-1Z"/><path fill="#fff" d="m279 259 1-1 2 1v1h-3v-1Z" opacity=".4"/><path fill="#b57ded" d="m278 259-2 2c-1 2 0 1 1 1l2-1v-2h-1Z"/><path fill="#fff" d="m278 259-2 2c-1 2 0 1 1 1l2-1v-2h-1Z" opacity=".4"/><path fill="#b57ded" d="M280 259a1 1 0 1 1-2 0 1 1 0 0 1 2 0Z"/><path fill="#fff" d="M280 259a1 1 0 1 1-2 0 1 1 0 0 1 2 0Z" opacity=".4"/><path fill="#b57ded" d="m279 260 2 1v1h-1v1l-1-1v-2Zm0-1-1-1h-2v2l3-1Z"/><path fill="#fff" d="m279 259-1-1h-2v2l3-1Zm0 1 2 1v1h-1v1l-1-1v-2Z" opacity=".4"/><path d="M279 260h1l-1-1h1-1s0-1 0 0h-1v1h2-1Z" opacity=".2"/><path fill="#fff" d="M279 259Zm1 0h-1 1Zm-2 0Zm0 0Zm1-1Zm0 2Zm0 0Zm1-1Zm-2 1Z"/><path fill="#b57ded" d="m267 294 1-1-1-2c-1 0 0 0 0 0h-1v3h1Z"/><path fill="#fff" d="m267 294 1-1-1-2c-1 0 0 0 0 0h-1v3h1Z" opacity=".4"/><path fill="#b57ded" d="m267 294 1-1h2v1l-1 1-2-1Z"/><path fill="#fff" d="m267 294 1-1h2v1l-1 1-2-1Z" opacity=".4"/><path fill="#b57ded" d="m266 294-2 1v1h1v1l1-1 1-2h-1Z"/><path fill="#fff" d="m266 294-2 1v1h1v1l1-1 1-2h-1Z" opacity=".4"/><path fill="#b57ded" d="M267 294a1 1 0 1 1-1 0 1 1 0 0 1 1 0Z"/><path fill="#fff" d="M267 294a1 1 0 1 1-1 0 1 1 0 0 1 1 0Z" opacity=".4"/><path fill="#b57ded" d="m267 294 2 1v2h-1l-1-1v-2Zm0 0-2-2-1 1c-1 0 0 0 0 0l-1 1h4Z"/><path fill="#fff" d="m267 294-2-2-1 1c-1 0 0 0 0 0l-1 1h4Zm0 0 2 1v2h-1l-1-1v-2Z" opacity=".4"/><path d="M267 294h1-1l1-1-1 1v-1l-1 1v-1 2l1-1v1-1Z" opacity=".2"/><path fill="#fff" d="M267 293h-1 1Zm0 0Zm-1 0Zm0 1Zm1-1Zm0 2h-1 1Zm0 0Zm1-1h-1 1Zm-2 0Z"/><path fill="#b57ded" d="m401 178-5 25-6 7-15 9c-9 3-19 0-19 0-10 1-25 7-25 7l-20 4h-14l-15 7-11-3-17-8 12-12s2-8-1-9l-14-1-19 11v15l-6 7c-11 4-26 7-26 7s-12 1-16-4c-5-5-13-6-15-9l-11-9-16 9-15 2-16-14c-3-4-2-5 0-15s4-7 3-13l-2-16s-1-12-3-15-3-6 0-9l8-7 10-9 7-14 9-11c0-2 16-6 16-6h13s12-6 12-9-3-4 3-8c7-5 10-6 16-7h14s5 11 15 0 13-12 13-12l14-5c4-2 17 0 17 0l11 4 6 6 3 6 8 6h13c10-2 22 0 23 2l5 9v18c10 6 19 8 19 8l11 1c1 0 4-1 4 2l2 8 3 11-2 9 15 9 4 5v11Z"/><path d="m390 188-1 5-5 4-4 7-10 5h-14l-2 2-9 2h-6c-2 0-9-7-9-7l-14-1-7 5-11 5h-13l-7-4-13-6c3 1 1 9 1 9l-4 4v3l7 8 10 8h3l15-7h14l20-4s15-6 25-7c0 0 10 3 19 0l15-9 6-7 4-19-10 4Zm-158 26c-1 1-4-2-4-2l-6-1-5 2-7 1h-8l-6-4-9-6c-1-2-15-6-15-6l-3 4-6 2-3-2-8-5-12-3-7 1-2 3-5 2c-1 1-7-2-7-2l-4-8-2-2 1 3c1 6-1 3-3 13s-3 11 0 15 16 14 16 14l15-2 16-9s9 6 11 9 10 4 15 9c4 5 16 4 16 4s15-3 26-7l6-7v-15h2l-2-1Z" opacity=".3"/><path fill="#fff" d="m242 83 2-2 5-4s3-4 5-3c2 0 5-3 5-3l5-2h6l7 2 4 2 4 4 8 4 9 2-6-4-3-6-6-6-11-4s-13-2-17 0l-14 5s-3 1-13 12-15 0-15 0h-14c-6 1-9 2-16 7-6 4-3 5-3 8s-12 9-12 9h-13s-16 4-16 6l-9 11-7 14-10 9-8 7c-3 3-2 5-1 8l5-2 2-2 2-5 5 1 4 1 7-1 4 3h6l-7-6-6-4s-1-1 1-5 2-9 2-9l1-4 4-4 3-6 4-3 8-2h6l5-1 6 2 5 6h17s3 0 0-2l-9-5s-3-4-2-5c2-1 2-5 5-6l6-1 4-3 1-6 6-3 10 3 8 2 5-2 5-2 13 4 7-1-9-8Z" opacity=".1"/><path d="m231 180 10 23-4 6-13-26 7-3z" opacity=".2"/><path fill="#b57ded" d="m204 95 2-2c1-1 0-2-1-3v1l-1-1-1 1c-1 3 1 4 1 4Z"/><path fill="#fff" d="m204 95 2-2c1-1 0-2-1-3v1l-1-1-1 1c-1 3 1 4 1 4Z" opacity=".4"/><path fill="#b57ded" d="m204 95 2-2c1-1 3 0 3 1v1l-1 2-4-1v-1Z"/><path fill="#fff" d="m204 95 2-2c1-1 3 0 3 1v1l-1 2-4-1v-1Z" opacity=".4"/><path fill="#b57ded" d="M203 95s-2 0-3 2l1 2 1 1 2-2v-3h-1Z"/><path fill="#fff" d="M203 95s-2 0-3 2l1 2 1 1 2-2v-3h-1Z" opacity=".4"/><path fill="#b57ded" d="M205 95a1 1 0 1 1-2 0 1 1 0 0 1 2 0Z"/><path fill="#fff" d="M205 95a1 1 0 1 1-2 0 1 1 0 0 1 2 0Z" opacity=".4"/><path fill="#b57ded" d="M205 96s2 0 3 2l-1 2h-1l-2-1v-3h1Zm-1-1-2-2h-3l1 1-1 1 1 1 4-1Z"/><path fill="#fff" d="m204 95-2-2h-3l1 1-1 1 1 1 4-1Zm1 1s2 0 3 2l-1 2h-1l-2-1v-3h1Z" opacity=".4"/><path d="m205 96 1-1h-1 1v-1l-2 1v-1 1l-1-1v1h1-2l1 1h1-1s0 1 0 0h1v1h1v-1 1-1Z" opacity=".2"/><path fill="#fff" d="M204 95v-1 1Zm1-1Zm-2 0Zm0 1Zm2-1Zm-1 3Zm1 0v-1 1Zm1-2h-1 1Zm-2 1h-1 1Z"/><path fill="#b57ded" d="m362 176 2-2c1-1 0-3-1-3h-1l-2 1 1 4h1Z"/><path fill="#fff" d="m362 176 2-2c1-1 0-3-1-3h-1l-2 1 1 4h1Z" opacity=".4"/><path fill="#b57ded" d="m362 176 2-2c1-1 3 0 3 1h-1l1 1-1 1-4-1Z"/><path fill="#fff" d="m362 176 2-2c1-1 3 0 3 1h-1l1 1-1 1-4-1Z" opacity=".4"/><path fill="#b57ded" d="M361 176s-2 0-3 2v2h2l2-1v-3h-1Z"/><path fill="#fff" d="M361 176s-2 0-3 2v2h2l2-1v-3h-1Z" opacity=".4"/><path fill="#b57ded" d="M363 176a1 1 0 1 1-2-1 1 1 0 0 1 2 1Z"/><path fill="#fff" d="M363 176a1 1 0 1 1-2-1 1 1 0 0 1 2 1Z" opacity=".4"/><path fill="#b57ded" d="M362 176s3 0 3 2v2h-1v1l-2-1v-4Zm0-1-2-1h-3v1l1 2 4-1v-1Z"/><path fill="#fff" d="m362 175-2-1h-3v1l1 2 4-1v-1Zm0 1s3 0 3 2v2h-1v1l-2-1v-4Z" opacity=".4"/><path d="M363 176h1-1a3035 3035 0 0 0-1-1v-1 1h-2 1v1h-1 1v1l1-1v1-1l1 1v-1Z" opacity=".2"/><path fill="#fff" d="M362 175h-1 1Zm1 0Zm-2 0Zm0 1Zm2-2h-1 1Zm-1 3Zm1 0Zm0-1Zm-2 1Z"/><path fill="#b57ded" d="m147 173 3-3-1-5-2 1-1-1-2 2c-1 4 2 5 2 5l1 1Z"/><path fill="#fff" d="m147 173 3-3-1-5-2 1-1-1-2 2c-1 4 2 5 2 5l1 1Z" opacity=".4"/><path fill="#b57ded" d="m147 173 3-3c2-1 4 0 4 1v2l-1 2-6-2Z"/><path fill="#fff" d="m147 173 3-3c2-1 4 0 4 1v2l-1 2-6-2Z" opacity=".4"/><path fill="#b57ded" d="M145 172s-3 1-4 4v3h1l1 1 3-2v-5s1-1-1-1Z"/><path fill="#fff" d="M145 172s-3 1-4 4v3h1l1 1 3-2v-5s1-1-1-1Z" opacity=".4"/><path fill="#b57ded" d="M148 173a2 2 0 1 1-3-1 2 2 0 0 1 3 1Z"/><path fill="#fff" d="M148 173a2 2 0 1 1-3-1 2 2 0 0 1 3 1Z" opacity=".4"/><path fill="#b57ded" d="m148 173 4 3v3h-2s1 1-1 1l-2-2v-5h1Zm-2-1-2-3c-2-1-4 0-5 1l1 1-1 1 2 2 5-1v-1Z"/><path fill="#fff" d="m146 172-2-3c-2-1-4 0-5 1l1 1-1 1 2 2 5-1v-1Zm2 1 4 3v3h-2s1 1-1 1l-2-2v-5h1Z" opacity=".4"/><path d="M148 173h2-2l1-1h-2v-1h-1v1l-1-1v1c-1 0 0 0 0 0l1 1h-2s0 1 0 0a8320 8320 0 0 1 2 1l1 1 1-1v1h1v-1l-1-1Z" opacity=".2"/><path fill="#fff" d="M146 172Zm2-1Zm-2 0h-1 1Zm-1 1Zm3-2h-1 1Zm-2 5Zm2 0Zm1-2Zm-3 1Z"/><path fill="#b57ded" d="m212 153 2-3c1-2 0-4-1-4h-1l-1-1-2 2c-1 4 2 6 2 6h1Z"/><path fill="#fff" d="m212 153 2-3c1-2 0-4-1-4h-1l-1-1-2 2c-1 4 2 6 2 6h1Z" opacity=".4"/><path fill="#b57ded" d="m212 153 3-3c1-1 4 0 4 1v2c0 1 0 2-2 2-1 1-5-1-5-1v-1Z"/><path fill="#fff" d="m212 153 3-3c1-1 4 0 4 1v2c0 1 0 2-2 2-1 1-5-1-5-1v-1Z" opacity=".4"/><path fill="#b57ded" d="M210 153s-3 0-4 3v3h1l1 1 3-2v-5h-1Z"/><path fill="#fff" d="M210 153s-3 0-4 3v3h1l1 1 3-2v-5h-1Z" opacity=".4"/><path fill="#b57ded" d="M213 153a2 2 0 1 1-3-1 2 2 0 0 1 3 1Z"/><path fill="#fff" d="M213 153a2 2 0 1 1-3-1 2 2 0 0 1 3 1Z" opacity=".4"/><path fill="#b57ded" d="M212 154s4 0 5 3 0 3-1 3h-1l-1 1-2-2v-5s-1-1 0 0Zm-1-2-2-2h-5v3l1 2 6-2v-1Z"/><path fill="#fff" d="m211 152-2-2h-5v3l1 2 6-2v-1Zm1 2s4 0 5 3 0 3-1 3h-1l-1 1-2-2v-5s-1-1 0 0Z" opacity=".4"/><path d="m213 154 2-1h-2l1-1h-2v-1h-1v1h-2 1l1 1h-2v1h2l-1 1 1-1 1 1v-1l1 1h1l-1-1Z" opacity=".2"/><path fill="#fff" d="M211 152Zm2 0Zm-3-1Zm0 2Zm3-2h-1 1Zm-2 4Zm2 0Zm1-2h-1 1Zm-3 1h-1 1Z"/><path fill="#b57ded" d="m152 132 2-3-1-5c-1-1-1 1-1 1l-1-1-2 2c-1 4 2 5 2 5l1 1Z"/><path fill="#fff" d="m152 132 2-3-1-5c-1-1-1 1-1 1l-1-1-2 2c-1 4 2 5 2 5l1 1Z" opacity=".4"/><path fill="#b57ded" d="m152 132 2-3c2-1 5 0 5 1l-1 1 1 1-2 2-5-2Z"/><path fill="#fff" d="m152 132 2-3c2-1 5 0 5 1l-1 1 1 1-2 2-5-2Z" opacity=".4"/><path fill="#b57ded" d="M150 132s-3 0-4 3v3h1l1 1 3-2v-5h-1Z"/><path fill="#fff" d="M150 132s-3 0-4 3v3h1l1 1 3-2v-5h-1Z" opacity=".4"/><path fill="#b57ded" d="M153 132a2 2 0 1 1-3-1 2 2 0 0 1 3 1Z"/><path fill="#fff" d="M153 132a2 2 0 1 1-3-1 2 2 0 0 1 3 1Z" opacity=".4"/><path fill="#b57ded" d="M152 132s4 1 5 4c1 2 0 2-1 2h-1s0 2-1 1l-2-2v-5s-1 0 0 0Zm-1-1-3-3c-1-1-4 0-4 1v2l1 2c1 1 6-1 6-1v-1Z"/><path fill="#fff" d="m151 131-3-3c-1-1-4 0-4 1v2l1 2c1 1 6-1 6-1v-1Zm1 1s4 1 5 4c1 2 0 2-1 2h-1s0 2-1 1l-2-2v-5s-1 0 0 0Z" opacity=".4"/><path d="M153 132h2-2l1-1h-2v-1h-1v1h-2 1l1 1h-2v1l2-1-1 1v1l1-1 1 1v-1l1 1v-2Z" opacity=".2"/><path fill="#fff" d="M151 131Zm2-1Zm-3 0Zm0 2-1-1 1 1Zm3-3h-1 1Zm-2 5Zm2 0Zm1-2h-1 1Zm-3 1h-1 1Z"/><path fill="#b57ded" d="m323 181 2-2c1-1 0-2-1-3v1l-1-1-1 1c-1 3 1 4 1 4Z"/><path fill="#fff" d="m323 181 2-2c1-1 0-2-1-3v1l-1-1-1 1c-1 3 1 4 1 4Z" opacity=".4"/><path fill="#b57ded" d="m323 181 2-2c1-1 3 0 3 1v1l-1 2-4-1v-1Z"/><path fill="#fff" d="m323 181 2-2c1-1 3 0 3 1v1l-1 2-4-1v-1Z" opacity=".4"/><path fill="#b57ded" d="M322 181s-2 0-3 2l1 2c1 0 0 0 0 0l1 1 2-2v-3h-1Z"/><path fill="#fff" d="M322 181s-2 0-3 2l1 2c1 0 0 0 0 0l1 1 2-2v-3h-1Z" opacity=".4"/><path fill="#b57ded" d="M324 181a1 1 0 1 1-2 0 1 1 0 0 1 2 0Z"/><path fill="#fff" d="M324 181a1 1 0 1 1-2 0 1 1 0 0 1 2 0Z" opacity=".4"/><path fill="#b57ded" d="M324 182s2 0 3 2l-1 2c-1 0 0 0 0 0h-1l-2-1v-3h1Zm-1-1-2-2h-3l1 1-1 1 1 1 4-1Z"/><path fill="#fff" d="m323 181-2-2h-3l1 1-1 1 1 1 4-1Zm1 1s2 0 3 2l-1 2c-1 0 0 0 0 0h-1l-2-1v-3h1Z" opacity=".4"/><path d="M324 182h1l-1-1h1-2v-1 1l-1-1v1h1-1v1c-1 0-1 0 0 0h1-1s0 1 0 0h1v1h1v-1 1-1c1 0 1 0 0 0Z" opacity=".2"/><path fill="#fff" d="M323 181v-1 1Zm1-1Zm-2 0Zm0 1Zm2-1Zm-1 3Zm1 0v-1 1Zm1-2h-1 1Zm-2 1Z"/><path fill="#b57ded" d="m319 97 3-3-1-4h-2l-2 1c-1 4 1 6 1 6h1Z"/><path fill="#fff" d="m319 97 3-3-1-4h-2l-2 1c-1 4 1 6 1 6h1Z" opacity=".4"/><path fill="#b57ded" d="m319 97 3-3 4 1v2h1l-2 2c-1 1-6-1-6-1v-1Z"/><path fill="#fff" d="m319 97 3-3 4 1v2h1l-2 2c-1 1-6-1-6-1v-1Z" opacity=".4"/><path fill="#b57ded" d="M318 97s-4 0-5 3 0 3 1 3h1s-1 1 1 1l2-2 1-5h-1Z"/><path fill="#fff" d="M318 97s-4 0-5 3 0 3 1 3h1s-1 1 1 1l2-2 1-5h-1Z" opacity=".4"/><path fill="#b57ded" d="M321 97a2 2 0 1 1-3 0 2 2 0 0 1 3 0Z"/><path fill="#fff" d="M321 97a2 2 0 1 1-3 0 2 2 0 0 1 3 0Z" opacity=".4"/><path fill="#b57ded" d="M320 98s4 0 4 3v3h-1l-1 1-3-2v-5h1Zm-2-1-2-3h-5l1 2-1 1 2 2 5-2Z"/><path fill="#fff" d="m318 97-2-3h-5l1 2-1 1 2 2 5-2Zm2 1s4 0 4 3v3h-1l-1 1-3-2v-5h1Z" opacity=".4"/><path d="M320 98h2l-2-1 1-1-2 1v-2c-1 0 0 0 0 0l-1 1h-1l1 1h-1l-1 1h2l-1 1h1l1-1v1l1-1v1h1l-1-1Z" opacity=".2"/><path fill="#fff" d="M319 96h-1 1Zm1 0Zm-2 0-1-1 1 1Zm-1 1Zm3-2Zm-1 4h-1 1Zm1 0Zm1-2Zm-3 1Z"/><path fill="#b57ded" d="m361 143 3-3-1-4h-3l-2 2c-1 3 2 5 2 5h1Z"/><path fill="#fff" d="m361 143 3-3-1-4h-3l-2 2c-1 3 2 5 2 5h1Z" opacity=".4"/><path fill="#b57ded" d="m361 143 3-3 4 1v3l-1 2-6-2v-1Z"/><path fill="#fff" d="m361 143 3-3 4 1v3l-1 2-6-2v-1Z" opacity=".4"/><path fill="#b57ded" d="M359 143s-3 0-4 3v3h1l1 1c1 0 2 0 3-2v-5h-1Z"/><path fill="#fff" d="M359 143s-3 0-4 3v3h1l1 1c1 0 2 0 3-2v-5h-1Z" opacity=".4"/><path fill="#b57ded" d="M362 143a2 2 0 1 1-3 0 2 2 0 0 1 3 0Z"/><path fill="#fff" d="M362 143a2 2 0 1 1-3 0 2 2 0 0 1 3 0Z" opacity=".4"/><path fill="#b57ded" d="M362 144s3 0 4 3v3h-2s1 1-1 1-1-1-2-2v-5h1Zm-2-1-2-3c-2-1-4 0-5 1l1 1-1 1 2 2 5-2Z"/><path fill="#fff" d="m360 143-2-3c-2-1-4 0-5 1l1 1-1 1 2 2 5-2Zm2 1s3 0 4 3v3h-2s1 1-1 1-1-1-2-2v-5h1Z" opacity=".4"/><path d="M362 144h2l-2-1 1-1-2 1v-2h-1v2l-1-1c-1 0 0 0 0 0l1 1h-1l-1 1h2l-1 1 1-1a4650 4650 0 0 1 2 0Z" opacity=".2"/><path fill="#fff" d="M360 142Zm2 0Zm-2 0-1-1 1 1Zm-1 1Zm3-2h-1 1Zm-2 4Zm2 0Zm1-2Zm-3 1Z"/><path fill="#b57ded" d="m160 151 2-2v-4l-1 1-1-1-2 2c0 3 2 4 2 4Z"/><path fill="#fff" d="m160 151 2-2v-4l-1 1-1-1-2 2c0 3 2 4 2 4Z" opacity=".4"/><path fill="#b57ded" d="m160 151 2-2c2-1 4 0 4 1l-1 1h1l-1 2-5-1v-1Z"/><path fill="#fff" d="m160 151 2-2c2-1 4 0 4 1l-1 1h1l-1 2-5-1v-1Z" opacity=".4"/><path fill="#b57ded" d="M159 151s-3 0-3 2v2l1 1h1l2-1v-4h-1Z"/><path fill="#fff" d="M159 151s-3 0-3 2v2l1 1h1l2-1v-4h-1Z" opacity=".4"/><path fill="#b57ded" d="M161 151a1 1 0 1 1-2 0 1 1 0 0 1 2 0Z"/><path fill="#fff" d="M161 151a1 1 0 1 1-2 0 1 1 0 0 1 2 0Z" opacity=".4"/><path fill="#b57ded" d="M161 151s3 1 3 3v2h-1l-1 1-2-2v-3l1-1Zm-1 0-2-3-3 1v1l-1 1 2 1 4-1Z"/><path fill="#fff" d="m160 151-2-3-3 1v1l-1 1 2 1 4-1Zm1 0s3 1 3 3v2h-1l-1 1-2-2v-3l1-1Z" opacity=".4"/><path d="m161 152 1-1h-1a4003 4003 0 0 1-1 0v-2 1h-1c-1 0 0 0 0 0l1 1h-2v1h2-1s0 1 0 0h1v1h1v-1Z" opacity=".2"/><path fill="#fff" d="M160 150Zm1 0Zm-2 0Zm0 1Zm2-2Zm-1 4Zm1 0v-1 1Zm1-2Zm-2 1h-1 1Z"/><path fill="#b57ded" d="m271 143 1-1v-3h-2l-1 1 1 3h1Z"/><path fill="#fff" d="m271 143 1-1v-3h-2l-1 1 1 3h1Z" opacity=".4"/><path fill="#b57ded" d="m271 143 1-1h3v1l-1 2-3-1v-1Z"/><path fill="#fff" d="m271 143 1-1h3v1l-1 2-3-1v-1Z" opacity=".4"/><path fill="#b57ded" d="M270 143s-2 0-3 2l1 2h1l1-1v-3Z"/><path fill="#fff" d="M270 143s-2 0-3 2l1 2h1l1-1v-3Z" opacity=".4"/><path fill="#b57ded" d="M272 143a1 1 0 1 1-2 0 1 1 0 0 1 2 0Z"/><path fill="#fff" d="M272 143a1 1 0 1 1-2 0 1 1 0 0 1 2 0Z" opacity=".4"/><path fill="#b57ded" d="m271 144 3 1-1 2-1 1-1-2v-2s0-1 0 0Zm-1-1-1-2c-1-1-2 0-3 1h1l-1 1 1 1 3-1Z"/><path fill="#fff" d="m270 143-1-2c-1-1-2 0-3 1h1l-1 1 1 1 3-1Zm1 1 3 1-1 2-1 1-1-2v-2s0-1 0 0Z" opacity=".4"/><path d="m271 144 1-1h-1 1-1v-1h-1v1h-1 1-1v1h2v1-1Z" opacity=".2"/><path fill="#fff" d="M270 143Zm2-1h-1 1Zm-2 0Zm0 1h-1 1Zm1-1Zm-1 2Zm1 0Zm1-1Zm-2 1Z"/><path fill="#b57ded" d="m125 158 2-1-1-3-1 1v-1l-1 1c-1 2 1 3 1 3Z"/><path fill="#fff" d="m125 158 2-1-1-3-1 1v-1l-1 1c-1 2 1 3 1 3Z" opacity=".4"/><path fill="#b57ded" d="m125 158 2-1h2v2l-1 1-3-1v-1Z"/><path fill="#fff" d="m125 158 2-1h2v2l-1 1-3-1v-1Z" opacity=".4"/><path fill="#b57ded" d="m124 158-2 2v2h1s-1 0 0 0l2-1v-3h-1Z"/><path fill="#fff" d="m124 158-2 2v2h1s-1 0 0 0l2-1v-3h-1Z" opacity=".4"/><path fill="#b57ded" d="M126 159a1 1 0 1 1-2-1 1 1 0 0 1 2 1Z"/><path fill="#fff" d="M126 159a1 1 0 1 1-2-1 1 1 0 0 1 2 1Z" opacity=".4"/><path fill="#b57ded" d="M126 159s2 0 2 2v1h-1v1l-2-1v-3h1Zm-1-1-2-1h-2v1l1 1h3v-1Z"/><path fill="#fff" d="m125 158-2-1h-2v1l1 1h3v-1Zm1 1s2 0 2 2v1h-1v1l-2-1v-3h1Z" opacity=".4"/><path d="M126 159h1-1v-1h-1v-1 1h-1 1l-1 1c-1 0-1 0 0 0h1-1s0 1 0 0h1v1-1a2002 2002 0 0 0 1 0Z" opacity=".2"/><path fill="#fff" d="M125 158Zm1 0Zm-2 0v-1 1Zm0 0Zm2-1h-1 1Zm-1 3Zm1 0Zm0-2Zm-1 1h-1 1Z"/><path fill="#b57ded" d="m195 154 2-2-1-2h-1l-1 1c-1 2 1 3 1 3Z"/><path fill="#fff" d="m195 154 2-2-1-2h-1l-1 1c-1 2 1 3 1 3Z" opacity=".4"/><path fill="#b57ded" d="m195 154 2-2c1-1 2 0 2 1v1l-1 1-3-1Z"/><path fill="#fff" d="m195 154 2-2c1-1 2 0 2 1v1l-1 1-3-1Z" opacity=".4"/><path fill="#b57ded" d="M194 154s-2 0-2 2v1h1v1l2-1v-3h-1Z"/><path fill="#fff" d="M194 154s-2 0-2 2v1h1v1l2-1v-3h-1Z" opacity=".4"/><path fill="#b57ded" d="M196 154a1 1 0 1 1-2 0 1 1 0 0 1 2 0Z"/><path fill="#fff" d="M196 154a1 1 0 1 1-2 0 1 1 0 0 1 2 0Z" opacity=".4"/><path fill="#b57ded" d="M196 154s2 0 2 2v2h-1l-2-1v-3h1Zm-1 0-2-2h-2v2l1 1 3-1Z"/><path fill="#fff" d="m195 154-2-2h-2v2l1 1 3-1Zm1 0s2 0 2 2v2h-1l-2-1v-3h1Z" opacity=".4"/><path d="M196 154h1-1v-1h1-1l-1 1v-1h-1l1 1h-1 1l-1 1 1-1v1l1-1v1-1Z" opacity=".2"/><path fill="#fff" d="M195 153Zm1 0Zm-2 0Zm0 1Zm2-1Zm-1 2Zm1 0Zm0-1Zm-1 1h-1 1Z"/><path fill="#b57ded" d="m281 83 1-2v-2h-1l-1-1-1 1 1 4h1Z"/><path fill="#fff" d="m281 83 1-2v-2h-1l-1-1-1 1 1 4h1Z" opacity=".4"/><path fill="#b57ded" d="m281 83 1-2 3 1h-1l1 1-1 1-3-1Z"/><path fill="#fff" d="m281 83 1-2 3 1h-1l1 1-1 1-3-1Z" opacity=".4"/><path fill="#b57ded" d="m280 83-3 1v2h1l1 1 1-1v-3s0-1 0 0Z"/><path fill="#fff" d="m280 83-3 1v2h1l1 1 1-1v-3s0-1 0 0Z" opacity=".4"/><path fill="#b57ded" d="M281 83a1 1 0 1 1-1-1 1 1 0 0 1 1 1Z"/><path fill="#fff" d="M281 83a1 1 0 1 1-1-1 1 1 0 0 1 1 1Z" opacity=".4"/><path fill="#b57ded" d="M281 83s2 0 3 2l-1 1v1h-1l-2-1 1-3s-1 0 0 0Zm-1-1-1-1h-3v1l1 2 3-1v-1Z"/><path fill="#fff" d="m280 82-1-1h-3v1l1 2 3-1v-1Zm1 1s2 0 3 2l-1 1v1h-1l-2-1 1-3s-1 0 0 0Z" opacity=".4"/><path d="M281 83h1-1l1-1h-1l-1-1v1h-1l1 1h-1 1v1c-1 0 0 0 0 0v-1l1 1v-1Z" opacity=".2"/><path fill="#fff" d="M280 82Zm1 0Zm-1 0Zm-1 1Zm2-2Zm-1 3Zm1 0Zm1-1Zm-2 0Z"/><path fill="#b57ded" d="m226 125 1-2v-3l-1 1v-1l-2 1 1 3 1 1Z"/><path fill="#fff" d="m226 125 1-2v-3l-1 1v-1l-2 1 1 3 1 1Z" opacity=".4"/><path fill="#b57ded" d="m226 125 1-2 3 1v1l-1 1-3-1Z"/><path fill="#fff" d="m226 125 1-2 3 1v1l-1 1-3-1Z" opacity=".4"/><path fill="#b57ded" d="m225 125-3 1 1 2 1 1 1-2 1-2h-1Z"/><path fill="#fff" d="m225 125-3 1 1 2 1 1 1-2 1-2h-1Z" opacity=".4"/><path fill="#b57ded" d="M227 125a1 1 0 1 1-2-1 1 1 0 0 1 2 1Z"/><path fill="#fff" d="M227 125a1 1 0 1 1-2-1 1 1 0 0 1 2 1Z" opacity=".4"/><path fill="#b57ded" d="M226 125s2 0 3 2l-1 1-1 1-1-1v-3Zm-1-1-1-1h-3l1 1h-1l1 1h3v-1Z"/><path fill="#fff" d="m225 124-1-1h-3l1 1h-1l1 1h3v-1Zm1 1s2 0 3 2l-1 1-1 1-1-1v-3Z" opacity=".4"/><path d="M226 125h1-1l1-1h-1v-1 1h-2 1v1h-1 1v1l1-1Z" opacity=".2"/><path fill="#fff" d="M226 124h-1 1Zm1 0h-1 1Zm-2 0Zm0 0Zm1-1Zm0 3h-1 1Zm0 0Zm1-1Zm-2 0Z"/><path fill="#b57ded" d="m311 191 1-2v-2h-2l-1 1 1 3h1Z"/><path fill="#fff" d="m311 191 1-2v-2h-2l-1 1 1 3h1Z" opacity=".4"/><path fill="#b57ded" d="m311 191 1-2 3 1v1l-1 1-3-1Z"/><path fill="#fff" d="m311 191 1-2 3 1v1l-1 1-3-1Z" opacity=".4"/><path fill="#b57ded" d="M310 191s-2 0-3 2 0 1 1 1l1 1 1-1v-3s1 0 0 0Z"/><path fill="#fff" d="M310 191s-2 0-3 2 0 1 1 1l1 1 1-1v-3s1 0 0 0Z" opacity=".4"/><path fill="#b57ded" d="M312 191a1 1 0 1 1-2 0 1 1 0 0 1 2 0Z"/><path fill="#fff" d="M312 191a1 1 0 1 1-2 0 1 1 0 0 1 2 0Z" opacity=".4"/><path fill="#b57ded" d="m311 191 3 2-1 2h-1l-1-1v-3Zm-1 0-1-2h-3l1 1-1 1 1 1 3-1Z"/><path fill="#fff" d="m310 191-1-2h-3l1 1-1 1 1 1 3-1Zm1 0 3 2-1 2h-1l-1-1v-3Z" opacity=".4"/><path d="M311 191h1-1l1-1-1 1v-1h-1v1-1h-1 1v1h-1 1v1h2l-1-1Z" opacity=".2"/><path fill="#fff" d="M311 190h-1 1Zm1 0h-1 1Zm-2 0Zm0 1Zm1-1Zm0 2h-1 1Zm0 0Zm1-1Zm-2 1Z"/><path fill="#b57ded" d="m305 154 1-1-1-1h-1v2h1Z"/><path fill="#fff" d="m305 154 1-1-1-1h-1v2h1Z" opacity=".4"/><path fill="#b57ded" d="m305 154 1-1 1 1c1 0 0 0 0 0l1 1h-3v-1Z"/><path fill="#fff" d="m305 154 1-1 1 1c1 0 0 0 0 0l1 1h-3v-1Z" opacity=".4"/><path fill="#b57ded" d="m304 154-1 2v1l2-1v-2h-1Z"/><path fill="#fff" d="m304 154-1 2v1l2-1v-2h-1Z" opacity=".4"/><path fill="#b57ded" d="M305 154a1 1 0 1 1-1 0 1 1 0 0 1 1 0Z"/><path fill="#fff" d="M305 154a1 1 0 1 1-1 0 1 1 0 0 1 1 0Z" opacity=".4"/><path fill="#b57ded" d="m305 155 2 1c1 1 0 1-1 1h-1v-2Zm0-1-1-1h-2v2l2-1h1Z"/><path fill="#fff" d="m305 154-1-1h-2v2l2-1h1Zm0 1 2 1c1 1 0 1-1 1h-1v-2Z" opacity=".4"/><path d="M305 155h1l-1-1h1-2v1h1Z" opacity=".2"/><path fill="#fff" d="M305 154h-1 1Zm0 0Zm-1 0Zm0 0Zm1 0Zm0 1h-1 1Zm0 0Zm0-1Zm-1 1Z"/><path fill="#b57ded" d="m165 167 1-1-1-2-1 1 1 2Z"/><path fill="#fff" d="m165 167 1-1-1-2-1 1 1 2Z" opacity=".4"/><path fill="#b57ded" d="m165 167 1-1h2l-1 1h1l-1 1-2-1Z"/><path fill="#fff" d="m165 167 1-1h2l-1 1h1l-1 1-2-1Z" opacity=".4"/><path fill="#b57ded" d="m164 167-1 1v1l1 1 1-1v-2h-1Z"/><path fill="#fff" d="m164 167-1 1v1l1 1 1-1v-2h-1Z" opacity=".4"/><path fill="#b57ded" d="M165 167a1 1 0 1 1-1 0 1 1 0 0 1 1 0Z"/><path fill="#fff" d="M165 167a1 1 0 1 1-1 0 1 1 0 0 1 1 0Z" opacity=".4"/><path fill="#b57ded" d="m165 167 2 1v1l-1 1-1-1v-2Zm0 0-1-1h-2v1l1 1c1 1 2-1 2-1Z"/><path fill="#fff" d="m165 167-1-1h-2v1l1 1c1 1 2-1 2-1Zm0 0 2 1v1l-1 1-1-1v-2Z" opacity=".4"/><path d="M165 167h1-1 1-1v-1 1h-1v1l1-1v1-1 1h1l-1-1Z" opacity=".2"/><path fill="#fff" d="M165 167Zm0 0v-1 1Zm-1-1Zm0 1Zm1-1Zm0 2Zm0 0Zm1-1Zm-2 0Z"/><path fill="#b57ded" d="m162 195 1-1v-1h-2l1 2Z"/><path fill="#fff" d="m162 195 1-1v-1h-2l1 2Z" opacity=".4"/><path fill="#b57ded" d="m162 195 1-1 2 1v1h-3v-1Z"/><path fill="#fff" d="m162 195 1-1 2 1v1h-3v-1Z" opacity=".4"/><path fill="#b57ded" d="m162 195-2 2v1h1l1-1v-2Z"/><path fill="#fff" d="m162 195-2 2v1h1l1-1v-2Z" opacity=".4"/><path fill="#b57ded" d="M163 196a1 1 0 1 1-1-1 1 1 0 0 1 1 1Z"/><path fill="#fff" d="M163 196a1 1 0 1 1-1-1 1 1 0 0 1 1 1Z" opacity=".4"/><path fill="#b57ded" d="m162 196 2 1v1h-2v-2Zm0-1-1-1h-2v1l1 1h2v-1Z"/><path fill="#fff" d="m162 195-1-1h-2v1l1 1h2v-1Zm0 1 2 1v1h-2v-2Z" opacity=".4"/><path d="M162 196h1-1l1-1h-2 1l-1 1a1062 1062 0 0 1 1 0h1-1Z" opacity=".2"/><path fill="#fff" d="M162 195Zm1 0h-1 1Zm-1 0h-1 1Zm-1 0Zm1 0Zm0 1Zm1 0h-1 1Zm0-1Zm-1 1Z"/><path fill="#b57ded" d="m203 105 1-1-1-2-1 1 1 2Z"/><path fill="#fff" d="m203 105 1-1-1-2-1 1 1 2Z" opacity=".4"/><path fill="#b57ded" d="m203 105 1-1h2-1l1 1-1 1-2-1Z"/><path fill="#fff" d="m203 105 1-1h2-1l1 1-1 1-2-1Z" opacity=".4"/><path fill="#b57ded" d="m202 105-1 1v1h2v-2h-1Z"/><path fill="#fff" d="m202 105-1 1v1h2v-2h-1Z" opacity=".4"/><path fill="#b57ded" d="M203 105a1 1 0 1 1-1-1 1 1 0 0 1 1 1Z"/><path fill="#fff" d="M203 105a1 1 0 1 1-1-1 1 1 0 0 1 1 1Z" opacity=".4"/><path fill="#b57ded" d="m203 105 2 1v1h-1v1l-1-1v-2Zm0-1-1-1-2 1c0 1 0 0 0 0v1h3v-1Z"/><path fill="#fff" d="m203 104-1-1-2 1c0 1 0 0 0 0v1h3v-1Zm0 1 2 1v1h-1v1l-1-1v-2Z" opacity=".4"/><path d="M203 105h1-1l1-1h-2v1h1v1-1h1-1Z" opacity=".2"/><path fill="#fff" d="M203 104Zm0 0Zm-1 0Zm0 1Zm1-1Zm0 1Zm0 0Zm1 0Zm-2 0Z"/><path fill="#b57ded" d="m252 93 1-2v-1h-2l1 2v1Z"/><path fill="#fff" d="m252 93 1-2v-1h-2l1 2v1Z" opacity=".4"/><path fill="#b57ded" d="m252 93 1-1h2v1h-3Z"/><path fill="#fff" d="m252 93 1-1h2v1h-3Z" opacity=".4"/><path fill="#b57ded" d="m252 92-2 2v1h1l1-1v-2Z"/><path fill="#fff" d="m252 92-2 2v1h1l1-1v-2Z" opacity=".4"/><path fill="#b57ded" d="M253 93a1 1 0 1 1-1-1 1 1 0 0 1 1 1Z"/><path fill="#fff" d="M253 93a1 1 0 1 1-1-1 1 1 0 0 1 1 1Z" opacity=".4"/><path fill="#b57ded" d="m253 93 1 1v1h-2v-2h1Zm-1-1-1-1-2 1h1-1l1 1h2v-1Z"/><path fill="#fff" d="m252 92-1-1-2 1h1-1l1 1h2v-1Zm1 1 1 1v1h-2v-2h1Z" opacity=".4"/><path d="M253 93v-1h-2 1v1h-1 2Z" opacity=".2"/><path fill="#fff" d="M252 92Zm1 0Zm-1 0Zm0 0Zm1 0Zm-1 1Zm1 0Zm0 0v-1 1Zm-1 0Z"/><path fill="#b57ded" d="m279 72 1-1v-2h-1v3Z"/><path fill="#fff" d="m279 72 1-1v-2h-1v3Z" opacity=".4"/><path fill="#b57ded" d="m280 72 1-1h1v2l-2-1Z"/><path fill="#fff" d="m280 72 1-1h1v2l-2-1Z" opacity=".4"/><path fill="#b57ded" d="m279 72-2 1v1h2v-2Z"/><path fill="#fff" d="m279 72-2 1v1h2v-2Z" opacity=".4"/><path fill="#b57ded" d="M280 72a1 1 0 1 1-1-1 1 1 0 0 1 1 1Z"/><path fill="#fff" d="M280 72a1 1 0 1 1-1-1 1 1 0 0 1 1 1Z" opacity=".4"/><path fill="#b57ded" d="m280 72 1 1v1l-1 1-1-1v-2h1Zm-1-1-1-1c-1-1-1 0-1 1v1h2v-1Z"/><path fill="#fff" d="m279 71-1-1c-1-1-1 0-1 1v1h2v-1Zm1 1 1 1v1l-1 1-1-1v-2h1Z" opacity=".4"/><path d="M280 72h1-1l-1-1v1h-1 1l1 1v-1Z" opacity=".2"/><path fill="#fff" d="M279 71Zm1 0Zm-1 0Zm0 1Zm1-1Zm-1 1Zm1 0Zm0 0Zm-1 0Z"/><path fill="#b57ded" d="m303 112 1-1v-1h-2l1 2Z"/><path fill="#fff" d="m303 112 1-1v-1h-2l1 2Z" opacity=".4"/><path fill="#b57ded" d="m303 112 1-1 2 1v1h-3v-1Z"/><path fill="#fff" d="m303 112 1-1 2 1v1h-3v-1Z" opacity=".4"/><path fill="#b57ded" d="m303 112-2 2v1h1l1-1v-2Z"/><path fill="#fff" d="m303 112-2 2v1h1l1-1v-2Z" opacity=".4"/><path fill="#b57ded" d="M304 112a1 1 0 1 1-1 0 1 1 0 0 1 1 0Z"/><path fill="#fff" d="M304 112a1 1 0 1 1-1 0 1 1 0 0 1 1 0Z" opacity=".4"/><path fill="#b57ded" d="m304 113 1 1v1h-2v-2h1Zm-1-1-1-1h-1v1h-1l1 1h2v-1Z"/><path fill="#fff" d="m303 112-1-1h-1v1h-1l1 1h2v-1Zm1 1 1 1v1h-2v-2h1Z" opacity=".4"/><path d="M304 113v-1h-1c-1 0 0 0 0 0v1h-1 2Z" opacity=".2"/><path fill="#fff" d="M303 112Zm1 0Zm-1 0Zm0 0Zm1 0Zm-1 1Zm1 0Zm0-1Zm-1 1Z"/><path fill="#b57ded" d="m149 154 1-2v-3l-1 1-1-1-1 2c-1 2 1 3 1 3h1Z"/><path fill="#fff" d="m149 154 1-2v-3l-1 1-1-1-1 2c-1 2 1 3 1 3h1Z" opacity=".4"/><path fill="#b57ded" d="m149 154 1-2 3 1v1l-1 2-3-1v-1Z"/><path fill="#fff" d="m149 154 1-2 3 1v1l-1 2-3-1v-1Z" opacity=".4"/><path fill="#b57ded" d="M148 154s-3 0-3 2v2h1v1l2-2v-3Z"/><path fill="#fff" d="M148 154s-3 0-3 2v2h1v1l2-2v-3Z" opacity=".4"/><path fill="#b57ded" d="M150 154a1 1 0 1 1-2 0 1 1 0 0 1 2 0Z"/><path fill="#fff" d="M150 154a1 1 0 1 1-2 0 1 1 0 0 1 2 0Z" opacity=".4"/><path fill="#b57ded" d="M149 155s2 0 3 2v1l-1 1h-1l-1-1v-3s-1-1 0 0Zm-1-1-1-2h-3v1l-1 1 2 1 3-1Z"/><path fill="#fff" d="m148 154-1-2h-3v1l-1 1 2 1 3-1Zm1 1s2 0 3 2v1l-1 1h-1l-1-1v-3s-1-1 0 0Z" opacity=".4"/><path d="m149 155 1-1h-1 1-1v-1h-1v1l-1-1v1h1-1v1h1-1 1l1 1v-1Z" opacity=".2"/><path fill="#fff" d="M148 154v-1 1Zm2-1h-1 1Zm-2 0h-1 1Zm-1 1Zm2-1Zm-1 3Zm1-1Zm1-1Zm-2 1Z"/><path fill="#b57ded" d="m268 98 3-2c1-2 0-4-1-5s-1 1-1 1l-1-1-2 2c-1 4 1 5 1 5h1Z"/><path fill="#fff" d="m268 98 3-2c1-2 0-4-1-5s-1 1-1 1l-1-1-2 2c-1 4 1 5 1 5h1Z" opacity=".4"/><path fill="#b57ded" d="m268 99 3-3c2-1 4 0 4 1v1l1 1-2 2-6-2Z"/><path fill="#fff" d="m268 99 3-3c2-1 4 0 4 1v1l1 1-2 2-6-2Z" opacity=".4"/><path fill="#b57ded" d="M267 98s-4 1-5 4c-1 2 0 2 1 2l1 1 1 1 2-2c2-2 1-5 1-5l-1-1Z"/><path fill="#fff" d="M267 98s-4 1-5 4c-1 2 0 2 1 2l1 1 1 1 2-2c2-2 1-5 1-5l-1-1Z" opacity=".4"/><path fill="#b57ded" d="M270 99a2 2 0 1 1-3-1 2 2 0 0 1 3 1Z"/><path fill="#fff" d="M270 99a2 2 0 1 1-3-1 2 2 0 0 1 3 1Z" opacity=".4"/><path fill="#b57ded" d="M269 99s4 1 4 3v3h-1l-1 1c-1 0-2 0-3-2v-5h1Zm-1-1-3-3c-2-1-4 0-5 1l1 1-1 1 2 2 5-1 1-1Z"/><path fill="#fff" d="m268 98-3-3c-2-1-4 0-5 1l1 1-1 1 2 2 5-1 1-1Zm1 1s4 1 4 3v3h-1l-1 1c-1 0-2 0-3-2v-5h1Z" opacity=".4"/><path d="M269 99h2-2l1-1h1-3v-2 1l-1 1-1-1v1l1 1h-2 2l-1 1h2v1h1v-1l1 1v-1l-1-1Z" opacity=".2"/><path fill="#b57ded" d="m305 137 3-2c1-2 0-4-1-5l-1 1-1-1-2 2c-1 4 1 5 1 5h1Z"/><path fill="#fff" d="m305 137 3-2c1-2 0-4-1-5l-1 1-1-1-2 2c-1 4 1 5 1 5h1Z" opacity=".4"/><path fill="#b57ded" d="m305 138 3-3c2-1 4 0 4 1v1l1 1-2 2-6-2Z"/><path fill="#fff" d="m305 138 3-3c2-1 4 0 4 1v1l1 1-2 2-6-2Z" opacity=".4"/><path fill="#b57ded" d="M304 137s-4 1-5 4c-1 2 0 2 1 2l1 1 1 1 2-2c2-2 1-5 1-5l-1-1Z"/><path fill="#fff" d="M304 137s-4 1-5 4c-1 2 0 2 1 2l1 1 1 1 2-2c2-2 1-5 1-5l-1-1Z" opacity=".4"/><path fill="#b57ded" d="M307 138a2 2 0 1 1-3-1 2 2 0 0 1 3 1Z"/><path fill="#fff" d="M307 138a2 2 0 1 1-3-1 2 2 0 0 1 3 1Z" opacity=".4"/><path fill="#b57ded" d="M306 138s4 1 4 3v3h-1l-1 1c-1 0-2 0-3-2v-5h1Zm-1-1-3-3c-2-1-4 0-5 1l1 1-1 1 2 2 5-1 1-1Z"/><path fill="#fff" d="m305 137-3-3c-2-1-4 0-5 1l1 1-1 1 2 2 5-1 1-1Zm1 1s4 1 4 3v3h-1l-1 1c-1 0-2 0-3-2v-5h1Z" opacity=".4"/><path d="M306 138h2-2l1-1h1-3v-2 1l-1 1-1-1v1l1 1h-2 2l-1 1h2v1h1v-1l1 1v-1l-1-1Z" opacity=".2"/><path fill="#b57ded" d="m256 133 3-3-2-5h-2l-2 2c-1 4 2 6 2 6h1Z"/><path fill="#fff" d="m256 133 3-3-2-5h-2l-2 2c-1 4 2 6 2 6h1Z" opacity=".4"/><path fill="#b57ded" d="m256 133 3-3c2-1 4 0 5 1l-1 1 1 1-2 2c-1 1-6-1-6-1v-1Z"/><path fill="#fff" d="m256 133 3-3c2-1 4 0 5 1l-1 1 1 1-2 2c-1 1-6-1-6-1v-1Z" opacity=".4"/><path fill="#b57ded" d="M254 133s-4 0-5 3 0 3 1 3h1l1 2 3-3v-5h-1Z"/><path fill="#fff" d="M254 133s-4 0-5 3 0 3 1 3h1l1 2 3-3v-5h-1Z" opacity=".4"/><path fill="#b57ded" d="M257 133a2 2 0 1 1-3-1 2 2 0 0 1 3 1Z"/><path fill="#fff" d="M257 133a2 2 0 1 1-3-1 2 2 0 0 1 3 1Z" opacity=".4"/><path fill="#b57ded" d="M256 133s5 1 5 4v3h-1l-2 1-3-2v-5l1-1Zm-1-1-3-3c-2-1-4 0-5 1l1 1-1 1 2 3c1 1 6-2 6-2v-1Z"/><path fill="#fff" d="m255 132-3-3c-2-1-4 0-5 1l1 1-1 1 2 3c1 1 6-2 6-2v-1Zm1 1s5 1 5 4v3h-1l-2 1-3-2v-5l1-1Z" opacity=".4"/><path d="m257 134 2-1h-2l1-1h-2v-1h-1v1h-2l2 1h-2v1h2l-1 1c-1 0 0 0 0 0l1-1a21093 21093 0 0 0 2 0Z" opacity=".2"/><path fill="#fff" d="M255 132Zm2-1Zm-3 0Zm0 2h-1 1Zm3-3h-1 1Zm-2 5Zm2 0Zm1-2Zm-3 1h-1 1Z"/><path fill="#b57ded" d="m373 193 3-3c1-2 0-4-1-4h-2l-2 1c-1 4 1 6 1 6h1Z"/><path fill="#fff" d="m373 193 3-3c1-2 0-4-1-4h-2l-2 1c-1 4 1 6 1 6h1Z" opacity=".4"/><path fill="#b57ded" d="m373 193 3-3 5 1-1 2 1 1-2 1c-1 1-5-1-6-1v-1Z"/><path fill="#fff" d="m373 193 3-3 5 1-1 2 1 1-2 1c-1 1-5-1-6-1v-1Z" opacity=".4"/><path fill="#b57ded" d="M372 193s-4 0-5 3 0 3 1 3h1l1 1 3-2v-5h-1Z"/><path fill="#fff" d="M372 193s-4 0-5 3 0 3 1 3h1l1 1 3-2v-5h-1Z" opacity=".4"/><path fill="#b57ded" d="M375 193a2 2 0 1 1-3 0 2 2 0 0 1 3 0Z"/><path fill="#fff" d="M375 193a2 2 0 1 1-3 0 2 2 0 0 1 3 0Z" opacity=".4"/><path fill="#b57ded" d="M374 194s4 0 4 3v3h-1l-1 1-3-2v-5h1Zm-1-1-3-3c-2-1-4 0-4 1v1l-1 1 2 2c1 1 5-2 6-2Z"/><path fill="#fff" d="m373 193-3-3c-2-1-4 0-4 1v1l-1 1 2 2c1 1 5-2 6-2Zm1 1s4 0 4 3v3h-1l-1 1-3-2v-5h1Z" opacity=".4"/><path d="M374 194h2l-2-1 2-1h-1l-2 1v-2 1h-2l1 1h-1v1c-1 0-1 0 0 0h1l-1 1h1l1-1v1h1v-1Z" opacity=".2"/><path fill="#fff" d="M373 192h-1 1Zm2 0h-1 1Zm-3 0-1-1 1 1Zm-1 1Zm3-2Zm-1 4Zm1 0Zm1-2Zm-3 1Z"/><path fill="#b57ded" d="m380 166 3-2-1-5-2 1v-1l-2 2c-1 4 1 5 1 5h1Z"/><path fill="#fff" d="m380 166 3-2-1-5-2 1v-1l-2 2c-1 4 1 5 1 5h1Z" opacity=".4"/><path fill="#b57ded" d="m380 166 3-2c2-1 4 0 4 1v1l1 1-2 2-6-2v-1Z"/><path fill="#fff" d="m380 166 3-2c2-1 4 0 4 1v1l1 1-2 2-6-2v-1Z" opacity=".4"/><path fill="#b57ded" d="M379 166s-4 1-5 3 0 3 1 3h1s-1 2 1 2l2-2 1-5-1-1Z"/><path fill="#fff" d="M379 166s-4 1-5 3 0 3 1 3h1s-1 2 1 2l2-2 1-5-1-1Z" opacity=".4"/><path fill="#b57ded" d="M382 167a2 2 0 1 1-3-1 2 2 0 0 1 3 1Z"/><path fill="#fff" d="M382 167a2 2 0 1 1-3-1 2 2 0 0 1 3 1Z" opacity=".4"/><path fill="#b57ded" d="M381 167s4 1 4 3v3h-1l-1 1-3-2v-5h1Zm-2-1-2-3c-2-1-4 0-5 1l1 1-1 1 2 2 5-1v-1Z"/><path fill="#fff" d="m379 166-2-3c-2-1-4 0-5 1l1 1-1 1 2 2 5-1v-1Zm2 1s4 1 4 3v3h-1l-1 1-3-2v-5h1Z" opacity=".4"/><path d="M381 167h2-2l1-1v-1l-2 1v-2 1l-1 1-1-1v1l1 1h-2 2l-1 1h2v1l1-1 1 1v-1c0-1 0 0 0 0l-1-1Z" opacity=".2"/><path fill="#fff" d="M380 165h-1 1Zm1 0Zm-2 0h-1 1Zm-1 1Zm3-2Zm-1 5h-1 1Zm1 0v-1 1Zm1-3Zm-3 2Z"/><path fill="#b57ded" d="m189 108 3-3c1-1 0-4-1-4h-2l-2 2c-1 3 1 5 1 5h1Z"/><path fill="#fff" d="m189 108 3-3c1-1 0-4-1-4h-2l-2 2c-1 3 1 5 1 5h1Z" opacity=".4"/><path fill="#b57ded" d="m189 108 3-2h5l-1 2 1 1-2 2-6-2v-1Z"/><path fill="#fff" d="m189 108 3-2h5l-1 2 1 1-2 2-6-2v-1Z" opacity=".4"/><path fill="#b57ded" d="M188 108s-4 1-5 3c-1 3 0 3 1 3h1l1 1 3-2v-5h-1Z"/><path fill="#fff" d="M188 108s-4 1-5 3c-1 3 0 3 1 3h1l1 1 3-2v-5h-1Z" opacity=".4"/><path fill="#b57ded" d="M191 108a2 2 0 1 1-3 0 2 2 0 0 1 3 0Z"/><path fill="#fff" d="M191 108a2 2 0 1 1-3 0 2 2 0 0 1 3 0Z" opacity=".4"/><path fill="#b57ded" d="M190 109s4 0 4 3v3h-1l-1 1-3-2v-5h1Zm-1-1-3-3c-2-1-4 0-5 1s1 1 1 1l-1 1 2 2 5-2h1Z"/><path fill="#fff" d="m189 108-3-3c-2-1-4 0-5 1s1 1 1 1l-1 1 2 2 5-2h1Zm1 1s4 0 4 3v3h-1l-1 1-3-2v-5h1Z" opacity=".4"/><path d="M190 109h2l-2-1 2-1h-1l-2 1v-2 1l-1 1-1-1v1h1l-1 1h-1 1a8321 8321 0 0 1 2 0v2l1-1v-1l1 1-1-1Z" opacity=".2"/><path fill="#fff" d="M189 107h-1 1Zm2 0h-1 1Zm-3 0h-1 1Zm-1 1Zm3-2Zm-1 4h-1 1Zm1 0Zm1-2Zm-3 2Z"/><path fill="#b57ded" d="m254 79 2-2v-3h-2l-2 1c0 3 2 4 2 4Z"/><path fill="#fff" d="m254 79 2-2v-3h-2l-2 1c0 3 2 4 2 4Z" opacity=".4"/><path fill="#b57ded" d="m254 79 2-2 4 1v2l-1 1-4-1-1-1Z"/><path fill="#fff" d="m254 79 2-2 4 1v2l-1 1-4-1-1-1Z" opacity=".4"/><path fill="#b57ded" d="M253 79s-2 0-3 3v2h1l1 1 2-2v-4h-1Z"/><path fill="#fff" d="M253 79s-2 0-3 3v2h1l1 1 2-2v-4h-1Z" opacity=".4"/><path fill="#b57ded" d="M256 79a1 1 0 1 1-3 0 1 1 0 0 1 3 0Z"/><path fill="#fff" d="M256 79a1 1 0 1 1-3 0 1 1 0 0 1 3 0Z" opacity=".4"/><path fill="#b57ded" d="M255 80s3 0 3 2v2h-1l-1 1-2-1v-4h1Zm-1-1-2-2h-3v1l-1 1 2 1 4-1Z"/><path fill="#fff" d="m254 79-2-2h-3v1l-1 1 2 1 4-1Zm1 1s3 0 3 2v2h-1l-1 1-2-1v-4h1Z" opacity=".4"/><path d="M255 80h2l-2-1h1v-1l-2 1v-1 1l-1-1v1h1-1l-1 1h2-1v1l1-1v1h1v-1 1h1l-1-1Z" opacity=".2"/><path fill="#fff" d="M254 78Zm1 0Zm-2 0Zm0 1Zm2-1Zm-1 3Zm1 0Zm1-2Zm-2 1h-1 1Z"/><path fill="#b57ded" d="m243 82 1-1v-3h-2l-1 1c-1 2 1 3 1 3h1Z"/><path fill="#fff" d="m243 82 1-1v-3h-2l-1 1c-1 2 1 3 1 3h1Z" opacity=".4"/><path fill="#b57ded" d="m243 82 1-1h3v1l1 1-2 1-3-1v-1Z"/><path fill="#fff" d="m243 82 1-1h3v1l1 1-2 1-3-1v-1Z" opacity=".4"/><path fill="#b57ded" d="m242 82-3 2v2h1v1l2-1v-4Z"/><path fill="#fff" d="m242 82-3 2v2h1v1l2-1v-4Z" opacity=".4"/><path fill="#b57ded" d="M244 83a1 1 0 1 1-2-1 1 1 0 0 1 2 1Z"/><path fill="#fff" d="M244 83a1 1 0 1 1-2-1 1 1 0 0 1 2 1Z" opacity=".4"/><path fill="#b57ded" d="M243 83s3 0 3 2v2h-2l-1-1v-3s-1 0 0 0Zm-1-1-1-2-3 1v1l1 1h3v-1Z"/><path fill="#fff" d="m242 82-1-2-3 1v1l1 1h3v-1Zm1 1s3 0 3 2v2h-2l-1-1v-3s-1 0 0 0Z" opacity=".4"/><path d="M243 83h2-2l1-1h-1v-1h-1v1h-1 1l-1 1h1-1l1 1v-1l1 1v-1Z" opacity=".2"/><path fill="#fff" d="M242 82Zm2 0h-1 1Zm-2-1Zm-1 1Zm2-1Zm-1 3Zm1 0Zm1-2Zm-2 1Z"/><path fill="#b57ded" d="m302 93 2-2-1-3-1 1v-1l-1 1c-1 3 1 4 1 4Z"/><path fill="#fff" d="m302 93 2-2-1-3-1 1v-1l-1 1c-1 3 1 4 1 4Z" opacity=".4"/><path fill="#b57ded" d="m302 93 2-2 3 1v1l-1 1c-1 1-4-1-4-1Z"/><path fill="#fff" d="m302 93 2-2 3 1v1l-1 1c-1 1-4-1-4-1Z" opacity=".4"/><path fill="#b57ded" d="M301 93s-2 0-3 2l1 2h1l2-1v-3h-1Z"/><path fill="#fff" d="M301 93s-2 0-3 2l1 2h1l2-1v-3h-1Z" opacity=".4"/><path fill="#b57ded" d="M303 93a1 1 0 1 1-2 0 1 1 0 0 1 2 0Z"/><path fill="#fff" d="M303 93a1 1 0 1 1-2 0 1 1 0 0 1 2 0Z" opacity=".4"/><path fill="#b57ded" d="m303 93 3 2-1 2-1 1-2-1v-4h1Zm-1 0-2-2h-3l1 1-1 1 1 1 4-1Z"/><path fill="#fff" d="m302 93-2-2h-3l1 1-1 1 1 1 4-1Zm1 0 3 2-1 2-1 1-2-1v-4h1Z" opacity=".4"/><path d="M303 93h1-1l1-1-2 1v-1 1l-1-1 1 1h-2l1 1 1-1-1 1h2v-1Z" opacity=".2"/><path fill="#fff" d="M302 92Zm1 0Zm-2 0Zm0 1Zm2-1Zm-1 2Zm1 0Zm0-1Zm-1 1h-1 1Z"/><path fill="#b57ded" d="m346 131 2-2-1-3-1 1v-1l-2 1 1 4h1Z"/><path fill="#fff" d="m346 131 2-2-1-3-1 1v-1l-2 1 1 4h1Z" opacity=".4"/><path fill="#b57ded" d="m346 131 2-2 3 1-1 1h1l-1 2-4-1v-1Z"/><path fill="#fff" d="m346 131 2-2 3 1-1 1h1l-1 2-4-1v-1Z" opacity=".4"/><path fill="#b57ded" d="M345 131s-2 0-3 2v2h1l1 1 1-2 1-3h-1Z"/><path fill="#fff" d="M345 131s-2 0-3 2v2h1l1 1 1-2 1-3h-1Z" opacity=".4"/><path fill="#b57ded" d="M347 131a1 1 0 1 1-2 0 1 1 0 0 1 2 0Z"/><path fill="#fff" d="M347 131a1 1 0 1 1-2 0 1 1 0 0 1 2 0Z" opacity=".4"/><path fill="#b57ded" d="M346 131s3 1 3 3v1h-1v1l-2-1v-4Zm0 0-2-2h-3v2l1 1 3-1h1Z"/><path fill="#fff" d="m346 131-2-2h-3v2l1 1 3-1h1Zm0 0s3 1 3 3v1h-1v1l-2-1v-4Z" opacity=".4"/><path d="m347 132 1-1h-2v-1l-1 1v-1h-1l1 1h-1v1h2v1-1h1Z" opacity=".2"/><path fill="#fff" d="M346 130h-1 1Zm1 0Zm-2 0Zm0 1h-1 1Zm2-1h-1 1Zm-1 2h-1 1Zm1 0Zm0-1Zm-2 1Z"/><path fill="#b57ded" d="m358 129 1-1-1-2v1l-1-1v3h1Z"/><path fill="#fff" d="m358 129 1-1-1-2v1l-1-1v3h1Z" opacity=".4"/><path fill="#b57ded" d="m358 129 1-1 2 1v1h-3v-1Z"/><path fill="#fff" d="m358 129 1-1 2 1v1h-3v-1Z" opacity=".4"/><path fill="#b57ded" d="m357 129-2 2v1h2v-3s1 0 0 0Z"/><path fill="#fff" d="m357 129-2 2v1h2v-3s1 0 0 0Z" opacity=".4"/><path fill="#b57ded" d="M358 130a1 1 0 1 1-1-1 1 1 0 0 1 1 1Z"/><path fill="#fff" d="M358 130a1 1 0 1 1-1-1 1 1 0 0 1 1 1Z" opacity=".4"/><path fill="#b57ded" d="m358 130 2 1v1h-1v1l-1-1v-2Zm-1-1-1-1h-2l1 1h-1l1 1h2v-1Z"/><path fill="#fff" d="m357 129-1-1h-2l1 1h-1l1 1h2v-1Zm1 1 2 1v1h-1v1l-1-1v-2Z" opacity=".4"/><path d="M358 130h1-1l1-1h-2c1 0 0 0 0 0v1c-1 0 0 0 0 0h1Z" opacity=".2"/><path fill="#fff" d="M358 129h-1 1Zm0 0Zm-1 0Zm0 0Zm1 0Zm0 1h-1 1Zm0 0Zm1-1h-1 1Zm-2 1Z"/><path fill="#b57ded" d="m345 147 1-1v-2h-2c-1 2 1 3 1 3Z"/><path fill="#fff" d="m345 147 1-1v-2h-2c-1 2 1 3 1 3Z" opacity=".4"/><path fill="#b57ded" d="m345 147 1-1h2v1l-1 1-2-1Z"/><path fill="#fff" d="m345 147 1-1h2v1l-1 1-2-1Z" opacity=".4"/><path fill="#b57ded" d="m344 147-2 1 1 1v1l2-1v-2h-1Z"/><path fill="#fff" d="m344 147-2 1 1 1v1l2-1v-2h-1Z" opacity=".4"/><path fill="#b57ded" d="M346 147a1 1 0 1 1-2-1 1 1 0 0 1 2 1Z"/><path fill="#fff" d="M346 147a1 1 0 1 1-2-1 1 1 0 0 1 2 1Z" opacity=".4"/><path fill="#b57ded" d="m345 147 2 1v2h-1s1 0 0 0l-1-1v-2Zm0 0-1-2-2 1v1h3Z"/><path fill="#fff" d="m345 147-1-2-2 1v1h3Zm0 0 2 1v2h-1s1 0 0 0l-1-1v-2Z" opacity=".4"/><path d="M345 147h1-1l1-1-1 1v-1h-1l1 1h-1 1-1v1l1-1v1-1l1 1v-1h-1Z" opacity=".2"/><path fill="#fff" d="M345 146Zm1 0h-1 1Zm-2 0Zm0 1Zm1-1Zm0 2Zm0 0Zm1-1Zm-1 0h-1 1Z"/><path fill="#b57ded" d="m384 183 1-1v-2h-1l-1 1 1 2Z"/><path fill="#fff" d="m384 183 1-1v-2h-1l-1 1 1 2Z" opacity=".4"/><path fill="#b57ded" d="m384 183 1-1h2v1l-1 1-2-1Z"/><path fill="#fff" d="m384 183 1-1h2v1l-1 1-2-1Z" opacity=".4"/><path fill="#b57ded" d="m383 183-1 1v1c1 0 0 0 0 0l1 1 1-1v-2h-1Z"/><path fill="#fff" d="m383 183-1 1v1c1 0 0 0 0 0l1 1 1-1v-2h-1Z" opacity=".4"/><path fill="#b57ded" d="M385 183a1 1 0 1 1-2 0 1 1 0 0 1 2 0Z"/><path fill="#fff" d="M385 183a1 1 0 1 1-2 0 1 1 0 0 1 2 0Z" opacity=".4"/><path fill="#b57ded" d="m384 183 2 2v1h-1l-1-1v-2Zm0 0-1-1h-2v2l3-1Z"/><path fill="#fff" d="m384 183-1-1h-2v2l3-1Zm0 0 2 2v1h-1l-1-1v-2Z" opacity=".4"/><path d="M384 183h1-1 1v-1l-1 1v-1 1l-1-1v1h1-1 1l-1 1 1-1v1-1l1 1-1-1Z" opacity=".2"/><path fill="#fff" d="M384 182Zm1 0h-1 1Zm-1 0h-1 1Zm-1 1Zm1-1Zm0 2Zm1 0h-1 1Zm0-1Zm-1 0Z"/><path fill="#b57ded" d="m374 446-3-3-6-3-11-1-6-3-7-2-9 1h-8l-4-5-2-2-5-4s-5-2-10-1l-7 1-7-3s-2-3-8-5h-6l-8 2-3 3-3 4v3l-3 5h-7l-9 15 136 2-4-4Z"/><path fill="#b57ded" d="m283 439 1-3c0-2-2-3-3-3v1h-1l-1 2c1 3 4 3 4 3Z"/><path fill="#fff" d="m283 439 1-3c0-2-2-3-3-3v1h-1l-1 2c1 3 4 3 4 3Z" opacity=".4"/><path fill="#b57ded" d="M284 439v-3c1-2 3-2 4-2v1l1 1v2l-5 1Z"/><path fill="#fff" d="M284 439v-3c1-2 3-2 4-2v1l1 1v2l-5 1Z" opacity=".4"/><path fill="#b57ded" d="M283 440s-3 2-2 4l2 2v-1h2v-2c1-2-1-4-2-4v1Z"/><path fill="#fff" d="M283 440s-3 2-2 4l2 2v-1h2v-2c1-2-1-4-2-4v1Z" opacity=".4"/><path fill="#b57ded" d="M285 438a1 1 0 1 1-3 1 1 1 0 0 1 3-1Z"/><path fill="#fff" d="M285 438a1 1 0 1 1-3 1 1 1 0 0 1 3-1Z" opacity=".4"/><path fill="#b57ded" d="M284 439h5l1 2-1 1v1h-3l-2-3v-1Zm-1 0-3-1c-2 0-3 2-3 3l1 1v1h2l3-4c0-1 0 0 0 0Z"/><path fill="#fff" d="m283 439-3-1c-2 0-3 2-3 3l1 1v1h2l3-4c0-1 0 0 0 0Zm1 0h5l1 2-1 1v1h-3l-2-3v-1Z" opacity=".4"/><path d="m285 439 1-1-2 1a7156 7156 0 0 0-1 0v-1h-1l1 1h-2l1 1h1-1v1l1-1v1l1-1h1s0 1 0 0l-1-1 1 1h1v-1h-1Z" opacity=".2"/><path fill="#fff" d="M283 439Zm1-2v1-1Zm-2 2Zm0 1Zm1-3Zm1 4Zm1-1Zm0-2Zm-2 2Z"/><path fill="#b57ded" d="m325 439-1-3-4-1v1h-1l1 3c2 2 4 1 4 1l1-1Z"/><path fill="#fff" d="m325 439-1-3-4-1v1h-1l1 3c2 2 4 1 4 1l1-1Z" opacity=".4"/><path fill="#b57ded" d="m325 439-1-3c0-1 2-3 3-2h1l1 3-4 3v-1Z"/><path fill="#fff" d="m325 439-1-3c0-1 2-3 3-2h1l1 3-4 3v-1Z" opacity=".4"/><path fill="#b57ded" d="M324 440v5l2 1 1-1h1v-3l-3-2h-1Z"/><path fill="#fff" d="M324 440v5l2 1 1-1h1v-3l-3-2h-1Z" opacity=".4"/><path fill="#b57ded" d="M326 438a1 1 0 1 1-2 2 1 1 0 0 1 2-2Z"/><path fill="#fff" d="M326 438a1 1 0 1 1-2 2 1 1 0 0 1 2-2Z" opacity=".4"/><path fill="#b57ded" d="M325 439s3-2 5-1l2 1-1 1v1l-2 1-4-2v-1Zm-1 1h-3l-2 4h2v1h2l2-5h-1Z"/><path fill="#fff" d="M324 440h-3l-2 4h2v1h2l2-5h-1Zm1-1s3-2 5-1l2 1-1 1v1l-2 1-4-2v-1Z" opacity=".4"/><path d="M326 439v-1l-1 1v-2l-1 2h-1l1 1h-1v1l1-1v2l1-2v1c0 1 0 1 0 0v-1h1c1 0 0 0 0 0v-1h1-1Z" opacity=".2"/><path fill="#fff" d="M324 439Zm1-1h-1 1Zm-2 2Zm1 1Zm0-3h-1 1Zm2 3Zm1-1Zm-1-2h-1 1Zm-1 3Z"/><path fill="#b57ded" d="m296 442 1-1v-2h-1l-1 1c-1 2 1 2 1 2Z"/><path fill="#fff" d="m296 442 1-1v-2h-1l-1 1c-1 2 1 2 1 2Z" opacity=".4"/><path fill="#b57ded" d="m296 443 1-2 2 1v2l-3-1Z"/><path fill="#fff" d="m296 443 1-2 2 1v2l-3-1Z" opacity=".4"/><path fill="#b57ded" d="m295 442-2 2v1h1v1l2-1v-2l-1-1Z"/><path fill="#fff" d="m295 442-2 2v1h1v1l2-1v-2l-1-1Z" opacity=".4"/><path fill="#b57ded" d="M297 443a1 1 0 1 1-2-1 1 1 0 0 1 2 1Z"/><path fill="#fff" d="M297 443a1 1 0 1 1-2-1 1 1 0 0 1 2 1Z" opacity=".4"/><path fill="#b57ded" d="m296 443 2 1v2h-1l-1-1v-2Zm0-1-1-1h-3l1 1h-1l1 1h3v-1Z"/><path fill="#fff" d="m296 442-1-1h-3l1 1h-1l1 1h3v-1Zm0 1 2 1v2h-1l-1-1v-2Z" opacity=".4"/><path d="M296 443h1-1l1-1h-2l1 1h-1a1710 1710 0 0 0 1 0h1-1Z" opacity=".2"/><path fill="#fff" d="M296 442Zm1 0h-1 1Zm-2 0Zm0 0Zm1 0v-1 1Zm0 1Zm1 0h-1 1Zm0-1Zm-1 1h-1 1Z"/><path fill="#b57ded" d="m338 442 1-1-1-2h-1v3h1Z"/><path fill="#fff" d="m338 442 1-1-1-2h-1v3h1Z" opacity=".4"/><path fill="#b57ded" d="m338 442 1-1h2v1l-1 1h-2v-1Z"/><path fill="#fff" d="m338 442 1-1h2v1l-1 1h-2v-1Z" opacity=".4"/><path fill="#b57ded" d="m337 442-2 2v1h1s0 1 0 0h1v-3s1 0 0 0Z"/><path fill="#fff" d="m337 442-2 2v1h1s0 1 0 0h1v-3s1 0 0 0Z" opacity=".4"/><path fill="#b57ded" d="M338 442a1 1 0 1 1-1 0 1 1 0 0 1 1 0Z"/><path fill="#fff" d="M338 442a1 1 0 1 1-1 0 1 1 0 0 1 1 0Z" opacity=".4"/><path fill="#b57ded" d="m338 443 2 1v1h-1v1l-1-1v-2s0-1 0 0Zm-1-1-1-1h-2v1l1 1 2-1Z"/><path fill="#fff" d="m337 442-1-1h-2v1l1 1 2-1Zm1 1 2 1v1h-1v1l-1-1v-2s0-1 0 0Z" opacity=".4"/><path d="M338 443h1l-1-1h1-1v-1h-1v1l-1 1h1a949 949 0 0 1 1 0Z" opacity=".2"/><path fill="#fff" d="M337 442Zm1 0Zm-1 0Zm0 0Zm1-1Zm-1 2Zm1 0Zm1-1h-1 1Zm-2 1Z"/><path fill="#b57ded" d="m279 423 1-1v-1h-1l-1 1 1 1Z"/><path fill="#fff" d="m279 423 1-1v-1h-1l-1 1 1 1Z" opacity=".4"/><path fill="#b57ded" d="m279 423 1-1 1 1v1h-2v-1Z"/><path fill="#fff" d="m279 423 1-1 1 1v1h-2v-1Z" opacity=".4"/><path fill="#b57ded" d="m279 423-2 1v1h2v-2Z"/><path fill="#fff" d="m279 423-2 1v1h2v-2Z" opacity=".4"/><path fill="#b57ded" d="M280 423h-1 1Z"/><path fill="#fff" d="M280 423h-1 1Z" opacity=".4"/><path fill="#b57ded" d="m279 423 2 1v1h-1v1l-1-1v-2Zm0 0-1-1-1 1v1l2-1Z"/><path fill="#fff" d="m279 423-1-1-1 1v1l2-1Zm0 0 2 1v1h-1v1l-1-1v-2Z" opacity=".4"/><path d="m279 424 1-1h-1 1-2 1-1v1h2-1Z" opacity=".2"/><path fill="#fff" d="M279 423Zm1 0h-1 1Zm-1 0Zm0 0h-1 1Zm0 0Zm0 1Zm0 0Zm1-1Zm-1 1Z"/><path fill="#b57ded" d="M314 431v-2h-1v2h1Z"/><path fill="#fff" d="M314 431v-2h-1v2h1Z" opacity=".4"/><path fill="#b57ded" d="M314 431v-1l2 1-1 1h-1v-1Z"/><path fill="#fff" d="M314 431v-1l2 1-1 1h-1v-1Z" opacity=".4"/><path fill="#b57ded" d="m313 431-1 1v1h1v-2Z"/><path fill="#fff" d="m313 431-1 1v1h1v-2Z" opacity=".4"/><path fill="#b57ded" d="M314 431h-1 1Z"/><path fill="#fff" d="M314 431h-1 1Z" opacity=".4"/><path fill="#b57ded" d="m314 431 1 1v1l-1 1v-3Zm-1 0v-1l-2 1c0 1 0 0 0 0l1 1 1-1Z"/><path fill="#fff" d="M313 431v-1l-2 1c0 1 0 0 0 0l1 1 1-1Zm1 0 1 1v1l-1 1v-3Z" opacity=".4"/><path d="M314 432v-1h-1v1a332 332 0 0 0 1 0Z" opacity=".2"/><path fill="#fff" d="M313 431Zm1 0Zm-1 0Zm0 0Zm1 0Zm-1 1Zm1 0Zm0-1Zm-1 1Z"/><path fill="#b57ded" d="m298 428 3-3c1-2 0-5-1-6l-2 1-1-1c-1 0-2 1-2 3-2 4 2 6 2 6h1Z"/><path fill="#fff" d="m298 428 3-3c1-2 0-5-1-6l-2 1-1-1c-1 0-2 1-2 3-2 4 2 6 2 6h1Z" opacity=".4"/><path fill="#b57ded" d="m298 428 3-3c2-1 5 0 6 1l-1 2 1 1-2 2-7-2v-1Z"/><path fill="#fff" d="m298 428 3-3c2-1 5 0 6 1l-1 2 1 1-2 2-7-2v-1Z" opacity=".4"/><path fill="#b57ded" d="M296 428s-5 1-6 4 0 4 1 4h1l1 1 4-2v-7h-1Z"/><path fill="#fff" d="M296 428s-5 1-6 4 0 4 1 4h1l1 1 4-2v-7h-1Z" opacity=".4"/><path fill="#b57ded" d="M299 429a2 2 0 1 1-3-1 2 2 0 0 1 3 1Z"/><path fill="#fff" d="M299 429a2 2 0 1 1-3-1 2 2 0 0 1 3 1Z" opacity=".4"/><path fill="#b57ded" d="M299 429s4 1 5 4 0 4-1 4h-1l-1 1c-2 0-2-1-4-3v-6h2Zm-2-1-3-4c-2-1-5 0-6 1l1 2-1 1 2 2 7-1v-1Z"/><path fill="#fff" d="m297 428-3-4c-2-1-5 0-6 1l1 2-1 1 2 2 7-1v-1Zm2 1s4 1 5 4 0 4-1 4h-1l-1 1c-2 0-2-1-4-3v-6h2Z" opacity=".4"/><path d="M299 429h2-2l1-2h1-1l-2 1v-2h-1v2l-2-1 1 2h-2 2l-1 1 1 1 1-1a10885 10885 0 0 1 1 0l1 1h1v-1l-1-1Z" opacity=".2"/><path fill="#fff" d="M297 427Zm2 0Zm-3-1h-1 1Zm-1 2Zm4-2h-1 1Zm-2 5Zm2 0Zm1-3Zm-4 2Z"/><path fill="#b57ded" d="M314 201c0 2-9 6-9 6l-11 2h-17l-9-7-1-5 3-6-9-7-12-4c-6-6-2-7-8-9l-11 11-13 6h-18l-6-5 7-12s2-4 8-8c6-3 38-11 38-11l19-3 27 10 22 42Zm40 106-9 3-2-3-4-6-3-3h-4l-5 2h-4l-1-2h-6l-5-1v-3l3-5s1-3 4-3l11-2 14 2 7 4 4 6v11Zm-29-23 1-2v-3l-1 1-1-1-1 1c-1 3 1 4 1 4h1Z"/><path fill="#fff" d="m325 284 1-2v-3l-1 1-1-1-1 1c-1 3 1 4 1 4h1Z" opacity=".4"/><path fill="#b57ded" d="m325 284 1-2 3 1v1h1l-2 2-3-1v-1Z"/><path fill="#fff" d="m325 284 1-2 3 1v1h1l-2 2-3-1v-1Z" opacity=".4"/><path fill="#b57ded" d="M324 284s-3 0-3 2v2h1v1l2-1v-4Z"/><path fill="#fff" d="M324 284s-3 0-3 2v2h1v1l2-1v-4Z" opacity=".4"/><path fill="#b57ded" d="M326 284a1 1 0 1 1-2 0 1 1 0 0 1 2 0Z"/><path fill="#fff" d="M326 284a1 1 0 1 1-2 0 1 1 0 0 1 2 0Z" opacity=".4"/><path fill="#b57ded" d="M325 285s3 0 3 2v2h-2l-1-1v-3s-1-1 0 0Zm-1-1-1-2h-3v1l-1 1 1 1 4-1Z"/><path fill="#fff" d="m324 284-1-2h-3v1l-1 1 1 1 4-1Zm1 1s3 0 3 2v2h-2l-1-1v-3s-1-1 0 0Z" opacity=".4"/><path d="M325 285h2l-2-1h1-1v-1h-1v1l-1-1v1h1-1v1h1-1 1l1 1v-1Z" opacity=".2"/><path fill="#fff" d="M324 284v-1 1Zm2-1h-1 1Zm-2 0h-1 1Zm-1 1Zm2-1Zm-1 3Zm1 0Zm1-2Zm-2 1Z"/><path fill="#b57ded" d="m323 223 1-2v-3l-1 1-1-1-1 1c-1 3 1 4 1 4h1Z"/><path fill="#fff" d="m323 223 1-2v-3l-1 1-1-1-1 1c-1 3 1 4 1 4h1Z" opacity=".4"/><path fill="#b57ded" d="m323 223 2-2c2-1 2 0 3 1l-1 1h1l-1 2-4-1v-1Z"/><path fill="#fff" d="m323 223 2-2c2-1 2 0 3 1l-1 1h1l-1 2-4-1v-1Z" opacity=".4"/><path fill="#b57ded" d="M322 223s-3 0-3 2v2h1v1l2-2v-3s1 0 0 0Z"/><path fill="#fff" d="M322 223s-3 0-3 2v2h1v1l2-2v-3s1 0 0 0Z" opacity=".4"/><path fill="#b57ded" d="M324 223a1 1 0 1 1-2 0 1 1 0 0 1 2 0Z"/><path fill="#fff" d="M324 223a1 1 0 1 1-2 0 1 1 0 0 1 2 0Z" opacity=".4"/><path fill="#b57ded" d="M323 224s3 0 3 2v2h-2l-1-1v-3s0-1 0 0Zm-1-1-1-2h-3v1l-1 1 2 1 3-1Z"/><path fill="#fff" d="m322 223-1-2h-3v1l-1 1 2 1 3-1Zm1 1s3 0 3 2v2h-2l-1-1v-3s0-1 0 0Z" opacity=".4"/><path d="m323 224 2-1h-2 1v-1l-1 1v-1h-1v1l-1-1v1h1-1v1h1c-1 0 0 1 0 0l1 1v-1h1v1-1h-1Z" opacity=".2"/><path fill="#fff" d="M322 223v-1 1Zm2-1h-1 1Zm-2 0Zm0 1h-1 1Zm1-1Zm-1 3Zm2 0-1-1 1 1Zm0-2Zm-2 1Z"/><path fill="#b57ded" d="m270 197 1-2v-3h-2l-1 1c-1 3 1 4 1 4h1Z"/><path fill="#fff" d="m270 197 1-2v-3h-2l-1 1c-1 3 1 4 1 4h1Z" opacity=".4"/><path fill="#b57ded" d="m270 197 2-2 3 1h-1l1 1-2 1-3-1Z"/><path fill="#fff" d="m270 197 2-2 3 1h-1l1 1-2 1-3-1Z" opacity=".4"/><path fill="#b57ded" d="M269 197s-3 0-3 2v2h1l2-1v-3Z"/><path fill="#fff" d="M269 197s-3 0-3 2v2h1l2-1v-3Z" opacity=".4"/><path fill="#b57ded" d="M271 197a1 1 0 1 1-2-1 1 1 0 0 1 2 1Z"/><path fill="#fff" d="M271 197a1 1 0 1 1-2-1 1 1 0 0 1 2 1Z" opacity=".4"/><path fill="#b57ded" d="M270 197s3 0 3 2v2h-1l-1 1-1-2v-3Zm-1-1-1-1h-3v1h-1l2 2 3-1v-1Z"/><path fill="#fff" d="m269 196-1-1h-3v1h-1l2 2 3-1v-1Zm1 1s3 0 3 2v2h-1l-1 1-1-2v-3Z" opacity=".4"/><path d="M270 197h2-2l1-1h-1v-1h-1v1h-1l1 1h-1 1v1c-1 0 0 0 0 0v-1l1 1v-1l1 1-1-1Z" opacity=".2"/><path fill="#fff" d="M269 196Zm2 0h-1 1Zm-2 0Zm-1 1Zm2-2Zm-1 3Zm2 0h-1 1Zm0-1Zm-2 1Z"/><path fill="#b57ded" d="m202 167 1-1v-3h-2l-1 1 1 3h1Z"/><path fill="#fff" d="m202 167 1-1v-3h-2l-1 1 1 3h1Z" opacity=".4"/><path fill="#b57ded" d="m202 167 1-1h3v2l-1 1-3-1v-1Z"/><path fill="#fff" d="m202 167 1-1h3v2l-1 1-3-1v-1Z" opacity=".4"/><path fill="#b57ded" d="M201 167s-2 0-3 2l1 2h1l1-1v-3Z"/><path fill="#fff" d="M201 167s-2 0-3 2l1 2h1l1-1v-3Z" opacity=".4"/><path fill="#b57ded" d="M203 167a1 1 0 1 1-2 0 1 1 0 0 1 2 0Z"/><path fill="#fff" d="M203 167a1 1 0 1 1-2 0 1 1 0 0 1 2 0Z" opacity=".4"/><path fill="#b57ded" d="m202 168 3 1-1 2-1 1-1-1v-3s0-1 0 0Zm-1-1-1-2-3 1 1 1h-1l1 1 3-1Z"/><path fill="#fff" d="m201 167-1-2-3 1 1 1h-1l1 1 3-1Zm1 1 3 1-1 2-1 1-1-1v-3s0-1 0 0Z" opacity=".4"/><path d="M202 168h1l-1-1v-1h-1v1h-1 1-1v1h1l1 1v-1h1c0 1 0 0 0 0h-1Z" opacity=".2"/><path fill="#fff" d="M201 167Zm1 0Zm-1-1Zm0 1h-1 1Zm1-1Zm-1 3Zm1-1Zm1-1Zm-2 1Z"/><path fill="#b57ded" d="m258 151 1-1v-2h-1l-1 1 1 2Z"/><path fill="#fff" d="m258 151 1-1v-2h-1l-1 1 1 2Z" opacity=".4"/><path fill="#b57ded" d="m258 151 1-1h2l-1 1h1l-1 1-2-1Z"/><path fill="#fff" d="m258 151 1-1h2l-1 1h1l-1 1-2-1Z" opacity=".4"/><path fill="#b57ded" d="m257 151-1 1v1h2v-2h-1Z"/><path fill="#fff" d="m257 151-1 1v1h2v-2h-1Z" opacity=".4"/><path fill="#b57ded" d="M259 151a1 1 0 1 1-2 0 1 1 0 0 1 2 0Z"/><path fill="#fff" d="M259 151a1 1 0 1 1-2 0 1 1 0 0 1 2 0Z" opacity=".4"/><path fill="#b57ded" d="m258 151 2 1v1h-1v1l-1-1v-2Zm0 0-1-1h-2c0 1 0 0 0 0v1h3Z"/><path fill="#fff" d="m258 151-1-1h-2c0 1 0 0 0 0v1h3Zm0 0 2 1v1h-1v1l-1-1v-2Z" opacity=".4"/><path d="M258 151h1-1l1-1-1 1v-1 1l-1-1 1 1h-1a1062 1062 0 0 1 1 0v1-1 1l1-1h-1Z" opacity=".2"/><path fill="#fff" d="M258 150Zm0 0Zm-1 0Zm0 1Zm1-1Zm0 2Zm0 0v-1 1Zm1-1Zm-1 0h-1 1Z"/><path fill="#b57ded" d="m234 158 1-1v-2h-1l-1 1 1 2Z"/><path fill="#fff" d="m234 158 1-1v-2h-1l-1 1 1 2Z" opacity=".4"/><path fill="#b57ded" d="m234 158 1-1h2v1l-1 1-2-1Z"/><path fill="#fff" d="m234 158 1-1h2v1l-1 1-2-1Z" opacity=".4"/><path fill="#b57ded" d="m233 158-1 1v1h2v-2h-1Z"/><path fill="#fff" d="m233 158-1 1v1h2v-2h-1Z" opacity=".4"/><path fill="#b57ded" d="M235 158a1 1 0 1 1-2 0 1 1 0 0 1 2 0Z"/><path fill="#fff" d="M235 158a1 1 0 1 1-2 0 1 1 0 0 1 2 0Z" opacity=".4"/><path fill="#b57ded" d="m234 158 2 1v1h-1v1l-1-1v-2Zm0 0-1-1h-2v1h3Z"/><path fill="#fff" d="m234 158-1-1h-2v1h3Zm0 0 2 1v1h-1v1l-1-1v-2Z" opacity=".4"/><path d="M234 158h1-1 1v-1l-1 1v-1 1l-1-1v1h1-1 1-1v1l1-1v1-1l1 1v-1h-1Z" opacity=".2"/><path fill="#fff" d="M234 157Zm1 0h-1 1Zm-1 0h-1 1Zm-1 1Zm1-1Zm0 2Zm0 0Zm1-1Zm-1 0Z"/><path fill="#b57ded" d="m281 174 1-1v-2h-1v3Z"/><path fill="#fff" d="m281 174 1-1v-2h-1v3Z" opacity=".4"/><path fill="#b57ded" d="m282 174 1-1h1v2l-2-1Z"/><path fill="#fff" d="m282 174 1-1h1v2l-2-1Z" opacity=".4"/><path fill="#b57ded" d="m281 174-2 1v1h2v-2Z"/><path fill="#fff" d="m281 174-2 1v1h2v-2Z" opacity=".4"/><path fill="#b57ded" d="M282 174a1 1 0 1 1-1 0 1 1 0 0 1 1 0Z"/><path fill="#fff" d="M282 174a1 1 0 1 1-1 0 1 1 0 0 1 1 0Z" opacity=".4"/><path fill="#b57ded" d="m282 174 1 1v1l-1 1-1-1v-2h1Zm-1 0-1-1h-1v1h2Z"/><path fill="#fff" d="m281 174-1-1h-1v1h2Zm1 0 1 1v1l-1 1-1-1v-2h1Z" opacity=".4"/><path d="M282 174h1-1v-1 1l-1-1v1-1 1h-1 1v1-1 1h1v-1Z" opacity=".2"/><path fill="#fff" d="M281 173Zm1 0Zm-1 0Zm0 1Zm1-1Zm-1 2Zm1 0Zm0-1Zm-1 0Z"/><path fill="#b57ded" d="m286 204 1-1-1-1h-1v2h1Z"/><path fill="#fff" d="m286 204 1-1-1-1h-1v2h1Z" opacity=".4"/><path fill="#b57ded" d="m286 204 1-1 1 1c1 0 0 0 0 0h1l-1 1h-2v-1Z"/><path fill="#fff" d="m286 204 1-1 1 1c1 0 0 0 0 0h1l-1 1h-2v-1Z" opacity=".4"/><path fill="#b57ded" d="m285 204-1 1v2l1-1 1-2h-1Z"/><path fill="#fff" d="m285 204-1 1v2l1-1 1-2h-1Z" opacity=".4"/><path fill="#b57ded" d="M286 204a1 1 0 1 1-1 0 1 1 0 0 1 1 0Z"/><path fill="#fff" d="M286 204a1 1 0 1 1-1 0 1 1 0 0 1 1 0Z" opacity=".4"/><path fill="#b57ded" d="m286 205 2 1-1 1-1-1v-1s0-1 0 0Zm-1-1v-1h-2v2l2-1Z"/><path fill="#fff" d="M285 204v-1h-2v2l2-1Zm1 1 2 1-1 1-1-1v-1s0-1 0 0Z" opacity=".4"/><path d="M286 205h1l-1-1h1-1c-1 0 0 0 0 0h-1v1a1138 1138 0 0 0 1 0Z" opacity=".2"/><path fill="#fff" d="M286 204h-1 1Zm0 0Zm-1 0Zm0 0Zm1 0Zm0 1h-1 1Zm0 0Zm0-1Zm-1 1Z"/><path fill="#b57ded" d="m294 169 3-3c1-2 0-4-1-4h-1l-1-1-2 2c-1 4 2 6 2 6Z"/><path fill="#fff" d="m294 169 3-3c1-2 0-4-1-4h-1l-1-1-2 2c-1 4 2 6 2 6Z" opacity=".4"/><path fill="#b57ded" d="m295 169 2-3c2-1 4 0 5 1l-1 1 1 1-2 2-5-1v-1Z"/><path fill="#fff" d="m295 169 2-3c2-1 4 0 5 1l-1 1 1 1-2 2-5-1v-1Z" opacity=".4"/><path fill="#b57ded" d="M293 169s-4 0-4 3v3h1l1 1 3-2v-5h-1Z"/><path fill="#fff" d="M293 169s-4 0-4 3v3h1l1 1 3-2v-5h-1Z" opacity=".4"/><path fill="#b57ded" d="M296 169a2 2 0 1 1-3-1 2 2 0 0 1 3 1Z"/><path fill="#fff" d="M296 169a2 2 0 1 1-3-1 2 2 0 0 1 3 1Z" opacity=".4"/><path fill="#b57ded" d="M295 169s4 1 5 4l-1 3h-1l-1 1-3-2v-5l1-1Zm-1-1-3-3-4 1v1l-1 1 2 2c1 1 6-1 6-1v-1Z"/><path fill="#fff" d="m294 168-3-3-4 1v1l-1 1 2 2c1 1 6-1 6-1v-1Zm1 1s4 1 5 4l-1 3h-1l-1 1-3-2v-5l1-1Z" opacity=".4"/><path d="m296 170 1-1h-2l2-1h-2l-1-1v1h-2l2 1h-2v1h1v1l1-1 1 1v-1l1 1v-1Z" opacity=".2"/><path fill="#fff" d="M294 168Zm2 0-1-1 1 1Zm-3-1Zm0 2h-1 1Zm2-2Zm-1 4Zm2 0h-1 1Zm0-2Zm-3 1Z"/><path d="m161 175 21 11 12 5 13-1 14-3 7-4 1-2 13-3 7 2 12 4 9 2 7 2 7-2h7l10 4 7-7v-4l-6 4-11-2-9 2h-10l-5-6 2-2-2-5-5-5-6-1-5 6-7 2c-7-3-9-2-9-2l-4 4-7 5v4l-7-1c-2 1-13 1-14-1l-5-6-8 1 2 5h-10l-9-3-4-3h-8Z" opacity=".2"/><path d="m265 185-5 19h-4l5-20 4 1Zm-27 243 15 20h5l-20-20Z" opacity=".2"/><path fill="#263238" d="m347 306-28 19-18 3-11 22-29 29-11 36 17 33h-43l-7-65v-39l-21-26-24-30 6-7 16 19 6-23 5-2-4 34 8 14 9 8 4-57 11-51-13-37 7-4 11 24s3-1 4-5l12-35 11 3-20 80v7l10-11 3-3 20-31 7 4-22 36-10 9-14 28-1 84 5 14 4-6 2-12 31-22 15-26 23-24 6 1-19 20 4 2 13-6 23-14 2 7Z"/><path d="m245 391 3 18-10-37 7 19zm-21-12v15l17 28-13-29-4-14z" opacity=".3"/><path d="m220 412 21 28-20-21-1-7zm21-8-11-30-13-20v-5l14 23 10 32z" opacity=".2"/><path d="m217 344 10 12-10-10v-2z" opacity=".3"/><path d="m238 357-11-23-8-11v-3l10 14 9 23Zm-7-47-2-27-1 28a88 88 0 0 0 6 17l-3-18Zm-45-20 13 28-5-19-8-9Zm94 56 15-20-11 20-24 14 20-14Z" opacity=".2"/><path fill="#b57ded" d="m123 448 28-7 4-3 8 1s2-6 4-6l8-3c3-3 5-6 7-5 0 0 10 1 11 3l10 5h9v2l7 4 10 3 8 1 9 5H123Z"/><path fill="#b57ded" d="m205 437 2-2v-3h-2l-1 1c-1 3 1 4 1 4Z"/><path fill="#fff" d="m205 437 2-2v-3h-2l-1 1c-1 3 1 4 1 4Z" opacity=".4"/><path fill="#b57ded" d="m206 437 1-2 4 1-1 1h1l-1 2-4-1v-1Z"/><path fill="#fff" d="m206 437 1-2 4 1-1 1h1l-1 2-4-1v-1Z" opacity=".4"/><path fill="#b57ded" d="M204 437s-2 0-3 2v3h2l2-1v-4h-1Z"/><path fill="#fff" d="M204 437s-2 0-3 2v3h2l2-1v-4h-1Z" opacity=".4"/><path fill="#b57ded" d="M207 437a1 1 0 1 1-3 0 1 1 0 0 1 3 0Z"/><path fill="#fff" d="M207 437a1 1 0 1 1-3 0 1 1 0 0 1 3 0Z" opacity=".4"/><path fill="#b57ded" d="M206 438s3 0 3 2v2h-1l-1 1-2-2v-3h1Zm-1-1-2-2h-3v1l-1 1 2 1 4-1Z"/><path fill="#fff" d="m205 437-2-2h-3v1l-1 1 2 1 4-1Zm1 1s3 0 3 2v2h-1l-1 1-2-2v-3h1Z" opacity=".4"/><path d="M206 438h2l-2-1h1v-1l-1 1-1-1v1l-1-1v1h1-1l-1 1h2-1v1l1-1v1h1v-1Z" opacity=".2"/><path fill="#fff" d="M205 436Zm1 0Zm-2 0Zm0 1Zm2-1v-1 1Zm-1 3Zm1 0Zm1-2Zm-2 1h-1 1Z"/><path fill="#b57ded" d="m152 438 3 1 2-2-1-1v-1h-2c-2 1-2 3-2 3Z"/><path fill="#fff" d="m152 438 3 1 2-2-1-1v-1h-2c-2 1-2 3-2 3Z" opacity=".4"/><path fill="#b57ded" d="M152 439h3c2 1 1 3 1 3l-1 1h-2l-2-4h1Z"/><path fill="#fff" d="M152 439h3c2 1 1 3 1 3l-1 1h-2l-2-4h1Z" opacity=".4"/><path fill="#b57ded" d="M151 438s-1-3-3-2l-2 1v2l2 1 4-2h-1Z"/><path fill="#fff" d="M151 438s-1-3-3-2l-2 1v2l2 1 4-2h-1Z" opacity=".4"/><path fill="#b57ded" d="M152 440a1 1 0 1 1-1-3 1 1 0 0 1 1 3Z"/><path fill="#fff" d="M152 440a1 1 0 1 1-1-3 1 1 0 0 1 1 3Z" opacity=".4"/><path fill="#b57ded" d="M152 439s1 3-1 4l-2 1-1-1v-2l3-2h1Zm0-1 1-3-3-2h-1l-1 2 3 3h1Z"/><path fill="#fff" d="m152 438 1-3-3-2h-1l-1 2 3 3h1Zm0 1s1 3-1 4l-2 1-1-1v-2l3-2h1Z" opacity=".4"/><path d="m152 439 1 2-1-2 1 1-1-2h1v-1 1h-1v-1h-1v1-1h-1l1 1h-1l1 1h-1v1h1v-1 1l1-1Z" opacity=".2"/><path fill="#fff" d="M152 438Zm1 1Zm-1-2Zm-1 0Zm3 1h-1 1Zm-4 1Zm1 1Zm2 0Zm-2-2h-1 1Z"/><path fill="#b57ded" d="m177 435 1-2c0-2-1-3-2-3h-1l-1 2c0 3 2 3 2 3h1Z"/><path fill="#fff" d="m177 435 1-2c0-2-1-3-2-3h-1l-1 2c0 3 2 3 2 3h1Z" opacity=".4"/><path fill="#b57ded" d="m177 435 1-2 4-1v2l-1 2h-4v-1Z"/><path fill="#fff" d="m177 435 1-2 4-1v2l-1 2h-4v-1Z" opacity=".4"/><path fill="#b57ded" d="M176 435s-3 2-3 4l1 2h2l2-2c1-1-1-3-1-4h-1Z"/><path fill="#fff" d="M176 435s-3 2-3 4l1 2h2l2-2c1-1-1-3-1-4h-1Z" opacity=".4"/><path fill="#b57ded" d="M178 435a1 1 0 1 1-2 0 1 1 0 0 1 2 0Z"/><path fill="#fff" d="M178 435a1 1 0 1 1-2 0 1 1 0 0 1 2 0Z" opacity=".4"/><path fill="#b57ded" d="M178 435s2 0 3 2c2 1 1 2 1 2h-1v1l-3-1-1-3 1-1Zm-2 0-2-1c-2-1-3 1-3 1v2l2 1 3-2v-1Z"/><path fill="#fff" d="m176 435-2-1c-2-1-3 1-3 1v2l2 1 3-2v-1Zm2 0s2 0 3 2c2 1 1 2 1 2h-1v1l-3-1-1-3 1-1Z" opacity=".4"/><path d="M178 435h1-1v-1l-1 1-1-1v1h-1l1 1h-1s0 1 0 0h1v1l1-1v1h1v-1a3193 3193 0 0 1 0-1Z" opacity=".2"/><path fill="#fff" d="M176 435Zm2-1h-1 1Zm-2 0h-1 1Zm-1 2Zm2-3Zm0 4Zm1-1Zm0-1Zm-2 1Z"/><path fill="#b57ded" d="m215 443 2-1-1-3v1l-1-1-1 1 1 3Z"/><path fill="#fff" d="m215 443 2-1-1-3v1l-1-1-1 1 1 3Z" opacity=".4"/><path fill="#b57ded" d="m216 443 1-1h2v1l-1 1-2-1Z"/><path fill="#fff" d="m216 443 1-1h2v1l-1 1-2-1Z" opacity=".4"/><path fill="#b57ded" d="m215 443-2 1v2h1l1-1v-2Z"/><path fill="#fff" d="m215 443-2 1v2h1l1-1v-2Z" opacity=".4"/><path fill="#b57ded" d="M216 443a1 1 0 1 1-1 0 1 1 0 0 1 1 0Z"/><path fill="#fff" d="M216 443a1 1 0 1 1-1 0 1 1 0 0 1 1 0Z" opacity=".4"/><path fill="#b57ded" d="m216 443 2 2v1h-1v1l-2-1v-3h1Zm-1 0-1-2-2 1v1l1 1 2-1Z"/><path fill="#fff" d="m215 443-1-2-2 1v1l1 1 2-1Zm1 0 2 2v1h-1v1l-2-1v-3h1Z" opacity=".4"/><path d="M216 443h1-1l-1-1v1-1h-1v1h1-1a1936 1936 0 0 0 1 0l1 1v-1 1-1Z" opacity=".2"/><path fill="#fff" d="M215 442Zm1 0Zm-1 0Zm0 1h-1 1Zm1-1Zm-1 2Zm1 0Zm0-1Zm-1 1v-1 1Z"/><path fill="#b57ded" d="m191 442 1-1v-2h-2l1 3Z"/><path fill="#fff" d="m191 442 1-1v-2h-2l1 3Z" opacity=".4"/><path fill="#b57ded" d="m191 442 1-1h2v1l-1 1-2-1Z"/><path fill="#fff" d="m191 442 1-1h2v1l-1 1-2-1Z" opacity=".4"/><path fill="#b57ded" d="m190 442-1 1v1h2v-2h-1Z"/><path fill="#fff" d="m190 442-1 1v1h2v-2h-1Z" opacity=".4"/><path fill="#b57ded" d="M192 442a1 1 0 1 1-2-1 1 1 0 0 1 2 1Z"/><path fill="#fff" d="M192 442a1 1 0 1 1-2-1 1 1 0 0 1 2 1Z" opacity=".4"/><path fill="#b57ded" d="m191 442 2 1v1h-1v1l-1-1v-2Zm0-1-1-1-2 1c0 1 0 0 0 0l1 1h2v-1Z"/><path fill="#fff" d="m191 441-1-1-2 1c0 1 0 0 0 0l1 1h2v-1Zm0 1 2 1v1h-1v1l-1-1v-2Z" opacity=".4"/><path d="M191 442h1-1l1-1h-2l1 1h-1 1-1 1v1-1Z" opacity=".2"/><path fill="#fff" d="M191 441Zm0 0Zm-1 0Zm0 1Zm1-1Zm0 1Zm0 0Zm1 0Zm-1 0h-1 1Z"/><path fill="#b57ded" d="m216 435 1-1c1-1-1-1-1-1h-1v2h1Z"/><path fill="#fff" d="m216 435 1-1c1-1-1-1-1-1h-1v2h1Z" opacity=".4"/><path fill="#b57ded" d="m216 435 1-1c1-1 1 0 1 1v1h-2v-1Z"/><path fill="#fff" d="m216 435 1-1c1-1 1 0 1 1v1h-2v-1Z" opacity=".4"/><path fill="#b57ded" d="m215 435-2 2v1h1l1-1v-2Z"/><path fill="#fff" d="m215 435-2 2v1h1l1-1v-2Z" opacity=".4"/><path fill="#b57ded" d="M216 435a1 1 0 1 1-1 0 1 1 0 0 1 1 0Z"/><path fill="#fff" d="M216 435a1 1 0 1 1-1 0 1 1 0 0 1 1 0Z" opacity=".4"/><path fill="#b57ded" d="m216 436 2 1-1 1h-2l1-2s-1 0 0 0Zm-1-1-1-1h-1v2h2v-1Z"/><path fill="#fff" d="m215 435-1-1h-1v2h2v-1Zm1 1 2 1-1 1h-2l1-2s-1 0 0 0Z" opacity=".4"/><path d="M216 436h1-1v-1h-1v1c-1 0-1 0 0 0h1Z" opacity=".2"/><path fill="#fff" d="M215 435Zm1 0Zm-1 0Zm0 0Zm1 0Zm-1 1Zm1 0Zm0-1Zm-1 1Z"/><path fill="#b57ded" d="m160 441 2-1c1-1-1-1-1-2v1l-1-1v3Z"/><path fill="#fff" d="m160 441 2-1c1-1-1-1-1-2v1l-1-1v3Z" opacity=".4"/><path fill="#b57ded" d="m161 441 1-1 1 1v1h-2v-1Z"/><path fill="#fff" d="m161 441 1-1 1 1v1h-2v-1Z" opacity=".4"/><path fill="#b57ded" d="m160 441-2 1v1l1 1 1-1v-2Z"/><path fill="#fff" d="m160 441-2 1v1l1 1 1-1v-2Z" opacity=".4"/><path fill="#b57ded" d="M161 441a1 1 0 1 1-1 0 1 1 0 0 1 1 0Z"/><path fill="#fff" d="M161 441a1 1 0 1 1-1 0 1 1 0 0 1 1 0Z" opacity=".4"/><path fill="#b57ded" d="m161 441 1 2v1c-1 0 0 0 0 0l-2-1v-1l1-1Zm-1 0-1-1h-1v1h-1l1 1 2-1Z"/><path fill="#fff" d="m160 441-1-1h-1v1h-1l1 1 2-1Zm1 0 1 2v1c-1 0 0 0 0 0l-2-1v-1l1-1Z" opacity=".4"/><path d="m161 442 1-1h-1l-1-1v1h-1l1 1h1Z" opacity=".2"/><path fill="#fff" d="M160 441Zm1 0Zm-1 0Zm0 0Zm1-1Zm-1 2Zm1 0Zm0-1Zm-1 1Z"/><path fill="#b57ded" d="m190 431 1-1-1-3v1l-1-1-1 1 1 3h1Z"/><path fill="#fff" d="m190 431 1-1-1-3v1l-1-1-1 1 1 3h1Z" opacity=".4"/><path fill="#b57ded" d="m190 431 1-1h2v1l-1 1-2-1Z"/><path fill="#fff" d="m190 431 1-1h2v1l-1 1-2-1Z" opacity=".4"/><path fill="#b57ded" d="m189 431-2 1v2h1s-1 0 0 0l1-1v-2s1 0 0 0Z"/><path fill="#fff" d="m189 431-2 1v2h1s-1 0 0 0l1-1v-2s1 0 0 0Z" opacity=".4"/><path fill="#b57ded" d="M190 431a1 1 0 1 1-1 0 1 1 0 0 1 1 0Z"/><path fill="#fff" d="M190 431a1 1 0 1 1-1 0 1 1 0 0 1 1 0Z" opacity=".4"/><path fill="#b57ded" d="m190 431 2 2v1h-1v1l-1-1v-3Zm-1 0-1-2c-1-1-2 0-2 1v1l1 1 2-1Z"/><path fill="#fff" d="m189 431-1-2c-1-1-2 0-2 1v1l1 1 2-1Zm1 0 2 2v1h-1v1l-1-1v-3Z" opacity=".4"/><path d="M190 431h1-1 1v-1l-1 1v-1h-1v1-1 1h-1 1v1l1-1v1-1 1h1l-1-1Z" opacity=".2"/><path fill="#fff" d="M189 430Zm1 0Zm-1 0Zm0 1Zm1-1Zm-1 2Zm1 0Zm1-1Zm-2 1Z"/><path fill="#b57ded" d="m224 232 16 23h-4l-5 9-9 10h-16l-13 7h-15l-8 11h-10l-18 2-15-3-12 3c-8-6-6-9-11-10l-14-2-11 1-7 6s-12 3-14 0c-3-3-8-8-6-12s4-3 5-9c0-6 5-13 5-13l6-5 7-6s-6-3-7-9c0-6-1-9 1-10l12-8h26l14-8c9-3 12-3 15-3h10l10 5s15 5 16 1c1-3 4-7 6-6 10 2 10 4 13 5l11 5 3 5 1 4 10 3 8 4Z"/><path fill="#b57ded" d="m98 230 3-3c1-2 0-4-1-5l-1 1-1-1-2 2c-1 4 2 5 2 5v1Z"/><path fill="#fff" d="m98 230 3-3c1-2 0-4-1-5l-1 1-1-1-2 2c-1 4 2 5 2 5v1Z" opacity=".4"/><path fill="#b57ded" d="m99 230 2-3c2-1 5 0 5 1l-1 1 1 1-2 2-5-2Z"/><path fill="#fff" d="m99 230 2-3c2-1 5 0 5 1l-1 1 1 1-2 2-5-2Z" opacity=".4"/><path fill="#b57ded" d="M97 230s-4 0-4 3v3h1l1 1 3-2v-5h-1Z"/><path fill="#fff" d="M97 230s-4 0-4 3v3h1l1 1 3-2v-5h-1Z" opacity=".4"/><path fill="#b57ded" d="M100 230a2 2 0 1 1-3-1 2 2 0 0 1 3 1Z"/><path fill="#fff" d="M100 230a2 2 0 1 1-3-1 2 2 0 0 1 3 1Z" opacity=".4"/><path fill="#b57ded" d="M99 230s4 1 5 3l-1 3h-1s0 2-1 1l-3-2v-5h1Zm-1-1-3-3c-1-1-4 0-4 1v1l-1 1 2 2 6-1v-1Z"/><path fill="#fff" d="m98 229-3-3c-1-1-4 0-4 1v1l-1 1 2 2 6-1v-1Zm1 1s4 1 5 3l-1 3h-1s0 2-1 1l-3-2v-5h1Z" opacity=".4"/><path d="M100 230h1-2l2-1h-2l-1-1s0-1 0 0v1l-1-1-1 1 2 1h-2v1l2-1-1 1v1l1-1 1 1v-1a7795 7795 0 0 1 1-1Z" opacity=".2"/><path fill="#fff" d="M98 229Zm2-1h-1 1Zm-3 0Zm0 1h-1 1Zm2-2Zm-1 5Zm2 0h-1 1Zm1-2h-1 1Zm-3 1h-1 1Z"/><path fill="#b57ded" d="m137 258 3-2-1-5-2 1-1-1-2 2c-1 3 2 5 2 5h1Z"/><path fill="#fff" d="m137 258 3-2-1-5-2 1-1-1-2 2c-1 3 2 5 2 5h1Z" opacity=".4"/><path fill="#b57ded" d="m137 258 3-2c2-1 4 0 4 1v2l-1 2-6-2v-1Z"/><path fill="#fff" d="m137 258 3-2c2-1 4 0 4 1v2l-1 2-6-2v-1Z" opacity=".4"/><path fill="#b57ded" d="M136 258s-4 1-5 3v3h1l1 1c1 0 2 0 3-2v-5s1 0 0 0Z"/><path fill="#fff" d="M136 258s-4 1-5 3v3h1l1 1c1 0 2 0 3-2v-5s1 0 0 0Z" opacity=".4"/><path fill="#b57ded" d="M138 258a2 2 0 1 1-3 0 2 2 0 0 1 3 0Z"/><path fill="#fff" d="M138 258a2 2 0 1 1-3 0 2 2 0 0 1 3 0Z" opacity=".4"/><path fill="#b57ded" d="M138 259s3 0 4 3v3h-2s1 1-1 1-1-1-2-2v-5h1Zm-2-1-2-3c-2-1-4 0-5 1s1 1 1 1l-1 1 2 2 5-1v-1Z"/><path fill="#fff" d="m136 258-2-3c-2-1-4 0-5 1s1 1 1 1l-1 1 2 2 5-1v-1Zm2 1s3 0 4 3v3h-2s1 1-1 1-1-1-2-2v-5h1Z" opacity=".4"/><path d="M138 259h2l-2-1h1v-1l-2 1v-2h-1v2l-1-1v1h1l-1 1h-1 2l-1 1 1-1 1 1v1-1l1-1Z" opacity=".2"/><path fill="#fff" d="M136 257Zm2 0Zm-2 0h-1 1Zm-1 1Zm3-2Zm-2 5v-1 1Zm2-1Zm1-2Zm-3 2Z"/><path fill="#b57ded" d="m181 243 2-2c1-1 0-3-1-3h-1s0-1 0 0l-2 1c-1 3 1 4 1 4h1Z"/><path fill="#fff" d="m181 243 2-2c1-1 0-3-1-3h-1s0-1 0 0l-2 1c-1 3 1 4 1 4h1Z" opacity=".4"/><path fill="#b57ded" d="m181 243 2-2c2-1 3 0 4 1l-1 1h1l-2 2-4-1v-1Z"/><path fill="#fff" d="m181 243 2-2c2-1 3 0 4 1l-1 1h1l-2 2-4-1v-1Z" opacity=".4"/><path fill="#b57ded" d="M180 243s-3 0-3 2v3h1s0 1 0 0l3-1v-4h-1Z"/><path fill="#fff" d="M180 243s-3 0-3 2v3h1s0 1 0 0l3-1v-4h-1Z" opacity=".4"/><path fill="#b57ded" d="M182 243a1 1 0 1 1-2 0 1 1 0 0 1 2 0Z"/><path fill="#fff" d="M182 243a1 1 0 1 1-2 0 1 1 0 0 1 2 0Z" opacity=".4"/><path fill="#b57ded" d="M182 244s2 0 3 2v2h-1l-1 1-2-2v-3h1Zm-1-1-2-2h-4l1 1-1 1 1 1c1 1 4-1 4-1h1Z"/><path fill="#fff" d="m181 243-2-2h-4l1 1-1 1 1 1c1 1 4-1 4-1h1Zm1 1s2 0 3 2v2h-1l-1 1-2-2v-3h1Z" opacity=".4"/><path d="M182 244h1l-1-1h1v-1l-2 1v-1l-1 1v-1h-1v1h1-1v1h1v1l1-1v1l1-1Z" opacity=".2"/><path fill="#fff" d="M181 242h-1 1Zm1 0Zm-2 0Zm0 1h-1 1Zm2-1v-1 1Zm-1 3h-1 1Zm1 0Zm1-2h-1 1Zm-3 1Z"/><path fill="#b57ded" d="m115 233 2-2v-3h-2l-1 1c-1 3 1 4 1 4Z"/><path fill="#fff" d="m115 233 2-2v-3h-2l-1 1c-1 3 1 4 1 4Z" opacity=".4"/><path fill="#b57ded" d="m116 233 2-2 3 1v1l-1 2-4-1v-1Z"/><path fill="#fff" d="m116 233 2-2 3 1v1l-1 2-4-1v-1Z" opacity=".4"/><path fill="#b57ded" d="M114 233s-2 0-3 2v3h2l2-1v-4h-1Z"/><path fill="#fff" d="M114 233s-2 0-3 2v3h2l2-1v-4h-1Z" opacity=".4"/><path fill="#b57ded" d="M117 233a1 1 0 1 1-3 0 1 1 0 0 1 3 0Z"/><path fill="#fff" d="M117 233a1 1 0 1 1-3 0 1 1 0 0 1 3 0Z" opacity=".4"/><path fill="#b57ded" d="M116 234s3 0 3 2v2h-1l-1 1-2-2v-3h1Zm-1-1-2-2h-3v1l-1 1 2 1c1 1 4-1 4-1Z"/><path fill="#fff" d="m115 233-2-2h-3v1l-1 1 2 1c1 1 4-1 4-1Zm1 1s3 0 3 2v2h-1l-1 1-2-2v-3h1Z" opacity=".4"/><path d="M116 234h2l-2-1h1v-1l-1 1-1-1v1l-1-1v1h1-1l-1 1h1a4406 4406 0 0 1 1 0v1h1v-1l1 1v-1h-1Z" opacity=".2"/><path fill="#fff" d="M115 232Zm2 0h-1 1Zm-2 0h-1 1Zm-1 1Zm2-1v-1 1Zm-1 3Zm1 0Zm1-2Zm-2 1Z"/><path fill="#b57ded" d="m117 258 2-2v-3h-2l-2 1c0 3 2 4 2 4Z"/><path fill="#fff" d="m117 258 2-2v-3h-2l-2 1c0 3 2 4 2 4Z" opacity=".4"/><path fill="#b57ded" d="m117 258 2-2 4 1v2l-1 1-4-1-1-1Z"/><path fill="#fff" d="m117 258 2-2 4 1v2l-1 1-4-1-1-1Z" opacity=".4"/><path fill="#b57ded" d="m116 258-3 3v2h1l1 1 2-2v-4h-1Z"/><path fill="#fff" d="m116 258-3 3v2h1l1 1 2-2v-4h-1Z" opacity=".4"/><path fill="#b57ded" d="M119 259a1 1 0 1 1-3-1 1 1 0 0 1 3 1Z"/><path fill="#fff" d="M119 259a1 1 0 1 1-3-1 1 1 0 0 1 3 1Z" opacity=".4"/><path fill="#b57ded" d="M118 259s3 0 3 2v3h-2l-2-1v-4h1Zm-1-1-2-2h-3v1l-1 1 2 2 4-1v-1Z"/><path fill="#fff" d="m117 258-2-2h-3v1l-1 1 2 2 4-1v-1Zm1 1s3 0 3 2v3h-2l-2-1v-4h1Z" opacity=".4"/><path d="M118 259h2-2l1-1h-2v-1 1h-1 1l-1 1h-1 2l-1 1 1-1v1h1v-1 1h1l-1-1Z" opacity=".2"/><path fill="#fff" d="M117 258Zm1-1Zm-2 0Zm0 1Zm2-1Zm-1 3Zm1 0Zm1-2Zm-2 1h-1 1Z"/><path fill="#b57ded" d="m195 236 1-2v-2h-1l-1-1-1 1 1 4h1Z"/><path fill="#fff" d="m195 236 1-2v-2h-1l-1-1-1 1 1 4h1Z" opacity=".4"/><path fill="#b57ded" d="m195 236 1-2c1-1 3 0 3 1v1l-1 1-3-1Z"/><path fill="#fff" d="m195 236 1-2c1-1 3 0 3 1v1l-1 1-3-1Z" opacity=".4"/><path fill="#b57ded" d="m194 236-3 1 1 2 1 1 1-1v-3s1 0 0 0Z"/><path fill="#fff" d="m194 236-3 1 1 2 1 1 1-1v-3s1 0 0 0Z" opacity=".4"/><path fill="#b57ded" d="M196 236a1 1 0 1 1-2-1 1 1 0 0 1 2 1Z"/><path fill="#fff" d="M196 236a1 1 0 1 1-2-1 1 1 0 0 1 2 1Z" opacity=".4"/><path fill="#b57ded" d="M195 236s2 0 3 2l-1 2h-1l-1-1v-3Zm-1-1-1-1h-3l1 1h-1l1 2 3-1v-1Z"/><path fill="#fff" d="m194 235-1-1h-3l1 1h-1l1 2 3-1v-1Zm1 1s2 0 3 2l-1 2h-1l-1-1v-3Z" opacity=".4"/><path d="M195 236h1-1a5597 5597 0 0 0 0-1h-2l1 1h-1 1v1-1l1 1v-1 1h1l-1-1Z" opacity=".2"/><path fill="#fff" d="M194 235Zm2 0h-1 1Zm-2 0Zm0 1h-1 1Zm1-2Zm-1 3Zm1 0Zm1-1Zm-2 0Z"/><path fill="#b57ded" d="m153 245 2-2-1-2h-1l-1 1c-1 2 1 3 1 3Z"/><path fill="#fff" d="m153 245 2-2-1-2h-1l-1 1c-1 2 1 3 1 3Z" opacity=".4"/><path fill="#b57ded" d="m153 245 2-2 2 1v1h1l-1 1-4-1Z"/><path fill="#fff" d="m153 245 2-2 2 1v1h1l-1 1-4-1Z" opacity=".4"/><path fill="#b57ded" d="M153 245s-3 0-3 2v1h1v1l2-1v-3Z"/><path fill="#fff" d="M153 245s-3 0-3 2v1h1v1l2-1v-3Z" opacity=".4"/><path fill="#b57ded" d="M154 245a1 1 0 1 1-2 0 1 1 0 0 1 2 0Z"/><path fill="#fff" d="M154 245a1 1 0 1 1-2 0 1 1 0 0 1 2 0Z" opacity=".4"/><path fill="#b57ded" d="m154 245 2 2v2h-1l-2-1v-3h1Zm-1 0-1-2-3 1v1l1 1 3-1Z"/><path fill="#fff" d="m153 245-1-2-3 1v1l1 1 3-1Zm1 0 2 2v2h-1l-2-1v-3h1Z" opacity=".4"/><path d="M154 245h1-1 1v-1l-2 1v-1 1l-1-1v1h1-1 1l-1 1h2v-1Z" opacity=".2"/><path fill="#fff" d="M153 244Zm1 0Zm-1 0h-1 1Zm-1 1Zm2-1Zm-1 2Zm1 0Zm0-1Zm-1 1Z"/><path fill="#b57ded" d="m147 220 1-1v-3l-1 1v-1l-2 1 1 3h1Z"/><path fill="#fff" d="m147 220 1-1v-3l-1 1v-1l-2 1 1 3h1Z" opacity=".4"/><path fill="#b57ded" d="m147 220 1-1h3v2l-1 1-3-1v-1Z"/><path fill="#fff" d="m147 220 1-1h3v2l-1 1-3-1v-1Z" opacity=".4"/><path fill="#b57ded" d="m146 220-3 2 1 2h1l1-1 1-2-1-1Z"/><path fill="#fff" d="m146 220-3 2 1 2h1l1-1 1-2-1-1Z" opacity=".4"/><path fill="#b57ded" d="M148 221a1 1 0 1 1-2-1 1 1 0 0 1 2 1Z"/><path fill="#fff" d="M148 221a1 1 0 1 1-2-1 1 1 0 0 1 2 1Z" opacity=".4"/><path fill="#b57ded" d="M147 221s2 0 3 2l-1 1-1 1-1-1v-3Zm0-1-2-1h-3l1 1h-1l1 1h3l1-1Z"/><path fill="#fff" d="m147 220-2-1h-3l1 1h-1l1 1h3l1-1Zm0 1s2 0 3 2l-1 1-1 1-1-1v-3Z" opacity=".4"/><path d="M147 221h1-1l1-1h-1v-1 1h-1c-1 0 0 0 0 0v1h-1 1v1l1-1v1-1l1 1v-1h-1Z" opacity=".2"/><path fill="#fff" d="M147 220h-1 1Zm1 0h-1 1Zm-2 0Zm0 0Zm1-1Zm0 3h-1 1Zm1 0h-1 1Zm0-2Zm-2 1Z"/><path fill="#b57ded" d="m115 219 2-1-1-3v1l-1-1-1 1c-1 2 1 3 1 3Z"/><path fill="#fff" d="m115 219 2-1-1-3v1l-1-1-1 1c-1 2 1 3 1 3Z" opacity=".4"/><path fill="#b57ded" d="m115 220 2-2h3l-1 1 1 1-1 1-3-1h-1Z"/><path fill="#fff" d="m115 220 2-2h3l-1 1 1 1-1 1-3-1h-1Z" opacity=".4"/><path fill="#b57ded" d="m115 219-3 2v2h1s0 1 0 0l2-1v-3Z"/><path fill="#fff" d="m115 219-3 2v2h1s0 1 0 0l2-1v-3Z" opacity=".4"/><path fill="#b57ded" d="M116 220a1 1 0 1 1-1-1 1 1 0 0 1 1 1Z"/><path fill="#fff" d="M116 220a1 1 0 1 1-1-1 1 1 0 0 1 1 1Z" opacity=".4"/><path fill="#b57ded" d="M116 220s2 0 2 2v1h-1v1l-2-1v-3h1Zm-1-1-1-1h-3v1l1 1h3v-1Z"/><path fill="#fff" d="m115 219-1-1h-3v1l1 1h3v-1Zm1 1s2 0 2 2v1h-1v1l-2-1v-3h1Z" opacity=".4"/><path d="M116 220h1-1l1-1h-2v-1 1h-1l1 1h-1 1-1l1 1v-1a1100 1100 0 0 1 1 0Z" opacity=".2"/><path fill="#fff" d="M115 219Zm1 0Zm-1 0h-1 1Zm-1 0Zm2-1Zm-1 3Zm1 0Zm1-2h-1 1Zm-2 1Z"/><path fill="#b57ded" d="m192 255 1-1v-2h-1v3Z"/><path fill="#fff" d="m192 255 1-1v-2h-1v3Z" opacity=".4"/><path fill="#b57ded" d="m193 255 1-1h1v2l-2-1Z"/><path fill="#fff" d="m193 255 1-1h1v2l-2-1Z" opacity=".4"/><path fill="#b57ded" d="m192 255-2 1v1h1v1l1-1v-2Z"/><path fill="#fff" d="m192 255-2 1v1h1v1l1-1v-2Z" opacity=".4"/><path fill="#b57ded" d="M193 255a1 1 0 1 1-1 0 1 1 0 0 1 1 0Z"/><path fill="#fff" d="M193 255a1 1 0 1 1-1 0 1 1 0 0 1 1 0Z" opacity=".4"/><path fill="#b57ded" d="m193 255 1 1v2h-1l-1-1v-2h1Zm-1 0-1-1h-1v2l2-1Z"/><path fill="#fff" d="m192 255-1-1h-1v2l2-1Zm1 0 1 1v2h-1l-1-1v-2h1Z" opacity=".4"/><path d="M193 255h1-1l-1-1v1h-1 1v1-1l1 1v-1 1-1Z" opacity=".2"/><path fill="#fff" d="M192 255Zm1 0v-1 1Zm-1-1Zm0 1Zm1-1Zm-1 2Zm1 0Zm0-1Zm-1 0v1-1Z"/><path fill="#b57ded" d="m152 264 1-1-1-2h-1v3h1Z"/><path fill="#fff" d="m152 264 1-1-1-2h-1v3h1Z" opacity=".4"/><path fill="#b57ded" d="m152 264 1-1h1v2l-2-1Z"/><path fill="#fff" d="m152 264 1-1h1v2l-2-1Z" opacity=".4"/><path fill="#b57ded" d="m151 264-2 1v1h2v-2Z"/><path fill="#fff" d="m151 264-2 1v1h2v-2Z" opacity=".4"/><path fill="#b57ded" d="M152 264a1 1 0 1 1-1 0 1 1 0 0 1 1 0Z"/><path fill="#fff" d="M152 264a1 1 0 1 1-1 0 1 1 0 0 1 1 0Z" opacity=".4"/><path fill="#b57ded" d="m152 264 1 1v2l-2-1v-2h1Zm-1 0-1-1h-1v1h2Z"/><path fill="#fff" d="m151 264-1-1h-1v1h2Zm1 0 1 1v2l-2-1v-2h1Z" opacity=".4"/><path d="M152 264h1-1v-1 1-1h-1v1-1 1c-1 0-1 0 0 0l1 1v-1 1-1Z" opacity=".2"/><path fill="#fff" d="M151 264v-1 1Zm1-1Zm-1 0Zm0 1Zm1-1Zm-1 2Zm1 0Zm0-1Zm-1 0Z"/><path fill="#b57ded" d="m79 229 1-1v-2h-1l-1 1 1 2Z"/><path fill="#fff" d="m79 229 1-1v-2h-1l-1 1 1 2Z" opacity=".4"/><path fill="#b57ded" d="m79 229 1-1h2v2l-2-1h-1Z"/><path fill="#fff" d="m79 229 1-1h2v2l-2-1h-1Z" opacity=".4"/><path fill="#b57ded" d="m79 229-2 1v1h1s0 1 0 0h1v-2Z"/><path fill="#fff" d="m79 229-2 1v1h1s0 1 0 0h1v-2Z" opacity=".4"/><path fill="#b57ded" d="M80 229a1 1 0 1 1-1 0 1 1 0 0 1 1 0Z"/><path fill="#fff" d="M80 229a1 1 0 1 1-1 0 1 1 0 0 1 1 0Z" opacity=".4"/><path fill="#b57ded" d="m80 229 1 1v1l-1 1-1-1v-2h1Zm-1 0-1-1h-1l-1 1h3Z"/><path fill="#fff" d="m79 229-1-1h-1l-1 1h3Zm1 0 1 1v1l-1 1-1-1v-2h1Z" opacity=".4"/><path d="M80 229h-1v-1 1-1 1h-1 1v1-1 1h1v-1 1-1Z" opacity=".2"/><path fill="#fff" d="M79 229v-1 1Zm1-1Zm-1 0Zm0 1Zm1-1Zm-1 2Zm1 0Zm0-1Zm-1 0Z"/><path fill="#b57ded" d="m83 262 1-1v-2h-1l-1 1 1 2Z"/><path fill="#fff" d="m83 262 1-1v-2h-1l-1 1 1 2Z" opacity=".4"/><path fill="#b57ded" d="m83 262 1-1h2-1l1 1-1 1-2-1Z"/><path fill="#fff" d="m83 262 1-1h2-1l1 1-1 1-2-1Z" opacity=".4"/><path fill="#b57ded" d="m82 262-1 1v1h2v-2h-1Z"/><path fill="#fff" d="m82 262-1 1v1h2v-2h-1Z" opacity=".4"/><path fill="#b57ded" d="M83 262a1 1 0 1 1-1-1 1 1 0 0 1 1 1Z"/><path fill="#fff" d="M83 262a1 1 0 1 1-1-1 1 1 0 0 1 1 1Z" opacity=".4"/><path fill="#b57ded" d="m83 262 2 1v1h-1v1l-1-1v-2Zm0-1-1-1-2 1 1 1h2v-1Z"/><path fill="#fff" d="m83 261-1-1-2 1 1 1h2v-1Zm0 1 2 1v1h-1v1l-1-1v-2Z" opacity=".4"/><path d="M83 262h1-1l1-1h-2l1 1h-1a1062 1062 0 0 0 1 0v1-1h1-1Z" opacity=".2"/><path fill="#fff" d="M83 261Zm0 0Zm-1 0Zm0 1Zm1-1Zm0 1Zm0 0Zm1 0Zm-1 0h-1 1Z"/><path d="M57 268c-1 6-4 5-5 9s3 9 6 12c2 3 14 0 14 0l7-6 11-1 14 2c5 1 3 4 11 10l12-3 15 3 18-2h10l8-11h15l13-7h16l9-10 5-9h3v-2l-15-21-4 7-6 5v11l-10 4-5 7-8 4-15-4-16 2-6 6-11-6-8 5-2 3h-12v-6l-13-4v7l-11 2-8-5h-9s-5 0-10-4l-4-8 1-3 3-7-8 7-3 4-2 9Z" opacity=".2"/><path fill="#fff" d="M136 206c-3 0-6 0-15 3l-14 8H81l-12 8c-2 1-1 4-1 10 1 4 3 6 5 8l1-3v-7l1-4 5-1h6s-1-2 1-4l7-2h4l5 1 5-2 10 1-1 3c5 2 7 0 7-2v-4l-1-3 3-3 3-1 5-1 4-1 6 2c7-4 11-1 11-1l5 3 5 1h4l7 1v-6l5-1 1-2-4-1c-2 0-5 3-6 6-1 4-16-1-16-1l-10-5h-10Z" opacity=".1"/><path fill="#b57ded" d="m73 247 3-3c1-2 0-4-1-5s-1 1-1 1l-1-1-2 2c-1 4 2 5 2 6Z"/><path fill="#fff" d="m73 247 3-3c1-2 0-4-1-5s-1 1-1 1l-1-1-2 2c-1 4 2 5 2 6Z" opacity=".4"/><path fill="#b57ded" d="m74 247 2-3c2-1 5 0 5 1l-1 1 1 1-2 2-5-2Z"/><path fill="#fff" d="m74 247 2-3c2-1 5 0 5 1l-1 1 1 1-2 2-5-2Z" opacity=".4"/><path fill="#b57ded" d="M72 247s-4 0-4 3v3h1l1 1 3-2v-5h-1Z"/><path fill="#fff" d="M72 247s-4 0-4 3v3h1l1 1 3-2v-5h-1Z" opacity=".4"/><path fill="#b57ded" d="M75 247a2 2 0 1 1-3-1 2 2 0 0 1 3 1Z"/><path fill="#fff" d="M75 247a2 2 0 1 1-3-1 2 2 0 0 1 3 1Z" opacity=".4"/><path fill="#b57ded" d="M74 247s4 1 5 4l-1 2-1 1-1 1-3-3v-5h1Zm-1-1-3-3c-1-1-4 0-4 1v1l-1 1 2 2c1 1 6-1 6-1v-1Z"/><path fill="#fff" d="m73 246-3-3c-1-1-4 0-4 1v1l-1 1 2 2c1 1 6-1 6-1v-1Zm1 1s4 1 5 4l-1 2-1 1-1 1-3-3v-5h1Z" opacity=".4"/><path d="M75 247h1-2a11873 11873 0 0 0 0-1l-1-1v1h-2l2 1h-2v1a8320 8320 0 0 1 2 0l1 1v-1l1 1v-2Z" opacity=".2"/><path fill="#fff" d="M73 246Zm2-1h-1 1Zm-3 0Zm0 2-1-1 1 1Zm2-2v-1 1Zm-1 4Zm2 0h-1 1Zm1-2h-1 1Zm-3 1h-1 1Z"/><path fill="#b57ded" d="m163 214 3-2c1-2 0-5-1-5l-1 1-1-1-2 2c-1 4 1 5 1 5h1Z"/><path fill="#fff" d="m163 214 3-2c1-2 0-5-1-5l-1 1-1-1-2 2c-1 4 1 5 1 5h1Z" opacity=".4"/><path fill="#b57ded" d="m163 214 3-2c2-1 4 0 5 1l-1 1 1 1-2 2-6-2v-1Z"/><path fill="#fff" d="m163 214 3-2c2-1 4 0 5 1l-1 1 1 1-2 2-6-2v-1Z" opacity=".4"/><path fill="#b57ded" d="M162 214s-4 1-5 3l1 3h1l1 1c1 0 2 0 3-2v-5h-1Z"/><path fill="#fff" d="M162 214s-4 1-5 3l1 3h1l1 1c1 0 2 0 3-2v-5h-1Z" opacity=".4"/><path fill="#b57ded" d="M165 215a2 2 0 1 1-3-1 2 2 0 0 1 3 1Z"/><path fill="#fff" d="M165 215a2 2 0 1 1-3-1 2 2 0 0 1 3 1Z" opacity=".4"/><path fill="#b57ded" d="M164 215s4 0 4 3v3h-1l-1 1-3-2v-5h1Zm-1-1-3-3c-2-1-4 0-4 1v1l-1 1 2 2 5-1 1-1Z"/><path fill="#fff" d="m163 214-3-3c-2-1-4 0-4 1v1l-1 1 2 2 5-1 1-1Zm1 1s4 0 4 3v3h-1l-1 1-3-2v-5h1Z" opacity=".4"/><path d="M164 215h2-2l2-1v-1h-1l-2 1v-2 2l-2-1v1h1l-1 1c-1 0-1 0 0 0h1l-1 1h1l1-1v2l1-1v-1l1 1c0 1 0 0 0 0l-1-1Z" opacity=".2"/><path fill="#fff" d="M163 213h-1 1Zm2 0h-1 1Zm-3 0h-1 1Zm-1 1Zm3-2Zm-1 5h-1 1Zm1-1Zm1-2Zm-3 2Z"/></svg>